<?xml version="1.0" encoding="UTF-8" standalone="no"?><!DOCTYPE svg PUBLIC "-//W3C//DTD SVG 1.1//EN" "http://www.w3.org/Graphics/SVG/1.1/DTD/svg11.dtd"><!-- Generated by graphviz version 2.40.1 (20161225.0304)
 --><!-- Title: CustomerJourneyMapAutor Pages: 1 --><svg xmlns="http://www.w3.org/2000/svg" xmlns:xlink="http://www.w3.org/1999/xlink" width="913pt" height="317pt" viewBox="0.00 0.00 913.46 317.00">
<g id="graph0" class="graph" transform="scale(1 1) rotate(0) translate(4 313)">
<title>CustomerJourneyMapAutor</title>
<polygon fill="#ffffff" stroke="transparent" points="-4,4 -4,-313 909.4612,-313 909.4612,4 -4,4"/>
<g id="clust1" class="cluster">
<title>cluster_phases</title>
<polygon fill="none" stroke="#000000" stroke-dasharray="1,5" points="8,-8 8,-301 123.3376,-301 123.3376,-8 8,-8"/>
<text text-anchor="middle" x="65.6688" y="-284.4" font-family="Times,serif" font-size="14.00" fill="#000000">Fases del Journey</text>
</g>
<g id="clust2" class="cluster">
<title>cluster_actions</title>
<polygon fill="none" stroke="#000000" points="143.3376,-8 143.3376,-301 373.3868,-301 373.3868,-8 143.3376,-8"/>
<text text-anchor="middle" x="258.3622" y="-284.4" font-family="Times,serif" font-size="14.00" fill="#000000">Acciones del Usuario</text>
</g>
<g id="clust3" class="cluster">
<title>cluster_challenges</title>
<polygon fill="none" stroke="#000000" stroke-dasharray="5,2" points="393.3868,-8 393.3868,-301 679.4256,-301 679.4256,-8 393.3868,-8"/>
<text text-anchor="middle" x="536.4062" y="-284.4" font-family="Times,serif" font-size="14.00" fill="#000000">Desafíos</text>
</g>
<g id="clust4" class="cluster">
<title>cluster_solutions</title>
<polygon fill="#d3d3d3" stroke="#d3d3d3" points="699.4256,-8 699.4256,-301 897.4612,-301 897.4612,-8 699.4256,-8"/>
<text text-anchor="middle" x="798.4434" y="-284.4" font-family="Times,serif" font-size="14.00" fill="#000000">Soluciones Propuestas</text>
</g>
<!-- phase1 -->
<g id="node1" class="node">
<title>phase1</title>
<path fill="none" stroke="#000000" d="M103.507,-268C103.507,-268 27.8306,-268 27.8306,-268 21.8306,-268 15.8306,-262 15.8306,-256 15.8306,-256 15.8306,-244 15.8306,-244 15.8306,-238 21.8306,-232 27.8306,-232 27.8306,-232 103.507,-232 103.507,-232 109.507,-232 115.507,-238 115.507,-244 115.507,-244 115.507,-256 115.507,-256 115.507,-262 109.507,-268 103.507,-268"/>
<text text-anchor="middle" x="65.6688" y="-246.4" font-family="Arial" font-size="12.00" fill="#000000">Descubrimiento</text>
</g>
<!-- action1 -->
<g id="node6" class="node">
<title>action1</title>
<path fill="none" stroke="#000000" d="M353.4114,-268C353.4114,-268 163.313,-268 163.313,-268 157.313,-268 151.313,-262 151.313,-256 151.313,-256 151.313,-244 151.313,-244 151.313,-238 157.313,-232 163.313,-232 163.313,-232 353.4114,-232 353.4114,-232 359.4114,-232 365.4114,-238 365.4114,-244 365.4114,-244 365.4114,-256 365.4114,-256 365.4114,-262 359.4114,-268 353.4114,-268"/>
<text text-anchor="middle" x="258.3622" y="-246.4" font-family="Arial" font-size="12.00" fill="#000000">Busca dónde postular su manuscrito</text>
</g>
<!-- phase1&#45;&gt;action1 -->
<g id="edge1" class="edge">
<title>phase1-&gt;action1</title>
<path fill="none" stroke="#000000" d="M115.5427,-250C123.5638,-250 132.1499,-250 140.984,-250"/>
<polygon fill="#000000" stroke="#000000" points="141.0465,-253.5001 151.0465,-250 141.0465,-246.5001 141.0465,-253.5001"/>
</g>
<!-- phase2 -->
<g id="node2" class="node">
<title>phase2</title>
<path fill="none" stroke="#000000" d="M92.8467,-214C92.8467,-214 38.4909,-214 38.4909,-214 32.4909,-214 26.4909,-208 26.4909,-202 26.4909,-202 26.4909,-190 26.4909,-190 26.4909,-184 32.4909,-178 38.4909,-178 38.4909,-178 92.8467,-178 92.8467,-178 98.8467,-178 104.8467,-184 104.8467,-190 104.8467,-190 104.8467,-202 104.8467,-202 104.8467,-208 98.8467,-214 92.8467,-214"/>
<text text-anchor="middle" x="65.6688" y="-192.4" font-family="Arial" font-size="12.00" fill="#000000">Evaluación</text>
</g>
<!-- action2 -->
<g id="node7" class="node">
<title>action2</title>
<path fill="none" stroke="#000000" d="M330.5481,-214C330.5481,-214 186.1763,-214 186.1763,-214 180.1763,-214 174.1763,-208 174.1763,-202 174.1763,-202 174.1763,-190 174.1763,-190 174.1763,-184 180.1763,-178 186.1763,-178 186.1763,-178 330.5481,-178 330.5481,-178 336.5481,-178 342.5481,-184 342.5481,-190 342.5481,-190 342.5481,-202 342.5481,-202 342.5481,-208 336.5481,-214 330.5481,-214"/>
<text text-anchor="middle" x="258.3622" y="-192.4" font-family="Arial" font-size="12.00" fill="#000000">Revisa requisitos de revistas</text>
</g>
<!-- phase2&#45;&gt;action2 -->
<g id="edge4" class="edge">
<title>phase2-&gt;action2</title>
<path fill="none" stroke="#000000" d="M105.1282,-196C122.255,-196 143.1184,-196 163.8672,-196"/>
<polygon fill="#000000" stroke="#000000" points="164.027,-199.5001 174.0269,-196 164.0269,-192.5001 164.027,-199.5001"/>
</g>
<!-- phase3 -->
<g id="node3" class="node">
<title>phase3</title>
<path fill="none" stroke="#000000" d="M86.6644,-160C86.6644,-160 44.6732,-160 44.6732,-160 38.6732,-160 32.6732,-154 32.6732,-148 32.6732,-148 32.6732,-136 32.6732,-136 32.6732,-130 38.6732,-124 44.6732,-124 44.6732,-124 86.6644,-124 86.6644,-124 92.6644,-124 98.6644,-130 98.6644,-136 98.6644,-136 98.6644,-148 98.6644,-148 98.6644,-154 92.6644,-160 86.6644,-160"/>
<text text-anchor="middle" x="65.6688" y="-138.4" font-family="Arial" font-size="12.00" fill="#000000">Decisión</text>
</g>
<!-- action3 -->
<g id="node8" class="node">
<title>action3</title>
<path fill="none" stroke="#000000" d="M331.5593,-160C331.5593,-160 185.1651,-160 185.1651,-160 179.1651,-160 173.1651,-154 173.1651,-148 173.1651,-148 173.1651,-136 173.1651,-136 173.1651,-130 179.1651,-124 185.1651,-124 185.1651,-124 331.5593,-124 331.5593,-124 337.5593,-124 343.5593,-130 343.5593,-136 343.5593,-136 343.5593,-148 343.5593,-148 343.5593,-154 337.5593,-160 331.5593,-160"/>
<text text-anchor="middle" x="258.3622" y="-138.4" font-family="Arial" font-size="12.00" fill="#000000">Registra un perfil en JoUdeG</text>
</g>
<!-- phase3&#45;&gt;action3 -->
<g id="edge7" class="edge">
<title>phase3-&gt;action3</title>
<path fill="none" stroke="#000000" d="M98.794,-142C116.6972,-142 139.815,-142 162.8676,-142"/>
<polygon fill="#000000" stroke="#000000" points="163.0804,-145.5001 173.0804,-142 163.0804,-138.5001 163.0804,-145.5001"/>
</g>
<!-- phase4 -->
<g id="node4" class="node">
<title>phase4</title>
<path fill="none" stroke="#000000" d="M80.6688,-106C80.6688,-106 50.6688,-106 50.6688,-106 44.6688,-106 38.6688,-100 38.6688,-94 38.6688,-94 38.6688,-82 38.6688,-82 38.6688,-76 44.6688,-70 50.6688,-70 50.6688,-70 80.6688,-70 80.6688,-70 86.6688,-70 92.6688,-76 92.6688,-82 92.6688,-82 92.6688,-94 92.6688,-94 92.6688,-100 86.6688,-106 80.6688,-106"/>
<text text-anchor="middle" x="65.6688" y="-84.4" font-family="Arial" font-size="12.00" fill="#000000">Uso</text>
</g>
<!-- action4 -->
<g id="node9" class="node">
<title>action4</title>
<path fill="none" stroke="#000000" d="M313.3858,-106C313.3858,-106 203.3386,-106 203.3386,-106 197.3386,-106 191.3386,-100 191.3386,-94 191.3386,-94 191.3386,-82 191.3386,-82 191.3386,-76 197.3386,-70 203.3386,-70 203.3386,-70 313.3858,-70 313.3858,-70 319.3858,-70 325.3858,-76 325.3858,-82 325.3858,-82 325.3858,-94 325.3858,-94 325.3858,-100 319.3858,-106 313.3858,-106"/>
<text text-anchor="middle" x="258.3622" y="-84.4" font-family="Arial" font-size="12.00" fill="#000000">Postula su manuscrito</text>
</g>
<!-- phase4&#45;&gt;action4 -->
<g id="edge10" class="edge">
<title>phase4-&gt;action4</title>
<path fill="none" stroke="#000000" d="M92.8684,-88C115.8031,-88 149.7865,-88 181.0014,-88"/>
<polygon fill="#000000" stroke="#000000" points="181.0213,-91.5001 191.0213,-88 181.0213,-84.5001 181.0213,-91.5001"/>
</g>
<!-- phase5 -->
<g id="node5" class="node">
<title>phase5</title>
<path fill="none" stroke="#000000" d="M81.5215,-52C81.5215,-52 49.8161,-52 49.8161,-52 43.8161,-52 37.8161,-46 37.8161,-40 37.8161,-40 37.8161,-28 37.8161,-28 37.8161,-22 43.8161,-16 49.8161,-16 49.8161,-16 81.5215,-16 81.5215,-16 87.5215,-16 93.5215,-22 93.5215,-28 93.5215,-28 93.5215,-40 93.5215,-40 93.5215,-46 87.5215,-52 81.5215,-52"/>
<text text-anchor="middle" x="65.6688" y="-30.4" font-family="Arial" font-size="12.00" fill="#000000">Lealtad</text>
</g>
<!-- action5 -->
<g id="node10" class="node">
<title>action5</title>
<path fill="none" stroke="#000000" d="M322.5389,-52C322.5389,-52 194.1855,-52 194.1855,-52 188.1855,-52 182.1855,-46 182.1855,-40 182.1855,-40 182.1855,-28 182.1855,-28 182.1855,-22 188.1855,-16 194.1855,-16 194.1855,-16 322.5389,-16 322.5389,-16 328.5389,-16 334.5389,-22 334.5389,-28 334.5389,-28 334.5389,-40 334.5389,-40 334.5389,-46 328.5389,-52 322.5389,-52"/>
<text text-anchor="middle" x="258.3622" y="-30.4" font-family="Arial" font-size="12.00" fill="#000000">Recibe retroalimentación</text>
</g>
<!-- phase5&#45;&gt;action5 -->
<g id="edge13" class="edge">
<title>phase5-&gt;action5</title>
<path fill="none" stroke="#000000" d="M93.6881,-34C114.3261,-34 143.582,-34 171.722,-34"/>
<polygon fill="#000000" stroke="#000000" points="172.0209,-37.5001 182.0209,-34 172.0209,-30.5001 172.0209,-37.5001"/>
</g>
<!-- pain1 -->
<g id="node11" class="node">
<title>pain1</title>
<path fill="none" stroke="#000000" d="M659.445,-268C659.445,-268 413.3674,-268 413.3674,-268 407.3674,-268 401.3674,-262 401.3674,-256 401.3674,-256 401.3674,-244 401.3674,-244 401.3674,-238 407.3674,-232 413.3674,-232 413.3674,-232 659.445,-232 659.445,-232 665.445,-232 671.445,-238 671.445,-244 671.445,-244 671.445,-256 671.445,-256 671.445,-262 665.445,-268 659.445,-268"/>
<text text-anchor="middle" x="536.4062" y="-246.4" font-family="Arial" font-size="12.00" fill="#000000">Falta de información sobre revistas disponibles</text>
</g>
<!-- action1&#45;&gt;pain1 -->
<g id="edge2" class="edge">
<title>action1-&gt;pain1</title>
<path fill="none" stroke="#000000" d="M365.4636,-250C373.8201,-250 382.3394,-250 390.8914,-250"/>
<polygon fill="#000000" stroke="#000000" points="390.9381,-253.5001 400.9381,-250 390.9381,-246.5001 390.9381,-253.5001"/>
</g>
<!-- pain2 -->
<g id="node12" class="node">
<title>pain2</title>
<path fill="none" stroke="#000000" d="M623.4438,-214C623.4438,-214 449.3686,-214 449.3686,-214 443.3686,-214 437.3686,-208 437.3686,-202 437.3686,-202 437.3686,-190 437.3686,-190 437.3686,-184 443.3686,-178 449.3686,-178 449.3686,-178 623.4438,-178 623.4438,-178 629.4438,-178 635.4438,-184 635.4438,-190 635.4438,-190 635.4438,-202 635.4438,-202 635.4438,-208 629.4438,-214 623.4438,-214"/>
<text text-anchor="middle" x="536.4062" y="-192.4" font-family="Arial" font-size="12.00" fill="#000000">Dificultad para entender requisitos</text>
</g>
<!-- action2&#45;&gt;pain2 -->
<g id="edge5" class="edge">
<title>action2-&gt;pain2</title>
<path fill="none" stroke="#000000" d="M342.917,-196C369.3839,-196 398.9792,-196 426.9079,-196"/>
<polygon fill="#000000" stroke="#000000" points="427.1132,-199.5001 437.1131,-196 427.1131,-192.5001 427.1132,-199.5001"/>
</g>
<!-- pain3 -->
<g id="node13" class="node">
<title>pain3</title>
<path fill="none" stroke="#000000" d="M636.2869,-160C636.2869,-160 436.5255,-160 436.5255,-160 430.5255,-160 424.5255,-154 424.5255,-148 424.5255,-148 424.5255,-136 424.5255,-136 424.5255,-130 430.5255,-124 436.5255,-124 436.5255,-124 636.2869,-124 636.2869,-124 642.2869,-124 648.2869,-130 648.2869,-136 648.2869,-136 648.2869,-148 648.2869,-148 648.2869,-154 642.2869,-160 636.2869,-160"/>
<text text-anchor="middle" x="536.4062" y="-138.4" font-family="Arial" font-size="12.00" fill="#000000">Proceso de registro lento o complicado</text>
</g>
<!-- action3&#45;&gt;pain3 -->
<g id="edge8" class="edge">
<title>action3-&gt;pain3</title>
<path fill="none" stroke="#000000" d="M343.6741,-142C366.0228,-142 390.5597,-142 414.4173,-142"/>
<polygon fill="#000000" stroke="#000000" points="414.592,-145.5001 424.592,-142 414.592,-138.5001 414.592,-145.5001"/>
</g>
<!-- pain4 -->
<g id="node14" class="node">
<title>pain4</title>
<path fill="none" stroke="#000000" d="M626.2613,-106C626.2613,-106 446.5511,-106 446.5511,-106 440.5511,-106 434.5511,-100 434.5511,-94 434.5511,-94 434.5511,-82 434.5511,-82 434.5511,-76 440.5511,-70 446.5511,-70 446.5511,-70 626.2613,-70 626.2613,-70 632.2613,-70 638.2613,-76 638.2613,-82 638.2613,-82 638.2613,-94 638.2613,-94 638.2613,-100 632.2613,-106 626.2613,-106"/>
<text text-anchor="middle" x="536.4062" y="-84.4" font-family="Arial" font-size="12.00" fill="#000000">Errores en el envío del manuscrito</text>
</g>
<!-- action4&#45;&gt;pain4 -->
<g id="edge11" class="edge">
<title>action4-&gt;pain4</title>
<path fill="none" stroke="#000000" d="M325.6689,-88C355.3089,-88 390.9381,-88 424.3962,-88"/>
<polygon fill="#000000" stroke="#000000" points="424.7011,-91.5001 434.7011,-88 424.701,-84.5001 424.7011,-91.5001"/>
</g>
<!-- pain5 -->
<g id="node15" class="node">
<title>pain5</title>
<path fill="none" stroke="#000000" d="M621.4274,-52C621.4274,-52 451.385,-52 451.385,-52 445.385,-52 439.385,-46 439.385,-40 439.385,-40 439.385,-28 439.385,-28 439.385,-22 445.385,-16 451.385,-16 451.385,-16 621.4274,-16 621.4274,-16 627.4274,-16 633.4274,-22 633.4274,-28 633.4274,-28 633.4274,-40 633.4274,-40 633.4274,-46 627.4274,-52 621.4274,-52"/>
<text text-anchor="middle" x="536.4062" y="-30.4" font-family="Arial" font-size="12.00" fill="#000000">Comunicación tardía o ambigua</text>
</g>
<!-- action5&#45;&gt;pain5 -->
<g id="edge14" class="edge">
<title>action5-&gt;pain5</title>
<path fill="none" stroke="#000000" d="M334.7067,-34C363.865,-34 397.6757,-34 429.1837,-34"/>
<polygon fill="#000000" stroke="#000000" points="429.3239,-37.5001 439.3238,-34 429.3238,-30.5001 429.3239,-37.5001"/>
</g>
<!-- solution1 -->
<g id="node16" class="node">
<title>solution1</title>
<path fill="none" stroke="#000000" d="M863.453,-268C863.453,-268 733.4338,-268 733.4338,-268 727.4338,-268 721.4338,-262 721.4338,-256 721.4338,-256 721.4338,-244 721.4338,-244 721.4338,-238 727.4338,-232 733.4338,-232 733.4338,-232 863.453,-232 863.453,-232 869.453,-232 875.453,-238 875.453,-244 875.453,-244 875.453,-256 875.453,-256 875.453,-262 869.453,-268 863.453,-268"/>
<text text-anchor="middle" x="798.4434" y="-246.4" font-family="Arial" font-size="12.00" fill="#000000">Sección informativa clara</text>
</g>
<!-- pain1&#45;&gt;solution1 -->
<g id="edge3" class="edge">
<title>pain1-&gt;solution1</title>
<path fill="none" stroke="#000000" d="M671.6464,-250C685.0756,-250 698.4457,-250 711.1913,-250"/>
<polygon fill="#000000" stroke="#000000" points="711.2685,-253.5001 721.2685,-250 711.2684,-246.5001 711.2685,-253.5001"/>
</g>
<!-- solution2 -->
<g id="node17" class="node">
<title>solution2</title>
<path fill="none" stroke="#000000" d="M877.479,-214C877.479,-214 719.4078,-214 719.4078,-214 713.4078,-214 707.4078,-208 707.4078,-202 707.4078,-202 707.4078,-190 707.4078,-190 707.4078,-184 713.4078,-178 719.4078,-178 719.4078,-178 877.479,-178 877.479,-178 883.479,-178 889.479,-184 889.479,-190 889.479,-190 889.479,-202 889.479,-202 889.479,-208 883.479,-214 877.479,-214"/>
<text text-anchor="middle" x="798.4434" y="-192.4" font-family="Arial" font-size="12.00" fill="#000000">Guías detalladas de requisitos</text>
</g>
<!-- pain2&#45;&gt;solution2 -->
<g id="edge6" class="edge">
<title>pain2-&gt;solution2</title>
<path fill="none" stroke="#000000" d="M635.4712,-196C655.5565,-196 676.7088,-196 696.879,-196"/>
<polygon fill="#000000" stroke="#000000" points="697.0082,-199.5001 707.0082,-196 697.0082,-192.5001 697.0082,-199.5001"/>
</g>
<!-- solution3 -->
<g id="node18" class="node">
<title>solution3</title>
<path fill="none" stroke="#000000" d="M849.6102,-160C849.6102,-160 747.2766,-160 747.2766,-160 741.2766,-160 735.2766,-154 735.2766,-148 735.2766,-148 735.2766,-136 735.2766,-136 735.2766,-130 741.2766,-124 747.2766,-124 747.2766,-124 849.6102,-124 849.6102,-124 855.6102,-124 861.6102,-130 861.6102,-136 861.6102,-136 861.6102,-148 861.6102,-148 861.6102,-154 855.6102,-160 849.6102,-160"/>
<text text-anchor="middle" x="798.4434" y="-138.4" font-family="Arial" font-size="12.00" fill="#000000">Registro simplificado</text>
</g>
<!-- pain3&#45;&gt;solution3 -->
<g id="edge9" class="edge">
<title>pain3-&gt;solution3</title>
<path fill="none" stroke="#000000" d="M648.2936,-142C674.1033,-142 700.9252,-142 724.6362,-142"/>
<polygon fill="#000000" stroke="#000000" points="724.9449,-145.5001 734.9449,-142 724.9449,-138.5001 724.9449,-145.5001"/>
</g>
<!-- solution4 -->
<g id="node19" class="node">
<title>solution4</title>
<path fill="none" stroke="#000000" d="M867.2938,-106C867.2938,-106 729.593,-106 729.593,-106 723.593,-106 717.593,-100 717.593,-94 717.593,-94 717.593,-82 717.593,-82 717.593,-76 723.593,-70 729.593,-70 729.593,-70 867.2938,-70 867.2938,-70 873.2938,-70 879.2938,-76 879.2938,-82 879.2938,-82 879.2938,-94 879.2938,-94 879.2938,-100 873.2938,-106 867.2938,-106"/>
<text text-anchor="middle" x="798.4434" y="-84.4" font-family="Arial" font-size="12.00" fill="#000000">Validación previa al envío</text>
</g>
<!-- pain4&#45;&gt;solution4 -->
<g id="edge12" class="edge">
<title>pain4-&gt;solution4</title>
<path fill="none" stroke="#000000" d="M638.0917,-88C660.9217,-88 685.0044,-88 707.3698,-88"/>
<polygon fill="#000000" stroke="#000000" points="707.5144,-91.5001 717.5143,-88 707.5143,-84.5001 707.5144,-91.5001"/>
</g>
<!-- solution5 -->
<g id="node20" class="node">
<title>solution5</title>
<path fill="none" stroke="#000000" d="M866.453,-52C866.453,-52 730.4338,-52 730.4338,-52 724.4338,-52 718.4338,-46 718.4338,-40 718.4338,-40 718.4338,-28 718.4338,-28 718.4338,-22 724.4338,-16 730.4338,-16 730.4338,-16 866.453,-16 866.453,-16 872.453,-16 878.453,-22 878.453,-28 878.453,-28 878.453,-40 878.453,-40 878.453,-46 872.453,-52 866.453,-52"/>
<text text-anchor="middle" x="798.4434" y="-30.4" font-family="Arial" font-size="12.00" fill="#000000">Notificaciones automáticas</text>
</g>
<!-- pain5&#45;&gt;solution5 -->
<g id="edge15" class="edge">
<title>pain5-&gt;solution5</title>
<path fill="none" stroke="#000000" d="M633.6068,-34C657.9487,-34 683.9623,-34 707.9627,-34"/>
<polygon fill="#000000" stroke="#000000" points="708.1147,-37.5001 718.1147,-34 708.1146,-30.5001 708.1147,-37.5001"/>
</g>
</g>
</svg>