<?xml version="1.0" encoding="UTF-8" standalone="no"?><!DOCTYPE svg PUBLIC "-//W3C//DTD SVG 1.1//EN" "http://www.w3.org/Graphics/SVG/1.1/DTD/svg11.dtd"><!-- Generated by graphviz version 2.40.1 (20161225.0304)
 --><!-- Title: CustomerJourneyMapEditorial Pages: 1 --><svg xmlns="http://www.w3.org/2000/svg" xmlns:xlink="http://www.w3.org/1999/xlink" width="1090pt" height="317pt" viewBox="0.00 0.00 1089.52 317.00">
<g id="graph0" class="graph" transform="scale(1 1) rotate(0) translate(4 313)">
<title>CustomerJourneyMapEditorial</title>
<polygon fill="#ffffff" stroke="transparent" points="-4,4 -4,-313 1085.524,-313 1085.524,4 -4,4"/>
<g id="clust1" class="cluster">
<title>cluster_phases</title>
<polygon fill="none" stroke="#000000" stroke-dasharray="1,5" points="8,-8 8,-301 123.3376,-301 123.3376,-8 8,-8"/>
<text text-anchor="middle" x="65.6688" y="-284.4" font-family="Times,serif" font-size="14.00" fill="#000000">Fases del Journey</text>
</g>
<g id="clust2" class="cluster">
<title>cluster_actions</title>
<polygon fill="none" stroke="#000000" points="143.3376,-8 143.3376,-301 425.4056,-301 425.4056,-8 143.3376,-8"/>
<text text-anchor="middle" x="284.3716" y="-284.4" font-family="Times,serif" font-size="14.00" fill="#000000">Acciones del Usuario</text>
</g>
<g id="clust3" class="cluster">
<title>cluster_challenges</title>
<polygon fill="none" stroke="#000000" stroke-dasharray="5,2" points="445.4056,-8 445.4056,-301 756.1224,-301 756.1224,-8 445.4056,-8"/>
<text text-anchor="middle" x="600.764" y="-284.4" font-family="Times,serif" font-size="14.00" fill="#000000">Desafíos</text>
</g>
<g id="clust4" class="cluster">
<title>cluster_solutions</title>
<polygon fill="#d3d3d3" stroke="#d3d3d3" points="776.1224,-8 776.1224,-301 1073.524,-301 1073.524,-8 776.1224,-8"/>
<text text-anchor="middle" x="924.8232" y="-284.4" font-family="Times,serif" font-size="14.00" fill="#000000">Soluciones Propuestas</text>
</g>
<!-- phase1 -->
<g id="node1" class="node">
<title>phase1</title>
<path fill="none" stroke="#000000" d="M103.507,-268C103.507,-268 27.8306,-268 27.8306,-268 21.8306,-268 15.8306,-262 15.8306,-256 15.8306,-256 15.8306,-244 15.8306,-244 15.8306,-238 21.8306,-232 27.8306,-232 27.8306,-232 103.507,-232 103.507,-232 109.507,-232 115.507,-238 115.507,-244 115.507,-244 115.507,-256 115.507,-256 115.507,-262 109.507,-268 103.507,-268"/>
<text text-anchor="middle" x="65.6688" y="-246.4" font-family="Arial" font-size="12.00" fill="#000000">Descubrimiento</text>
</g>
<!-- action1 -->
<g id="node6" class="node">
<title>action1</title>
<path fill="none" stroke="#000000" d="M405.4396,-268C405.4396,-268 163.3036,-268 163.3036,-268 157.3036,-268 151.3036,-262 151.3036,-256 151.3036,-256 151.3036,-244 151.3036,-244 151.3036,-238 157.3036,-232 163.3036,-232 163.3036,-232 405.4396,-232 405.4396,-232 411.4396,-232 417.4396,-238 417.4396,-244 417.4396,-244 417.4396,-256 417.4396,-256 417.4396,-262 411.4396,-268 405.4396,-268"/>
<text text-anchor="middle" x="284.3716" y="-246.4" font-family="Arial" font-size="12.00" fill="#000000">Identifica necesidad de asignar dictaminadores</text>
</g>
<!-- phase1&#45;&gt;action1 -->
<g id="edge1" class="edge">
<title>phase1-&gt;action1</title>
<path fill="none" stroke="#000000" d="M115.5695,-250C123.5385,-250 132.1127,-250 141.0213,-250"/>
<polygon fill="#000000" stroke="#000000" points="141.2069,-253.5001 151.2069,-250 141.2069,-246.5001 141.2069,-253.5001"/>
</g>
<!-- phase2 -->
<g id="node2" class="node">
<title>phase2</title>
<path fill="none" stroke="#000000" d="M92.8467,-214C92.8467,-214 38.4909,-214 38.4909,-214 32.4909,-214 26.4909,-208 26.4909,-202 26.4909,-202 26.4909,-190 26.4909,-190 26.4909,-184 32.4909,-178 38.4909,-178 38.4909,-178 92.8467,-178 92.8467,-178 98.8467,-178 104.8467,-184 104.8467,-190 104.8467,-190 104.8467,-202 104.8467,-202 104.8467,-208 98.8467,-214 92.8467,-214"/>
<text text-anchor="middle" x="65.6688" y="-192.4" font-family="Arial" font-size="12.00" fill="#000000">Evaluación</text>
</g>
<!-- action2 -->
<g id="node7" class="node">
<title>action2</title>
<path fill="none" stroke="#000000" d="M363.5722,-214C363.5722,-214 205.171,-214 205.171,-214 199.171,-214 193.171,-208 193.171,-202 193.171,-202 193.171,-190 193.171,-190 193.171,-184 199.171,-178 205.171,-178 205.171,-178 363.5722,-178 363.5722,-178 369.5722,-178 375.5722,-184 375.5722,-190 375.5722,-190 375.5722,-202 375.5722,-202 375.5722,-208 369.5722,-214 363.5722,-214"/>
<text text-anchor="middle" x="284.3716" y="-192.4" font-family="Arial" font-size="12.00" fill="#000000">Revisa manuscritos pendientes</text>
</g>
<!-- phase2&#45;&gt;action2 -->
<g id="edge4" class="edge">
<title>phase2-&gt;action2</title>
<path fill="none" stroke="#000000" d="M105.0211,-196C126.9269,-196 155.2983,-196 182.9851,-196"/>
<polygon fill="#000000" stroke="#000000" points="183.1414,-199.5001 193.1413,-196 183.1413,-192.5001 183.1414,-199.5001"/>
</g>
<!-- phase3 -->
<g id="node3" class="node">
<title>phase3</title>
<path fill="none" stroke="#000000" d="M86.6644,-160C86.6644,-160 44.6732,-160 44.6732,-160 38.6732,-160 32.6732,-154 32.6732,-148 32.6732,-148 32.6732,-136 32.6732,-136 32.6732,-130 38.6732,-124 44.6732,-124 44.6732,-124 86.6644,-124 86.6644,-124 92.6644,-124 98.6644,-130 98.6644,-136 98.6644,-136 98.6644,-148 98.6644,-148 98.6644,-154 92.6644,-160 86.6644,-160"/>
<text text-anchor="middle" x="65.6688" y="-138.4" font-family="Arial" font-size="12.00" fill="#000000">Decisión</text>
</g>
<!-- action3 -->
<g id="node8" class="node">
<title>action3</title>
<path fill="none" stroke="#000000" d="M389.2483,-160C389.2483,-160 179.4949,-160 179.4949,-160 173.4949,-160 167.4949,-154 167.4949,-148 167.4949,-148 167.4949,-136 167.4949,-136 167.4949,-130 173.4949,-124 179.4949,-124 179.4949,-124 389.2483,-124 389.2483,-124 395.2483,-124 401.2483,-130 401.2483,-136 401.2483,-136 401.2483,-148 401.2483,-148 401.2483,-154 395.2483,-160 389.2483,-160"/>
<text text-anchor="middle" x="284.3716" y="-138.4" font-family="Arial" font-size="12.00" fill="#000000">Selecciona dictaminadores en el sistema</text>
</g>
<!-- phase3&#45;&gt;action3 -->
<g id="edge7" class="edge">
<title>phase3-&gt;action3</title>
<path fill="none" stroke="#000000" d="M98.885,-142C115.1541,-142 135.8867,-142 157.5585,-142"/>
<polygon fill="#000000" stroke="#000000" points="157.5694,-145.5001 167.5693,-142 157.5693,-138.5001 157.5694,-145.5001"/>
</g>
<!-- phase4 -->
<g id="node4" class="node">
<title>phase4</title>
<path fill="none" stroke="#000000" d="M80.6688,-106C80.6688,-106 50.6688,-106 50.6688,-106 44.6688,-106 38.6688,-100 38.6688,-94 38.6688,-94 38.6688,-82 38.6688,-82 38.6688,-76 44.6688,-70 50.6688,-70 50.6688,-70 80.6688,-70 80.6688,-70 86.6688,-70 92.6688,-76 92.6688,-82 92.6688,-82 92.6688,-94 92.6688,-94 92.6688,-100 86.6688,-106 80.6688,-106"/>
<text text-anchor="middle" x="65.6688" y="-84.4" font-family="Arial" font-size="12.00" fill="#000000">Uso</text>
</g>
<!-- action4 -->
<g id="node9" class="node">
<title>action4</title>
<path fill="none" stroke="#000000" d="M380.2363,-106C380.2363,-106 188.5069,-106 188.5069,-106 182.5069,-106 176.5069,-100 176.5069,-94 176.5069,-94 176.5069,-82 176.5069,-82 176.5069,-76 182.5069,-70 188.5069,-70 188.5069,-70 380.2363,-70 380.2363,-70 386.2363,-70 392.2363,-76 392.2363,-82 392.2363,-82 392.2363,-94 392.2363,-94 392.2363,-100 386.2363,-106 380.2363,-106"/>
<text text-anchor="middle" x="284.3716" y="-84.4" font-family="Arial" font-size="12.00" fill="#000000">Monitorea el progreso de dictámenes</text>
</g>
<!-- phase4&#45;&gt;action4 -->
<g id="edge10" class="edge">
<title>phase4-&gt;action4</title>
<path fill="none" stroke="#000000" d="M92.9255,-88C111.8941,-88 138.6294,-88 166.1199,-88"/>
<polygon fill="#000000" stroke="#000000" points="166.2691,-91.5001 176.2691,-88 166.2691,-84.5001 166.2691,-91.5001"/>
</g>
<!-- phase5 -->
<g id="node5" class="node">
<title>phase5</title>
<path fill="none" stroke="#000000" d="M81.5215,-52C81.5215,-52 49.8161,-52 49.8161,-52 43.8161,-52 37.8161,-46 37.8161,-40 37.8161,-40 37.8161,-28 37.8161,-28 37.8161,-22 43.8161,-16 49.8161,-16 49.8161,-16 81.5215,-16 81.5215,-16 87.5215,-16 93.5215,-22 93.5215,-28 93.5215,-28 93.5215,-40 93.5215,-40 93.5215,-46 87.5215,-52 81.5215,-52"/>
<text text-anchor="middle" x="65.6688" y="-30.4" font-family="Arial" font-size="12.00" fill="#000000">Lealtad</text>
</g>
<!-- action5 -->
<g id="node10" class="node">
<title>action5</title>
<path fill="none" stroke="#000000" d="M377.396,-52C377.396,-52 191.3472,-52 191.3472,-52 185.3472,-52 179.3472,-46 179.3472,-40 179.3472,-40 179.3472,-28 179.3472,-28 179.3472,-22 185.3472,-16 191.3472,-16 191.3472,-16 377.396,-16 377.396,-16 383.396,-16 389.396,-22 389.396,-28 389.396,-28 389.396,-40 389.396,-40 389.396,-46 383.396,-52 377.396,-52"/>
<text text-anchor="middle" x="284.3716" y="-30.4" font-family="Arial" font-size="12.00" fill="#000000">Evalúa el proceso editorial completo</text>
</g>
<!-- phase5&#45;&gt;action5 -->
<g id="edge13" class="edge">
<title>phase5-&gt;action5</title>
<path fill="none" stroke="#000000" d="M93.3677,-34C113.006,-34 140.8072,-34 169.1366,-34"/>
<polygon fill="#000000" stroke="#000000" points="169.1666,-37.5001 179.1665,-34 169.1665,-30.5001 169.1666,-37.5001"/>
</g>
<!-- pain1 -->
<g id="node11" class="node">
<title>pain1</title>
<path fill="none" stroke="#000000" d="M694.9718,-268C694.9718,-268 506.5562,-268 506.5562,-268 500.5562,-268 494.5562,-262 494.5562,-256 494.5562,-256 494.5562,-244 494.5562,-244 494.5562,-238 500.5562,-232 506.5562,-232 506.5562,-232 694.9718,-232 694.9718,-232 700.9718,-232 706.9718,-238 706.9718,-244 706.9718,-244 706.9718,-256 706.9718,-256 706.9718,-262 700.9718,-268 694.9718,-268"/>
<text text-anchor="middle" x="600.764" y="-246.4" font-family="Arial" font-size="12.00" fill="#000000">Demasiados manuscritos pendientes</text>
</g>
<!-- action1&#45;&gt;pain1 -->
<g id="edge2" class="edge">
<title>action1-&gt;pain1</title>
<path fill="none" stroke="#000000" d="M417.6335,-250C439.794,-250 462.6242,-250 484.3252,-250"/>
<polygon fill="#000000" stroke="#000000" points="484.5435,-253.5001 494.5435,-250 484.5435,-246.5001 484.5435,-253.5001"/>
</g>
<!-- pain2 -->
<g id="node12" class="node">
<title>pain2</title>
<path fill="none" stroke="#000000" d="M735.9809,-214C735.9809,-214 465.5471,-214 465.5471,-214 459.5471,-214 453.5471,-208 453.5471,-202 453.5471,-202 453.5471,-190 453.5471,-190 453.5471,-184 459.5471,-178 465.5471,-178 465.5471,-178 735.9809,-178 735.9809,-178 741.9809,-178 747.9809,-184 747.9809,-190 747.9809,-190 747.9809,-202 747.9809,-202 747.9809,-208 741.9809,-214 735.9809,-214"/>
<text text-anchor="middle" x="600.764" y="-192.4" font-family="Arial" font-size="12.00" fill="#000000">Dificultad para encontrar dictaminadores disponibles</text>
</g>
<!-- action2&#45;&gt;pain2 -->
<g id="edge5" class="edge">
<title>action2-&gt;pain2</title>
<path fill="none" stroke="#000000" d="M375.8854,-196C397.0296,-196 420.1192,-196 443.1911,-196"/>
<polygon fill="#000000" stroke="#000000" points="443.4263,-199.5001 453.4263,-196 443.4263,-192.5001 443.4263,-199.5001"/>
</g>
<!-- pain3 -->
<g id="node13" class="node">
<title>pain3</title>
<path fill="none" stroke="#000000" d="M696.6552,-160C696.6552,-160 504.8728,-160 504.8728,-160 498.8728,-160 492.8728,-154 492.8728,-148 492.8728,-148 492.8728,-136 492.8728,-136 492.8728,-130 498.8728,-124 504.8728,-124 504.8728,-124 696.6552,-124 696.6552,-124 702.6552,-124 708.6552,-130 708.6552,-136 708.6552,-136 708.6552,-148 708.6552,-148 708.6552,-154 702.6552,-160 696.6552,-160"/>
<text text-anchor="middle" x="600.764" y="-138.4" font-family="Arial" font-size="12.00" fill="#000000">Interfaz poco clara para asignaciones</text>
</g>
<!-- action3&#45;&gt;pain3 -->
<g id="edge8" class="edge">
<title>action3-&gt;pain3</title>
<path fill="none" stroke="#000000" d="M401.2855,-142C427.899,-142 456.1885,-142 482.8437,-142"/>
<polygon fill="#000000" stroke="#000000" points="482.9727,-145.5001 492.9726,-142 482.9726,-138.5001 482.9727,-145.5001"/>
</g>
<!-- pain4 -->
<g id="node14" class="node">
<title>pain4</title>
<path fill="none" stroke="#000000" d="M727.8164,-106C727.8164,-106 473.7116,-106 473.7116,-106 467.7116,-106 461.7116,-100 461.7116,-94 461.7116,-94 461.7116,-82 461.7116,-82 461.7116,-76 467.7116,-70 473.7116,-70 473.7116,-70 727.8164,-70 727.8164,-70 733.8164,-70 739.8164,-76 739.8164,-82 739.8164,-82 739.8164,-94 739.8164,-94 739.8164,-100 733.8164,-106 727.8164,-106"/>
<text text-anchor="middle" x="600.764" y="-84.4" font-family="Arial" font-size="12.00" fill="#000000">Seguimiento manual del progreso de dictámenes</text>
</g>
<!-- action4&#45;&gt;pain4 -->
<g id="edge11" class="edge">
<title>action4-&gt;pain4</title>
<path fill="none" stroke="#000000" d="M392.371,-88C411.4373,-88 431.5889,-88 451.5492,-88"/>
<polygon fill="#000000" stroke="#000000" points="451.6435,-91.5001 461.6435,-88 451.6435,-84.5001 451.6435,-91.5001"/>
</g>
<!-- pain5 -->
<g id="node15" class="node">
<title>pain5</title>
<path fill="none" stroke="#000000" d="M712.6591,-52C712.6591,-52 488.8689,-52 488.8689,-52 482.8689,-52 476.8689,-46 476.8689,-40 476.8689,-40 476.8689,-28 476.8689,-28 476.8689,-22 482.8689,-16 488.8689,-16 488.8689,-16 712.6591,-16 712.6591,-16 718.6591,-16 724.6591,-22 724.6591,-28 724.6591,-28 724.6591,-40 724.6591,-40 724.6591,-46 718.6591,-52 712.6591,-52"/>
<text text-anchor="middle" x="600.764" y="-30.4" font-family="Arial" font-size="12.00" fill="#000000">Falta de reportes detallados de rendimiento</text>
</g>
<!-- action5&#45;&gt;pain5 -->
<g id="edge14" class="edge">
<title>action5-&gt;pain5</title>
<path fill="none" stroke="#000000" d="M389.7257,-34C414.4031,-34 441.0187,-34 466.7591,-34"/>
<polygon fill="#000000" stroke="#000000" points="466.9569,-37.5001 476.9568,-34 466.9568,-30.5001 466.9569,-37.5001"/>
</g>
<!-- solution1 -->
<g id="node16" class="node">
<title>solution1</title>
<path fill="none" stroke="#000000" d="M1006.8684,-268C1006.8684,-268 842.778,-268 842.778,-268 836.778,-268 830.778,-262 830.778,-256 830.778,-256 830.778,-244 830.778,-244 830.778,-238 836.778,-232 842.778,-232 842.778,-232 1006.8684,-232 1006.8684,-232 1012.8684,-232 1018.8684,-238 1018.8684,-244 1018.8684,-244 1018.8684,-256 1018.8684,-256 1018.8684,-262 1012.8684,-268 1006.8684,-268"/>
<text text-anchor="middle" x="924.8232" y="-246.4" font-family="Arial" font-size="12.00" fill="#000000">Panel de control con prioridades</text>
</g>
<!-- pain1&#45;&gt;solution1 -->
<g id="edge3" class="edge">
<title>pain1-&gt;solution1</title>
<path fill="none" stroke="#000000" d="M707.3219,-250C743.7441,-250 784.4191,-250 820.6508,-250"/>
<polygon fill="#000000" stroke="#000000" points="820.7451,-253.5001 830.745,-250 820.745,-246.5001 820.7451,-253.5001"/>
</g>
<!-- solution2 -->
<g id="node17" class="node">
<title>solution2</title>
<path fill="none" stroke="#000000" d="M1053.7251,-214C1053.7251,-214 795.9213,-214 795.9213,-214 789.9213,-214 783.9213,-208 783.9213,-202 783.9213,-202 783.9213,-190 783.9213,-190 783.9213,-184 789.9213,-178 795.9213,-178 795.9213,-178 1053.7251,-178 1053.7251,-178 1059.7251,-178 1065.7251,-184 1065.7251,-190 1065.7251,-190 1065.7251,-202 1065.7251,-202 1065.7251,-208 1059.7251,-214 1053.7251,-214"/>
<text text-anchor="middle" x="924.8232" y="-192.4" font-family="Arial" font-size="12.00" fill="#000000">Lista automatizada de dictaminadores disponibles</text>
</g>
<!-- pain2&#45;&gt;solution2 -->
<g id="edge6" class="edge">
<title>pain2-&gt;solution2</title>
<path fill="none" stroke="#000000" d="M748.096,-196C756.6283,-196 765.2154,-196 773.7616,-196"/>
<polygon fill="#000000" stroke="#000000" points="773.7696,-199.5001 783.7696,-196 773.7696,-192.5001 773.7696,-199.5001"/>
</g>
<!-- solution3 -->
<g id="node18" class="node">
<title>solution3</title>
<path fill="none" stroke="#000000" d="M1017.0182,-160C1017.0182,-160 832.6282,-160 832.6282,-160 826.6282,-160 820.6282,-154 820.6282,-148 820.6282,-148 820.6282,-136 820.6282,-136 820.6282,-130 826.6282,-124 832.6282,-124 832.6282,-124 1017.0182,-124 1017.0182,-124 1023.0182,-124 1029.0182,-130 1029.0182,-136 1029.0182,-136 1029.0182,-148 1029.0182,-148 1029.0182,-154 1023.0182,-160 1017.0182,-160"/>
<text text-anchor="middle" x="924.8232" y="-138.4" font-family="Arial" font-size="12.00" fill="#000000">Flujo simplificado para asignaciones</text>
</g>
<!-- pain3&#45;&gt;solution3 -->
<g id="edge9" class="edge">
<title>pain3-&gt;solution3</title>
<path fill="none" stroke="#000000" d="M708.671,-142C741.2918,-142 777.2191,-142 810.2585,-142"/>
<polygon fill="#000000" stroke="#000000" points="810.4126,-145.5001 820.4125,-142 810.4125,-138.5001 810.4126,-145.5001"/>
</g>
<!-- solution4 -->
<g id="node19" class="node">
<title>solution4</title>
<path fill="none" stroke="#000000" d="M1026.6879,-106C1026.6879,-106 822.9585,-106 822.9585,-106 816.9585,-106 810.9585,-100 810.9585,-94 810.9585,-94 810.9585,-82 810.9585,-82 810.9585,-76 816.9585,-70 822.9585,-70 822.9585,-70 1026.6879,-70 1026.6879,-70 1032.6879,-70 1038.6879,-76 1038.6879,-82 1038.6879,-82 1038.6879,-94 1038.6879,-94 1038.6879,-100 1032.6879,-106 1026.6879,-106"/>
<text text-anchor="middle" x="924.8232" y="-84.4" font-family="Arial" font-size="12.00" fill="#000000">Notificaciones automáticas de progreso</text>
</g>
<!-- pain4&#45;&gt;solution4 -->
<g id="edge12" class="edge">
<title>pain4-&gt;solution4</title>
<path fill="none" stroke="#000000" d="M740.0749,-88C760.3267,-88 781.0614,-88 800.9798,-88"/>
<polygon fill="#000000" stroke="#000000" points="800.9993,-91.5001 810.9993,-88 800.9992,-84.5001 800.9993,-91.5001"/>
</g>
<!-- solution5 -->
<g id="node20" class="node">
<title>solution5</title>
<path fill="none" stroke="#000000" d="M1007.8736,-52C1007.8736,-52 841.7728,-52 841.7728,-52 835.7728,-52 829.7728,-46 829.7728,-40 829.7728,-40 829.7728,-28 829.7728,-28 829.7728,-22 835.7728,-16 841.7728,-16 841.7728,-16 1007.8736,-16 1007.8736,-16 1013.8736,-16 1019.8736,-22 1019.8736,-28 1019.8736,-28 1019.8736,-40 1019.8736,-40 1019.8736,-46 1013.8736,-52 1007.8736,-52"/>
<text text-anchor="middle" x="924.8232" y="-30.4" font-family="Arial" font-size="12.00" fill="#000000">Reportes detallados de actividad</text>
</g>
<!-- pain5&#45;&gt;solution5 -->
<g id="edge15" class="edge">
<title>pain5-&gt;solution5</title>
<path fill="none" stroke="#000000" d="M724.664,-34C755.9676,-34 789.2842,-34 819.571,-34"/>
<polygon fill="#000000" stroke="#000000" points="819.7187,-37.5001 829.7187,-34 819.7187,-30.5001 819.7187,-37.5001"/>
</g>
</g>
</svg>