<?xml version="1.0" encoding="UTF-8" standalone="no"?><!DOCTYPE svg PUBLIC "-//W3C//DTD SVG 1.1//EN" "http://www.w3.org/Graphics/SVG/1.1/DTD/svg11.dtd"><!-- Generated by graphviz version 2.40.1 (20161225.0304)
 --><!-- Title: GeneradorEstadisticas Pages: 1 --><svg xmlns="http://www.w3.org/2000/svg" xmlns:xlink="http://www.w3.org/1999/xlink" width="352pt" height="622pt" viewBox="0.00 0.00 352.35 621.76">
<g id="graph0" class="graph" transform="scale(1 1) rotate(0) translate(4 617.7585)">
<title>GeneradorEstadisticas</title>
<polygon fill="#ffffff" stroke="transparent" points="-4,4 -4,-617.7585 348.3494,-617.7585 348.3494,4 -4,4"/>
<!-- start -->
<g id="node1" class="node">
<title>start</title>
<ellipse fill="none" stroke="#000000" cx="221.8784" cy="-580.1962" rx="33.6247" ry="33.6247"/>
<text text-anchor="middle" x="221.8784" y="-575.9962" font-family="Times,serif" font-size="14.00" fill="#000000">Inicio</text>
</g>
<!-- seleccionar -->
<g id="node2" class="node">
<title>seleccionar</title>
<polygon fill="none" stroke="#000000" points="329.0919,-509.6339 114.6649,-509.6339 114.6649,-473.6339 329.0919,-473.6339 329.0919,-509.6339"/>
<text text-anchor="middle" x="221.8784" y="-487.4339" font-family="Times,serif" font-size="14.00" fill="#000000">Seleccionar 'Generar Estadísticas'</text>
</g>
<!-- start&#45;&gt;seleccionar -->
<g id="edge1" class="edge">
<title>start-&gt;seleccionar</title>
<path fill="none" stroke="#000000" d="M221.8784,-546.4619C221.8784,-537.6631 221.8784,-528.2745 221.8784,-519.7982"/>
<polygon fill="#000000" stroke="#000000" points="225.3785,-519.6625 221.8784,-509.6625 218.3785,-519.6626 225.3785,-519.6625"/>
</g>
<!-- filtrar -->
<g id="node3" class="node">
<title>filtrar</title>
<polygon fill="none" stroke="#000000" points="344.3204,-436.6339 99.4364,-436.6339 99.4364,-400.6339 344.3204,-400.6339 344.3204,-436.6339"/>
<text text-anchor="middle" x="221.8784" y="-414.4339" font-family="Times,serif" font-size="14.00" fill="#000000">Aplicar filtros (autor, revista, fecha, etc.)</text>
</g>
<!-- seleccionar&#45;&gt;filtrar -->
<g id="edge2" class="edge">
<title>seleccionar-&gt;filtrar</title>
<path fill="none" stroke="#000000" d="M221.8784,-473.5889C221.8784,-465.5167 221.8784,-455.8103 221.8784,-446.8156"/>
<polygon fill="#000000" stroke="#000000" points="225.3785,-446.7242 221.8784,-436.7242 218.3785,-446.7243 225.3785,-446.7242"/>
</g>
<!-- validarFiltros -->
<g id="node4" class="node">
<title>validarFiltros</title>
<polygon fill="none" stroke="#000000" points="161.8784,-363.6339 69.199,-345.6339 161.8784,-327.6339 254.5578,-345.6339 161.8784,-363.6339"/>
<text text-anchor="middle" x="161.8784" y="-341.4339" font-family="Times,serif" font-size="14.00" fill="#000000">Validar filtros</text>
</g>
<!-- filtrar&#45;&gt;validarFiltros -->
<g id="edge3" class="edge">
<title>filtrar-&gt;validarFiltros</title>
<path fill="none" stroke="#000000" d="M207.0469,-400.5889C199.2703,-391.1274 189.6483,-379.4206 181.286,-369.2465"/>
<polygon fill="#000000" stroke="#000000" points="183.9626,-366.9909 174.9091,-361.4879 178.5548,-371.4357 183.9626,-366.9909"/>
</g>
<!-- filtrosInvalidos -->
<g id="node5" class="node">
<title>filtrosInvalidos</title>
<polygon fill="none" stroke="#000000" points="300.3767,-274.8339 189.3801,-274.8339 189.3801,-238.8339 300.3767,-238.8339 300.3767,-274.8339"/>
<text text-anchor="middle" x="244.8784" y="-252.6339" font-family="Times,serif" font-size="14.00" fill="#000000">Filtros inválidos</text>
</g>
<!-- validarFiltros&#45;&gt;filtrosInvalidos -->
<g id="edge5" class="edge">
<title>validarFiltros-&gt;filtrosInvalidos</title>
<path fill="none" stroke="#000000" d="M162.4322,-327.3551C163.6184,-316.3466 166.7026,-302.6144 174.3812,-292.8339 178.0237,-288.1943 182.4265,-284.0986 187.2323,-280.4946"/>
<polygon fill="#000000" stroke="#000000" points="189.2629,-283.3473 195.6374,-274.8847 185.3769,-277.525 189.2629,-283.3473"/>
<text text-anchor="middle" x="221.127" y="-297.0339" font-family="Times,serif" font-size="14.00" fill="#000000">Filtros inválidos</text>
</g>
<!-- generar -->
<g id="node6" class="node">
<title>generar</title>
<polygon fill="none" stroke="#000000" points="133.6354,-274.8339 .1214,-274.8339 .1214,-238.8339 133.6354,-238.8339 133.6354,-274.8339"/>
<text text-anchor="middle" x="66.8784" y="-252.6339" font-family="Times,serif" font-size="14.00" fill="#000000">Generar estadísticas</text>
</g>
<!-- validarFiltros&#45;&gt;generar -->
<g id="edge4" class="edge">
<title>validarFiltros-&gt;generar</title>
<path fill="none" stroke="#000000" d="M119.0647,-335.8982C104.1665,-330.4878 88.6125,-322.2048 78.2718,-309.6339 72.6388,-302.786 69.6126,-293.7936 68.0361,-285.1751"/>
<polygon fill="#000000" stroke="#000000" points="71.4788,-284.5001 66.7542,-275.017 64.5338,-285.3766 71.4788,-284.5001"/>
<text text-anchor="middle" x="120.6817" y="-297.0339" font-family="Times,serif" font-size="14.00" fill="#000000">Filtros válidos</text>
</g>
<!-- filtrosInvalidos&#45;&gt;filtrar -->
<g id="edge6" class="edge">
<title>filtrosInvalidos-&gt;filtrar</title>
<path fill="none" stroke="#000000" d="M260.0962,-275.1959C263.6837,-280.5597 267.0064,-286.6511 268.8784,-292.8339 278.0197,-323.0254 275.3517,-334.2493 263.8784,-363.6339 259.8384,-373.9808 253.2386,-384.0276 246.4548,-392.6416"/>
<polygon fill="#000000" stroke="#000000" points="243.6829,-390.5008 239.9719,-400.4244 249.0614,-394.9809 243.6829,-390.5008"/>
</g>
<!-- visualizar -->
<g id="node7" class="node">
<title>visualizar</title>
<polygon fill="none" stroke="#000000" points="125.0473,-201.8339 8.7095,-201.8339 8.7095,-165.8339 125.0473,-165.8339 125.0473,-201.8339"/>
<text text-anchor="middle" x="66.8784" y="-179.6339" font-family="Times,serif" font-size="14.00" fill="#000000">Visualizar reporte</text>
</g>
<!-- generar&#45;&gt;visualizar -->
<g id="edge7" class="edge">
<title>generar-&gt;visualizar</title>
<path fill="none" stroke="#000000" d="M66.8784,-238.7889C66.8784,-230.7167 66.8784,-221.0103 66.8784,-212.0156"/>
<polygon fill="#000000" stroke="#000000" points="70.3785,-211.9242 66.8784,-201.9242 63.3785,-211.9243 70.3785,-211.9242"/>
</g>
<!-- descargar -->
<g id="node8" class="node">
<title>descargar</title>
<polygon fill="none" stroke="#000000" points="124.7503,-128.8339 9.0065,-128.8339 9.0065,-92.8339 124.7503,-92.8339 124.7503,-128.8339"/>
<text text-anchor="middle" x="66.8784" y="-106.6339" font-family="Times,serif" font-size="14.00" fill="#000000">Descargar reporte</text>
</g>
<!-- visualizar&#45;&gt;descargar -->
<g id="edge8" class="edge">
<title>visualizar-&gt;descargar</title>
<path fill="none" stroke="#000000" d="M66.8784,-165.7889C66.8784,-157.7167 66.8784,-148.0103 66.8784,-139.0156"/>
<polygon fill="#000000" stroke="#000000" points="70.3785,-138.9242 66.8784,-128.9242 63.3785,-138.9243 70.3785,-138.9242"/>
</g>
<!-- end -->
<g id="node9" class="node">
<title>end</title>
<ellipse fill="none" stroke="#000000" cx="66.8784" cy="-27.9169" rx="23.846" ry="23.846"/>
<ellipse fill="none" stroke="#000000" cx="66.8784" cy="-27.9169" rx="27.8341" ry="27.8341"/>
<text text-anchor="middle" x="66.8784" y="-23.7169" font-family="Times,serif" font-size="14.00" fill="#000000">Fin</text>
</g>
<!-- descargar&#45;&gt;end -->
<g id="edge9" class="edge">
<title>descargar-&gt;end</title>
<path fill="none" stroke="#000000" d="M66.8784,-92.4319C66.8784,-84.667 66.8784,-75.3198 66.8784,-66.1809"/>
<polygon fill="#000000" stroke="#000000" points="70.3785,-66.0466 66.8784,-56.0467 63.3785,-66.0467 70.3785,-66.0466"/>
</g>
</g>
</svg>