<?xml version="1.0" encoding="UTF-8" standalone="no"?><!DOCTYPE svg PUBLIC "-//W3C//DTD SVG 1.1//EN" "http://www.w3.org/Graphics/SVG/1.1/DTD/svg11.dtd"><!-- Generated by graphviz version 2.40.1 (20161225.0304)
 --><!-- Title: PostulacionArticulos Pages: 1 --><svg xmlns="http://www.w3.org/2000/svg" xmlns:xlink="http://www.w3.org/1999/xlink" width="466pt" height="622pt" viewBox="0.00 0.00 465.67 621.76">
<g id="graph0" class="graph" transform="scale(1 1) rotate(0) translate(4 617.7585)">
<title>PostulacionArticulos</title>
<polygon fill="#ffffff" stroke="transparent" points="-4,4 -4,-617.7585 461.6741,-617.7585 461.6741,4 -4,4"/>
<!-- start -->
<g id="node1" class="node">
<title>start</title>
<ellipse fill="none" stroke="#000000" cx="255.0036" cy="-580.1962" rx="33.6247" ry="33.6247"/>
<text text-anchor="middle" x="255.0036" y="-575.9962" font-family="Times,serif" font-size="14.00" fill="#000000">Inicio</text>
</g>
<!-- seleccionar -->
<g id="node2" class="node">
<title>seleccionar</title>
<polygon fill="none" stroke="#000000" points="352.5904,-509.6339 157.4168,-509.6339 157.4168,-473.6339 352.5904,-473.6339 352.5904,-509.6339"/>
<text text-anchor="middle" x="255.0036" y="-487.4339" font-family="Times,serif" font-size="14.00" fill="#000000">Seleccionar 'Postular Artículo'</text>
</g>
<!-- start&#45;&gt;seleccionar -->
<g id="edge1" class="edge">
<title>start-&gt;seleccionar</title>
<path fill="none" stroke="#000000" d="M255.0036,-546.4619C255.0036,-537.6631 255.0036,-528.2745 255.0036,-519.7982"/>
<polygon fill="#000000" stroke="#000000" points="258.5037,-519.6625 255.0036,-509.6625 251.5037,-519.6626 258.5037,-519.6625"/>
</g>
<!-- completar -->
<g id="node3" class="node">
<title>completar</title>
<polygon fill="none" stroke="#000000" points="366.982,-436.6339 143.0252,-436.6339 143.0252,-400.6339 366.982,-400.6339 366.982,-436.6339"/>
<text text-anchor="middle" x="255.0036" y="-414.4339" font-family="Times,serif" font-size="14.00" fill="#000000">Completar información del artículo</text>
</g>
<!-- seleccionar&#45;&gt;completar -->
<g id="edge2" class="edge">
<title>seleccionar-&gt;completar</title>
<path fill="none" stroke="#000000" d="M255.0036,-473.5889C255.0036,-465.5167 255.0036,-455.8103 255.0036,-446.8156"/>
<polygon fill="#000000" stroke="#000000" points="258.5037,-446.7242 255.0036,-436.7242 251.5037,-446.7243 258.5037,-446.7242"/>
</g>
<!-- validar -->
<g id="node4" class="node">
<title>validar</title>
<polygon fill="none" stroke="#000000" points="162.0036,-363.6339 2.8571,-345.6339 162.0036,-327.6339 321.1501,-345.6339 162.0036,-363.6339"/>
<text text-anchor="middle" x="162.0036" y="-341.4339" font-family="Times,serif" font-size="14.00" fill="#000000">Validar datos del artículo</text>
</g>
<!-- completar&#45;&gt;validar -->
<g id="edge3" class="edge">
<title>completar-&gt;validar</title>
<path fill="none" stroke="#000000" d="M232.0148,-400.5889C219.3643,-390.659 203.5633,-378.256 190.1754,-367.7472"/>
<polygon fill="#000000" stroke="#000000" points="192.2283,-364.9092 182.2011,-361.4879 187.9062,-370.4155 192.2283,-364.9092"/>
</g>
<!-- guardar -->
<g id="node5" class="node">
<title>guardar</title>
<polygon fill="none" stroke="#000000" points="222.0108,-274.8339 -.0036,-274.8339 -.0036,-238.8339 222.0108,-238.8339 222.0108,-274.8339"/>
<text text-anchor="middle" x="111.0036" y="-252.6339" font-family="Times,serif" font-size="14.00" fill="#000000">Guardar artículo en la base de datos</text>
</g>
<!-- validar&#45;&gt;guardar -->
<g id="edge4" class="edge">
<title>validar-&gt;guardar</title>
<path fill="none" stroke="#000000" d="M147.8796,-329.0163C143.2297,-323.1131 138.2453,-316.2798 134.3002,-309.6339 129.595,-301.7075 125.2629,-292.659 121.6434,-284.3187"/>
<polygon fill="#000000" stroke="#000000" points="124.8212,-282.8455 117.7421,-274.9629 118.3604,-285.5396 124.8212,-282.8455"/>
<text text-anchor="middle" x="174.8553" y="-297.0339" font-family="Times,serif" font-size="14.00" fill="#000000">Datos válidos</text>
</g>
<!-- error -->
<g id="node8" class="node">
<title>error</title>
<polygon fill="none" stroke="#000000" points="457.8449,-274.8339 240.1623,-274.8339 240.1623,-238.8339 457.8449,-238.8339 457.8449,-274.8339"/>
<text text-anchor="middle" x="349.0036" y="-252.6339" font-family="Times,serif" font-size="14.00" fill="#000000">Mostrar error y permitir corrección</text>
</g>
<!-- validar&#45;&gt;error -->
<g id="edge5" class="edge">
<title>validar-&gt;error</title>
<path fill="none" stroke="#000000" d="M183.5529,-329.7998C199.7117,-318.4389 222.6908,-303.3429 244.4096,-292.8339 255.2814,-287.5734 267.124,-282.7248 278.8042,-278.4034"/>
<polygon fill="#000000" stroke="#000000" points="280.3257,-281.5758 288.5526,-274.8998 277.9581,-274.9883 280.3257,-281.5758"/>
<text text-anchor="middle" x="290.3006" y="-297.0339" font-family="Times,serif" font-size="14.00" fill="#000000">Datos inválidos</text>
</g>
<!-- notificar -->
<g id="node6" class="node">
<title>notificar</title>
<polygon fill="none" stroke="#000000" points="169.2944,-201.8339 52.7128,-201.8339 52.7128,-165.8339 169.2944,-165.8339 169.2944,-201.8339"/>
<text text-anchor="middle" x="111.0036" y="-179.6339" font-family="Times,serif" font-size="14.00" fill="#000000">Notificar al editor</text>
</g>
<!-- guardar&#45;&gt;notificar -->
<g id="edge7" class="edge">
<title>guardar-&gt;notificar</title>
<path fill="none" stroke="#000000" d="M111.0036,-238.7889C111.0036,-230.7167 111.0036,-221.0103 111.0036,-212.0156"/>
<polygon fill="#000000" stroke="#000000" points="114.5037,-211.9242 111.0036,-201.9242 107.5037,-211.9243 114.5037,-211.9242"/>
</g>
<!-- confirmar -->
<g id="node7" class="node">
<title>confirmar</title>
<polygon fill="none" stroke="#000000" points="207.395,-128.8339 14.6122,-128.8339 14.6122,-92.8339 207.395,-92.8339 207.395,-128.8339"/>
<text text-anchor="middle" x="111.0036" y="-106.6339" font-family="Times,serif" font-size="14.00" fill="#000000">Confirmar postulación al autor</text>
</g>
<!-- notificar&#45;&gt;confirmar -->
<g id="edge8" class="edge">
<title>notificar-&gt;confirmar</title>
<path fill="none" stroke="#000000" d="M111.0036,-165.7889C111.0036,-157.7167 111.0036,-148.0103 111.0036,-139.0156"/>
<polygon fill="#000000" stroke="#000000" points="114.5037,-138.9242 111.0036,-128.9242 107.5037,-138.9243 114.5037,-138.9242"/>
</g>
<!-- end -->
<g id="node9" class="node">
<title>end</title>
<ellipse fill="none" stroke="#000000" cx="111.0036" cy="-27.9169" rx="23.846" ry="23.846"/>
<ellipse fill="none" stroke="#000000" cx="111.0036" cy="-27.9169" rx="27.8341" ry="27.8341"/>
<text text-anchor="middle" x="111.0036" y="-23.7169" font-family="Times,serif" font-size="14.00" fill="#000000">Fin</text>
</g>
<!-- confirmar&#45;&gt;end -->
<g id="edge9" class="edge">
<title>confirmar-&gt;end</title>
<path fill="none" stroke="#000000" d="M111.0036,-92.4319C111.0036,-84.667 111.0036,-75.3198 111.0036,-66.1809"/>
<polygon fill="#000000" stroke="#000000" points="114.5037,-66.0466 111.0036,-56.0467 107.5037,-66.0467 114.5037,-66.0466"/>
</g>
<!-- error&#45;&gt;completar -->
<g id="edge6" class="edge">
<title>error-&gt;completar</title>
<path fill="none" stroke="#000000" d="M349.7406,-274.9031C349.8191,-297.3789 347.1291,-336.1387 330.0036,-363.6339 322.31,-375.9861 310.738,-386.4578 298.9719,-394.8421"/>
<polygon fill="#000000" stroke="#000000" points="296.7787,-392.0987 290.4228,-400.5753 300.6775,-397.9124 296.7787,-392.0987"/>
</g>
</g>
</svg>
