<?xml version="1.0" encoding="UTF-8" standalone="no"?><!DOCTYPE svg PUBLIC "-//W3C//DTD SVG 1.1//EN" "http://www.w3.org/Graphics/SVG/1.1/DTD/svg11.dtd"><!-- Generated by graphviz version 2.40.1 (20161225.0304)
 --><!-- Title: DiagramaComponentes Pages: 1 --><svg xmlns="http://www.w3.org/2000/svg" xmlns:xlink="http://www.w3.org/1999/xlink" width="940pt" height="330pt" viewBox="0.00 0.00 940.00 329.60">
<g id="graph0" class="graph" transform="scale(1 1) rotate(0) translate(4 325.6)">
<title>DiagramaComponentes</title>
<polygon fill="#ffffff" stroke="transparent" points="-4,4 -4,-325.6 936,-325.6 936,4 -4,4"/>
<g id="clust1" class="cluster">
<title>cluster_frontend</title>
<polygon fill="none" stroke="#0000ff" points="27,-236.8 27,-313.6 471,-313.6 471,-236.8 27,-236.8"/>
<text text-anchor="middle" x="249" y="-297" font-family="Times,serif" font-size="14.00" fill="#000000">Frontend</text>
</g>
<g id="clust2" class="cluster">
<title>cluster_backend</title>
<polygon fill="none" stroke="#00ff00" points="23,-125.2 23,-202 656,-202 656,-125.2 23,-125.2"/>
<text text-anchor="middle" x="339.5" y="-185.4" font-family="Times,serif" font-size="14.00" fill="#000000">Backend</text>
</g>
<g id="clust3" class="cluster">
<title>cluster_database</title>
<polygon fill="none" stroke="#a020f0" points="8,-10.8 8,-87.6 564,-87.6 564,-10.8 8,-10.8"/>
<text text-anchor="middle" x="286" y="-71" font-family="Times,serif" font-size="14.00" fill="#000000">Base de Datos</text>
</g>
<g id="clust4" class="cluster">
<title>cluster_externos</title>
<polygon fill="none" stroke="#ffa500" points="572,-8 572,-90.4 924,-90.4 924,-8 572,-8"/>
<text text-anchor="middle" x="748" y="-73.8" font-family="Times,serif" font-size="14.00" fill="#000000">Servicios Externos</text>
</g>
<!-- PanelAutor -->
<g id="node1" class="node">
<title>PanelAutor</title>
<polygon fill="#add8e6" stroke="#000000" points="462.9748,-280.8 363.0252,-280.8 363.0252,-276.8 359.0252,-276.8 359.0252,-272.8 363.0252,-272.8 363.0252,-252.8 359.0252,-252.8 359.0252,-248.8 363.0252,-248.8 363.0252,-244.8 462.9748,-244.8 462.9748,-280.8"/>
<polyline fill="none" stroke="#000000" points="363.0252,-276.8 367.0252,-276.8 367.0252,-272.8 363.0252,-272.8 "/>
<polyline fill="none" stroke="#000000" points="363.0252,-252.8 367.0252,-252.8 367.0252,-248.8 363.0252,-248.8 "/>
<text text-anchor="middle" x="413" y="-258.6" font-family="Times,serif" font-size="14.00" fill="#000000">Panel de Autor</text>
</g>
<!-- GestorArticulos -->
<g id="node4" class="node">
<title>GestorArticulos</title>
<polygon fill="#add8e6" stroke="#000000" points="506.5604,-169.2 375.4396,-169.2 375.4396,-165.2 371.4396,-165.2 371.4396,-161.2 375.4396,-161.2 375.4396,-141.2 371.4396,-141.2 371.4396,-137.2 375.4396,-137.2 375.4396,-133.2 506.5604,-133.2 506.5604,-169.2"/>
<polyline fill="none" stroke="#000000" points="375.4396,-165.2 379.4396,-165.2 379.4396,-161.2 375.4396,-161.2 "/>
<polyline fill="none" stroke="#000000" points="375.4396,-141.2 379.4396,-141.2 379.4396,-137.2 375.4396,-137.2 "/>
<text text-anchor="middle" x="441" y="-147" font-family="Times,serif" font-size="14.00" fill="#000000">Gestor de Artículos</text>
</g>
<!-- PanelAutor&#45;&gt;GestorArticulos -->
<g id="edge1" class="edge">
<title>PanelAutor-&gt;GestorArticulos</title>
<path fill="none" stroke="#000000" d="M417.6236,-244.3715C422.0679,-226.6577 428.8454,-199.6448 433.9603,-179.2581"/>
<polygon fill="#000000" stroke="#000000" points="437.4236,-179.8367 436.4624,-169.2856 430.634,-178.1332 437.4236,-179.8367"/>
<text text-anchor="middle" x="456.1371" y="-214.2" font-family="Times,serif" font-size="14.00" fill="#000000">API REST</text>
</g>
<!-- PanelEquipoEditorial -->
<g id="node2" class="node">
<title>PanelEquipoEditorial</title>
<polygon fill="#add8e6" stroke="#000000" points="195.2506,-280.8 34.7494,-280.8 34.7494,-276.8 30.7494,-276.8 30.7494,-272.8 34.7494,-272.8 34.7494,-252.8 30.7494,-252.8 30.7494,-248.8 34.7494,-248.8 34.7494,-244.8 195.2506,-244.8 195.2506,-280.8"/>
<polyline fill="none" stroke="#000000" points="34.7494,-276.8 38.7494,-276.8 38.7494,-272.8 34.7494,-272.8 "/>
<polyline fill="none" stroke="#000000" points="34.7494,-252.8 38.7494,-252.8 38.7494,-248.8 34.7494,-248.8 "/>
<text text-anchor="middle" x="115" y="-258.6" font-family="Times,serif" font-size="14.00" fill="#000000">Panel de Equipo Editorial</text>
</g>
<!-- GestorPublicaciones -->
<g id="node6" class="node">
<title>GestorPublicaciones</title>
<polygon fill="#add8e6" stroke="#000000" points="182.7893,-169.2 31.2107,-169.2 31.2107,-165.2 27.2107,-165.2 27.2107,-161.2 31.2107,-161.2 31.2107,-141.2 27.2107,-141.2 27.2107,-137.2 31.2107,-137.2 31.2107,-133.2 182.7893,-133.2 182.7893,-169.2"/>
<polyline fill="none" stroke="#000000" points="31.2107,-165.2 35.2107,-165.2 35.2107,-161.2 31.2107,-161.2 "/>
<polyline fill="none" stroke="#000000" points="31.2107,-141.2 35.2107,-141.2 35.2107,-137.2 31.2107,-137.2 "/>
<text text-anchor="middle" x="107" y="-147" font-family="Times,serif" font-size="14.00" fill="#000000">Gestor de Publicaciones</text>
</g>
<!-- PanelEquipoEditorial&#45;&gt;GestorPublicaciones -->
<g id="edge2" class="edge">
<title>PanelEquipoEditorial-&gt;GestorPublicaciones</title>
<path fill="none" stroke="#000000" d="M113.679,-244.3715C112.415,-226.739 110.4905,-199.8924 109.0315,-179.5391"/>
<polygon fill="#000000" stroke="#000000" points="112.5026,-179.0097 108.2965,-169.2856 105.5205,-179.5103 112.5026,-179.0097"/>
<text text-anchor="middle" x="143.1371" y="-214.2" font-family="Times,serif" font-size="14.00" fill="#000000">API REST</text>
</g>
<!-- PanelInstitucion -->
<g id="node3" class="node">
<title>PanelInstitucion</title>
<polygon fill="#add8e6" stroke="#000000" points="344.8599,-280.8 213.1401,-280.8 213.1401,-276.8 209.1401,-276.8 209.1401,-272.8 213.1401,-272.8 213.1401,-252.8 209.1401,-252.8 209.1401,-248.8 213.1401,-248.8 213.1401,-244.8 344.8599,-244.8 344.8599,-280.8"/>
<polyline fill="none" stroke="#000000" points="213.1401,-276.8 217.1401,-276.8 217.1401,-272.8 213.1401,-272.8 "/>
<polyline fill="none" stroke="#000000" points="213.1401,-252.8 217.1401,-252.8 217.1401,-248.8 213.1401,-248.8 "/>
<text text-anchor="middle" x="279" y="-258.6" font-family="Times,serif" font-size="14.00" fill="#000000">Panel de Institución</text>
</g>
<!-- ModuloEstadisticas -->
<g id="node7" class="node">
<title>ModuloEstadisticas</title>
<polygon fill="#add8e6" stroke="#000000" points="357.2338,-169.2 200.7662,-169.2 200.7662,-165.2 196.7662,-165.2 196.7662,-161.2 200.7662,-161.2 200.7662,-141.2 196.7662,-141.2 196.7662,-137.2 200.7662,-137.2 200.7662,-133.2 357.2338,-133.2 357.2338,-169.2"/>
<polyline fill="none" stroke="#000000" points="200.7662,-165.2 204.7662,-165.2 204.7662,-161.2 200.7662,-161.2 "/>
<polyline fill="none" stroke="#000000" points="200.7662,-141.2 204.7662,-141.2 204.7662,-137.2 200.7662,-137.2 "/>
<text text-anchor="middle" x="279" y="-147" font-family="Times,serif" font-size="14.00" fill="#000000">Módulo de Estadísticas</text>
</g>
<!-- PanelInstitucion&#45;&gt;ModuloEstadisticas -->
<g id="edge3" class="edge">
<title>PanelInstitucion-&gt;ModuloEstadisticas</title>
<path fill="none" stroke="#000000" d="M279,-244.3715C279,-226.739 279,-199.8924 279,-179.5391"/>
<polygon fill="#000000" stroke="#000000" points="282.5001,-179.2855 279,-169.2856 275.5001,-179.2856 282.5001,-179.2855"/>
<text text-anchor="middle" x="309.1371" y="-214.2" font-family="Times,serif" font-size="14.00" fill="#000000">API REST</text>
</g>
<!-- BDArticulos -->
<g id="node9" class="node">
<title>BDArticulos</title>
<polygon fill="#add8e6" stroke="#000000" points="371.8249,-54.8 198.1751,-54.8 198.1751,-50.8 194.1751,-50.8 194.1751,-46.8 198.1751,-46.8 198.1751,-26.8 194.1751,-26.8 194.1751,-22.8 198.1751,-22.8 198.1751,-18.8 371.8249,-18.8 371.8249,-54.8"/>
<polyline fill="none" stroke="#000000" points="198.1751,-50.8 202.1751,-50.8 202.1751,-46.8 198.1751,-46.8 "/>
<polyline fill="none" stroke="#000000" points="198.1751,-26.8 202.1751,-26.8 202.1751,-22.8 198.1751,-22.8 "/>
<text text-anchor="middle" x="285" y="-32.6" font-family="Times,serif" font-size="14.00" fill="#000000">Base de Datos de Artículos</text>
</g>
<!-- GestorArticulos&#45;&gt;BDArticulos -->
<g id="edge4" class="edge">
<title>GestorArticulos-&gt;BDArticulos</title>
<path fill="none" stroke="#000000" d="M416.1361,-133.0881C408.298,-127.3713 399.6098,-121.0269 391.6528,-115.2 366.8835,-97.0613 338.9214,-76.5035 317.8442,-60.991"/>
<polygon fill="#000000" stroke="#000000" points="319.679,-57.9956 309.5507,-54.8861 315.5292,-63.633 319.679,-57.9956"/>
<text text-anchor="middle" x="447.1736" y="-102.6" font-family="Times,serif" font-size="14.00" fill="#000000">CRUD Operaciones</text>
</g>
<!-- APIORCID -->
<g id="node11" class="node">
<title>APIORCID</title>
<polygon fill="#add8e6" stroke="#000000" points="735.9356,-57.4019 580.0644,-57.4019 580.0644,-53.4019 576.0644,-53.4019 576.0644,-49.4019 580.0644,-49.4019 580.0644,-24.1981 576.0644,-24.1981 576.0644,-20.1981 580.0644,-20.1981 580.0644,-16.1981 735.9356,-16.1981 735.9356,-57.4019"/>
<polyline fill="none" stroke="#000000" points="580.0644,-53.4019 584.0644,-53.4019 584.0644,-49.4019 580.0644,-49.4019 "/>
<polyline fill="none" stroke="#000000" points="580.0644,-24.1981 584.0644,-24.1981 584.0644,-20.1981 580.0644,-20.1981 "/>
<text text-anchor="middle" x="658" y="-41" font-family="Times,serif" font-size="14.00" fill="#000000">API de ORCID</text>
<text text-anchor="middle" x="658" y="-24.2" font-family="Times,serif" font-size="14.00" fill="#000000">(Validación de Autores)</text>
</g>
<!-- GestorArticulos&#45;&gt;APIORCID -->
<g id="edge8" class="edge">
<title>GestorArticulos-&gt;APIORCID</title>
<path fill="none" stroke="#000000" d="M486.666,-133.1283C495.9228,-130.043 505.6791,-127.195 515,-125.2 540.9499,-119.6457 613.3448,-131.8616 634,-115.2 648.1296,-103.8023 654.1374,-84.3039 656.609,-67.6044"/>
<polygon fill="#000000" stroke="#000000" points="660.087,-67.9954 657.7319,-57.6657 653.1313,-67.2095 660.087,-67.9954"/>
<text text-anchor="middle" x="692.0663" y="-102.6" font-family="Times,serif" font-size="14.00" fill="#000000">Validación API</text>
</g>
<!-- GestorUsuarios -->
<g id="node5" class="node">
<title>GestorUsuarios</title>
<polygon fill="#add8e6" stroke="#000000" points="647.7935,-169.2 524.2065,-169.2 524.2065,-165.2 520.2065,-165.2 520.2065,-161.2 524.2065,-161.2 524.2065,-141.2 520.2065,-141.2 520.2065,-137.2 524.2065,-137.2 524.2065,-133.2 647.7935,-133.2 647.7935,-169.2"/>
<polyline fill="none" stroke="#000000" points="524.2065,-165.2 528.2065,-165.2 528.2065,-161.2 524.2065,-161.2 "/>
<polyline fill="none" stroke="#000000" points="524.2065,-141.2 528.2065,-141.2 528.2065,-137.2 524.2065,-137.2 "/>
<text text-anchor="middle" x="586" y="-147" font-family="Times,serif" font-size="14.00" fill="#000000">Gestor de Usuarios</text>
</g>
<!-- BDUsuarios -->
<g id="node8" class="node">
<title>BDUsuarios</title>
<polygon fill="#add8e6" stroke="#000000" points="556.0576,-54.8 389.9424,-54.8 389.9424,-50.8 385.9424,-50.8 385.9424,-46.8 389.9424,-46.8 389.9424,-26.8 385.9424,-26.8 385.9424,-22.8 389.9424,-22.8 389.9424,-18.8 556.0576,-18.8 556.0576,-54.8"/>
<polyline fill="none" stroke="#000000" points="389.9424,-50.8 393.9424,-50.8 393.9424,-46.8 389.9424,-46.8 "/>
<polyline fill="none" stroke="#000000" points="389.9424,-26.8 393.9424,-26.8 393.9424,-22.8 389.9424,-22.8 "/>
<text text-anchor="middle" x="473" y="-32.6" font-family="Times,serif" font-size="14.00" fill="#000000">Base de Datos de Usuarios</text>
</g>
<!-- GestorUsuarios&#45;&gt;BDUsuarios -->
<g id="edge5" class="edge">
<title>GestorUsuarios-&gt;BDUsuarios</title>
<path fill="none" stroke="#000000" d="M546.403,-133.1949C537.6646,-128.1352 528.8712,-122.0984 521.6528,-115.2 506.4537,-100.6747 494.0515,-80.4371 485.5732,-64.1619"/>
<polygon fill="#000000" stroke="#000000" points="488.6486,-62.4865 481.0432,-55.1102 482.3888,-65.6193 488.6486,-62.4865"/>
<text text-anchor="middle" x="577.1736" y="-102.6" font-family="Times,serif" font-size="14.00" fill="#000000">CRUD Operaciones</text>
</g>
<!-- Notificaciones -->
<g id="node12" class="node">
<title>Notificaciones</title>
<polygon fill="#add8e6" stroke="#000000" points="916.1657,-54.8 753.8343,-54.8 753.8343,-50.8 749.8343,-50.8 749.8343,-46.8 753.8343,-46.8 753.8343,-26.8 749.8343,-26.8 749.8343,-22.8 753.8343,-22.8 753.8343,-18.8 916.1657,-18.8 916.1657,-54.8"/>
<polyline fill="none" stroke="#000000" points="753.8343,-50.8 757.8343,-50.8 757.8343,-46.8 753.8343,-46.8 "/>
<polyline fill="none" stroke="#000000" points="753.8343,-26.8 757.8343,-26.8 757.8343,-22.8 753.8343,-22.8 "/>
<text text-anchor="middle" x="835" y="-32.6" font-family="Times,serif" font-size="14.00" fill="#000000">Notificaciones por Correo</text>
</g>
<!-- GestorUsuarios&#45;&gt;Notificaciones -->
<g id="edge9" class="edge">
<title>GestorUsuarios-&gt;Notificaciones</title>
<path fill="none" stroke="#000000" d="M647.9254,-143.8143C677.5278,-138.5866 712.7881,-129.8046 742,-115.2 768.6091,-101.8967 794.0951,-79.4935 811.6362,-62.0342"/>
<polygon fill="#000000" stroke="#000000" points="814.1376,-64.4824 818.6475,-54.8953 809.1434,-59.5774 814.1376,-64.4824"/>
<text text-anchor="middle" x="818.7027" y="-102.6" font-family="Times,serif" font-size="14.00" fill="#000000">Envío de Correos</text>
</g>
<!-- BDRevistas -->
<g id="node10" class="node">
<title>BDRevistas</title>
<polygon fill="#add8e6" stroke="#000000" points="179.7324,-54.8 16.2676,-54.8 16.2676,-50.8 12.2676,-50.8 12.2676,-46.8 16.2676,-46.8 16.2676,-26.8 12.2676,-26.8 12.2676,-22.8 16.2676,-22.8 16.2676,-18.8 179.7324,-18.8 179.7324,-54.8"/>
<polyline fill="none" stroke="#000000" points="16.2676,-50.8 20.2676,-50.8 20.2676,-46.8 16.2676,-46.8 "/>
<polyline fill="none" stroke="#000000" points="16.2676,-26.8 20.2676,-26.8 20.2676,-22.8 16.2676,-22.8 "/>
<text text-anchor="middle" x="98" y="-32.6" font-family="Times,serif" font-size="14.00" fill="#000000">Base de Datos de Revistas</text>
</g>
<!-- GestorPublicaciones&#45;&gt;BDRevistas -->
<g id="edge6" class="edge">
<title>GestorPublicaciones-&gt;BDRevistas</title>
<path fill="none" stroke="#000000" d="M105.5739,-133.073C104.1323,-114.7479 101.8843,-86.174 100.2114,-64.9095"/>
<polygon fill="#000000" stroke="#000000" points="103.693,-64.5369 99.4194,-54.8422 96.7146,-65.0859 103.693,-64.5369"/>
<text text-anchor="middle" x="161.1736" y="-102.6" font-family="Times,serif" font-size="14.00" fill="#000000">CRUD Operaciones</text>
</g>
<!-- ModuloEstadisticas&#45;&gt;BDArticulos -->
<g id="edge7" class="edge">
<title>ModuloEstadisticas-&gt;BDArticulos</title>
<path fill="none" stroke="#000000" d="M279.9507,-133.073C280.9118,-114.7479 282.4105,-86.174 283.5257,-64.9095"/>
<polygon fill="#000000" stroke="#000000" points="287.0251,-65.0118 284.0537,-54.8422 280.0347,-64.6451 287.0251,-65.0118"/>
<text text-anchor="middle" x="308.6108" y="-102.6" font-family="Times,serif" font-size="14.00" fill="#000000">Consultas</text>
</g>
</g>
</svg>