<?xml version="1.0" encoding="UTF-8" standalone="no"?><!DOCTYPE svg PUBLIC "-//W3C//DTD SVG 1.1//EN" "http://www.w3.org/Graphics/SVG/1.1/DTD/svg11.dtd"><!-- Generated by graphviz version 2.40.1 (20161225.0304)
 --><!-- Title: PanelAutor Pages: 1 --><svg xmlns="http://www.w3.org/2000/svg" xmlns:xlink="http://www.w3.org/1999/xlink" width="915pt" height="946pt" viewBox="0.00 0.00 914.90 945.76">
<g id="graph0" class="graph" transform="scale(1 1) rotate(0) translate(4 941.7585)">
<title>PanelAutor</title>
<polygon fill="#ffffff" stroke="transparent" points="-4,4 -4,-941.7585 910.9026,-941.7585 910.9026,4 -4,4"/>
<!-- inicio -->
<g id="node1" class="node">
<title>inicio</title>
<ellipse fill="none" stroke="#000000" cx="404.4429" cy="-904.1962" rx="33.6247" ry="33.6247"/>
<text text-anchor="middle" x="404.4429" y="-899.9962" font-family="Times,serif" font-size="14.00" fill="#000000">Inicio</text>
</g>
<!-- iniciarSesion -->
<g id="node3" class="node">
<title>iniciarSesion</title>
<path fill="none" stroke="#000000" d="M440.13,-833.6339C440.13,-833.6339 368.7558,-833.6339 368.7558,-833.6339 362.7558,-833.6339 356.7558,-827.6339 356.7558,-821.6339 356.7558,-821.6339 356.7558,-809.6339 356.7558,-809.6339 356.7558,-803.6339 362.7558,-797.6339 368.7558,-797.6339 368.7558,-797.6339 440.13,-797.6339 440.13,-797.6339 446.13,-797.6339 452.13,-803.6339 452.13,-809.6339 452.13,-809.6339 452.13,-821.6339 452.13,-821.6339 452.13,-827.6339 446.13,-833.6339 440.13,-833.6339"/>
<text text-anchor="middle" x="404.4429" y="-811.4339" font-family="Times,serif" font-size="14.00" fill="#000000">Iniciar sesión</text>
</g>
<!-- inicio&#45;&gt;iniciarSesion -->
<g id="edge1" class="edge">
<title>inicio-&gt;iniciarSesion</title>
<path fill="none" stroke="#000000" d="M404.4429,-870.4619C404.4429,-861.6631 404.4429,-852.2745 404.4429,-843.7982"/>
<polygon fill="#000000" stroke="#000000" points="407.943,-843.6625 404.4429,-833.6625 400.943,-843.6626 407.943,-843.6625"/>
</g>
<!-- fin -->
<g id="node2" class="node">
<title>fin</title>
<ellipse fill="none" stroke="#000000" cx="499.4429" cy="-27.9169" rx="23.846" ry="23.846"/>
<ellipse fill="none" stroke="#000000" cx="499.4429" cy="-27.9169" rx="27.8341" ry="27.8341"/>
<text text-anchor="middle" x="499.4429" y="-23.7169" font-family="Times,serif" font-size="14.00" fill="#000000">Fin</text>
</g>
<!-- accesoPermitido -->
<g id="node4" class="node">
<title>accesoPermitido</title>
<path fill="none" stroke="#000000" d="M377.0756,-744.8339C377.0756,-744.8339 285.8102,-744.8339 285.8102,-744.8339 279.8102,-744.8339 273.8102,-738.8339 273.8102,-732.8339 273.8102,-732.8339 273.8102,-720.8339 273.8102,-720.8339 273.8102,-714.8339 279.8102,-708.8339 285.8102,-708.8339 285.8102,-708.8339 377.0756,-708.8339 377.0756,-708.8339 383.0756,-708.8339 389.0756,-714.8339 389.0756,-720.8339 389.0756,-720.8339 389.0756,-732.8339 389.0756,-732.8339 389.0756,-738.8339 383.0756,-744.8339 377.0756,-744.8339"/>
<text text-anchor="middle" x="331.4429" y="-722.6339" font-family="Times,serif" font-size="14.00" fill="#000000">Acceso permitido</text>
</g>
<!-- iniciarSesion&#45;&gt;accesoPermitido -->
<g id="edge2" class="edge">
<title>iniciarSesion-&gt;accesoPermitido</title>
<path fill="none" stroke="#000000" d="M356.6968,-798.6568C348.5692,-793.7217 341.0865,-787.4764 335.8853,-779.6339 331.114,-772.4395 329.2438,-763.4246 328.789,-754.8905"/>
<polygon fill="#000000" stroke="#000000" points="332.2889,-754.8905 328.8362,-744.8741 325.289,-754.8574 332.2889,-754.8905"/>
<text text-anchor="middle" x="395.7217" y="-767.0339" font-family="Times,serif" font-size="14.00" fill="#000000">Credenciales válidas</text>
</g>
<!-- mostrarError -->
<g id="node5" class="node">
<title>mostrarError</title>
<path fill="none" stroke="#000000" d="M511.9549,-744.8339C511.9549,-744.8339 444.9309,-744.8339 444.9309,-744.8339 438.9309,-744.8339 432.9309,-738.8339 432.9309,-732.8339 432.9309,-732.8339 432.9309,-720.8339 432.9309,-720.8339 432.9309,-714.8339 438.9309,-708.8339 444.9309,-708.8339 444.9309,-708.8339 511.9549,-708.8339 511.9549,-708.8339 517.9549,-708.8339 523.9549,-714.8339 523.9549,-720.8339 523.9549,-720.8339 523.9549,-732.8339 523.9549,-732.8339 523.9549,-738.8339 517.9549,-744.8339 511.9549,-744.8339"/>
<text text-anchor="middle" x="478.4429" y="-722.6339" font-family="Times,serif" font-size="14.00" fill="#000000">Mostrar error</text>
</g>
<!-- iniciarSesion&#45;&gt;mostrarError -->
<g id="edge3" class="edge">
<title>iniciarSesion-&gt;mostrarError</title>
<path fill="none" stroke="#000000" d="M434.893,-797.5586C441.9273,-792.3986 448.9499,-786.3342 454.4429,-779.6339 460.4726,-772.2789 465.32,-763.1636 469.0367,-754.5882"/>
<polygon fill="#000000" stroke="#000000" points="472.3041,-755.8435 472.7553,-745.2583 465.8015,-753.2518 472.3041,-755.8435"/>
<text text-anchor="middle" x="530.167" y="-767.0339" font-family="Times,serif" font-size="14.00" fill="#000000">Credenciales inválidas</text>
</g>
<!-- accesoAplicacion -->
<g id="node8" class="node">
<title>accesoAplicacion</title>
<path fill="none" stroke="#000000" d="M377.6486,-671.8339C377.6486,-671.8339 255.2372,-671.8339 255.2372,-671.8339 249.2372,-671.8339 243.2372,-665.8339 243.2372,-659.8339 243.2372,-659.8339 243.2372,-647.8339 243.2372,-647.8339 243.2372,-641.8339 249.2372,-635.8339 255.2372,-635.8339 255.2372,-635.8339 377.6486,-635.8339 377.6486,-635.8339 383.6486,-635.8339 389.6486,-641.8339 389.6486,-647.8339 389.6486,-647.8339 389.6486,-659.8339 389.6486,-659.8339 389.6486,-665.8339 383.6486,-671.8339 377.6486,-671.8339"/>
<text text-anchor="middle" x="316.4429" y="-649.6339" font-family="Times,serif" font-size="14.00" fill="#000000">Acceso a la aplicación</text>
</g>
<!-- accesoPermitido&#45;&gt;accesoAplicacion -->
<g id="edge6" class="edge">
<title>accesoPermitido-&gt;accesoAplicacion</title>
<path fill="none" stroke="#000000" d="M327.735,-708.7889C326.0583,-700.629 324.0385,-690.7991 322.1735,-681.7226"/>
<polygon fill="#000000" stroke="#000000" points="325.6013,-681.0151 320.1601,-671.9242 318.7445,-682.4241 325.6013,-681.0151"/>
</g>
<!-- recuperarContrasena -->
<g id="node6" class="node">
<title>recuperarContrasena</title>
<path fill="none" stroke="#000000" d="M536.9747,-671.8339C536.9747,-671.8339 419.9111,-671.8339 419.9111,-671.8339 413.9111,-671.8339 407.9111,-665.8339 407.9111,-659.8339 407.9111,-659.8339 407.9111,-647.8339 407.9111,-647.8339 407.9111,-641.8339 413.9111,-635.8339 419.9111,-635.8339 419.9111,-635.8339 536.9747,-635.8339 536.9747,-635.8339 542.9747,-635.8339 548.9747,-641.8339 548.9747,-647.8339 548.9747,-647.8339 548.9747,-659.8339 548.9747,-659.8339 548.9747,-665.8339 542.9747,-671.8339 536.9747,-671.8339"/>
<text text-anchor="middle" x="478.4429" y="-649.6339" font-family="Times,serif" font-size="14.00" fill="#000000">Recuperar contraseña</text>
</g>
<!-- mostrarError&#45;&gt;recuperarContrasena -->
<g id="edge4" class="edge">
<title>mostrarError-&gt;recuperarContrasena</title>
<path fill="none" stroke="#000000" d="M478.4429,-708.7889C478.4429,-700.7167 478.4429,-691.0103 478.4429,-682.0156"/>
<polygon fill="#000000" stroke="#000000" points="481.943,-681.9242 478.4429,-671.9242 474.943,-681.9243 481.943,-681.9242"/>
</g>
<!-- añadirInfoUsuario -->
<g id="node7" class="node">
<title>añadirInfoUsuario</title>
<path fill="none" stroke="#000000" d="M752.9842,-671.8339C752.9842,-671.8339 579.9016,-671.8339 579.9016,-671.8339 573.9016,-671.8339 567.9016,-665.8339 567.9016,-659.8339 567.9016,-659.8339 567.9016,-647.8339 567.9016,-647.8339 567.9016,-641.8339 573.9016,-635.8339 579.9016,-635.8339 579.9016,-635.8339 752.9842,-635.8339 752.9842,-635.8339 758.9842,-635.8339 764.9842,-641.8339 764.9842,-647.8339 764.9842,-647.8339 764.9842,-659.8339 764.9842,-659.8339 764.9842,-665.8339 758.9842,-671.8339 752.9842,-671.8339"/>
<text text-anchor="middle" x="666.4429" y="-649.6339" font-family="Times,serif" font-size="14.00" fill="#000000">Añadir información de usuario</text>
</g>
<!-- mostrarError&#45;&gt;añadirInfoUsuario -->
<g id="edge5" class="edge">
<title>mostrarError-&gt;añadirInfoUsuario</title>
<path fill="none" stroke="#000000" d="M523.9525,-709.1626C550.0044,-699.0467 582.8994,-686.2737 610.5175,-675.5496"/>
<polygon fill="#000000" stroke="#000000" points="611.9914,-678.732 620.0464,-671.8496 609.4576,-672.2066 611.9914,-678.732"/>
</g>
<!-- explorarCatalogo -->
<g id="node9" class="node">
<title>explorarCatalogo</title>
<path fill="none" stroke="#000000" d="M158.9535,-598.8339C158.9535,-598.8339 63.9323,-598.8339 63.9323,-598.8339 57.9323,-598.8339 51.9323,-592.8339 51.9323,-586.8339 51.9323,-586.8339 51.9323,-574.8339 51.9323,-574.8339 51.9323,-568.8339 57.9323,-562.8339 63.9323,-562.8339 63.9323,-562.8339 158.9535,-562.8339 158.9535,-562.8339 164.9535,-562.8339 170.9535,-568.8339 170.9535,-574.8339 170.9535,-574.8339 170.9535,-586.8339 170.9535,-586.8339 170.9535,-592.8339 164.9535,-598.8339 158.9535,-598.8339"/>
<text text-anchor="middle" x="111.4429" y="-576.6339" font-family="Times,serif" font-size="14.00" fill="#000000">Explorar catálogo</text>
</g>
<!-- accesoAplicacion&#45;&gt;explorarCatalogo -->
<g id="edge7" class="edge">
<title>accesoAplicacion-&gt;explorarCatalogo</title>
<path fill="none" stroke="#000000" d="M265.7687,-635.7889C237.3098,-625.6548 201.6177,-612.9449 171.7285,-602.3014"/>
<polygon fill="#000000" stroke="#000000" points="172.8393,-598.9817 162.2446,-598.9242 170.491,-605.5761 172.8393,-598.9817"/>
</g>
<!-- registrarManuscrito -->
<g id="node10" class="node">
<title>registrarManuscrito</title>
<path fill="none" stroke="#000000" d="M321.9619,-598.8339C321.9619,-598.8339 212.9239,-598.8339 212.9239,-598.8339 206.9239,-598.8339 200.9239,-592.8339 200.9239,-586.8339 200.9239,-586.8339 200.9239,-574.8339 200.9239,-574.8339 200.9239,-568.8339 206.9239,-562.8339 212.9239,-562.8339 212.9239,-562.8339 321.9619,-562.8339 321.9619,-562.8339 327.9619,-562.8339 333.9619,-568.8339 333.9619,-574.8339 333.9619,-574.8339 333.9619,-586.8339 333.9619,-586.8339 333.9619,-592.8339 327.9619,-598.8339 321.9619,-598.8339"/>
<text text-anchor="middle" x="267.4429" y="-576.6339" font-family="Times,serif" font-size="14.00" fill="#000000">Registrar manuscrito</text>
</g>
<!-- accesoAplicacion&#45;&gt;registrarManuscrito -->
<g id="edge8" class="edge">
<title>accesoAplicacion-&gt;registrarManuscrito</title>
<path fill="none" stroke="#000000" d="M304.3305,-635.7889C298.5588,-627.1903 291.5424,-616.7372 285.1847,-607.2655"/>
<polygon fill="#000000" stroke="#000000" points="288.0651,-605.2766 279.5857,-598.9242 282.253,-609.1779 288.0651,-605.2766"/>
</g>
<!-- seguimientoPostulacion -->
<g id="node11" class="node">
<title>seguimientoPostulacion</title>
<path fill="none" stroke="#000000" d="M444.138,-544.8339C444.138,-544.8339 298.7478,-544.8339 298.7478,-544.8339 292.7478,-544.8339 286.7478,-538.8339 286.7478,-532.8339 286.7478,-532.8339 286.7478,-520.8339 286.7478,-520.8339 286.7478,-514.8339 292.7478,-508.8339 298.7478,-508.8339 298.7478,-508.8339 444.138,-508.8339 444.138,-508.8339 450.138,-508.8339 456.138,-514.8339 456.138,-520.8339 456.138,-520.8339 456.138,-532.8339 456.138,-532.8339 456.138,-538.8339 450.138,-544.8339 444.138,-544.8339"/>
<text text-anchor="middle" x="371.4429" y="-522.6339" font-family="Times,serif" font-size="14.00" fill="#000000">Seguimiento a postulación</text>
</g>
<!-- accesoAplicacion&#45;&gt;seguimientoPostulacion -->
<g id="edge9" class="edge">
<title>accesoAplicacion-&gt;seguimientoPostulacion</title>
<path fill="none" stroke="#000000" d="M325.8386,-635.6844C331.2205,-625.0512 337.9705,-611.3012 343.4429,-598.8339 349.7575,-584.4479 356.1559,-568.1521 361.2392,-554.7063"/>
<polygon fill="#000000" stroke="#000000" points="364.6225,-555.6511 364.8469,-545.0587 358.066,-553.1993 364.6225,-555.6511"/>
</g>
<!-- visualizarEstadisticas -->
<g id="node12" class="node">
<title>visualizarEstadisticas</title>
<path fill="none" stroke="#000000" d="M576.6557,-436.8339C576.6557,-436.8339 454.2301,-436.8339 454.2301,-436.8339 448.2301,-436.8339 442.2301,-430.8339 442.2301,-424.8339 442.2301,-424.8339 442.2301,-412.8339 442.2301,-412.8339 442.2301,-406.8339 448.2301,-400.8339 454.2301,-400.8339 454.2301,-400.8339 576.6557,-400.8339 576.6557,-400.8339 582.6557,-400.8339 588.6557,-406.8339 588.6557,-412.8339 588.6557,-412.8339 588.6557,-424.8339 588.6557,-424.8339 588.6557,-430.8339 582.6557,-436.8339 576.6557,-436.8339"/>
<text text-anchor="middle" x="515.4429" y="-414.6339" font-family="Times,serif" font-size="14.00" fill="#000000">Visualizar estadísticas</text>
</g>
<!-- accesoAplicacion&#45;&gt;visualizarEstadisticas -->
<g id="edge10" class="edge">
<title>accesoAplicacion-&gt;visualizarEstadisticas</title>
<path fill="none" stroke="#000000" d="M350.6979,-635.7283C383.5115,-616.8711 432.4851,-584.5516 463.4429,-544.8339 486.4323,-515.3394 500.8537,-474.2473 508.525,-447.114"/>
<polygon fill="#000000" stroke="#000000" points="511.9994,-447.673 511.2274,-437.1063 505.2414,-445.8481 511.9994,-447.673"/>
</g>
<!-- realizarBusqueda -->
<g id="node13" class="node">
<title>realizarBusqueda</title>
<path fill="none" stroke="#000000" d="M110.8288,-490.8339C110.8288,-490.8339 12.057,-490.8339 12.057,-490.8339 6.057,-490.8339 .057,-484.8339 .057,-478.8339 .057,-478.8339 .057,-466.8339 .057,-466.8339 .057,-460.8339 6.057,-454.8339 12.057,-454.8339 12.057,-454.8339 110.8288,-454.8339 110.8288,-454.8339 116.8288,-454.8339 122.8288,-460.8339 122.8288,-466.8339 122.8288,-466.8339 122.8288,-478.8339 122.8288,-478.8339 122.8288,-484.8339 116.8288,-490.8339 110.8288,-490.8339"/>
<text text-anchor="middle" x="61.4429" y="-468.6339" font-family="Times,serif" font-size="14.00" fill="#000000">Realizar búsqueda</text>
</g>
<!-- explorarCatalogo&#45;&gt;realizarBusqueda -->
<g id="edge11" class="edge">
<title>explorarCatalogo-&gt;realizarBusqueda</title>
<path fill="none" stroke="#000000" d="M102.9611,-562.5132C95.0479,-545.4207 83.1382,-519.6958 74.1009,-500.1752"/>
<polygon fill="#000000" stroke="#000000" points="77.1769,-498.4883 69.7995,-490.884 70.8246,-501.4292 77.1769,-498.4883"/>
</g>
<!-- verificarRequisitos -->
<g id="node15" class="node">
<title>verificarRequisitos</title>
<path fill="none" stroke="#000000" d="M343.5836,-490.8339C343.5836,-490.8339 153.3022,-490.8339 153.3022,-490.8339 147.3022,-490.8339 141.3022,-484.8339 141.3022,-478.8339 141.3022,-478.8339 141.3022,-466.8339 141.3022,-466.8339 141.3022,-460.8339 147.3022,-454.8339 153.3022,-454.8339 153.3022,-454.8339 343.5836,-454.8339 343.5836,-454.8339 349.5836,-454.8339 355.5836,-460.8339 355.5836,-466.8339 355.5836,-466.8339 355.5836,-478.8339 355.5836,-478.8339 355.5836,-484.8339 349.5836,-490.8339 343.5836,-490.8339"/>
<text text-anchor="middle" x="248.4429" y="-468.6339" font-family="Times,serif" font-size="14.00" fill="#000000">Verificar requisitos de publicación</text>
</g>
<!-- registrarManuscrito&#45;&gt;verificarRequisitos -->
<g id="edge14" class="edge">
<title>registrarManuscrito-&gt;verificarRequisitos</title>
<path fill="none" stroke="#000000" d="M264.2198,-562.5132C261.254,-545.6548 256.8108,-520.399 253.3947,-500.9809"/>
<polygon fill="#000000" stroke="#000000" points="256.7982,-500.1263 251.6184,-490.884 249.9041,-501.3393 256.7982,-500.1263"/>
</g>
<!-- seleccionarPostulacion -->
<g id="node20" class="node">
<title>seleccionarPostulacion</title>
<path fill="none" stroke="#000000" d="M448.4465,-201.8339C448.4465,-201.8339 318.4393,-201.8339 318.4393,-201.8339 312.4393,-201.8339 306.4393,-195.8339 306.4393,-189.8339 306.4393,-189.8339 306.4393,-177.8339 306.4393,-177.8339 306.4393,-171.8339 312.4393,-165.8339 318.4393,-165.8339 318.4393,-165.8339 448.4465,-165.8339 448.4465,-165.8339 454.4465,-165.8339 460.4465,-171.8339 460.4465,-177.8339 460.4465,-177.8339 460.4465,-189.8339 460.4465,-189.8339 460.4465,-195.8339 454.4465,-201.8339 448.4465,-201.8339"/>
<text text-anchor="middle" x="383.4429" y="-179.6339" font-family="Times,serif" font-size="14.00" fill="#000000">Seleccionar postulación</text>
</g>
<!-- seguimientoPostulacion&#45;&gt;seleccionarPostulacion -->
<g id="edge20" class="edge">
<title>seguimientoPostulacion-&gt;seleccionarPostulacion</title>
<path fill="none" stroke="#000000" d="M374.722,-508.5576C378.2749,-487.1351 383.4429,-450.5277 383.4429,-418.8339 383.4429,-418.8339 383.4429,-418.8339 383.4429,-256.8339 383.4429,-242.1335 383.4429,-225.7679 383.4429,-212.2641"/>
<polygon fill="#000000" stroke="#000000" points="386.943,-212.1342 383.4429,-202.1342 379.943,-212.1343 386.943,-212.1342"/>
</g>
<!-- aplicarFiltro -->
<g id="node23" class="node">
<title>aplicarFiltro</title>
<path fill="none" stroke="#000000" d="M663.4429,-201.8339C663.4429,-201.8339 633.4429,-201.8339 633.4429,-201.8339 627.4429,-201.8339 621.4429,-195.8339 621.4429,-189.8339 621.4429,-189.8339 621.4429,-177.8339 621.4429,-177.8339 621.4429,-171.8339 627.4429,-165.8339 633.4429,-165.8339 633.4429,-165.8339 663.4429,-165.8339 663.4429,-165.8339 669.4429,-165.8339 675.4429,-171.8339 675.4429,-177.8339 675.4429,-177.8339 675.4429,-189.8339 675.4429,-189.8339 675.4429,-195.8339 669.4429,-201.8339 663.4429,-201.8339"/>
<text text-anchor="middle" x="648.4429" y="-179.6339" font-family="Times,serif" font-size="14.00" fill="#000000">Filtrar</text>
</g>
<!-- visualizarEstadisticas&#45;&gt;aplicarFiltro -->
<g id="edge25" class="edge">
<title>visualizarEstadisticas-&gt;aplicarFiltro</title>
<path fill="none" stroke="#000000" d="M525.6583,-400.784C548.8678,-359.7749 605.6763,-259.3989 633.1151,-210.9168"/>
<polygon fill="#000000" stroke="#000000" points="636.3132,-212.372 638.1926,-201.9452 630.2211,-208.9242 636.3132,-212.372"/>
</g>
<!-- seleccionarRevista -->
<g id="node14" class="node">
<title>seleccionarRevista</title>
<path fill="none" stroke="#000000" d="M110.556,-328.8339C110.556,-328.8339 12.3298,-328.8339 12.3298,-328.8339 6.3298,-328.8339 .3298,-322.8339 .3298,-316.8339 .3298,-316.8339 .3298,-304.8339 .3298,-304.8339 .3298,-298.8339 6.3298,-292.8339 12.3298,-292.8339 12.3298,-292.8339 110.556,-292.8339 110.556,-292.8339 116.556,-292.8339 122.556,-298.8339 122.556,-304.8339 122.556,-304.8339 122.556,-316.8339 122.556,-316.8339 122.556,-322.8339 116.556,-328.8339 110.556,-328.8339"/>
<text text-anchor="middle" x="61.4429" y="-306.6339" font-family="Times,serif" font-size="14.00" fill="#000000">Seleccionar revista</text>
</g>
<!-- realizarBusqueda&#45;&gt;seleccionarRevista -->
<g id="edge12" class="edge">
<title>realizarBusqueda-&gt;seleccionarRevista</title>
<path fill="none" stroke="#000000" d="M61.4429,-454.5653C61.4429,-426.6119 61.4429,-372.9757 61.4429,-339.7159"/>
<polygon fill="#000000" stroke="#000000" points="64.943,-339.2842 61.4429,-329.2842 57.943,-339.2843 64.943,-339.2842"/>
</g>
<!-- seleccionarRevista&#45;&gt;fin -->
<g id="edge13" class="edge">
<title>seleccionarRevista-&gt;fin</title>
<path fill="none" stroke="#000000" d="M61.4429,-292.8046C61.4429,-274.5396 61.4429,-245.4728 61.4429,-220.3339 61.4429,-220.3339 61.4429,-220.3339 61.4429,-110.8339 61.4429,-99.2017 69.9995,-97.9567 80.4429,-92.8339 147.4308,-59.9742 371.0743,-38.4483 461.2587,-30.9119"/>
<polygon fill="#000000" stroke="#000000" points="461.6464,-34.3919 471.3253,-30.0827 461.0717,-27.4156 461.6464,-34.3919"/>
</g>
<!-- registrarAutores -->
<g id="node16" class="node">
<title>registrarAutores</title>
<path fill="none" stroke="#000000" d="M284.181,-382.8339C284.181,-382.8339 196.7048,-382.8339 196.7048,-382.8339 190.7048,-382.8339 184.7048,-376.8339 184.7048,-370.8339 184.7048,-370.8339 184.7048,-358.8339 184.7048,-358.8339 184.7048,-352.8339 190.7048,-346.8339 196.7048,-346.8339 196.7048,-346.8339 284.181,-346.8339 284.181,-346.8339 290.181,-346.8339 296.181,-352.8339 296.181,-358.8339 296.181,-358.8339 296.181,-370.8339 296.181,-370.8339 296.181,-376.8339 290.181,-382.8339 284.181,-382.8339"/>
<text text-anchor="middle" x="240.4429" y="-360.6339" font-family="Times,serif" font-size="14.00" fill="#000000">Registrar autores</text>
</g>
<!-- verificarRequisitos&#45;&gt;registrarAutores -->
<g id="edge15" class="edge">
<title>verificarRequisitos-&gt;registrarAutores</title>
<path fill="none" stroke="#000000" d="M247.0858,-454.5132C245.837,-437.6548 243.9662,-412.399 242.5279,-392.9809"/>
<polygon fill="#000000" stroke="#000000" points="246.0092,-392.5981 241.7799,-382.884 239.0283,-393.1153 246.0092,-392.5981"/>
</g>
<!-- registrarFicha -->
<g id="node17" class="node">
<title>registrarFicha</title>
<path fill="none" stroke="#000000" d="M306.657,-274.8339C306.657,-274.8339 142.2288,-274.8339 142.2288,-274.8339 136.2288,-274.8339 130.2288,-268.8339 130.2288,-262.8339 130.2288,-262.8339 130.2288,-250.8339 130.2288,-250.8339 130.2288,-244.8339 136.2288,-238.8339 142.2288,-238.8339 142.2288,-238.8339 306.657,-238.8339 306.657,-238.8339 312.657,-238.8339 318.657,-244.8339 318.657,-250.8339 318.657,-250.8339 318.657,-262.8339 318.657,-262.8339 318.657,-268.8339 312.657,-274.8339 306.657,-274.8339"/>
<text text-anchor="middle" x="224.4429" y="-252.6339" font-family="Times,serif" font-size="14.00" fill="#000000">Registrar ficha de postulación</text>
</g>
<!-- registrarAutores&#45;&gt;registrarFicha -->
<g id="edge16" class="edge">
<title>registrarAutores-&gt;registrarFicha</title>
<path fill="none" stroke="#000000" d="M237.7287,-346.5132C235.2312,-329.6548 231.4896,-304.399 228.6128,-284.9809"/>
<polygon fill="#000000" stroke="#000000" points="232.0448,-284.2631 227.117,-274.884 225.1204,-285.289 232.0448,-284.2631"/>
</g>
<!-- subirArchivos -->
<g id="node18" class="node">
<title>subirArchivos</title>
<path fill="none" stroke="#000000" d="M230.202,-201.8339C230.202,-201.8339 156.6838,-201.8339 156.6838,-201.8339 150.6838,-201.8339 144.6838,-195.8339 144.6838,-189.8339 144.6838,-189.8339 144.6838,-177.8339 144.6838,-177.8339 144.6838,-171.8339 150.6838,-165.8339 156.6838,-165.8339 156.6838,-165.8339 230.202,-165.8339 230.202,-165.8339 236.202,-165.8339 242.202,-171.8339 242.202,-177.8339 242.202,-177.8339 242.202,-189.8339 242.202,-189.8339 242.202,-195.8339 236.202,-201.8339 230.202,-201.8339"/>
<text text-anchor="middle" x="193.4429" y="-179.6339" font-family="Times,serif" font-size="14.00" fill="#000000">Subir archivos</text>
</g>
<!-- registrarFicha&#45;&gt;subirArchivos -->
<g id="edge17" class="edge">
<title>registrarFicha-&gt;subirArchivos</title>
<path fill="none" stroke="#000000" d="M216.78,-238.7889C213.2403,-230.4535 208.9606,-220.3755 205.0378,-211.1381"/>
<polygon fill="#000000" stroke="#000000" points="208.2555,-209.7606 201.1251,-201.9242 201.8123,-212.4968 208.2555,-209.7606"/>
</g>
<!-- confirmarEnvio -->
<g id="node19" class="node">
<title>confirmarEnvio</title>
<path fill="none" stroke="#000000" d="M191.7934,-128.8339C191.7934,-128.8339 101.0924,-128.8339 101.0924,-128.8339 95.0924,-128.8339 89.0924,-122.8339 89.0924,-116.8339 89.0924,-116.8339 89.0924,-104.8339 89.0924,-104.8339 89.0924,-98.8339 95.0924,-92.8339 101.0924,-92.8339 101.0924,-92.8339 191.7934,-92.8339 191.7934,-92.8339 197.7934,-92.8339 203.7934,-98.8339 203.7934,-104.8339 203.7934,-104.8339 203.7934,-116.8339 203.7934,-116.8339 203.7934,-122.8339 197.7934,-128.8339 191.7934,-128.8339"/>
<text text-anchor="middle" x="146.4429" y="-106.6339" font-family="Times,serif" font-size="14.00" fill="#000000">Confirmar envío</text>
</g>
<!-- subirArchivos&#45;&gt;confirmarEnvio -->
<g id="edge18" class="edge">
<title>subirArchivos-&gt;confirmarEnvio</title>
<path fill="none" stroke="#000000" d="M181.8249,-165.7889C176.3453,-157.278 169.696,-146.9504 163.6474,-137.5558"/>
<polygon fill="#000000" stroke="#000000" points="166.4464,-135.4376 158.0901,-128.9242 160.5607,-139.227 166.4464,-135.4376"/>
</g>
<!-- confirmarEnvio&#45;&gt;fin -->
<g id="edge19" class="edge">
<title>confirmarEnvio-&gt;fin</title>
<path fill="none" stroke="#000000" d="M203.6402,-95.07C206.6142,-94.3019 209.5619,-93.5522 212.4429,-92.8339 301.6177,-70.5997 407.1955,-47.5557 462.0815,-35.8208"/>
<polygon fill="#000000" stroke="#000000" points="462.994,-39.205 472.0439,-33.696 461.5338,-32.3589 462.994,-39.205"/>
</g>
<!-- descargarConstancia -->
<g id="node21" class="node">
<title>descargarConstancia</title>
<path fill="none" stroke="#000000" d="M345.2583,-128.8339C345.2583,-128.8339 233.6275,-128.8339 233.6275,-128.8339 227.6275,-128.8339 221.6275,-122.8339 221.6275,-116.8339 221.6275,-116.8339 221.6275,-104.8339 221.6275,-104.8339 221.6275,-98.8339 227.6275,-92.8339 233.6275,-92.8339 233.6275,-92.8339 345.2583,-92.8339 345.2583,-92.8339 351.2583,-92.8339 357.2583,-98.8339 357.2583,-104.8339 357.2583,-104.8339 357.2583,-116.8339 357.2583,-116.8339 357.2583,-122.8339 351.2583,-128.8339 345.2583,-128.8339"/>
<text text-anchor="middle" x="289.4429" y="-106.6339" font-family="Times,serif" font-size="14.00" fill="#000000">Descargar constancia</text>
</g>
<!-- seleccionarPostulacion&#45;&gt;descargarConstancia -->
<g id="edge21" class="edge">
<title>seleccionarPostulacion-&gt;descargarConstancia</title>
<path fill="none" stroke="#000000" d="M360.2069,-165.7889C348.3438,-156.5761 333.7396,-145.2345 320.8853,-135.2519"/>
<polygon fill="#000000" stroke="#000000" points="322.7822,-132.2935 312.7373,-128.9242 318.4886,-137.8222 322.7822,-132.2935"/>
</g>
<!-- detenerPostulacion -->
<g id="node22" class="node">
<title>detenerPostulacion</title>
<path fill="none" stroke="#000000" d="M495.9507,-128.8339C495.9507,-128.8339 386.9351,-128.8339 386.9351,-128.8339 380.9351,-128.8339 374.9351,-122.8339 374.9351,-116.8339 374.9351,-116.8339 374.9351,-104.8339 374.9351,-104.8339 374.9351,-98.8339 380.9351,-92.8339 386.9351,-92.8339 386.9351,-92.8339 495.9507,-92.8339 495.9507,-92.8339 501.9507,-92.8339 507.9507,-98.8339 507.9507,-104.8339 507.9507,-104.8339 507.9507,-116.8339 507.9507,-116.8339 507.9507,-122.8339 501.9507,-128.8339 495.9507,-128.8339"/>
<text text-anchor="middle" x="441.4429" y="-106.6339" font-family="Times,serif" font-size="14.00" fill="#000000">Detener postulación</text>
</g>
<!-- seleccionarPostulacion&#45;&gt;detenerPostulacion -->
<g id="edge22" class="edge">
<title>seleccionarPostulacion-&gt;detenerPostulacion</title>
<path fill="none" stroke="#000000" d="M397.78,-165.7889C404.6815,-157.1025 413.0866,-146.5237 420.6725,-136.9759"/>
<polygon fill="#000000" stroke="#000000" points="423.5893,-138.9311 427.0697,-128.9242 418.1086,-134.5766 423.5893,-138.9311"/>
</g>
<!-- descargarConstancia&#45;&gt;fin -->
<g id="edge23" class="edge">
<title>descargarConstancia-&gt;fin</title>
<path fill="none" stroke="#000000" d="M335.2688,-92.7399C373.8783,-77.4952 428.3369,-55.9926 463.7636,-42.0047"/>
<polygon fill="#000000" stroke="#000000" points="465.2062,-45.198 473.2221,-38.27 462.6354,-38.6872 465.2062,-45.198"/>
</g>
<!-- detenerPostulacion&#45;&gt;fin -->
<g id="edge24" class="edge">
<title>detenerPostulacion-&gt;fin</title>
<path fill="none" stroke="#000000" d="M454.315,-92.4319C461.1232,-82.6989 469.6703,-70.48 477.4897,-59.3012"/>
<polygon fill="#000000" stroke="#000000" points="480.4228,-61.2144 483.2867,-51.0139 474.6868,-57.2021 480.4228,-61.2144"/>
</g>
<!-- filtroAutor -->
<g id="node24" class="node">
<title>filtroAutor</title>
<path fill="none" stroke="#000000" d="M581.1525,-128.8339C581.1525,-128.8339 537.7333,-128.8339 537.7333,-128.8339 531.7333,-128.8339 525.7333,-122.8339 525.7333,-116.8339 525.7333,-116.8339 525.7333,-104.8339 525.7333,-104.8339 525.7333,-98.8339 531.7333,-92.8339 537.7333,-92.8339 537.7333,-92.8339 581.1525,-92.8339 581.1525,-92.8339 587.1525,-92.8339 593.1525,-98.8339 593.1525,-104.8339 593.1525,-104.8339 593.1525,-116.8339 593.1525,-116.8339 593.1525,-122.8339 587.1525,-128.8339 581.1525,-128.8339"/>
<text text-anchor="middle" x="559.4429" y="-106.6339" font-family="Times,serif" font-size="14.00" fill="#000000">Por autor</text>
</g>
<!-- aplicarFiltro&#45;&gt;filtroAutor -->
<g id="edge26" class="edge">
<title>aplicarFiltro-&gt;filtroAutor</title>
<path fill="none" stroke="#000000" d="M626.4429,-165.7889C615.3178,-156.6638 601.6465,-145.4503 589.561,-135.5375"/>
<polygon fill="#000000" stroke="#000000" points="591.4498,-132.56 581.4983,-128.9242 587.0105,-137.9723 591.4498,-132.56"/>
</g>
<!-- filtroCentro -->
<g id="node25" class="node">
<title>filtroCentro</title>
<path fill="none" stroke="#000000" d="M673.3665,-128.8339C673.3665,-128.8339 623.5193,-128.8339 623.5193,-128.8339 617.5193,-128.8339 611.5193,-122.8339 611.5193,-116.8339 611.5193,-116.8339 611.5193,-104.8339 611.5193,-104.8339 611.5193,-98.8339 617.5193,-92.8339 623.5193,-92.8339 623.5193,-92.8339 673.3665,-92.8339 673.3665,-92.8339 679.3665,-92.8339 685.3665,-98.8339 685.3665,-104.8339 685.3665,-104.8339 685.3665,-116.8339 685.3665,-116.8339 685.3665,-122.8339 679.3665,-128.8339 673.3665,-128.8339"/>
<text text-anchor="middle" x="648.4429" y="-106.6339" font-family="Times,serif" font-size="14.00" fill="#000000">Por centro</text>
</g>
<!-- aplicarFiltro&#45;&gt;filtroCentro -->
<g id="edge27" class="edge">
<title>aplicarFiltro-&gt;filtroCentro</title>
<path fill="none" stroke="#000000" d="M648.4429,-165.7889C648.4429,-157.7167 648.4429,-148.0103 648.4429,-139.0156"/>
<polygon fill="#000000" stroke="#000000" points="651.943,-138.9242 648.4429,-128.9242 644.943,-138.9243 651.943,-138.9242"/>
</g>
<!-- filtroRevista -->
<g id="node26" class="node">
<title>filtroRevista</title>
<path fill="none" stroke="#000000" d="M767.7021,-128.8339C767.7021,-128.8339 715.1837,-128.8339 715.1837,-128.8339 709.1837,-128.8339 703.1837,-122.8339 703.1837,-116.8339 703.1837,-116.8339 703.1837,-104.8339 703.1837,-104.8339 703.1837,-98.8339 709.1837,-92.8339 715.1837,-92.8339 715.1837,-92.8339 767.7021,-92.8339 767.7021,-92.8339 773.7021,-92.8339 779.7021,-98.8339 779.7021,-104.8339 779.7021,-104.8339 779.7021,-116.8339 779.7021,-116.8339 779.7021,-122.8339 773.7021,-128.8339 767.7021,-128.8339"/>
<text text-anchor="middle" x="741.4429" y="-106.6339" font-family="Times,serif" font-size="14.00" fill="#000000">Por revista</text>
</g>
<!-- aplicarFiltro&#45;&gt;filtroRevista -->
<g id="edge28" class="edge">
<title>aplicarFiltro-&gt;filtroRevista</title>
<path fill="none" stroke="#000000" d="M671.4317,-165.7889C683.1686,-156.5761 697.6175,-145.2345 710.335,-135.2519"/>
<polygon fill="#000000" stroke="#000000" points="712.6912,-137.8519 718.3963,-128.9242 708.3691,-132.3456 712.6912,-137.8519"/>
</g>
<!-- filtroPublicacion -->
<g id="node27" class="node">
<title>filtroPublicacion</title>
<path fill="none" stroke="#000000" d="M894.8623,-128.8339C894.8623,-128.8339 810.0235,-128.8339 810.0235,-128.8339 804.0235,-128.8339 798.0235,-122.8339 798.0235,-116.8339 798.0235,-116.8339 798.0235,-104.8339 798.0235,-104.8339 798.0235,-98.8339 804.0235,-92.8339 810.0235,-92.8339 810.0235,-92.8339 894.8623,-92.8339 894.8623,-92.8339 900.8623,-92.8339 906.8623,-98.8339 906.8623,-104.8339 906.8623,-104.8339 906.8623,-116.8339 906.8623,-116.8339 906.8623,-122.8339 900.8623,-128.8339 894.8623,-128.8339"/>
<text text-anchor="middle" x="852.4429" y="-106.6339" font-family="Times,serif" font-size="14.00" fill="#000000">Por publicación</text>
</g>
<!-- aplicarFiltro&#45;&gt;filtroPublicacion -->
<g id="edge29" class="edge">
<title>aplicarFiltro-&gt;filtroPublicacion</title>
<path fill="none" stroke="#000000" d="M675.5325,-174.14C705.2074,-163.5211 753.7351,-146.1558 792.4661,-132.2962"/>
<polygon fill="#000000" stroke="#000000" points="793.8484,-135.519 802.0844,-128.8543 791.4899,-128.9282 793.8484,-135.519"/>
</g>
<!-- filtroAutor&#45;&gt;fin -->
<g id="edge30" class="edge">
<title>filtroAutor-&gt;fin</title>
<path fill="none" stroke="#000000" d="M546.127,-92.4319C539.029,-82.6229 530.1039,-70.2889 521.9636,-59.0394"/>
<polygon fill="#000000" stroke="#000000" points="524.6328,-56.7577 515.9349,-50.708 518.9618,-60.8613 524.6328,-56.7577"/>
</g>
<!-- filtroCentro&#45;&gt;fin -->
<g id="edge31" class="edge">
<title>filtroCentro-&gt;fin</title>
<path fill="none" stroke="#000000" d="M615.7442,-92.6374C591.2848,-79.026 557.9373,-60.4685 533.2214,-46.7143"/>
<polygon fill="#000000" stroke="#000000" points="534.648,-43.5028 524.2079,-41.6984 531.2441,-49.6195 534.648,-43.5028"/>
</g>
<!-- filtroRevista&#45;&gt;fin -->
<g id="edge32" class="edge">
<title>filtroRevista-&gt;fin</title>
<path fill="none" stroke="#000000" d="M703.2761,-96.0543C700.293,-94.9489 697.3224,-93.864 694.4429,-92.8339 639.4311,-73.1537 575.0136,-52.0902 535.7298,-39.4648"/>
<polygon fill="#000000" stroke="#000000" points="536.6562,-36.0864 526.0651,-36.366 534.5189,-42.7522 536.6562,-36.0864"/>
</g>
<!-- filtroPublicacion&#45;&gt;fin -->
<g id="edge33" class="edge">
<title>filtroPublicacion-&gt;fin</title>
<path fill="none" stroke="#000000" d="M797.6815,-95.2255C794.5603,-94.4003 791.4643,-93.5975 788.4429,-92.8339 698.7492,-70.164 592.3941,-47.2967 537.0918,-35.7053"/>
<polygon fill="#000000" stroke="#000000" points="537.5581,-32.2272 527.0536,-33.6077 536.1262,-39.0792 537.5581,-32.2272"/>
</g>
</g>
</svg>