<?xml version="1.0" encoding="UTF-8" standalone="no"?><!DOCTYPE svg PUBLIC "-//W3C//DTD SVG 1.1//EN" "http://www.w3.org/Graphics/SVG/1.1/DTD/svg11.dtd"><!-- Generated by graphviz version 2.40.1 (20161225.0304)
 --><!-- Title: PanelDictaminador Pages: 1 --><svg xmlns="http://www.w3.org/2000/svg" xmlns:xlink="http://www.w3.org/1999/xlink" width="950pt" height="597pt" viewBox="0.00 0.00 950.34 596.73">
<g id="graph0" class="graph" transform="scale(1 1) rotate(0) translate(4 592.7336)">
<title>PanelDictaminador</title>
<polygon fill="#ffffff" stroke="transparent" points="-4,4 -4,-592.7336 946.3404,-592.7336 946.3404,4 -4,4"/>
<!-- Inicio -->
<g id="node1" class="node">
<title>Inicio</title>
<ellipse fill="#000000" stroke="#000000" cx="674.3404" cy="-560.6295" rx="28.2085" ry="28.2085"/>
<text text-anchor="middle" x="674.3404" y="-557.0295" font-family="Arial" font-size="12.00" fill="#ffffff">Inicio</text>
</g>
<!-- Iniciar sesión -->
<g id="node3" class="node">
<title>Iniciar sesión</title>
<path fill="none" stroke="#000000" d="M707.342,-495.5255C707.342,-495.5255 641.3388,-495.5255 641.3388,-495.5255 635.3388,-495.5255 629.3388,-489.5255 629.3388,-483.5255 629.3388,-483.5255 629.3388,-471.5255 629.3388,-471.5255 629.3388,-465.5255 635.3388,-459.5255 641.3388,-459.5255 641.3388,-459.5255 707.342,-459.5255 707.342,-459.5255 713.342,-459.5255 719.342,-465.5255 719.342,-471.5255 719.342,-471.5255 719.342,-483.5255 719.342,-483.5255 719.342,-489.5255 713.342,-495.5255 707.342,-495.5255"/>
<text text-anchor="middle" x="674.3404" y="-473.9255" font-family="Arial" font-size="12.00" fill="#000000">Iniciar sesión</text>
</g>
<!-- Inicio&#45;&gt;Iniciar sesión -->
<g id="edge1" class="edge">
<title>Inicio-&gt;Iniciar sesión</title>
<path fill="none" stroke="#000000" d="M674.3404,-532.4943C674.3404,-524.0184 674.3404,-514.7082 674.3404,-506.1979"/>
<polygon fill="#000000" stroke="#000000" points="677.8405,-505.9689 674.3404,-495.969 670.8405,-505.969 677.8405,-505.9689"/>
</g>
<!-- Fin -->
<g id="node2" class="node">
<title>Fin</title>
<ellipse fill="#000000" stroke="#000000" cx="699.3404" cy="-255.6627" rx="20.7264" ry="20.7264"/>
<text text-anchor="middle" x="699.3404" y="-252.0627" font-family="Arial" font-size="12.00" fill="#ffffff">Fin</text>
</g>
<!-- Acceder al panel de dictaminador -->
<g id="node4" class="node">
<title>Acceder al panel de dictaminador</title>
<path fill="none" stroke="#000000" d="M759.3856,-422.5255C759.3856,-422.5255 589.2952,-422.5255 589.2952,-422.5255 583.2952,-422.5255 577.2952,-416.5255 577.2952,-410.5255 577.2952,-410.5255 577.2952,-398.5255 577.2952,-398.5255 577.2952,-392.5255 583.2952,-386.5255 589.2952,-386.5255 589.2952,-386.5255 759.3856,-386.5255 759.3856,-386.5255 765.3856,-386.5255 771.3856,-392.5255 771.3856,-398.5255 771.3856,-398.5255 771.3856,-410.5255 771.3856,-410.5255 771.3856,-416.5255 765.3856,-422.5255 759.3856,-422.5255"/>
<text text-anchor="middle" x="674.3404" y="-400.9255" font-family="Arial" font-size="12.00" fill="#000000">Acceder al panel de dictaminador</text>
</g>
<!-- Iniciar sesión&#45;&gt;Acceder al panel de dictaminador -->
<g id="edge2" class="edge">
<title>Iniciar sesión-&gt;Acceder al panel de dictaminador</title>
<path fill="none" stroke="#000000" d="M674.3404,-459.4805C674.3404,-451.4083 674.3404,-441.7019 674.3404,-432.7072"/>
<polygon fill="#000000" stroke="#000000" points="677.8405,-432.6158 674.3404,-422.6158 670.8405,-432.6159 677.8405,-432.6158"/>
</g>
<!-- Revisar manuscritos -->
<g id="node5" class="node">
<title>Revisar manuscritos</title>
<path fill="none" stroke="#000000" d="M403.508,-349.5255C403.508,-349.5255 303.1728,-349.5255 303.1728,-349.5255 297.1728,-349.5255 291.1728,-343.5255 291.1728,-337.5255 291.1728,-337.5255 291.1728,-325.5255 291.1728,-325.5255 291.1728,-319.5255 297.1728,-313.5255 303.1728,-313.5255 303.1728,-313.5255 403.508,-313.5255 403.508,-313.5255 409.508,-313.5255 415.508,-319.5255 415.508,-325.5255 415.508,-325.5255 415.508,-337.5255 415.508,-337.5255 415.508,-343.5255 409.508,-349.5255 403.508,-349.5255"/>
<text text-anchor="middle" x="353.3404" y="-327.9255" font-family="Arial" font-size="12.00" fill="#000000">Revisar manuscritos</text>
</g>
<!-- Acceder al panel de dictaminador&#45;&gt;Revisar manuscritos -->
<g id="edge3" class="edge">
<title>Acceder al panel de dictaminador-&gt;Revisar manuscritos</title>
<path fill="none" stroke="#000000" d="M577.2576,-396.9852C531.9145,-391.7517 477.6288,-383.0092 430.3404,-368.5255 418.3751,-364.8607 405.9327,-359.5924 394.6273,-354.1756"/>
<polygon fill="#000000" stroke="#000000" points="395.9483,-350.9242 385.4337,-349.6226 392.8417,-357.1971 395.9483,-350.9242"/>
</g>
<!-- Consultar estadísticas -->
<g id="node6" class="node">
<title>Consultar estadísticas</title>
<path fill="none" stroke="#000000" d="M598.5192,-349.5255C598.5192,-349.5255 484.1616,-349.5255 484.1616,-349.5255 478.1616,-349.5255 472.1616,-343.5255 472.1616,-337.5255 472.1616,-337.5255 472.1616,-325.5255 472.1616,-325.5255 472.1616,-319.5255 478.1616,-313.5255 484.1616,-313.5255 484.1616,-313.5255 598.5192,-313.5255 598.5192,-313.5255 604.5192,-313.5255 610.5192,-319.5255 610.5192,-325.5255 610.5192,-325.5255 610.5192,-337.5255 610.5192,-337.5255 610.5192,-343.5255 604.5192,-349.5255 598.5192,-349.5255"/>
<text text-anchor="middle" x="541.3404" y="-327.9255" font-family="Arial" font-size="12.00" fill="#000000">Consultar estadísticas</text>
</g>
<!-- Acceder al panel de dictaminador&#45;&gt;Consultar estadísticas -->
<g id="edge4" class="edge">
<title>Acceder al panel de dictaminador-&gt;Consultar estadísticas</title>
<path fill="none" stroke="#000000" d="M641.464,-386.4805C623.8796,-376.829 602.0388,-364.8411 583.2474,-354.5271"/>
<polygon fill="#000000" stroke="#000000" points="584.75,-351.3593 574.2995,-349.6158 581.3818,-357.4957 584.75,-351.3593"/>
</g>
<!-- Editar perfil -->
<g id="node7" class="node">
<title>Editar perfil</title>
<path fill="none" stroke="#000000" d="M848.5095,-349.5255C848.5095,-349.5255 796.1713,-349.5255 796.1713,-349.5255 790.1713,-349.5255 784.1713,-343.5255 784.1713,-337.5255 784.1713,-337.5255 784.1713,-325.5255 784.1713,-325.5255 784.1713,-319.5255 790.1713,-313.5255 796.1713,-313.5255 796.1713,-313.5255 848.5095,-313.5255 848.5095,-313.5255 854.5095,-313.5255 860.5095,-319.5255 860.5095,-325.5255 860.5095,-325.5255 860.5095,-337.5255 860.5095,-337.5255 860.5095,-343.5255 854.5095,-349.5255 848.5095,-349.5255"/>
<text text-anchor="middle" x="822.3404" y="-327.9255" font-family="Arial" font-size="12.00" fill="#000000">Editar perfil</text>
</g>
<!-- Acceder al panel de dictaminador&#45;&gt;Editar perfil -->
<g id="edge5" class="edge">
<title>Acceder al panel de dictaminador-&gt;Editar perfil</title>
<path fill="none" stroke="#000000" d="M722.4795,-386.4969C735.6036,-381.1344 749.6868,-374.9603 762.3404,-368.5255 770.3454,-364.4547 778.6913,-359.6774 786.5248,-354.9332"/>
<polygon fill="#000000" stroke="#000000" points="788.4391,-357.8646 795.1059,-349.6303 784.7592,-351.9099 788.4391,-357.8646"/>
</g>
<!-- Cerrar sesión -->
<g id="node19" class="node">
<title>Cerrar sesión</title>
<path fill="none" stroke="#000000" d="M708.334,-349.5255C708.334,-349.5255 640.3468,-349.5255 640.3468,-349.5255 634.3468,-349.5255 628.3468,-343.5255 628.3468,-337.5255 628.3468,-337.5255 628.3468,-325.5255 628.3468,-325.5255 628.3468,-319.5255 634.3468,-313.5255 640.3468,-313.5255 640.3468,-313.5255 708.334,-313.5255 708.334,-313.5255 714.334,-313.5255 720.334,-319.5255 720.334,-325.5255 720.334,-325.5255 720.334,-337.5255 720.334,-337.5255 720.334,-343.5255 714.334,-349.5255 708.334,-349.5255"/>
<text text-anchor="middle" x="674.3404" y="-327.9255" font-family="Arial" font-size="12.00" fill="#000000">Cerrar sesión</text>
</g>
<!-- Acceder al panel de dictaminador&#45;&gt;Cerrar sesión -->
<g id="edge22" class="edge">
<title>Acceder al panel de dictaminador-&gt;Cerrar sesión</title>
<path fill="none" stroke="#000000" d="M674.3404,-386.4805C674.3404,-378.4083 674.3404,-368.7019 674.3404,-359.7072"/>
<polygon fill="#000000" stroke="#000000" points="677.8405,-359.6158 674.3404,-349.6158 670.8405,-359.6159 677.8405,-359.6158"/>
</g>
<!-- Descargar manuscrito -->
<g id="node8" class="node">
<title>Descargar manuscrito</title>
<path fill="none" stroke="#000000" d="M368.1816,-273.6627C368.1816,-273.6627 258.4992,-273.6627 258.4992,-273.6627 252.4992,-273.6627 246.4992,-267.6627 246.4992,-261.6627 246.4992,-261.6627 246.4992,-249.6627 246.4992,-249.6627 246.4992,-243.6627 252.4992,-237.6627 258.4992,-237.6627 258.4992,-237.6627 368.1816,-237.6627 368.1816,-237.6627 374.1816,-237.6627 380.1816,-243.6627 380.1816,-249.6627 380.1816,-249.6627 380.1816,-261.6627 380.1816,-261.6627 380.1816,-267.6627 374.1816,-273.6627 368.1816,-273.6627"/>
<text text-anchor="middle" x="313.3404" y="-252.0627" font-family="Arial" font-size="12.00" fill="#000000">Descargar manuscrito</text>
</g>
<!-- Revisar manuscritos&#45;&gt;Descargar manuscrito -->
<g id="edge6" class="edge">
<title>Revisar manuscritos-&gt;Descargar manuscrito</title>
<path fill="none" stroke="#000000" d="M343.6575,-313.1612C338.8425,-304.0292 332.9288,-292.8136 327.6068,-282.72"/>
<polygon fill="#000000" stroke="#000000" points="330.6942,-281.0712 322.9341,-273.8579 324.5022,-284.336 330.6942,-281.0712"/>
</g>
<!-- Filtrar por estado del manuscrito -->
<g id="node14" class="node">
<title>Filtrar por estado del manuscrito</title>
<path fill="none" stroke="#000000" d="M648.3604,-273.6627C648.3604,-273.6627 484.3204,-273.6627 484.3204,-273.6627 478.3204,-273.6627 472.3204,-267.6627 472.3204,-261.6627 472.3204,-261.6627 472.3204,-249.6627 472.3204,-249.6627 472.3204,-243.6627 478.3204,-237.6627 484.3204,-237.6627 484.3204,-237.6627 648.3604,-237.6627 648.3604,-237.6627 654.3604,-237.6627 660.3604,-243.6627 660.3604,-249.6627 660.3604,-249.6627 660.3604,-261.6627 660.3604,-261.6627 660.3604,-267.6627 654.3604,-273.6627 648.3604,-273.6627"/>
<text text-anchor="middle" x="566.3404" y="-252.0627" font-family="Arial" font-size="12.00" fill="#000000">Filtrar por estado del manuscrito</text>
</g>
<!-- Consultar estadísticas&#45;&gt;Filtrar por estado del manuscrito -->
<g id="edge14" class="edge">
<title>Consultar estadísticas-&gt;Filtrar por estado del manuscrito</title>
<path fill="none" stroke="#000000" d="M547.3922,-313.1612C550.3095,-304.3088 553.872,-293.4983 557.1174,-283.65"/>
<polygon fill="#000000" stroke="#000000" points="560.5386,-284.4509 560.3443,-273.8579 553.8903,-282.26 560.5386,-284.4509"/>
</g>
<!-- Actualizar información -->
<g id="node17" class="node">
<title>Actualizar información</title>
<path fill="none" stroke="#000000" d="M902.3444,-273.6627C902.3444,-273.6627 788.3364,-273.6627 788.3364,-273.6627 782.3364,-273.6627 776.3364,-267.6627 776.3364,-261.6627 776.3364,-261.6627 776.3364,-249.6627 776.3364,-249.6627 776.3364,-243.6627 782.3364,-237.6627 788.3364,-237.6627 788.3364,-237.6627 902.3444,-237.6627 902.3444,-237.6627 908.3444,-237.6627 914.3444,-243.6627 914.3444,-249.6627 914.3444,-249.6627 914.3444,-261.6627 914.3444,-261.6627 914.3444,-267.6627 908.3444,-273.6627 902.3444,-273.6627"/>
<text text-anchor="middle" x="845.3404" y="-252.0627" font-family="Arial" font-size="12.00" fill="#000000">Actualizar información</text>
</g>
<!-- Editar perfil&#45;&gt;Actualizar información -->
<g id="edge17" class="edge">
<title>Editar perfil-&gt;Actualizar información</title>
<path fill="none" stroke="#000000" d="M827.9081,-313.1612C830.5919,-304.3088 833.8695,-293.4983 836.8552,-283.65"/>
<polygon fill="#000000" stroke="#000000" points="840.272,-284.4432 839.824,-273.8579 833.5731,-282.4122 840.272,-284.4432"/>
</g>
<!-- Evaluar manuscrito -->
<g id="node9" class="node">
<title>Evaluar manuscrito</title>
<path fill="none" stroke="#000000" d="M277.5188,-197.8C277.5188,-197.8 183.162,-197.8 183.162,-197.8 177.162,-197.8 171.162,-191.8 171.162,-185.8 171.162,-185.8 171.162,-173.8 171.162,-173.8 171.162,-167.8 177.162,-161.8 183.162,-161.8 183.162,-161.8 277.5188,-161.8 277.5188,-161.8 283.5188,-161.8 289.5188,-167.8 289.5188,-173.8 289.5188,-173.8 289.5188,-185.8 289.5188,-185.8 289.5188,-191.8 283.5188,-197.8 277.5188,-197.8"/>
<text text-anchor="middle" x="230.3404" y="-176.2" font-family="Arial" font-size="12.00" fill="#000000">Evaluar manuscrito</text>
</g>
<!-- Descargar manuscrito&#45;&gt;Evaluar manuscrito -->
<g id="edge7" class="edge">
<title>Descargar manuscrito-&gt;Evaluar manuscrito</title>
<path fill="none" stroke="#000000" d="M293.2484,-237.2985C282.6456,-227.6074 269.4753,-215.5697 257.9295,-205.0167"/>
<polygon fill="#000000" stroke="#000000" points="259.99,-202.1583 250.2474,-197.9951 255.2674,-207.3252 259.99,-202.1583"/>
</g>
<!-- Aprobar manuscrito -->
<g id="node10" class="node">
<title>Aprobar manuscrito</title>
<path fill="none" stroke="#000000" d="M108.5216,-109C108.5216,-109 12.1592,-109 12.1592,-109 6.1592,-109 .1592,-103 .1592,-97 .1592,-97 .1592,-85 .1592,-85 .1592,-79 6.1592,-73 12.1592,-73 12.1592,-73 108.5216,-73 108.5216,-73 114.5216,-73 120.5216,-79 120.5216,-85 120.5216,-85 120.5216,-97 120.5216,-97 120.5216,-103 114.5216,-109 108.5216,-109"/>
<text text-anchor="middle" x="60.3404" y="-87.4" font-family="Arial" font-size="12.00" fill="#000000">Aprobar manuscrito</text>
</g>
<!-- Evaluar manuscrito&#45;&gt;Aprobar manuscrito -->
<g id="edge8" class="edge">
<title>Evaluar manuscrito-&gt;Aprobar manuscrito</title>
<path fill="none" stroke="#000000" d="M191.5921,-161.7374C179.8783,-156.132 167.03,-149.8378 155.3586,-143.8 137.2557,-134.4351 117.5159,-123.5745 100.7423,-114.1471"/>
<polygon fill="#000000" stroke="#000000" points="102.1869,-110.9434 91.758,-109.0756 98.7459,-117.0393 102.1869,-110.9434"/>
<text text-anchor="middle" x="184.3313" y="-131.2" font-family="Times,serif" font-size="14.00" fill="#000000">Aprobado</text>
</g>
<!-- Solicitar correcciones -->
<g id="node11" class="node">
<title>Solicitar correcciones</title>
<path fill="none" stroke="#000000" d="M256.344,-109C256.344,-109 150.3368,-109 150.3368,-109 144.3368,-109 138.3368,-103 138.3368,-97 138.3368,-97 138.3368,-85 138.3368,-85 138.3368,-79 144.3368,-73 150.3368,-73 150.3368,-73 256.344,-73 256.344,-73 262.344,-73 268.344,-79 268.344,-85 268.344,-85 268.344,-97 268.344,-97 268.344,-103 262.344,-109 256.344,-109"/>
<text text-anchor="middle" x="203.3404" y="-87.4" font-family="Arial" font-size="12.00" fill="#000000">Solicitar correcciones</text>
</g>
<!-- Evaluar manuscrito&#45;&gt;Solicitar correcciones -->
<g id="edge9" class="edge">
<title>Evaluar manuscrito-&gt;Solicitar correcciones</title>
<path fill="none" stroke="#000000" d="M224.746,-161.4006C220.9923,-149.0552 215.9796,-132.5689 211.7487,-118.6539"/>
<polygon fill="#000000" stroke="#000000" points="215.093,-117.6214 208.8353,-109.072 208.3958,-119.6577 215.093,-117.6214"/>
<text text-anchor="middle" x="256.2661" y="-131.2" font-family="Times,serif" font-size="14.00" fill="#000000">Correcciones</text>
</g>
<!-- Rechazar manuscrito -->
<g id="node12" class="node">
<title>Rechazar manuscrito</title>
<path fill="none" stroke="#000000" d="M404.1869,-109C404.1869,-109 298.4939,-109 298.4939,-109 292.4939,-109 286.4939,-103 286.4939,-97 286.4939,-97 286.4939,-85 286.4939,-85 286.4939,-79 292.4939,-73 298.4939,-73 298.4939,-73 404.1869,-73 404.1869,-73 410.1869,-73 416.1869,-79 416.1869,-85 416.1869,-85 416.1869,-97 416.1869,-97 416.1869,-103 410.1869,-109 404.1869,-109"/>
<text text-anchor="middle" x="351.3404" y="-87.4" font-family="Arial" font-size="12.00" fill="#000000">Rechazar manuscrito</text>
</g>
<!-- Evaluar manuscrito&#45;&gt;Rechazar manuscrito -->
<g id="edge10" class="edge">
<title>Evaluar manuscrito-&gt;Rechazar manuscrito</title>
<path fill="none" stroke="#000000" d="M268.3279,-161.7777C278.115,-156.5005 288.4014,-150.3671 297.3404,-143.8 308.0722,-135.9158 318.7881,-125.977 327.8115,-116.8548"/>
<polygon fill="#000000" stroke="#000000" points="330.5332,-119.0746 334.9563,-109.4472 325.4949,-114.215 330.5332,-119.0746"/>
<text text-anchor="middle" x="348.0452" y="-131.2" font-family="Times,serif" font-size="14.00" fill="#000000">Rechazado</text>
</g>
<!-- Registrar resultado -->
<g id="node13" class="node">
<title>Registrar resultado</title>
<path fill="none" stroke="#000000" d="M315.1845,-36C315.1845,-36 221.4963,-36 221.4963,-36 215.4963,-36 209.4963,-30 209.4963,-24 209.4963,-24 209.4963,-12 209.4963,-12 209.4963,-6 215.4963,0 221.4963,0 221.4963,0 315.1845,0 315.1845,0 321.1845,0 327.1845,-6 327.1845,-12 327.1845,-12 327.1845,-24 327.1845,-24 327.1845,-30 321.1845,-36 315.1845,-36"/>
<text text-anchor="middle" x="268.3404" y="-14.4" font-family="Arial" font-size="12.00" fill="#000000">Registrar resultado</text>
</g>
<!-- Aprobar manuscrito&#45;&gt;Registrar resultado -->
<g id="edge11" class="edge">
<title>Aprobar manuscrito-&gt;Registrar resultado</title>
<path fill="none" stroke="#000000" d="M111.7561,-72.9551C140.6315,-62.8209 176.846,-50.111 207.1726,-39.4675"/>
<polygon fill="#000000" stroke="#000000" points="208.5186,-42.7045 216.7953,-36.0904 206.2004,-36.0995 208.5186,-42.7045"/>
</g>
<!-- Solicitar correcciones&#45;&gt;Registrar resultado -->
<g id="edge12" class="edge">
<title>Solicitar correcciones-&gt;Registrar resultado</title>
<path fill="none" stroke="#000000" d="M219.4078,-72.9551C227.2985,-64.0932 236.943,-53.2616 245.5774,-43.5646"/>
<polygon fill="#000000" stroke="#000000" points="248.1965,-45.8863 252.2325,-36.0904 242.9686,-41.2313 248.1965,-45.8863"/>
</g>
<!-- Rechazar manuscrito&#45;&gt;Registrar resultado -->
<g id="edge13" class="edge">
<title>Rechazar manuscrito-&gt;Registrar resultado</title>
<path fill="none" stroke="#000000" d="M330.8235,-72.9551C320.4484,-63.8299 307.6988,-52.6165 296.4281,-42.7036"/>
<polygon fill="#000000" stroke="#000000" points="298.7293,-40.0665 288.9089,-36.0904 294.1063,-45.3228 298.7293,-40.0665"/>
</g>
<!-- Registrar resultado&#45;&gt;Acceder al panel de dictaminador -->
<g id="edge19" class="edge">
<title>Registrar resultado-&gt;Acceder al panel de dictaminador</title>
<path fill="none" stroke="#000000" d="M327.4355,-30.7801C378.5653,-43.5969 444.3404,-65.1152 444.3404,-91 444.3404,-331.5255 444.3404,-331.5255 444.3404,-331.5255 444.3404,-359.5525 507.1706,-378.224 567.1532,-389.6633"/>
<polygon fill="#000000" stroke="#000000" points="566.6636,-393.132 577.1331,-391.5069 567.9353,-386.2484 566.6636,-393.132"/>
</g>
<!-- Ver estadísticas generales -->
<g id="node15" class="node">
<title>Ver estadísticas generales</title>
<path fill="none" stroke="#000000" d="M680.366,-197.8C680.366,-197.8 542.3148,-197.8 542.3148,-197.8 536.3148,-197.8 530.3148,-191.8 530.3148,-185.8 530.3148,-185.8 530.3148,-173.8 530.3148,-173.8 530.3148,-167.8 536.3148,-161.8 542.3148,-161.8 542.3148,-161.8 680.366,-161.8 680.366,-161.8 686.366,-161.8 692.366,-167.8 692.366,-173.8 692.366,-173.8 692.366,-185.8 692.366,-185.8 692.366,-191.8 686.366,-197.8 680.366,-197.8"/>
<text text-anchor="middle" x="611.3404" y="-176.2" font-family="Arial" font-size="12.00" fill="#000000">Ver estadísticas generales</text>
</g>
<!-- Filtrar por estado del manuscrito&#45;&gt;Ver estadísticas generales -->
<g id="edge15" class="edge">
<title>Filtrar por estado del manuscrito-&gt;Ver estadísticas generales</title>
<path fill="none" stroke="#000000" d="M577.2336,-237.2985C582.6505,-228.1665 589.3034,-216.9508 595.2907,-206.8573"/>
<polygon fill="#000000" stroke="#000000" points="598.4559,-208.3815 600.5475,-197.9951 592.4354,-204.8102 598.4559,-208.3815"/>
</g>
<!-- Descargar reporte -->
<g id="node16" class="node">
<title>Descargar reporte</title>
<path fill="none" stroke="#000000" d="M890.5189,-109C890.5189,-109 802.1619,-109 802.1619,-109 796.1619,-109 790.1619,-103 790.1619,-97 790.1619,-97 790.1619,-85 790.1619,-85 790.1619,-79 796.1619,-73 802.1619,-73 802.1619,-73 890.5189,-73 890.5189,-73 896.5189,-73 902.5189,-79 902.5189,-85 902.5189,-85 902.5189,-97 902.5189,-97 902.5189,-103 896.5189,-109 890.5189,-109"/>
<text text-anchor="middle" x="846.3404" y="-87.4" font-family="Arial" font-size="12.00" fill="#000000">Descargar reporte</text>
</g>
<!-- Ver estadísticas generales&#45;&gt;Descargar reporte -->
<g id="edge16" class="edge">
<title>Ver estadísticas generales-&gt;Descargar reporte</title>
<path fill="none" stroke="#000000" d="M659.1794,-161.723C696.7447,-147.5281 749.1774,-127.7152 788.9926,-112.6702"/>
<polygon fill="#000000" stroke="#000000" points="790.4511,-115.8606 798.5684,-109.0517 787.9768,-109.3125 790.4511,-115.8606"/>
</g>
<!-- Descargar reporte&#45;&gt;Acceder al panel de dictaminador -->
<g id="edge20" class="edge">
<title>Descargar reporte-&gt;Acceder al panel de dictaminador</title>
<path fill="none" stroke="#000000" d="M886.7748,-109.122C913.0109,-123.933 942.3404,-147.6745 942.3404,-179.8 942.3404,-331.5255 942.3404,-331.5255 942.3404,-331.5255 942.3404,-366.5425 856.0893,-385.3227 781.4481,-395.019"/>
<polygon fill="#000000" stroke="#000000" points="780.9598,-391.5527 771.4735,-396.2707 781.8315,-398.4982 780.9598,-391.5527"/>
</g>
<!-- Guardar cambios -->
<g id="node18" class="node">
<title>Guardar cambios</title>
<path fill="none" stroke="#000000" d="M820.3528,-197.8C820.3528,-197.8 736.328,-197.8 736.328,-197.8 730.328,-197.8 724.328,-191.8 724.328,-185.8 724.328,-185.8 724.328,-173.8 724.328,-173.8 724.328,-167.8 730.328,-161.8 736.328,-161.8 736.328,-161.8 820.3528,-161.8 820.3528,-161.8 826.3528,-161.8 832.3528,-167.8 832.3528,-173.8 832.3528,-173.8 832.3528,-185.8 832.3528,-185.8 832.3528,-191.8 826.3528,-197.8 820.3528,-197.8"/>
<text text-anchor="middle" x="778.3404" y="-176.2" font-family="Arial" font-size="12.00" fill="#000000">Guardar cambios</text>
</g>
<!-- Actualizar información&#45;&gt;Guardar cambios -->
<g id="edge18" class="edge">
<title>Actualizar información-&gt;Guardar cambios</title>
<path fill="none" stroke="#000000" d="M829.1216,-237.2985C820.7272,-227.7937 810.3394,-216.0318 801.1503,-205.6272"/>
<polygon fill="#000000" stroke="#000000" points="803.653,-203.1736 794.4099,-197.9951 798.4062,-207.8074 803.653,-203.1736"/>
</g>
<!-- Guardar cambios&#45;&gt;Acceder al panel de dictaminador -->
<g id="edge21" class="edge">
<title>Guardar cambios-&gt;Acceder al panel de dictaminador</title>
<path fill="none" stroke="#000000" d="M774.3112,-197.9621C765.646,-236.1466 744.7744,-323.3778 729.3404,-349.5255 722.8516,-360.5186 713.6554,-370.8925 704.6361,-379.6056"/>
<polygon fill="#000000" stroke="#000000" points="702.1329,-377.1532 697.1648,-386.5111 706.8841,-382.2938 702.1329,-377.1532"/>
</g>
<!-- Cerrar sesión&#45;&gt;Fin -->
<g id="edge23" class="edge">
<title>Cerrar sesión-&gt;Fin</title>
<path fill="none" stroke="#000000" d="M680.3922,-313.1612C683.1302,-304.8528 686.4365,-294.8196 689.5157,-285.4759"/>
<polygon fill="#000000" stroke="#000000" points="692.9243,-286.315 692.73,-275.7219 686.276,-284.1241 692.9243,-286.315"/>
</g>
</g>
</svg>