<?xml version="1.0" encoding="UTF-8" standalone="no"?><!DOCTYPE svg PUBLIC "-//W3C//DTD SVG 1.1//EN" "http://www.w3.org/Graphics/SVG/1.1/DTD/svg11.dtd"><!-- Generated by graphviz version 2.40.1 (20161225.0304)
 --><!-- Title: PanelInstitucion Pages: 1 --><svg xmlns="http://www.w3.org/2000/svg" xmlns:xlink="http://www.w3.org/1999/xlink" width="965pt" height="800pt" viewBox="0.00 0.00 964.76 799.76">
<g id="graph0" class="graph" transform="scale(1 1) rotate(0) translate(4 795.7585)">
<title>PanelInstitucion</title>
<polygon fill="#ffffff" stroke="transparent" points="-4,4 -4,-795.7585 960.7564,-795.7585 960.7564,4 -4,4"/>
<!-- inicio -->
<g id="node1" class="node">
<title>inicio</title>
<ellipse fill="none" stroke="#000000" cx="592.0372" cy="-758.1962" rx="33.6247" ry="33.6247"/>
<text text-anchor="middle" x="592.0372" y="-753.9962" font-family="Times,serif" font-size="14.00" fill="#000000">Inicio</text>
</g>
<!-- iniciarSesion -->
<g id="node3" class="node">
<title>iniciarSesion</title>
<path fill="none" stroke="#000000" d="M627.7243,-687.6339C627.7243,-687.6339 556.3501,-687.6339 556.3501,-687.6339 550.3501,-687.6339 544.3501,-681.6339 544.3501,-675.6339 544.3501,-675.6339 544.3501,-663.6339 544.3501,-663.6339 544.3501,-657.6339 550.3501,-651.6339 556.3501,-651.6339 556.3501,-651.6339 627.7243,-651.6339 627.7243,-651.6339 633.7243,-651.6339 639.7243,-657.6339 639.7243,-663.6339 639.7243,-663.6339 639.7243,-675.6339 639.7243,-675.6339 639.7243,-681.6339 633.7243,-687.6339 627.7243,-687.6339"/>
<text text-anchor="middle" x="592.0372" y="-665.4339" font-family="Times,serif" font-size="14.00" fill="#000000">Iniciar sesión</text>
</g>
<!-- inicio&#45;&gt;iniciarSesion -->
<g id="edge1" class="edge">
<title>inicio-&gt;iniciarSesion</title>
<path fill="none" stroke="#000000" d="M592.0372,-724.4619C592.0372,-715.6631 592.0372,-706.2745 592.0372,-697.7982"/>
<polygon fill="#000000" stroke="#000000" points="595.5373,-697.6625 592.0372,-687.6625 588.5373,-697.6626 595.5373,-697.6625"/>
</g>
<!-- fin -->
<g id="node2" class="node">
<title>fin</title>
<ellipse fill="none" stroke="#000000" cx="562.0372" cy="-27.9169" rx="23.846" ry="23.846"/>
<ellipse fill="none" stroke="#000000" cx="562.0372" cy="-27.9169" rx="27.8341" ry="27.8341"/>
<text text-anchor="middle" x="562.0372" y="-23.7169" font-family="Times,serif" font-size="14.00" fill="#000000">Fin</text>
</g>
<!-- accesoPermitido -->
<g id="node4" class="node">
<title>accesoPermitido</title>
<path fill="none" stroke="#000000" d="M564.6699,-598.8339C564.6699,-598.8339 473.4045,-598.8339 473.4045,-598.8339 467.4045,-598.8339 461.4045,-592.8339 461.4045,-586.8339 461.4045,-586.8339 461.4045,-574.8339 461.4045,-574.8339 461.4045,-568.8339 467.4045,-562.8339 473.4045,-562.8339 473.4045,-562.8339 564.6699,-562.8339 564.6699,-562.8339 570.6699,-562.8339 576.6699,-568.8339 576.6699,-574.8339 576.6699,-574.8339 576.6699,-586.8339 576.6699,-586.8339 576.6699,-592.8339 570.6699,-598.8339 564.6699,-598.8339"/>
<text text-anchor="middle" x="519.0372" y="-576.6339" font-family="Times,serif" font-size="14.00" fill="#000000">Acceso permitido</text>
</g>
<!-- iniciarSesion&#45;&gt;accesoPermitido -->
<g id="edge2" class="edge">
<title>iniciarSesion-&gt;accesoPermitido</title>
<path fill="none" stroke="#000000" d="M544.2911,-652.6568C536.1635,-647.7217 528.6808,-641.4764 523.4796,-633.6339 518.7083,-626.4395 516.8381,-617.4246 516.3833,-608.8905"/>
<polygon fill="#000000" stroke="#000000" points="519.8832,-608.8905 516.4305,-598.8741 512.8833,-608.8574 519.8832,-608.8905"/>
<text text-anchor="middle" x="583.316" y="-621.0339" font-family="Times,serif" font-size="14.00" fill="#000000">Credenciales válidas</text>
</g>
<!-- mostrarError -->
<g id="node5" class="node">
<title>mostrarError</title>
<path fill="none" stroke="#000000" d="M699.5492,-598.8339C699.5492,-598.8339 632.5252,-598.8339 632.5252,-598.8339 626.5252,-598.8339 620.5252,-592.8339 620.5252,-586.8339 620.5252,-586.8339 620.5252,-574.8339 620.5252,-574.8339 620.5252,-568.8339 626.5252,-562.8339 632.5252,-562.8339 632.5252,-562.8339 699.5492,-562.8339 699.5492,-562.8339 705.5492,-562.8339 711.5492,-568.8339 711.5492,-574.8339 711.5492,-574.8339 711.5492,-586.8339 711.5492,-586.8339 711.5492,-592.8339 705.5492,-598.8339 699.5492,-598.8339"/>
<text text-anchor="middle" x="666.0372" y="-576.6339" font-family="Times,serif" font-size="14.00" fill="#000000">Mostrar error</text>
</g>
<!-- iniciarSesion&#45;&gt;mostrarError -->
<g id="edge3" class="edge">
<title>iniciarSesion-&gt;mostrarError</title>
<path fill="none" stroke="#000000" d="M622.4873,-651.5586C629.5216,-646.3986 636.5442,-640.3342 642.0372,-633.6339 648.0669,-626.2789 652.9143,-617.1636 656.631,-608.5882"/>
<polygon fill="#000000" stroke="#000000" points="659.8984,-609.8435 660.3496,-599.2583 653.3958,-607.2518 659.8984,-609.8435"/>
<text text-anchor="middle" x="717.7613" y="-621.0339" font-family="Times,serif" font-size="14.00" fill="#000000">Credenciales inválidas</text>
</g>
<!-- accesoAplicacion -->
<g id="node8" class="node">
<title>accesoAplicacion</title>
<path fill="none" stroke="#000000" d="M565.2429,-525.8339C565.2429,-525.8339 442.8315,-525.8339 442.8315,-525.8339 436.8315,-525.8339 430.8315,-519.8339 430.8315,-513.8339 430.8315,-513.8339 430.8315,-501.8339 430.8315,-501.8339 430.8315,-495.8339 436.8315,-489.8339 442.8315,-489.8339 442.8315,-489.8339 565.2429,-489.8339 565.2429,-489.8339 571.2429,-489.8339 577.2429,-495.8339 577.2429,-501.8339 577.2429,-501.8339 577.2429,-513.8339 577.2429,-513.8339 577.2429,-519.8339 571.2429,-525.8339 565.2429,-525.8339"/>
<text text-anchor="middle" x="504.0372" y="-503.6339" font-family="Times,serif" font-size="14.00" fill="#000000">Acceso a la aplicación</text>
</g>
<!-- accesoPermitido&#45;&gt;accesoAplicacion -->
<g id="edge6" class="edge">
<title>accesoPermitido-&gt;accesoAplicacion</title>
<path fill="none" stroke="#000000" d="M515.3293,-562.7889C513.6526,-554.629 511.6328,-544.7991 509.7678,-535.7226"/>
<polygon fill="#000000" stroke="#000000" points="513.1956,-535.0151 507.7544,-525.9242 506.3388,-536.4241 513.1956,-535.0151"/>
</g>
<!-- recuperarContrasena -->
<g id="node6" class="node">
<title>recuperarContrasena</title>
<path fill="none" stroke="#000000" d="M724.569,-525.8339C724.569,-525.8339 607.5054,-525.8339 607.5054,-525.8339 601.5054,-525.8339 595.5054,-519.8339 595.5054,-513.8339 595.5054,-513.8339 595.5054,-501.8339 595.5054,-501.8339 595.5054,-495.8339 601.5054,-489.8339 607.5054,-489.8339 607.5054,-489.8339 724.569,-489.8339 724.569,-489.8339 730.569,-489.8339 736.569,-495.8339 736.569,-501.8339 736.569,-501.8339 736.569,-513.8339 736.569,-513.8339 736.569,-519.8339 730.569,-525.8339 724.569,-525.8339"/>
<text text-anchor="middle" x="666.0372" y="-503.6339" font-family="Times,serif" font-size="14.00" fill="#000000">Recuperar contraseña</text>
</g>
<!-- mostrarError&#45;&gt;recuperarContrasena -->
<g id="edge4" class="edge">
<title>mostrarError-&gt;recuperarContrasena</title>
<path fill="none" stroke="#000000" d="M666.0372,-562.7889C666.0372,-554.7167 666.0372,-545.0103 666.0372,-536.0156"/>
<polygon fill="#000000" stroke="#000000" points="669.5373,-535.9242 666.0372,-525.9242 662.5373,-535.9243 669.5373,-535.9242"/>
</g>
<!-- añadirInfoUsuario -->
<g id="node7" class="node">
<title>añadirInfoUsuario</title>
<path fill="none" stroke="#000000" d="M940.5785,-525.8339C940.5785,-525.8339 767.4959,-525.8339 767.4959,-525.8339 761.4959,-525.8339 755.4959,-519.8339 755.4959,-513.8339 755.4959,-513.8339 755.4959,-501.8339 755.4959,-501.8339 755.4959,-495.8339 761.4959,-489.8339 767.4959,-489.8339 767.4959,-489.8339 940.5785,-489.8339 940.5785,-489.8339 946.5785,-489.8339 952.5785,-495.8339 952.5785,-501.8339 952.5785,-501.8339 952.5785,-513.8339 952.5785,-513.8339 952.5785,-519.8339 946.5785,-525.8339 940.5785,-525.8339"/>
<text text-anchor="middle" x="854.0372" y="-503.6339" font-family="Times,serif" font-size="14.00" fill="#000000">Añadir información de usuario</text>
</g>
<!-- mostrarError&#45;&gt;añadirInfoUsuario -->
<g id="edge5" class="edge">
<title>mostrarError-&gt;añadirInfoUsuario</title>
<path fill="none" stroke="#000000" d="M711.5468,-563.1626C737.5987,-553.0467 770.4937,-540.2737 798.1118,-529.5496"/>
<polygon fill="#000000" stroke="#000000" points="799.5857,-532.732 807.6407,-525.8496 797.0519,-526.2066 799.5857,-532.732"/>
</g>
<!-- nuevoRegistro -->
<g id="node9" class="node">
<title>nuevoRegistro</title>
<path fill="none" stroke="#000000" d="M355.6209,-452.8339C355.6209,-452.8339 280.4535,-452.8339 280.4535,-452.8339 274.4535,-452.8339 268.4535,-446.8339 268.4535,-440.8339 268.4535,-440.8339 268.4535,-428.8339 268.4535,-428.8339 268.4535,-422.8339 274.4535,-416.8339 280.4535,-416.8339 280.4535,-416.8339 355.6209,-416.8339 355.6209,-416.8339 361.6209,-416.8339 367.6209,-422.8339 367.6209,-428.8339 367.6209,-428.8339 367.6209,-440.8339 367.6209,-440.8339 367.6209,-446.8339 361.6209,-452.8339 355.6209,-452.8339"/>
<text text-anchor="middle" x="318.0372" y="-430.6339" font-family="Times,serif" font-size="14.00" fill="#000000">Nuevo registro</text>
</g>
<!-- accesoAplicacion&#45;&gt;nuevoRegistro -->
<g id="edge7" class="edge">
<title>accesoAplicacion-&gt;nuevoRegistro</title>
<path fill="none" stroke="#000000" d="M458.0597,-489.7889C432.462,-479.7425 400.4146,-467.1648 373.4409,-456.5783"/>
<polygon fill="#000000" stroke="#000000" points="374.7179,-453.3197 364.1304,-452.9242 372.1605,-459.8358 374.7179,-453.3197"/>
</g>
<!-- editarRegistro -->
<g id="node10" class="node">
<title>editarRegistro</title>
<path fill="none" stroke="#000000" d="M498.509,-452.8339C498.509,-452.8339 425.5654,-452.8339 425.5654,-452.8339 419.5654,-452.8339 413.5654,-446.8339 413.5654,-440.8339 413.5654,-440.8339 413.5654,-428.8339 413.5654,-428.8339 413.5654,-422.8339 419.5654,-416.8339 425.5654,-416.8339 425.5654,-416.8339 498.509,-416.8339 498.509,-416.8339 504.509,-416.8339 510.509,-422.8339 510.509,-428.8339 510.509,-428.8339 510.509,-440.8339 510.509,-440.8339 510.509,-446.8339 504.509,-452.8339 498.509,-452.8339"/>
<text text-anchor="middle" x="462.0372" y="-430.6339" font-family="Times,serif" font-size="14.00" fill="#000000">Editar registro</text>
</g>
<!-- accesoAplicacion&#45;&gt;editarRegistro -->
<g id="edge8" class="edge">
<title>accesoAplicacion-&gt;editarRegistro</title>
<path fill="none" stroke="#000000" d="M493.6552,-489.7889C488.809,-481.3658 482.939,-471.1631 477.5788,-461.8466"/>
<polygon fill="#000000" stroke="#000000" points="480.4661,-459.8466 472.4454,-452.9242 474.3986,-463.3375 480.4661,-459.8466"/>
</g>
<!-- altaAdministrador -->
<g id="node11" class="node">
<title>altaAdministrador</title>
<path fill="none" stroke="#000000" d="M606.1116,-398.8339C606.1116,-398.8339 491.9628,-398.8339 491.9628,-398.8339 485.9628,-398.8339 479.9628,-392.8339 479.9628,-386.8339 479.9628,-386.8339 479.9628,-374.8339 479.9628,-374.8339 479.9628,-368.8339 485.9628,-362.8339 491.9628,-362.8339 491.9628,-362.8339 606.1116,-362.8339 606.1116,-362.8339 612.1116,-362.8339 618.1116,-368.8339 618.1116,-374.8339 618.1116,-374.8339 618.1116,-386.8339 618.1116,-386.8339 618.1116,-392.8339 612.1116,-398.8339 606.1116,-398.8339"/>
<text text-anchor="middle" x="549.0372" y="-376.6339" font-family="Times,serif" font-size="14.00" fill="#000000">Alta de administrador</text>
</g>
<!-- accesoAplicacion&#45;&gt;altaAdministrador -->
<g id="edge9" class="edge">
<title>accesoAplicacion-&gt;altaAdministrador</title>
<path fill="none" stroke="#000000" d="M510.4846,-489.6379C518.0032,-468.4187 530.5118,-433.1168 539.2348,-408.4985"/>
<polygon fill="#000000" stroke="#000000" points="542.5609,-409.5909 542.6018,-398.9961 535.9628,-407.253 542.5609,-409.5909"/>
</g>
<!-- visualizarEstadisticas -->
<g id="node12" class="node">
<title>visualizarEstadisticas</title>
<path fill="none" stroke="#000000" d="M761.25,-398.8339C761.25,-398.8339 638.8244,-398.8339 638.8244,-398.8339 632.8244,-398.8339 626.8244,-392.8339 626.8244,-386.8339 626.8244,-386.8339 626.8244,-374.8339 626.8244,-374.8339 626.8244,-368.8339 632.8244,-362.8339 638.8244,-362.8339 638.8244,-362.8339 761.25,-362.8339 761.25,-362.8339 767.25,-362.8339 773.25,-368.8339 773.25,-374.8339 773.25,-374.8339 773.25,-386.8339 773.25,-386.8339 773.25,-392.8339 767.25,-398.8339 761.25,-398.8339"/>
<text text-anchor="middle" x="700.0372" y="-376.6339" font-family="Times,serif" font-size="14.00" fill="#000000">Visualizar estadísticas</text>
</g>
<!-- accesoAplicacion&#45;&gt;visualizarEstadisticas -->
<g id="edge10" class="edge">
<title>accesoAplicacion-&gt;visualizarEstadisticas</title>
<path fill="none" stroke="#000000" d="M532.1192,-489.6379C566.6134,-467.287 625.2218,-429.3112 663.2747,-404.6545"/>
<polygon fill="#000000" stroke="#000000" points="665.5183,-407.3713 672.0073,-398.9961 661.7117,-401.4967 665.5183,-407.3713"/>
</g>
<!-- introducirDatosRevista -->
<g id="node13" class="node">
<title>introducirDatosRevista</title>
<path fill="none" stroke="#000000" d="M273.2001,-344.8339C273.2001,-344.8339 120.8743,-344.8339 120.8743,-344.8339 114.8743,-344.8339 108.8743,-338.8339 108.8743,-332.8339 108.8743,-332.8339 108.8743,-320.8339 108.8743,-320.8339 108.8743,-314.8339 114.8743,-308.8339 120.8743,-308.8339 120.8743,-308.8339 273.2001,-308.8339 273.2001,-308.8339 279.2001,-308.8339 285.2001,-314.8339 285.2001,-320.8339 285.2001,-320.8339 285.2001,-332.8339 285.2001,-332.8339 285.2001,-338.8339 279.2001,-344.8339 273.2001,-344.8339"/>
<text text-anchor="middle" x="197.0372" y="-322.6339" font-family="Times,serif" font-size="14.00" fill="#000000">Introducir datos de la revista</text>
</g>
<!-- nuevoRegistro&#45;&gt;introducirDatosRevista -->
<g id="edge11" class="edge">
<title>nuevoRegistro-&gt;introducirDatosRevista</title>
<path fill="none" stroke="#000000" d="M297.7845,-416.7571C277.8044,-398.9236 247.1061,-371.5235 224.8462,-351.6552"/>
<polygon fill="#000000" stroke="#000000" points="227.1471,-349.0174 217.356,-344.9696 222.4858,-354.2398 227.1471,-349.0174"/>
</g>
<!-- seleccionarRevista -->
<g id="node16" class="node">
<title>seleccionarRevista</title>
<path fill="none" stroke="#000000" d="M478.1503,-344.8339C478.1503,-344.8339 379.9241,-344.8339 379.9241,-344.8339 373.9241,-344.8339 367.9241,-338.8339 367.9241,-332.8339 367.9241,-332.8339 367.9241,-320.8339 367.9241,-320.8339 367.9241,-314.8339 373.9241,-308.8339 379.9241,-308.8339 379.9241,-308.8339 478.1503,-308.8339 478.1503,-308.8339 484.1503,-308.8339 490.1503,-314.8339 490.1503,-320.8339 490.1503,-320.8339 490.1503,-332.8339 490.1503,-332.8339 490.1503,-338.8339 484.1503,-344.8339 478.1503,-344.8339"/>
<text text-anchor="middle" x="429.0372" y="-322.6339" font-family="Times,serif" font-size="14.00" fill="#000000">Seleccionar revista</text>
</g>
<!-- editarRegistro&#45;&gt;seleccionarRevista -->
<g id="edge15" class="edge">
<title>editarRegistro-&gt;seleccionarRevista</title>
<path fill="none" stroke="#000000" d="M456.4392,-416.5132C451.2642,-399.5768 443.4995,-374.165 437.5554,-354.7116"/>
<polygon fill="#000000" stroke="#000000" points="440.822,-353.4248 434.5525,-344.884 434.1275,-355.4704 440.822,-353.4248"/>
</g>
<!-- introducirDatosAdmin -->
<g id="node21" class="node">
<title>introducirDatosAdmin</title>
<path fill="none" stroke="#000000" d="M694.4272,-290.8339C694.4272,-290.8339 511.6472,-290.8339 511.6472,-290.8339 505.6472,-290.8339 499.6472,-284.8339 499.6472,-278.8339 499.6472,-278.8339 499.6472,-266.8339 499.6472,-266.8339 499.6472,-260.8339 505.6472,-254.8339 511.6472,-254.8339 511.6472,-254.8339 694.4272,-254.8339 694.4272,-254.8339 700.4272,-254.8339 706.4272,-260.8339 706.4272,-266.8339 706.4272,-266.8339 706.4272,-278.8339 706.4272,-278.8339 706.4272,-284.8339 700.4272,-290.8339 694.4272,-290.8339"/>
<text text-anchor="middle" x="603.0372" y="-268.6339" font-family="Times,serif" font-size="14.00" fill="#000000">Introducir datos del administrador</text>
</g>
<!-- altaAdministrador&#45;&gt;introducirDatosAdmin -->
<g id="edge23" class="edge">
<title>altaAdministrador-&gt;introducirDatosAdmin</title>
<path fill="none" stroke="#000000" d="M558.1976,-362.5132C566.7828,-345.3426 579.7238,-319.4607 589.5,-299.9082"/>
<polygon fill="#000000" stroke="#000000" points="592.6704,-301.3936 594.0121,-290.884 586.4094,-298.2631 592.6704,-301.3936"/>
</g>
<!-- aplicarFiltro -->
<g id="node23" class="node">
<title>aplicarFiltro</title>
<path fill="none" stroke="#000000" d="M781.713,-236.8339C781.713,-236.8339 682.3614,-236.8339 682.3614,-236.8339 676.3614,-236.8339 670.3614,-230.8339 670.3614,-224.8339 670.3614,-224.8339 670.3614,-212.8339 670.3614,-212.8339 670.3614,-206.8339 676.3614,-200.8339 682.3614,-200.8339 682.3614,-200.8339 781.713,-200.8339 781.713,-200.8339 787.713,-200.8339 793.713,-206.8339 793.713,-212.8339 793.713,-212.8339 793.713,-224.8339 793.713,-224.8339 793.713,-230.8339 787.713,-236.8339 781.713,-236.8339"/>
<text text-anchor="middle" x="732.0372" y="-214.6339" font-family="Times,serif" font-size="14.00" fill="#000000">Filtrar estadísticas</text>
</g>
<!-- visualizarEstadisticas&#45;&gt;aplicarFiltro -->
<g id="edge26" class="edge">
<title>visualizarEstadisticas-&gt;aplicarFiltro</title>
<path fill="none" stroke="#000000" d="M703.6458,-362.5653C709.1915,-334.4904 719.8545,-280.5088 726.4176,-247.2833"/>
<polygon fill="#000000" stroke="#000000" points="729.8884,-247.7729 728.3927,-237.2842 723.0211,-246.4164 729.8884,-247.7729"/>
</g>
<!-- asignarEquipoEditorial -->
<g id="node14" class="node">
<title>asignarEquipoEditorial</title>
<path fill="none" stroke="#000000" d="M140.1116,-236.8339C140.1116,-236.8339 11.9628,-236.8339 11.9628,-236.8339 5.9628,-236.8339 -.0372,-230.8339 -.0372,-224.8339 -.0372,-224.8339 -.0372,-212.8339 -.0372,-212.8339 -.0372,-206.8339 5.9628,-200.8339 11.9628,-200.8339 11.9628,-200.8339 140.1116,-200.8339 140.1116,-200.8339 146.1116,-200.8339 152.1116,-206.8339 152.1116,-212.8339 152.1116,-212.8339 152.1116,-224.8339 152.1116,-224.8339 152.1116,-230.8339 146.1116,-236.8339 140.1116,-236.8339"/>
<text text-anchor="middle" x="76.0372" y="-214.6339" font-family="Times,serif" font-size="14.00" fill="#000000">Asignar equipo editorial</text>
</g>
<!-- introducirDatosRevista&#45;&gt;asignarEquipoEditorial -->
<g id="edge12" class="edge">
<title>introducirDatosRevista-&gt;asignarEquipoEditorial</title>
<path fill="none" stroke="#000000" d="M176.7845,-308.7571C156.8044,-290.9236 126.1061,-263.5235 103.8462,-243.6552"/>
<polygon fill="#000000" stroke="#000000" points="106.1471,-241.0174 96.356,-236.9696 101.4858,-246.2398 106.1471,-241.0174"/>
</g>
<!-- confirmarEnvio -->
<g id="node15" class="node">
<title>confirmarEnvio</title>
<path fill="none" stroke="#000000" d="M275.3877,-128.8339C275.3877,-128.8339 184.6867,-128.8339 184.6867,-128.8339 178.6867,-128.8339 172.6867,-122.8339 172.6867,-116.8339 172.6867,-116.8339 172.6867,-104.8339 172.6867,-104.8339 172.6867,-98.8339 178.6867,-92.8339 184.6867,-92.8339 184.6867,-92.8339 275.3877,-92.8339 275.3877,-92.8339 281.3877,-92.8339 287.3877,-98.8339 287.3877,-104.8339 287.3877,-104.8339 287.3877,-116.8339 287.3877,-116.8339 287.3877,-122.8339 281.3877,-128.8339 275.3877,-128.8339"/>
<text text-anchor="middle" x="230.0372" y="-106.6339" font-family="Times,serif" font-size="14.00" fill="#000000">Confirmar envío</text>
</g>
<!-- asignarEquipoEditorial&#45;&gt;confirmarEnvio -->
<g id="edge13" class="edge">
<title>asignarEquipoEditorial-&gt;confirmarEnvio</title>
<path fill="none" stroke="#000000" d="M101.8133,-200.7571C127.5758,-182.6899 167.3391,-154.8039 195.7517,-134.8782"/>
<polygon fill="#000000" stroke="#000000" points="197.9993,-137.577 204.177,-128.9696 193.98,-131.8459 197.9993,-137.577"/>
</g>
<!-- confirmarEnvio&#45;&gt;fin -->
<g id="edge14" class="edge">
<title>confirmarEnvio-&gt;fin</title>
<path fill="none" stroke="#000000" d="M287.4882,-96.4855C355.594,-79.4761 467.1097,-51.6251 524.8225,-37.2113"/>
<polygon fill="#000000" stroke="#000000" points="525.7612,-40.5845 534.6151,-34.7656 524.065,-33.7931 525.7612,-40.5845"/>
</g>
<!-- editarDatosRevista -->
<g id="node17" class="node">
<title>editarDatosRevista</title>
<path fill="none" stroke="#000000" d="M312.4319,-236.8339C312.4319,-236.8339 181.6425,-236.8339 181.6425,-236.8339 175.6425,-236.8339 169.6425,-230.8339 169.6425,-224.8339 169.6425,-224.8339 169.6425,-212.8339 169.6425,-212.8339 169.6425,-206.8339 175.6425,-200.8339 181.6425,-200.8339 181.6425,-200.8339 312.4319,-200.8339 312.4319,-200.8339 318.4319,-200.8339 324.4319,-206.8339 324.4319,-212.8339 324.4319,-212.8339 324.4319,-224.8339 324.4319,-224.8339 324.4319,-230.8339 318.4319,-236.8339 312.4319,-236.8339"/>
<text text-anchor="middle" x="247.0372" y="-214.6339" font-family="Times,serif" font-size="14.00" fill="#000000">Editar datos de la revista</text>
</g>
<!-- seleccionarRevista&#45;&gt;editarDatosRevista -->
<g id="edge16" class="edge">
<title>seleccionarRevista-&gt;editarDatosRevista</title>
<path fill="none" stroke="#000000" d="M398.5745,-308.7571C367.7343,-290.4563 319.9168,-262.0811 286.2606,-242.1093"/>
<polygon fill="#000000" stroke="#000000" points="287.9853,-239.0629 277.5993,-236.9696 284.413,-245.0828 287.9853,-239.0629"/>
</g>
<!-- editarEquipoEditorial -->
<g id="node18" class="node">
<title>editarEquipoEditorial</title>
<path fill="none" stroke="#000000" d="M472.0036,-236.8339C472.0036,-236.8339 354.0708,-236.8339 354.0708,-236.8339 348.0708,-236.8339 342.0708,-230.8339 342.0708,-224.8339 342.0708,-224.8339 342.0708,-212.8339 342.0708,-212.8339 342.0708,-206.8339 348.0708,-200.8339 354.0708,-200.8339 354.0708,-200.8339 472.0036,-200.8339 472.0036,-200.8339 478.0036,-200.8339 484.0036,-206.8339 484.0036,-212.8339 484.0036,-212.8339 484.0036,-224.8339 484.0036,-224.8339 484.0036,-230.8339 478.0036,-236.8339 472.0036,-236.8339"/>
<text text-anchor="middle" x="413.0372" y="-214.6339" font-family="Times,serif" font-size="14.00" fill="#000000">Editar equipo editorial</text>
</g>
<!-- seleccionarRevista&#45;&gt;editarEquipoEditorial -->
<g id="edge17" class="edge">
<title>seleccionarRevista-&gt;editarEquipoEditorial</title>
<path fill="none" stroke="#000000" d="M426.323,-308.5132C423.8255,-291.6548 420.0839,-266.399 417.2071,-246.9809"/>
<polygon fill="#000000" stroke="#000000" points="420.6391,-246.2631 415.7113,-236.884 413.7147,-247.289 420.6391,-246.2631"/>
</g>
<!-- eliminarRegistro -->
<g id="node19" class="node">
<title>eliminarRegistro</title>
<path fill="none" stroke="#000000" d="M601.7893,-236.8339C601.7893,-236.8339 514.2851,-236.8339 514.2851,-236.8339 508.2851,-236.8339 502.2851,-230.8339 502.2851,-224.8339 502.2851,-224.8339 502.2851,-212.8339 502.2851,-212.8339 502.2851,-206.8339 508.2851,-200.8339 514.2851,-200.8339 514.2851,-200.8339 601.7893,-200.8339 601.7893,-200.8339 607.7893,-200.8339 613.7893,-206.8339 613.7893,-212.8339 613.7893,-212.8339 613.7893,-224.8339 613.7893,-224.8339 613.7893,-230.8339 607.7893,-236.8339 601.7893,-236.8339"/>
<text text-anchor="middle" x="558.0372" y="-214.6339" font-family="Times,serif" font-size="14.00" fill="#000000">Eliminar registro</text>
</g>
<!-- seleccionarRevista&#45;&gt;eliminarRegistro -->
<g id="edge18" class="edge">
<title>seleccionarRevista-&gt;eliminarRegistro</title>
<path fill="none" stroke="#000000" d="M441.74,-308.6122C453.2937,-292.9706 471.4851,-270.5311 491.0372,-254.8339 496.7713,-250.2303 503.1811,-245.9261 509.7013,-242.0089"/>
<polygon fill="#000000" stroke="#000000" points="511.6647,-244.918 518.6078,-236.9152 508.1895,-238.8415 511.6647,-244.918"/>
</g>
<!-- guardarCambios -->
<g id="node20" class="node">
<title>guardarCambios</title>
<path fill="none" stroke="#000000" d="M457.0492,-128.8339C457.0492,-128.8339 369.0252,-128.8339 369.0252,-128.8339 363.0252,-128.8339 357.0252,-122.8339 357.0252,-116.8339 357.0252,-116.8339 357.0252,-104.8339 357.0252,-104.8339 357.0252,-98.8339 363.0252,-92.8339 369.0252,-92.8339 369.0252,-92.8339 457.0492,-92.8339 457.0492,-92.8339 463.0492,-92.8339 469.0492,-98.8339 469.0492,-104.8339 469.0492,-104.8339 469.0492,-116.8339 469.0492,-116.8339 469.0492,-122.8339 463.0492,-128.8339 457.0492,-128.8339"/>
<text text-anchor="middle" x="413.0372" y="-106.6339" font-family="Times,serif" font-size="14.00" fill="#000000">Guardar cambios</text>
</g>
<!-- editarDatosRevista&#45;&gt;guardarCambios -->
<g id="edge19" class="edge">
<title>editarDatosRevista-&gt;guardarCambios</title>
<path fill="none" stroke="#000000" d="M274.8219,-200.7571C302.7115,-182.6121 345.8234,-154.5634 376.4755,-134.621"/>
<polygon fill="#000000" stroke="#000000" points="378.6885,-137.3569 385.1619,-128.9696 374.871,-131.4894 378.6885,-137.3569"/>
</g>
<!-- editarEquipoEditorial&#45;&gt;guardarCambios -->
<g id="edge20" class="edge">
<title>editarEquipoEditorial-&gt;guardarCambios</title>
<path fill="none" stroke="#000000" d="M413.0372,-200.5132C413.0372,-183.6548 413.0372,-158.399 413.0372,-138.9809"/>
<polygon fill="#000000" stroke="#000000" points="416.5373,-138.884 413.0372,-128.884 409.5373,-138.8841 416.5373,-138.884"/>
</g>
<!-- eliminarRegistro&#45;&gt;guardarCambios -->
<g id="edge21" class="edge">
<title>eliminarRegistro-&gt;guardarCambios</title>
<path fill="none" stroke="#000000" d="M527.1262,-200.7234C518.2202,-195.2192 508.6008,-188.9918 500.0372,-182.8339 479.6551,-168.1776 457.8966,-150.1697 441.2379,-135.8299"/>
<polygon fill="#000000" stroke="#000000" points="443.3454,-133.0247 433.498,-129.1158 438.7584,-138.3125 443.3454,-133.0247"/>
</g>
<!-- guardarCambios&#45;&gt;fin -->
<g id="edge22" class="edge">
<title>guardarCambios-&gt;fin</title>
<path fill="none" stroke="#000000" d="M445.7359,-92.6374C470.1953,-79.026 503.5428,-60.4685 528.2587,-46.7143"/>
<polygon fill="#000000" stroke="#000000" points="530.236,-49.6195 537.2722,-41.6984 526.8321,-43.5028 530.236,-49.6195"/>
</g>
<!-- confirmarRegistroAdmin -->
<g id="node22" class="node">
<title>confirmarRegistroAdmin</title>
<path fill="none" stroke="#000000" d="M617.1137,-182.8339C617.1137,-182.8339 520.9607,-182.8339 520.9607,-182.8339 514.9607,-182.8339 508.9607,-176.8339 508.9607,-170.8339 508.9607,-170.8339 508.9607,-158.8339 508.9607,-158.8339 508.9607,-152.8339 514.9607,-146.8339 520.9607,-146.8339 520.9607,-146.8339 617.1137,-146.8339 617.1137,-146.8339 623.1137,-146.8339 629.1137,-152.8339 629.1137,-158.8339 629.1137,-158.8339 629.1137,-170.8339 629.1137,-170.8339 629.1137,-176.8339 623.1137,-182.8339 617.1137,-182.8339"/>
<text text-anchor="middle" x="569.0372" y="-160.6339" font-family="Times,serif" font-size="14.00" fill="#000000">Confirmar registro</text>
</g>
<!-- introducirDatosAdmin&#45;&gt;confirmarRegistroAdmin -->
<g id="edge24" class="edge">
<title>introducirDatosAdmin-&gt;confirmarRegistroAdmin</title>
<path fill="none" stroke="#000000" d="M615.3787,-254.5459C623.8867,-239.4715 632.1583,-217.8768 623.0372,-200.8339 620.8549,-196.7562 617.9842,-193.0607 614.7018,-189.7295"/>
<polygon fill="#000000" stroke="#000000" points="616.8117,-186.9262 606.9663,-183.0123 612.222,-192.2116 616.8117,-186.9262"/>
</g>
<!-- confirmarRegistroAdmin&#45;&gt;fin -->
<g id="edge25" class="edge">
<title>confirmarRegistroAdmin-&gt;fin</title>
<path fill="none" stroke="#000000" d="M532.0654,-146.7437C525.6179,-141.8553 519.7856,-135.9113 516.0372,-128.8339 503.1488,-104.4991 519.0171,-75.8581 535.5344,-55.3171"/>
<polygon fill="#000000" stroke="#000000" points="538.2845,-57.4856 542.0806,-47.5942 532.9447,-52.9594 538.2845,-57.4856"/>
</g>
<!-- filtroCentro -->
<g id="node24" class="node">
<title>filtroCentro</title>
<path fill="none" stroke="#000000" d="M586.9608,-128.8339C586.9608,-128.8339 537.1136,-128.8339 537.1136,-128.8339 531.1136,-128.8339 525.1136,-122.8339 525.1136,-116.8339 525.1136,-116.8339 525.1136,-104.8339 525.1136,-104.8339 525.1136,-98.8339 531.1136,-92.8339 537.1136,-92.8339 537.1136,-92.8339 586.9608,-92.8339 586.9608,-92.8339 592.9608,-92.8339 598.9608,-98.8339 598.9608,-104.8339 598.9608,-104.8339 598.9608,-116.8339 598.9608,-116.8339 598.9608,-122.8339 592.9608,-128.8339 586.9608,-128.8339"/>
<text text-anchor="middle" x="562.0372" y="-106.6339" font-family="Times,serif" font-size="14.00" fill="#000000">Por centro</text>
</g>
<!-- aplicarFiltro&#45;&gt;filtroCentro -->
<g id="edge27" class="edge">
<title>aplicarFiltro-&gt;filtroCentro</title>
<path fill="none" stroke="#000000" d="M704.0699,-200.7823C695.8553,-195.2291 686.9543,-188.9608 679.0372,-182.8339 659.8594,-167.9927 658.3017,-160.153 638.0372,-146.8339 628.7896,-140.7558 618.3556,-135.121 608.2484,-130.1998"/>
<polygon fill="#000000" stroke="#000000" points="609.6395,-126.9862 599.1016,-125.8888 606.6551,-133.3182 609.6395,-126.9862"/>
</g>
<!-- filtroRevista -->
<g id="node25" class="node">
<title>filtroRevista</title>
<path fill="none" stroke="#000000" d="M681.2964,-128.8339C681.2964,-128.8339 628.778,-128.8339 628.778,-128.8339 622.778,-128.8339 616.778,-122.8339 616.778,-116.8339 616.778,-116.8339 616.778,-104.8339 616.778,-104.8339 616.778,-98.8339 622.778,-92.8339 628.778,-92.8339 628.778,-92.8339 681.2964,-92.8339 681.2964,-92.8339 687.2964,-92.8339 693.2964,-98.8339 693.2964,-104.8339 693.2964,-104.8339 693.2964,-116.8339 693.2964,-116.8339 693.2964,-122.8339 687.2964,-128.8339 681.2964,-128.8339"/>
<text text-anchor="middle" x="655.0372" y="-106.6339" font-family="Times,serif" font-size="14.00" fill="#000000">Por revista</text>
</g>
<!-- aplicarFiltro&#45;&gt;filtroRevista -->
<g id="edge28" class="edge">
<title>aplicarFiltro-&gt;filtroRevista</title>
<path fill="none" stroke="#000000" d="M718.9752,-200.5132C706.5663,-183.1085 687.776,-156.7532 673.7725,-137.1119"/>
<polygon fill="#000000" stroke="#000000" points="676.5614,-134.9946 667.9063,-128.884 670.8617,-139.0583 676.5614,-134.9946"/>
</g>
<!-- filtroAutor -->
<g id="node26" class="node">
<title>filtroAutor</title>
<path fill="none" stroke="#000000" d="M766.7468,-128.8339C766.7468,-128.8339 723.3276,-128.8339 723.3276,-128.8339 717.3276,-128.8339 711.3276,-122.8339 711.3276,-116.8339 711.3276,-116.8339 711.3276,-104.8339 711.3276,-104.8339 711.3276,-98.8339 717.3276,-92.8339 723.3276,-92.8339 723.3276,-92.8339 766.7468,-92.8339 766.7468,-92.8339 772.7468,-92.8339 778.7468,-98.8339 778.7468,-104.8339 778.7468,-104.8339 778.7468,-116.8339 778.7468,-116.8339 778.7468,-122.8339 772.7468,-128.8339 766.7468,-128.8339"/>
<text text-anchor="middle" x="745.0372" y="-106.6339" font-family="Times,serif" font-size="14.00" fill="#000000">Por autor</text>
</g>
<!-- aplicarFiltro&#45;&gt;filtroAutor -->
<g id="edge29" class="edge">
<title>aplicarFiltro-&gt;filtroAutor</title>
<path fill="none" stroke="#000000" d="M734.2425,-200.5132C736.2717,-183.6548 739.3118,-158.399 741.6491,-138.9809"/>
<polygon fill="#000000" stroke="#000000" points="745.1442,-139.2307 742.8645,-128.884 738.1944,-138.3941 745.1442,-139.2307"/>
</g>
<!-- filtroFecha -->
<g id="node27" class="node">
<title>filtroFecha</title>
<path fill="none" stroke="#000000" d="M944.9762,-128.8339C944.9762,-128.8339 809.0982,-128.8339 809.0982,-128.8339 803.0982,-128.8339 797.0982,-122.8339 797.0982,-116.8339 797.0982,-116.8339 797.0982,-104.8339 797.0982,-104.8339 797.0982,-98.8339 803.0982,-92.8339 809.0982,-92.8339 809.0982,-92.8339 944.9762,-92.8339 944.9762,-92.8339 950.9762,-92.8339 956.9762,-98.8339 956.9762,-104.8339 956.9762,-104.8339 956.9762,-116.8339 956.9762,-116.8339 956.9762,-122.8339 950.9762,-128.8339 944.9762,-128.8339"/>
<text text-anchor="middle" x="877.0372" y="-106.6339" font-family="Times,serif" font-size="14.00" fill="#000000">Por fecha de publicación</text>
</g>
<!-- aplicarFiltro&#45;&gt;filtroFecha -->
<g id="edge30" class="edge">
<title>aplicarFiltro-&gt;filtroFecha</title>
<path fill="none" stroke="#000000" d="M756.3069,-200.7571C780.4592,-182.7678 817.6808,-155.0442 844.4089,-135.1363"/>
<polygon fill="#000000" stroke="#000000" points="846.7591,-137.75 852.6883,-128.9696 842.5777,-132.1361 846.7591,-137.75"/>
</g>
<!-- filtroCentro&#45;&gt;fin -->
<g id="edge31" class="edge">
<title>filtroCentro-&gt;fin</title>
<path fill="none" stroke="#000000" d="M562.0372,-92.4319C562.0372,-84.667 562.0372,-75.3198 562.0372,-66.1809"/>
<polygon fill="#000000" stroke="#000000" points="565.5373,-66.0466 562.0372,-56.0467 558.5373,-66.0467 565.5373,-66.0466"/>
</g>
<!-- filtroRevista&#45;&gt;fin -->
<g id="edge32" class="edge">
<title>filtroRevista-&gt;fin</title>
<path fill="none" stroke="#000000" d="M634.3975,-92.4319C621.4842,-80.9187 604.6694,-65.927 590.4994,-53.2933"/>
<polygon fill="#000000" stroke="#000000" points="592.7342,-50.5966 582.9408,-46.5542 588.0757,-55.8215 592.7342,-50.5966"/>
</g>
<!-- filtroAutor&#45;&gt;fin -->
<g id="edge33" class="edge">
<title>filtroAutor-&gt;fin</title>
<path fill="none" stroke="#000000" d="M711.0452,-95.4322C678.4945,-80.6835 629.6147,-58.5362 596.807,-43.6711"/>
<polygon fill="#000000" stroke="#000000" points="598.1455,-40.4351 587.5924,-39.4959 595.2565,-46.8111 598.1455,-40.4351"/>
</g>
<!-- filtroFecha&#45;&gt;fin -->
<g id="edge34" class="edge">
<title>filtroFecha-&gt;fin</title>
<path fill="none" stroke="#000000" d="M808.2984,-92.7399C743.9775,-75.8088 650.3322,-51.1587 599.0396,-37.657"/>
<polygon fill="#000000" stroke="#000000" points="599.9285,-34.2719 589.367,-35.1109 598.1466,-41.0413 599.9285,-34.2719"/>
</g>
</g>
</svg>