<?xml version="1.0" encoding="UTF-8" standalone="no"?><!DOCTYPE svg PUBLIC "-//W3C//DTD SVG 1.1//EN" "http://www.w3.org/Graphics/SVG/1.1/DTD/svg11.dtd"><!-- Generated by graphviz version 2.40.1 (20161225.0304)
 --><!-- Title: AsignarDictaminadores Pages: 1 --><svg xmlns="http://www.w3.org/2000/svg" xmlns:xlink="http://www.w3.org/1999/xlink" width="354pt" height="705pt" viewBox="0.00 0.00 353.85 704.73">
<g id="graph0" class="graph" transform="scale(1 1) rotate(0) translate(4 700.7336)">
<title>AsignarDictaminadores</title>
<polygon fill="#ffffff" stroke="transparent" points="-4,4 -4,-700.7336 349.8502,-700.7336 349.8502,4 -4,4"/>
<!-- Inicio -->
<g id="node1" class="node">
<title>Inicio</title>
<ellipse fill="#000000" stroke="#000000" cx="155.003" cy="-668.6295" rx="28.2085" ry="28.2085"/>
<text text-anchor="middle" x="155.003" y="-665.0295" font-family="Arial" font-size="12.00" fill="#ffffff">Inicio</text>
</g>
<!-- Iniciar sesión en el panel de equipo editorial -->
<g id="node3" class="node">
<title>Iniciar sesión en el panel de equipo editorial</title>
<path fill="none" stroke="#000000" d="M269.8945,-603.5255C269.8945,-603.5255 40.1115,-603.5255 40.1115,-603.5255 34.1115,-603.5255 28.1115,-597.5255 28.1115,-591.5255 28.1115,-591.5255 28.1115,-579.5255 28.1115,-579.5255 28.1115,-573.5255 34.1115,-567.5255 40.1115,-567.5255 40.1115,-567.5255 269.8945,-567.5255 269.8945,-567.5255 275.8945,-567.5255 281.8945,-573.5255 281.8945,-579.5255 281.8945,-579.5255 281.8945,-591.5255 281.8945,-591.5255 281.8945,-597.5255 275.8945,-603.5255 269.8945,-603.5255"/>
<text text-anchor="middle" x="155.003" y="-581.9255" font-family="Arial" font-size="12.00" fill="#000000">Iniciar sesión en el panel de equipo editorial</text>
</g>
<!-- Inicio&#45;&gt;Iniciar sesión en el panel de equipo editorial -->
<g id="edge1" class="edge">
<title>Inicio-&gt;Iniciar sesión en el panel de equipo editorial</title>
<path fill="none" stroke="#000000" d="M155.003,-640.4943C155.003,-632.0184 155.003,-622.7082 155.003,-614.1979"/>
<polygon fill="#000000" stroke="#000000" points="158.5031,-613.9689 155.003,-603.969 151.5031,-613.969 158.5031,-613.9689"/>
</g>
<!-- Fin -->
<g id="node2" class="node">
<title>Fin</title>
<ellipse fill="#000000" stroke="#000000" cx="170.003" cy="-20.8627" rx="20.7264" ry="20.7264"/>
<text text-anchor="middle" x="170.003" y="-17.2627" font-family="Arial" font-size="12.00" fill="#ffffff">Fin</text>
</g>
<!-- Seleccionar manuscrito -->
<g id="node4" class="node">
<title>Seleccionar manuscrito</title>
<path fill="none" stroke="#000000" d="M213.1858,-530.5255C213.1858,-530.5255 96.8202,-530.5255 96.8202,-530.5255 90.8202,-530.5255 84.8202,-524.5255 84.8202,-518.5255 84.8202,-518.5255 84.8202,-506.5255 84.8202,-506.5255 84.8202,-500.5255 90.8202,-494.5255 96.8202,-494.5255 96.8202,-494.5255 213.1858,-494.5255 213.1858,-494.5255 219.1858,-494.5255 225.1858,-500.5255 225.1858,-506.5255 225.1858,-506.5255 225.1858,-518.5255 225.1858,-518.5255 225.1858,-524.5255 219.1858,-530.5255 213.1858,-530.5255"/>
<text text-anchor="middle" x="155.003" y="-508.9255" font-family="Arial" font-size="12.00" fill="#000000">Seleccionar manuscrito</text>
</g>
<!-- Iniciar sesión en el panel de equipo editorial&#45;&gt;Seleccionar manuscrito -->
<g id="edge2" class="edge">
<title>Iniciar sesión en el panel de equipo editorial-&gt;Seleccionar manuscrito</title>
<path fill="none" stroke="#000000" d="M155.003,-567.4805C155.003,-559.4083 155.003,-549.7019 155.003,-540.7072"/>
<polygon fill="#000000" stroke="#000000" points="158.5031,-540.6158 155.003,-530.6158 151.5031,-540.6159 158.5031,-540.6158"/>
</g>
<!-- Verificar disponibilidad de dictaminadores -->
<g id="node5" class="node">
<title>Verificar disponibilidad de dictaminadores</title>
<path fill="none" stroke="#000000" d="M261.8697,-457.5255C261.8697,-457.5255 48.1363,-457.5255 48.1363,-457.5255 42.1363,-457.5255 36.1363,-451.5255 36.1363,-445.5255 36.1363,-445.5255 36.1363,-433.5255 36.1363,-433.5255 36.1363,-427.5255 42.1363,-421.5255 48.1363,-421.5255 48.1363,-421.5255 261.8697,-421.5255 261.8697,-421.5255 267.8697,-421.5255 273.8697,-427.5255 273.8697,-433.5255 273.8697,-433.5255 273.8697,-445.5255 273.8697,-445.5255 273.8697,-451.5255 267.8697,-457.5255 261.8697,-457.5255"/>
<text text-anchor="middle" x="155.003" y="-435.9255" font-family="Arial" font-size="12.00" fill="#000000">Verificar disponibilidad de dictaminadores</text>
</g>
<!-- Seleccionar manuscrito&#45;&gt;Verificar disponibilidad de dictaminadores -->
<g id="edge3" class="edge">
<title>Seleccionar manuscrito-&gt;Verificar disponibilidad de dictaminadores</title>
<path fill="none" stroke="#000000" d="M155.003,-494.4805C155.003,-486.4083 155.003,-476.7019 155.003,-467.7072"/>
<polygon fill="#000000" stroke="#000000" points="158.5031,-467.6158 155.003,-457.6158 151.5031,-467.6159 158.5031,-467.6158"/>
</g>
<!-- Asignar primer dictaminador -->
<g id="node6" class="node">
<title>Asignar primer dictaminador</title>
<path fill="none" stroke="#000000" d="M154.009,-368.7255C154.009,-368.7255 11.997,-368.7255 11.997,-368.7255 5.997,-368.7255 -.003,-362.7255 -.003,-356.7255 -.003,-356.7255 -.003,-344.7255 -.003,-344.7255 -.003,-338.7255 5.997,-332.7255 11.997,-332.7255 11.997,-332.7255 154.009,-332.7255 154.009,-332.7255 160.009,-332.7255 166.009,-338.7255 166.009,-344.7255 166.009,-344.7255 166.009,-356.7255 166.009,-356.7255 166.009,-362.7255 160.009,-368.7255 154.009,-368.7255"/>
<text text-anchor="middle" x="83.003" y="-347.1255" font-family="Arial" font-size="12.00" fill="#000000">Asignar primer dictaminador</text>
</g>
<!-- Verificar disponibilidad de dictaminadores&#45;&gt;Asignar primer dictaminador -->
<g id="edge4" class="edge">
<title>Verificar disponibilidad de dictaminadores-&gt;Asignar primer dictaminador</title>
<path fill="none" stroke="#000000" d="M100.8161,-421.3553C93.5726,-416.6601 87.1,-410.8055 82.5892,-403.5255 78.1759,-396.4028 76.9669,-387.6351 77.2367,-379.3051"/>
<polygon fill="#000000" stroke="#000000" points="80.7403,-379.4402 78.2393,-369.1448 73.7741,-378.7527 80.7403,-379.4402"/>
<text text-anchor="middle" x="145.2099" y="-390.9255" font-family="Times,serif" font-size="14.00" fill="#000000">Si hay dictaminadores</text>
</g>
<!-- Notificar falta de dictaminadores -->
<g id="node10" class="node">
<title>Notificar falta de dictaminadores</title>
<path fill="none" stroke="#000000" d="M306.8633,-314.7255C306.8633,-314.7255 143.1427,-314.7255 143.1427,-314.7255 137.1427,-314.7255 131.1427,-308.7255 131.1427,-302.7255 131.1427,-302.7255 131.1427,-290.7255 131.1427,-290.7255 131.1427,-284.7255 137.1427,-278.7255 143.1427,-278.7255 143.1427,-278.7255 306.8633,-278.7255 306.8633,-278.7255 312.8633,-278.7255 318.8633,-284.7255 318.8633,-290.7255 318.8633,-290.7255 318.8633,-302.7255 318.8633,-302.7255 318.8633,-308.7255 312.8633,-314.7255 306.8633,-314.7255"/>
<text text-anchor="middle" x="225.003" y="-293.1255" font-family="Arial" font-size="12.00" fill="#000000">Notificar falta de dictaminadores</text>
</g>
<!-- Verificar disponibilidad de dictaminadores&#45;&gt;Notificar falta de dictaminadores -->
<g id="edge9" class="edge">
<title>Verificar disponibilidad de dictaminadores-&gt;Notificar falta de dictaminadores</title>
<path fill="none" stroke="#000000" d="M189.6046,-421.408C196.294,-416.4436 202.5861,-410.4758 207.003,-403.5255 221.9779,-379.9614 225.6369,-347.8028 226.0691,-324.9471"/>
<polygon fill="#000000" stroke="#000000" points="229.5691,-324.8572 226.0637,-314.8591 222.5691,-324.861 229.5691,-324.8572"/>
<text text-anchor="middle" x="280.9266" y="-390.9255" font-family="Times,serif" font-size="14.00" fill="#000000">No hay dictaminadores</text>
</g>
<!-- Asignar segundo dictaminador -->
<g id="node7" class="node">
<title>Asignar segundo dictaminador</title>
<path fill="none" stroke="#000000" d="M182.045,-260.7255C182.045,-260.7255 27.961,-260.7255 27.961,-260.7255 21.961,-260.7255 15.961,-254.7255 15.961,-248.7255 15.961,-248.7255 15.961,-236.7255 15.961,-236.7255 15.961,-230.7255 21.961,-224.7255 27.961,-224.7255 27.961,-224.7255 182.045,-224.7255 182.045,-224.7255 188.045,-224.7255 194.045,-230.7255 194.045,-236.7255 194.045,-236.7255 194.045,-248.7255 194.045,-248.7255 194.045,-254.7255 188.045,-260.7255 182.045,-260.7255"/>
<text text-anchor="middle" x="105.003" y="-239.1255" font-family="Arial" font-size="12.00" fill="#000000">Asignar segundo dictaminador</text>
</g>
<!-- Asignar primer dictaminador&#45;&gt;Asignar segundo dictaminador -->
<g id="edge5" class="edge">
<title>Asignar primer dictaminador-&gt;Asignar segundo dictaminador</title>
<path fill="none" stroke="#000000" d="M86.735,-332.4047C90.185,-315.4684 95.3615,-290.0566 99.3242,-270.6032"/>
<polygon fill="#000000" stroke="#000000" points="102.7596,-271.273 101.3261,-260.7756 95.9004,-269.8758 102.7596,-271.273"/>
</g>
<!-- Confirmar asignación -->
<g id="node8" class="node">
<title>Confirmar asignación</title>
<path fill="none" stroke="#000000" d="M163.8406,-187.7255C163.8406,-187.7255 54.1654,-187.7255 54.1654,-187.7255 48.1654,-187.7255 42.1654,-181.7255 42.1654,-175.7255 42.1654,-175.7255 42.1654,-163.7255 42.1654,-163.7255 42.1654,-157.7255 48.1654,-151.7255 54.1654,-151.7255 54.1654,-151.7255 163.8406,-151.7255 163.8406,-151.7255 169.8406,-151.7255 175.8406,-157.7255 175.8406,-163.7255 175.8406,-163.7255 175.8406,-175.7255 175.8406,-175.7255 175.8406,-181.7255 169.8406,-187.7255 163.8406,-187.7255"/>
<text text-anchor="middle" x="109.003" y="-166.1255" font-family="Arial" font-size="12.00" fill="#000000">Confirmar asignación</text>
</g>
<!-- Asignar segundo dictaminador&#45;&gt;Confirmar asignación -->
<g id="edge6" class="edge">
<title>Asignar segundo dictaminador-&gt;Confirmar asignación</title>
<path fill="none" stroke="#000000" d="M105.9918,-224.6805C106.4341,-216.6083 106.9659,-206.9019 107.4588,-197.9072"/>
<polygon fill="#000000" stroke="#000000" points="110.9593,-197.9924 108.0117,-187.8158 103.9698,-197.6093 110.9593,-197.9924"/>
</g>
<!-- Notificar a dictaminadores -->
<g id="node9" class="node">
<title>Notificar a dictaminadores</title>
<path fill="none" stroke="#000000" d="M182.1837,-114.7255C182.1837,-114.7255 51.8223,-114.7255 51.8223,-114.7255 45.8223,-114.7255 39.8223,-108.7255 39.8223,-102.7255 39.8223,-102.7255 39.8223,-90.7255 39.8223,-90.7255 39.8223,-84.7255 45.8223,-78.7255 51.8223,-78.7255 51.8223,-78.7255 182.1837,-78.7255 182.1837,-78.7255 188.1837,-78.7255 194.1837,-84.7255 194.1837,-90.7255 194.1837,-90.7255 194.1837,-102.7255 194.1837,-102.7255 194.1837,-108.7255 188.1837,-114.7255 182.1837,-114.7255"/>
<text text-anchor="middle" x="117.003" y="-93.1255" font-family="Arial" font-size="12.00" fill="#000000">Notificar a dictaminadores</text>
</g>
<!-- Confirmar asignación&#45;&gt;Notificar a dictaminadores -->
<g id="edge7" class="edge">
<title>Confirmar asignación-&gt;Notificar a dictaminadores</title>
<path fill="none" stroke="#000000" d="M110.9805,-151.6805C111.8652,-143.6083 112.9289,-133.9019 113.9146,-124.9072"/>
<polygon fill="#000000" stroke="#000000" points="117.4102,-125.1376 115.0205,-114.8158 110.4519,-124.375 117.4102,-125.1376"/>
</g>
<!-- Notificar a dictaminadores&#45;&gt;Fin -->
<g id="edge8" class="edge">
<title>Notificar a dictaminadores-&gt;Fin</title>
<path fill="none" stroke="#000000" d="M129.8328,-78.3612C136.5344,-68.7688 144.8422,-56.8773 152.1603,-46.4022"/>
<polygon fill="#000000" stroke="#000000" points="155.1599,-48.22 158.0179,-38.0179 149.4216,-44.211 155.1599,-48.22"/>
</g>
<!-- Notificar falta de dictaminadores&#45;&gt;Fin -->
<g id="edge10" class="edge">
<title>Notificar falta de dictaminadores-&gt;Fin</title>
<path fill="none" stroke="#000000" d="M224.6866,-278.6968C224.3936,-260.4324 224.003,-231.3659 224.003,-206.2255 224.003,-206.2255 224.003,-206.2255 224.003,-96.7255 224.003,-74.7643 208.7978,-54.7488 194.5243,-40.7978"/>
<polygon fill="#000000" stroke="#000000" points="196.5256,-37.8837 186.7929,-33.6973 191.7907,-43.0393 196.5256,-37.8837"/>
</g>
</g>
</svg>