<?xml version="1.0" encoding="UTF-8" standalone="no"?><!DOCTYPE svg PUBLIC "-//W3C//DTD SVG 1.1//EN" "http://www.w3.org/Graphics/SVG/1.1/DTD/svg11.dtd"><!-- Generated by graphviz version 2.40.1 (20161225.0304)
 --><!-- Title: PanelEditorial Pages: 1 --><svg xmlns="http://www.w3.org/2000/svg" xmlns:xlink="http://www.w3.org/1999/xlink" width="1211pt" height="819pt" viewBox="0.00 0.00 1211.03 818.56">
<g id="graph0" class="graph" transform="scale(1 1) rotate(0) translate(4 814.5585)">
<title>PanelEditorial</title>
<polygon fill="#ffffff" stroke="transparent" points="-4,4 -4,-814.5585 1207.0271,-814.5585 1207.0271,4 -4,4"/>
<!-- inicio -->
<g id="node1" class="node">
<title>inicio</title>
<ellipse fill="none" stroke="#000000" cx="710.3209" cy="-776.9962" rx="33.6247" ry="33.6247"/>
<text text-anchor="middle" x="710.3209" y="-772.7962" font-family="Times,serif" font-size="14.00" fill="#000000">Inicio</text>
</g>
<!-- iniciarSesion -->
<g id="node3" class="node">
<title>iniciarSesion</title>
<path fill="none" stroke="#000000" d="M746.008,-706.4339C746.008,-706.4339 674.6338,-706.4339 674.6338,-706.4339 668.6338,-706.4339 662.6338,-700.4339 662.6338,-694.4339 662.6338,-694.4339 662.6338,-682.4339 662.6338,-682.4339 662.6338,-676.4339 668.6338,-670.4339 674.6338,-670.4339 674.6338,-670.4339 746.008,-670.4339 746.008,-670.4339 752.008,-670.4339 758.008,-676.4339 758.008,-682.4339 758.008,-682.4339 758.008,-694.4339 758.008,-694.4339 758.008,-700.4339 752.008,-706.4339 746.008,-706.4339"/>
<text text-anchor="middle" x="710.3209" y="-684.2339" font-family="Times,serif" font-size="14.00" fill="#000000">Iniciar sesión</text>
</g>
<!-- inicio&#45;&gt;iniciarSesion -->
<g id="edge1" class="edge">
<title>inicio-&gt;iniciarSesion</title>
<path fill="none" stroke="#000000" d="M710.3209,-743.2619C710.3209,-734.4631 710.3209,-725.0745 710.3209,-716.5982"/>
<polygon fill="#000000" stroke="#000000" points="713.821,-716.4625 710.3209,-706.4625 706.821,-716.4626 713.821,-716.4625"/>
</g>
<!-- fin -->
<g id="node2" class="node">
<title>fin</title>
<ellipse fill="none" stroke="#000000" cx="797.3209" cy="-27.9169" rx="23.846" ry="23.846"/>
<ellipse fill="none" stroke="#000000" cx="797.3209" cy="-27.9169" rx="27.8341" ry="27.8341"/>
<text text-anchor="middle" x="797.3209" y="-23.7169" font-family="Times,serif" font-size="14.00" fill="#000000">Fin</text>
</g>
<!-- accesoPermitido -->
<g id="node4" class="node">
<title>accesoPermitido</title>
<path fill="none" stroke="#000000" d="M681.9536,-617.6339C681.9536,-617.6339 590.6882,-617.6339 590.6882,-617.6339 584.6882,-617.6339 578.6882,-611.6339 578.6882,-605.6339 578.6882,-605.6339 578.6882,-593.6339 578.6882,-593.6339 578.6882,-587.6339 584.6882,-581.6339 590.6882,-581.6339 590.6882,-581.6339 681.9536,-581.6339 681.9536,-581.6339 687.9536,-581.6339 693.9536,-587.6339 693.9536,-593.6339 693.9536,-593.6339 693.9536,-605.6339 693.9536,-605.6339 693.9536,-611.6339 687.9536,-617.6339 681.9536,-617.6339"/>
<text text-anchor="middle" x="636.3209" y="-595.4339" font-family="Times,serif" font-size="14.00" fill="#000000">Acceso permitido</text>
</g>
<!-- iniciarSesion&#45;&gt;accesoPermitido -->
<g id="edge2" class="edge">
<title>iniciarSesion-&gt;accesoPermitido</title>
<path fill="none" stroke="#000000" d="M662.4605,-670.5471C654.8287,-665.7414 647.8007,-659.7764 642.7633,-652.4339 637.8607,-645.2878 635.6867,-636.2857 634.8997,-627.7486"/>
<polygon fill="#000000" stroke="#000000" points="638.3963,-627.5889 634.5374,-617.7219 631.4009,-627.8418 638.3963,-627.5889"/>
<text text-anchor="middle" x="702.5997" y="-639.8339" font-family="Times,serif" font-size="14.00" fill="#000000">Credenciales válidas</text>
</g>
<!-- mostrarError -->
<g id="node5" class="node">
<title>mostrarError</title>
<path fill="none" stroke="#000000" d="M818.8329,-617.6339C818.8329,-617.6339 751.8089,-617.6339 751.8089,-617.6339 745.8089,-617.6339 739.8089,-611.6339 739.8089,-605.6339 739.8089,-605.6339 739.8089,-593.6339 739.8089,-593.6339 739.8089,-587.6339 745.8089,-581.6339 751.8089,-581.6339 751.8089,-581.6339 818.8329,-581.6339 818.8329,-581.6339 824.8329,-581.6339 830.8329,-587.6339 830.8329,-593.6339 830.8329,-593.6339 830.8329,-605.6339 830.8329,-605.6339 830.8329,-611.6339 824.8329,-617.6339 818.8329,-617.6339"/>
<text text-anchor="middle" x="785.3209" y="-595.4339" font-family="Times,serif" font-size="14.00" fill="#000000">Mostrar error</text>
</g>
<!-- iniciarSesion&#45;&gt;mostrarError -->
<g id="edge3" class="edge">
<title>iniciarSesion-&gt;mostrarError</title>
<path fill="none" stroke="#000000" d="M741.6535,-670.2545C748.7392,-665.1335 755.7927,-659.1132 761.3209,-652.4339 767.3849,-645.1072 772.2413,-635.9993 775.9557,-627.422"/>
<polygon fill="#000000" stroke="#000000" points="779.2251,-628.6722 779.6677,-618.0866 772.7204,-626.0858 779.2251,-628.6722"/>
<text text-anchor="middle" x="837.045" y="-639.8339" font-family="Times,serif" font-size="14.00" fill="#000000">Credenciales inválidas</text>
</g>
<!-- accesoPanelRevista -->
<g id="node8" class="node">
<title>accesoPanelRevista</title>
<path fill="none" stroke="#000000" d="M684.5807,-544.6339C684.5807,-544.6339 550.0611,-544.6339 550.0611,-544.6339 544.0611,-544.6339 538.0611,-538.6339 538.0611,-532.6339 538.0611,-532.6339 538.0611,-520.6339 538.0611,-520.6339 538.0611,-514.6339 544.0611,-508.6339 550.0611,-508.6339 550.0611,-508.6339 684.5807,-508.6339 684.5807,-508.6339 690.5807,-508.6339 696.5807,-514.6339 696.5807,-520.6339 696.5807,-520.6339 696.5807,-532.6339 696.5807,-532.6339 696.5807,-538.6339 690.5807,-544.6339 684.5807,-544.6339"/>
<text text-anchor="middle" x="617.3209" y="-522.4339" font-family="Times,serif" font-size="14.00" fill="#000000">Acceso a panel de revista</text>
</g>
<!-- accesoPermitido&#45;&gt;accesoPanelRevista -->
<g id="edge6" class="edge">
<title>accesoPermitido-&gt;accesoPanelRevista</title>
<path fill="none" stroke="#000000" d="M631.6243,-581.5889C629.5004,-573.429 626.942,-563.5991 624.5796,-554.5226"/>
<polygon fill="#000000" stroke="#000000" points="627.9354,-553.5202 622.0293,-544.7242 621.1611,-555.2834 627.9354,-553.5202"/>
</g>
<!-- recuperarContrasena -->
<g id="node6" class="node">
<title>recuperarContrasena</title>
<path fill="none" stroke="#000000" d="M843.8527,-544.6339C843.8527,-544.6339 726.7891,-544.6339 726.7891,-544.6339 720.7891,-544.6339 714.7891,-538.6339 714.7891,-532.6339 714.7891,-532.6339 714.7891,-520.6339 714.7891,-520.6339 714.7891,-514.6339 720.7891,-508.6339 726.7891,-508.6339 726.7891,-508.6339 843.8527,-508.6339 843.8527,-508.6339 849.8527,-508.6339 855.8527,-514.6339 855.8527,-520.6339 855.8527,-520.6339 855.8527,-532.6339 855.8527,-532.6339 855.8527,-538.6339 849.8527,-544.6339 843.8527,-544.6339"/>
<text text-anchor="middle" x="785.3209" y="-522.4339" font-family="Times,serif" font-size="14.00" fill="#000000">Recuperar contraseña</text>
</g>
<!-- mostrarError&#45;&gt;recuperarContrasena -->
<g id="edge4" class="edge">
<title>mostrarError-&gt;recuperarContrasena</title>
<path fill="none" stroke="#000000" d="M785.3209,-581.5889C785.3209,-573.5167 785.3209,-563.8103 785.3209,-554.8156"/>
<polygon fill="#000000" stroke="#000000" points="788.821,-554.7242 785.3209,-544.7242 781.821,-554.7243 788.821,-554.7242"/>
</g>
<!-- añadirInfoUsuario -->
<g id="node7" class="node">
<title>añadirInfoUsuario</title>
<path fill="none" stroke="#000000" d="M1059.8622,-544.6339C1059.8622,-544.6339 886.7796,-544.6339 886.7796,-544.6339 880.7796,-544.6339 874.7796,-538.6339 874.7796,-532.6339 874.7796,-532.6339 874.7796,-520.6339 874.7796,-520.6339 874.7796,-514.6339 880.7796,-508.6339 886.7796,-508.6339 886.7796,-508.6339 1059.8622,-508.6339 1059.8622,-508.6339 1065.8622,-508.6339 1071.8622,-514.6339 1071.8622,-520.6339 1071.8622,-520.6339 1071.8622,-532.6339 1071.8622,-532.6339 1071.8622,-538.6339 1065.8622,-544.6339 1059.8622,-544.6339"/>
<text text-anchor="middle" x="973.3209" y="-522.4339" font-family="Times,serif" font-size="14.00" fill="#000000">Añadir información de usuario</text>
</g>
<!-- mostrarError&#45;&gt;añadirInfoUsuario -->
<g id="edge5" class="edge">
<title>mostrarError-&gt;añadirInfoUsuario</title>
<path fill="none" stroke="#000000" d="M830.8305,-581.9626C856.8824,-571.8467 889.7774,-559.0737 917.3955,-548.3496"/>
<polygon fill="#000000" stroke="#000000" points="918.8694,-551.532 926.9244,-544.6496 916.3356,-545.0066 918.8694,-551.532"/>
</g>
<!-- nuevoNumero -->
<g id="node9" class="node">
<title>nuevoNumero</title>
<path fill="none" stroke="#000000" d="M311.2841,-471.6339C311.2841,-471.6339 231.3577,-471.6339 231.3577,-471.6339 225.3577,-471.6339 219.3577,-465.6339 219.3577,-459.6339 219.3577,-459.6339 219.3577,-447.6339 219.3577,-447.6339 219.3577,-441.6339 225.3577,-435.6339 231.3577,-435.6339 231.3577,-435.6339 311.2841,-435.6339 311.2841,-435.6339 317.2841,-435.6339 323.2841,-441.6339 323.2841,-447.6339 323.2841,-447.6339 323.2841,-459.6339 323.2841,-459.6339 323.2841,-465.6339 317.2841,-471.6339 311.2841,-471.6339"/>
<text text-anchor="middle" x="271.3209" y="-449.4339" font-family="Times,serif" font-size="14.00" fill="#000000">Nuevo número</text>
</g>
<!-- accesoPanelRevista&#45;&gt;nuevoNumero -->
<g id="edge7" class="edge">
<title>accesoPanelRevista-&gt;nuevoNumero</title>
<path fill="none" stroke="#000000" d="M537.9415,-509.8862C475.7371,-496.7621 390.424,-478.7626 333.2124,-466.6919"/>
<polygon fill="#000000" stroke="#000000" points="333.7294,-463.224 323.2222,-464.5842 332.2842,-470.0732 333.7294,-463.224"/>
</g>
<!-- configuracion -->
<g id="node10" class="node">
<title>configuracion</title>
<path fill="none" stroke="#000000" d="M483.8508,-471.6339C483.8508,-471.6339 406.791,-471.6339 406.791,-471.6339 400.791,-471.6339 394.791,-465.6339 394.791,-459.6339 394.791,-459.6339 394.791,-447.6339 394.791,-447.6339 394.791,-441.6339 400.791,-435.6339 406.791,-435.6339 406.791,-435.6339 483.8508,-435.6339 483.8508,-435.6339 489.8508,-435.6339 495.8508,-441.6339 495.8508,-447.6339 495.8508,-447.6339 495.8508,-459.6339 495.8508,-459.6339 495.8508,-465.6339 489.8508,-471.6339 483.8508,-471.6339"/>
<text text-anchor="middle" x="445.3209" y="-449.4339" font-family="Times,serif" font-size="14.00" fill="#000000">Configuración</text>
</g>
<!-- accesoPanelRevista&#45;&gt;configuracion -->
<g id="edge8" class="edge">
<title>accesoPanelRevista-&gt;configuracion</title>
<path fill="none" stroke="#000000" d="M574.804,-508.5889C551.3398,-498.6303 522.015,-486.1843 497.209,-475.6562"/>
<polygon fill="#000000" stroke="#000000" points="498.5174,-472.4093 487.9448,-471.7242 495.7826,-478.853 498.5174,-472.4093"/>
</g>
<!-- altaConsejero -->
<g id="node11" class="node">
<title>altaConsejero</title>
<path fill="none" stroke="#000000" d="M666.2775,-471.6339C666.2775,-471.6339 576.3643,-471.6339 576.3643,-471.6339 570.3643,-471.6339 564.3643,-465.6339 564.3643,-459.6339 564.3643,-459.6339 564.3643,-447.6339 564.3643,-447.6339 564.3643,-441.6339 570.3643,-435.6339 576.3643,-435.6339 576.3643,-435.6339 666.2775,-435.6339 666.2775,-435.6339 672.2775,-435.6339 678.2775,-441.6339 678.2775,-447.6339 678.2775,-447.6339 678.2775,-459.6339 678.2775,-459.6339 678.2775,-465.6339 672.2775,-471.6339 666.2775,-471.6339"/>
<text text-anchor="middle" x="621.3209" y="-449.4339" font-family="Times,serif" font-size="14.00" fill="#000000">Alta de consejero</text>
</g>
<!-- accesoPanelRevista&#45;&gt;altaConsejero -->
<g id="edge9" class="edge">
<title>accesoPanelRevista-&gt;altaConsejero</title>
<path fill="none" stroke="#000000" d="M618.3097,-508.5889C618.752,-500.5167 619.2838,-490.8103 619.7767,-481.8156"/>
<polygon fill="#000000" stroke="#000000" points="623.2772,-481.9008 620.3296,-471.7242 616.2877,-481.5177 623.2772,-481.9008"/>
</g>
<!-- altaDictaminador -->
<g id="node12" class="node">
<title>altaDictaminador</title>
<path fill="none" stroke="#000000" d="M840.5048,-471.6339C840.5048,-471.6339 730.137,-471.6339 730.137,-471.6339 724.137,-471.6339 718.137,-465.6339 718.137,-459.6339 718.137,-459.6339 718.137,-447.6339 718.137,-447.6339 718.137,-441.6339 724.137,-435.6339 730.137,-435.6339 730.137,-435.6339 840.5048,-435.6339 840.5048,-435.6339 846.5048,-435.6339 852.5048,-441.6339 852.5048,-447.6339 852.5048,-447.6339 852.5048,-459.6339 852.5048,-459.6339 852.5048,-465.6339 846.5048,-471.6339 840.5048,-471.6339"/>
<text text-anchor="middle" x="785.3209" y="-449.4339" font-family="Times,serif" font-size="14.00" fill="#000000">Alta de dictaminador</text>
</g>
<!-- accesoPanelRevista&#45;&gt;altaDictaminador -->
<g id="edge10" class="edge">
<title>accesoPanelRevista-&gt;altaDictaminador</title>
<path fill="none" stroke="#000000" d="M658.849,-508.5889C681.6666,-498.6741 710.1581,-486.2939 734.319,-475.7954"/>
<polygon fill="#000000" stroke="#000000" points="735.9116,-478.9196 743.6883,-471.7242 733.1219,-472.4995 735.9116,-478.9196"/>
</g>
<!-- visualizarEstadisticas -->
<g id="node13" class="node">
<title>visualizarEstadisticas</title>
<path fill="none" stroke="#000000" d="M1031.5337,-471.6339C1031.5337,-471.6339 909.1081,-471.6339 909.1081,-471.6339 903.1081,-471.6339 897.1081,-465.6339 897.1081,-459.6339 897.1081,-459.6339 897.1081,-447.6339 897.1081,-447.6339 897.1081,-441.6339 903.1081,-435.6339 909.1081,-435.6339 909.1081,-435.6339 1031.5337,-435.6339 1031.5337,-435.6339 1037.5337,-435.6339 1043.5337,-441.6339 1043.5337,-447.6339 1043.5337,-447.6339 1043.5337,-459.6339 1043.5337,-459.6339 1043.5337,-465.6339 1037.5337,-471.6339 1031.5337,-471.6339"/>
<text text-anchor="middle" x="970.3209" y="-449.4339" font-family="Times,serif" font-size="14.00" fill="#000000">Visualizar estadísticas</text>
</g>
<!-- accesoPanelRevista&#45;&gt;visualizarEstadisticas -->
<g id="edge11" class="edge">
<title>accesoPanelRevista-&gt;visualizarEstadisticas</title>
<path fill="none" stroke="#000000" d="M696.541,-510.2513C753.3234,-498.5087 829.6408,-482.7264 887.2752,-470.8076"/>
<polygon fill="#000000" stroke="#000000" points="887.9989,-474.2321 897.0828,-468.7794 886.5812,-467.3772 887.9989,-474.2321"/>
</g>
<!-- registrarInformacionNumero -->
<g id="node14" class="node">
<title>registrarInformacionNumero</title>
<path fill="none" stroke="#000000" d="M202.463,-398.6339C202.463,-398.6339 12.1788,-398.6339 12.1788,-398.6339 6.1788,-398.6339 .1788,-392.6339 .1788,-386.6339 .1788,-386.6339 .1788,-374.6339 .1788,-374.6339 .1788,-368.6339 6.1788,-362.6339 12.1788,-362.6339 12.1788,-362.6339 202.463,-362.6339 202.463,-362.6339 208.463,-362.6339 214.463,-368.6339 214.463,-374.6339 214.463,-374.6339 214.463,-386.6339 214.463,-386.6339 214.463,-392.6339 208.463,-398.6339 202.463,-398.6339"/>
<text text-anchor="middle" x="107.3209" y="-376.4339" font-family="Times,serif" font-size="14.00" fill="#000000">Registrar información del número</text>
</g>
<!-- nuevoNumero&#45;&gt;registrarInformacionNumero -->
<g id="edge12" class="edge">
<title>nuevoNumero-&gt;registrarInformacionNumero</title>
<path fill="none" stroke="#000000" d="M230.7816,-435.5889C208.5072,-425.6741 180.6941,-413.2939 157.1084,-402.7954"/>
<polygon fill="#000000" stroke="#000000" points="158.5214,-399.5933 147.9623,-398.7242 155.6748,-405.9884 158.5214,-399.5933"/>
</g>
<!-- modificarRevista -->
<g id="node18" class="node">
<title>modificarRevista</title>
<path fill="none" stroke="#000000" d="M333.6129,-398.6339C333.6129,-398.6339 245.0289,-398.6339 245.0289,-398.6339 239.0289,-398.6339 233.0289,-392.6339 233.0289,-386.6339 233.0289,-386.6339 233.0289,-374.6339 233.0289,-374.6339 233.0289,-368.6339 239.0289,-362.6339 245.0289,-362.6339 245.0289,-362.6339 333.6129,-362.6339 333.6129,-362.6339 339.6129,-362.6339 345.6129,-368.6339 345.6129,-374.6339 345.6129,-374.6339 345.6129,-386.6339 345.6129,-386.6339 345.6129,-392.6339 339.6129,-398.6339 333.6129,-398.6339"/>
<text text-anchor="middle" x="289.3209" y="-376.4339" font-family="Times,serif" font-size="14.00" fill="#000000">Modificar revista</text>
</g>
<!-- configuracion&#45;&gt;modificarRevista -->
<g id="edge17" class="edge">
<title>configuracion-&gt;modificarRevista</title>
<path fill="none" stroke="#000000" d="M406.7591,-435.5889C385.7588,-425.7619 359.5828,-413.5128 337.2763,-403.0746"/>
<polygon fill="#000000" stroke="#000000" points="338.5206,-399.7926 327.9798,-398.7242 335.5537,-406.1328 338.5206,-399.7926"/>
</g>
<!-- modificarEquipoEditorial -->
<g id="node19" class="node">
<title>modificarEquipoEditorial</title>
<path fill="none" stroke="#000000" d="M515.0547,-398.6339C515.0547,-398.6339 375.5871,-398.6339 375.5871,-398.6339 369.5871,-398.6339 363.5871,-392.6339 363.5871,-386.6339 363.5871,-386.6339 363.5871,-374.6339 363.5871,-374.6339 363.5871,-368.6339 369.5871,-362.6339 375.5871,-362.6339 375.5871,-362.6339 515.0547,-362.6339 515.0547,-362.6339 521.0547,-362.6339 527.0547,-368.6339 527.0547,-374.6339 527.0547,-374.6339 527.0547,-386.6339 527.0547,-386.6339 527.0547,-392.6339 521.0547,-398.6339 515.0547,-398.6339"/>
<text text-anchor="middle" x="445.3209" y="-376.4339" font-family="Times,serif" font-size="14.00" fill="#000000">Modificar equipo editorial</text>
</g>
<!-- configuracion&#45;&gt;modificarEquipoEditorial -->
<g id="edge18" class="edge">
<title>configuracion-&gt;modificarEquipoEditorial</title>
<path fill="none" stroke="#000000" d="M445.3209,-435.5889C445.3209,-427.5167 445.3209,-417.8103 445.3209,-408.8156"/>
<polygon fill="#000000" stroke="#000000" points="448.821,-408.7242 445.3209,-398.7242 441.821,-408.7243 448.821,-408.7242"/>
</g>
<!-- registrarDatosConsejero -->
<g id="node21" class="node">
<title>registrarDatosConsejero</title>
<path fill="none" stroke="#000000" d="M707.5378,-398.6339C707.5378,-398.6339 557.104,-398.6339 557.104,-398.6339 551.104,-398.6339 545.104,-392.6339 545.104,-386.6339 545.104,-386.6339 545.104,-374.6339 545.104,-374.6339 545.104,-368.6339 551.104,-362.6339 557.104,-362.6339 557.104,-362.6339 707.5378,-362.6339 707.5378,-362.6339 713.5378,-362.6339 719.5378,-368.6339 719.5378,-374.6339 719.5378,-374.6339 719.5378,-386.6339 719.5378,-386.6339 719.5378,-392.6339 713.5378,-398.6339 707.5378,-398.6339"/>
<text text-anchor="middle" x="632.3209" y="-376.4339" font-family="Times,serif" font-size="14.00" fill="#000000">Registrar datos de consejero</text>
</g>
<!-- altaConsejero&#45;&gt;registrarDatosConsejero -->
<g id="edge22" class="edge">
<title>altaConsejero-&gt;registrarDatosConsejero</title>
<path fill="none" stroke="#000000" d="M624.04,-435.5889C625.2564,-427.5167 626.719,-417.8103 628.0743,-408.8156"/>
<polygon fill="#000000" stroke="#000000" points="631.5658,-409.1341 629.595,-398.7242 624.6439,-408.0911 631.5658,-409.1341"/>
</g>
<!-- registrarDatosDictaminador -->
<g id="node22" class="node">
<title>registrarDatosDictaminador</title>
<path fill="none" stroke="#000000" d="M919.7654,-398.6339C919.7654,-398.6339 748.8764,-398.6339 748.8764,-398.6339 742.8764,-398.6339 736.8764,-392.6339 736.8764,-386.6339 736.8764,-386.6339 736.8764,-374.6339 736.8764,-374.6339 736.8764,-368.6339 742.8764,-362.6339 748.8764,-362.6339 748.8764,-362.6339 919.7654,-362.6339 919.7654,-362.6339 925.7654,-362.6339 931.7654,-368.6339 931.7654,-374.6339 931.7654,-374.6339 931.7654,-386.6339 931.7654,-386.6339 931.7654,-392.6339 925.7654,-398.6339 919.7654,-398.6339"/>
<text text-anchor="middle" x="834.3209" y="-376.4339" font-family="Times,serif" font-size="14.00" fill="#000000">Registrar datos de dictaminador</text>
</g>
<!-- altaDictaminador&#45;&gt;registrarDatosDictaminador -->
<g id="edge23" class="edge">
<title>altaDictaminador-&gt;registrarDatosDictaminador</title>
<path fill="none" stroke="#000000" d="M797.4333,-435.5889C803.205,-426.9903 810.2214,-416.5372 816.5791,-407.0655"/>
<polygon fill="#000000" stroke="#000000" points="819.5108,-408.9779 822.1781,-398.7242 813.6987,-405.0766 819.5108,-408.9779"/>
</g>
<!-- aplicarFiltro -->
<g id="node24" class="node">
<title>aplicarFiltro</title>
<path fill="none" stroke="#000000" d="M1027.2927,-398.6339C1027.2927,-398.6339 961.3491,-398.6339 961.3491,-398.6339 955.3491,-398.6339 949.3491,-392.6339 949.3491,-386.6339 949.3491,-386.6339 949.3491,-374.6339 949.3491,-374.6339 949.3491,-368.6339 955.3491,-362.6339 961.3491,-362.6339 961.3491,-362.6339 1027.2927,-362.6339 1027.2927,-362.6339 1033.2927,-362.6339 1039.2927,-368.6339 1039.2927,-374.6339 1039.2927,-374.6339 1039.2927,-386.6339 1039.2927,-386.6339 1039.2927,-392.6339 1033.2927,-398.6339 1027.2927,-398.6339"/>
<text text-anchor="middle" x="994.3209" y="-376.4339" font-family="Times,serif" font-size="14.00" fill="#000000">Aplicar filtro</text>
</g>
<!-- visualizarEstadisticas&#45;&gt;aplicarFiltro -->
<g id="edge27" class="edge">
<title>visualizarEstadisticas-&gt;aplicarFiltro</title>
<path fill="none" stroke="#000000" d="M976.2535,-435.5889C978.9651,-427.3412 982.2375,-417.3875 985.2482,-408.23"/>
<polygon fill="#000000" stroke="#000000" points="988.575,-409.3172 988.3734,-398.7242 981.9252,-407.1309 988.575,-409.3172"/>
</g>
<!-- establecerFechas -->
<g id="node15" class="node">
<title>establecerFechas</title>
<path fill="none" stroke="#000000" d="M306.8682,-325.6339C306.8682,-325.6339 217.7736,-325.6339 217.7736,-325.6339 211.7736,-325.6339 205.7736,-319.6339 205.7736,-313.6339 205.7736,-313.6339 205.7736,-301.6339 205.7736,-301.6339 205.7736,-295.6339 211.7736,-289.6339 217.7736,-289.6339 217.7736,-289.6339 306.8682,-289.6339 306.8682,-289.6339 312.8682,-289.6339 318.8682,-295.6339 318.8682,-301.6339 318.8682,-301.6339 318.8682,-313.6339 318.8682,-313.6339 318.8682,-319.6339 312.8682,-325.6339 306.8682,-325.6339"/>
<text text-anchor="middle" x="262.3209" y="-303.4339" font-family="Times,serif" font-size="14.00" fill="#000000">Establecer fechas</text>
</g>
<!-- registrarInformacionNumero&#45;&gt;establecerFechas -->
<g id="edge13" class="edge">
<title>registrarInformacionNumero-&gt;establecerFechas</title>
<path fill="none" stroke="#000000" d="M145.6355,-362.5889C166.5012,-352.7619 192.5094,-340.5128 214.6729,-330.0746"/>
<polygon fill="#000000" stroke="#000000" points="216.3543,-333.1515 223.9099,-325.7242 213.3717,-326.8187 216.3543,-333.1515"/>
</g>
<!-- inicioCorreccion -->
<g id="node16" class="node">
<title>inicioCorreccion</title>
<path fill="none" stroke="#000000" d="M475.0835,-236.8339C475.0835,-236.8339 379.5583,-236.8339 379.5583,-236.8339 373.5583,-236.8339 367.5583,-230.8339 367.5583,-224.8339 367.5583,-224.8339 367.5583,-212.8339 367.5583,-212.8339 367.5583,-206.8339 373.5583,-200.8339 379.5583,-200.8339 379.5583,-200.8339 475.0835,-200.8339 475.0835,-200.8339 481.0835,-200.8339 487.0835,-206.8339 487.0835,-212.8339 487.0835,-212.8339 487.0835,-224.8339 487.0835,-224.8339 487.0835,-230.8339 481.0835,-236.8339 475.0835,-236.8339"/>
<text text-anchor="middle" x="427.3209" y="-214.6339" font-family="Times,serif" font-size="14.00" fill="#000000">Iniciar corrección</text>
</g>
<!-- establecerFechas&#45;&gt;inicioCorreccion -->
<g id="edge14" class="edge">
<title>establecerFechas-&gt;inicioCorreccion</title>
<path fill="none" stroke="#000000" d="M296.1093,-289.4496C321.7756,-275.6364 357.2419,-256.5491 384.8312,-241.7011"/>
<polygon fill="#000000" stroke="#000000" points="386.713,-244.6631 393.86,-236.8419 383.3956,-238.499 386.713,-244.6631"/>
</g>
<!-- publicarNumero -->
<g id="node17" class="node">
<title>publicarNumero</title>
<path fill="none" stroke="#000000" d="M521.6157,-128.8339C521.6157,-128.8339 433.0261,-128.8339 433.0261,-128.8339 427.0261,-128.8339 421.0261,-122.8339 421.0261,-116.8339 421.0261,-116.8339 421.0261,-104.8339 421.0261,-104.8339 421.0261,-98.8339 427.0261,-92.8339 433.0261,-92.8339 433.0261,-92.8339 521.6157,-92.8339 521.6157,-92.8339 527.6157,-92.8339 533.6157,-98.8339 533.6157,-104.8339 533.6157,-104.8339 533.6157,-116.8339 533.6157,-116.8339 533.6157,-122.8339 527.6157,-128.8339 521.6157,-128.8339"/>
<text text-anchor="middle" x="477.3209" y="-106.6339" font-family="Times,serif" font-size="14.00" fill="#000000">Publicar número</text>
</g>
<!-- inicioCorreccion&#45;&gt;publicarNumero -->
<g id="edge15" class="edge">
<title>inicioCorreccion-&gt;publicarNumero</title>
<path fill="none" stroke="#000000" d="M435.8027,-200.5132C443.7159,-183.4207 455.6256,-157.6958 464.6629,-138.1752"/>
<polygon fill="#000000" stroke="#000000" points="467.9392,-139.4292 468.9643,-128.884 461.5869,-136.4883 467.9392,-139.4292"/>
</g>
<!-- publicarNumero&#45;&gt;fin -->
<g id="edge16" class="edge">
<title>publicarNumero-&gt;fin</title>
<path fill="none" stroke="#000000" d="M531.6884,-92.7828C551.6029,-86.437 574.3861,-79.4856 595.3209,-73.8339 652.1752,-58.4851 718.9421,-43.9854 759.6799,-35.5283"/>
<polygon fill="#000000" stroke="#000000" points="760.6164,-38.9089 769.703,-33.4606 759.2021,-32.0533 760.6164,-38.9089"/>
</g>
<!-- guardarCambios -->
<g id="node20" class="node">
<title>guardarCambios</title>
<path fill="none" stroke="#000000" d="M489.3329,-325.6339C489.3329,-325.6339 401.3089,-325.6339 401.3089,-325.6339 395.3089,-325.6339 389.3089,-319.6339 389.3089,-313.6339 389.3089,-313.6339 389.3089,-301.6339 389.3089,-301.6339 389.3089,-295.6339 395.3089,-289.6339 401.3089,-289.6339 401.3089,-289.6339 489.3329,-289.6339 489.3329,-289.6339 495.3329,-289.6339 501.3329,-295.6339 501.3329,-301.6339 501.3329,-301.6339 501.3329,-313.6339 501.3329,-313.6339 501.3329,-319.6339 495.3329,-325.6339 489.3329,-325.6339"/>
<text text-anchor="middle" x="445.3209" y="-303.4339" font-family="Times,serif" font-size="14.00" fill="#000000">Guardar cambios</text>
</g>
<!-- modificarRevista&#45;&gt;guardarCambios -->
<g id="edge19" class="edge">
<title>modificarRevista-&gt;guardarCambios</title>
<path fill="none" stroke="#000000" d="M327.8827,-362.5889C348.883,-352.7619 375.059,-340.5128 397.3655,-330.0746"/>
<polygon fill="#000000" stroke="#000000" points="399.0881,-333.1328 406.662,-325.7242 396.1212,-326.7926 399.0881,-333.1328"/>
</g>
<!-- modificarEquipoEditorial&#45;&gt;guardarCambios -->
<g id="edge20" class="edge">
<title>modificarEquipoEditorial-&gt;guardarCambios</title>
<path fill="none" stroke="#000000" d="M445.3209,-362.5889C445.3209,-354.5167 445.3209,-344.8103 445.3209,-335.8156"/>
<polygon fill="#000000" stroke="#000000" points="448.821,-335.7242 445.3209,-325.7242 441.821,-335.7243 448.821,-335.7242"/>
</g>
<!-- guardarCambios&#45;&gt;fin -->
<g id="edge21" class="edge">
<title>guardarCambios-&gt;fin</title>
<path fill="none" stroke="#000000" d="M466.9435,-289.4576C511.6591,-251.9994 617.7799,-163.7751 709.3209,-92.8339 727.8501,-78.4743 748.9775,-62.8645 765.886,-50.551"/>
<polygon fill="#000000" stroke="#000000" points="768.2718,-53.144 774.3073,-44.4364 764.159,-47.4797 768.2718,-53.144"/>
</g>
<!-- enviarInvitacion -->
<g id="node23" class="node">
<title>enviarInvitacion</title>
<path fill="none" stroke="#000000" d="M724.2924,-325.6339C724.2924,-325.6339 630.3494,-325.6339 630.3494,-325.6339 624.3494,-325.6339 618.3494,-319.6339 618.3494,-313.6339 618.3494,-313.6339 618.3494,-301.6339 618.3494,-301.6339 618.3494,-295.6339 624.3494,-289.6339 630.3494,-289.6339 630.3494,-289.6339 724.2924,-289.6339 724.2924,-289.6339 730.2924,-289.6339 736.2924,-295.6339 736.2924,-301.6339 736.2924,-301.6339 736.2924,-313.6339 736.2924,-313.6339 736.2924,-319.6339 730.2924,-325.6339 724.2924,-325.6339"/>
<text text-anchor="middle" x="677.3209" y="-303.4339" font-family="Times,serif" font-size="14.00" fill="#000000">Enviar invitación</text>
</g>
<!-- registrarDatosConsejero&#45;&gt;enviarInvitacion -->
<g id="edge24" class="edge">
<title>registrarDatosConsejero-&gt;enviarInvitacion</title>
<path fill="none" stroke="#000000" d="M643.4445,-362.5889C648.691,-354.078 655.0573,-343.7504 660.8485,-334.3558"/>
<polygon fill="#000000" stroke="#000000" points="663.9012,-336.0735 666.1693,-325.7242 657.9424,-332.4002 663.9012,-336.0735"/>
</g>
<!-- registrarDatosDictaminador&#45;&gt;enviarInvitacion -->
<g id="edge25" class="edge">
<title>registrarDatosDictaminador-&gt;enviarInvitacion</title>
<path fill="none" stroke="#000000" d="M795.5119,-362.5889C774.377,-352.7619 748.0331,-340.5128 725.5838,-330.0746"/>
<polygon fill="#000000" stroke="#000000" points="726.771,-326.7668 716.2276,-325.7242 723.8196,-333.1142 726.771,-326.7668"/>
</g>
<!-- enviarInvitacion&#45;&gt;fin -->
<g id="edge26" class="edge">
<title>enviarInvitacion-&gt;fin</title>
<path fill="none" stroke="#000000" d="M678.438,-289.4142C681.5024,-250.7412 692.5257,-158.6081 730.3209,-92.8339 739.4759,-76.9016 753.6755,-62.3409 766.6503,-51.0653"/>
<polygon fill="#000000" stroke="#000000" points="769.0904,-53.5873 774.5146,-44.4863 764.5988,-48.2183 769.0904,-53.5873"/>
</g>
<!-- filtroNumero -->
<g id="node25" class="node">
<title>filtroNumero</title>
<path fill="none" stroke="#000000" d="M827.9061,-325.6339C827.9061,-325.6339 766.7357,-325.6339 766.7357,-325.6339 760.7357,-325.6339 754.7357,-319.6339 754.7357,-313.6339 754.7357,-313.6339 754.7357,-301.6339 754.7357,-301.6339 754.7357,-295.6339 760.7357,-289.6339 766.7357,-289.6339 766.7357,-289.6339 827.9061,-289.6339 827.9061,-289.6339 833.9061,-289.6339 839.9061,-295.6339 839.9061,-301.6339 839.9061,-301.6339 839.9061,-313.6339 839.9061,-313.6339 839.9061,-319.6339 833.9061,-325.6339 827.9061,-325.6339"/>
<text text-anchor="middle" x="797.3209" y="-303.4339" font-family="Times,serif" font-size="14.00" fill="#000000">Por número</text>
</g>
<!-- aplicarFiltro&#45;&gt;filtroNumero -->
<g id="edge28" class="edge">
<title>aplicarFiltro-&gt;filtroNumero</title>
<path fill="none" stroke="#000000" d="M949.1251,-363.8862C919.5019,-352.9091 880.674,-338.5211 849.7026,-327.0444"/>
<polygon fill="#000000" stroke="#000000" points="850.5378,-323.6213 839.9447,-323.4285 848.1054,-330.1852 850.5378,-323.6213"/>
</g>
<!-- filtroRevista -->
<g id="node26" class="node">
<title>filtroRevista</title>
<path fill="none" stroke="#000000" d="M922.5801,-325.6339C922.5801,-325.6339 870.0617,-325.6339 870.0617,-325.6339 864.0617,-325.6339 858.0617,-319.6339 858.0617,-313.6339 858.0617,-313.6339 858.0617,-301.6339 858.0617,-301.6339 858.0617,-295.6339 864.0617,-289.6339 870.0617,-289.6339 870.0617,-289.6339 922.5801,-289.6339 922.5801,-289.6339 928.5801,-289.6339 934.5801,-295.6339 934.5801,-301.6339 934.5801,-301.6339 934.5801,-313.6339 934.5801,-313.6339 934.5801,-319.6339 928.5801,-325.6339 922.5801,-325.6339"/>
<text text-anchor="middle" x="896.3209" y="-303.4339" font-family="Times,serif" font-size="14.00" fill="#000000">Por revista</text>
</g>
<!-- aplicarFiltro&#45;&gt;filtroRevista -->
<g id="edge29" class="edge">
<title>aplicarFiltro-&gt;filtroRevista</title>
<path fill="none" stroke="#000000" d="M970.0962,-362.5889C957.6104,-353.2883 942.2123,-341.8183 928.7189,-331.7671"/>
<polygon fill="#000000" stroke="#000000" points="930.717,-328.8912 920.6066,-325.7242 926.5354,-334.5049 930.717,-328.8912"/>
</g>
<!-- filtroSeccion -->
<g id="node27" class="node">
<title>filtroSeccion</title>
<path fill="none" stroke="#000000" d="M1025.9047,-325.6339C1025.9047,-325.6339 964.7371,-325.6339 964.7371,-325.6339 958.7371,-325.6339 952.7371,-319.6339 952.7371,-313.6339 952.7371,-313.6339 952.7371,-301.6339 952.7371,-301.6339 952.7371,-295.6339 958.7371,-289.6339 964.7371,-289.6339 964.7371,-289.6339 1025.9047,-289.6339 1025.9047,-289.6339 1031.9047,-289.6339 1037.9047,-295.6339 1037.9047,-301.6339 1037.9047,-301.6339 1037.9047,-313.6339 1037.9047,-313.6339 1037.9047,-319.6339 1031.9047,-325.6339 1025.9047,-325.6339"/>
<text text-anchor="middle" x="995.3209" y="-303.4339" font-family="Times,serif" font-size="14.00" fill="#000000">Por sección</text>
</g>
<!-- aplicarFiltro&#45;&gt;filtroSeccion -->
<g id="edge30" class="edge">
<title>aplicarFiltro-&gt;filtroSeccion</title>
<path fill="none" stroke="#000000" d="M994.5681,-362.5889C994.6787,-354.5167 994.8116,-344.8103 994.9348,-335.8156"/>
<polygon fill="#000000" stroke="#000000" points="998.4357,-335.7713 995.0731,-325.7242 991.4363,-335.6753 998.4357,-335.7713"/>
</g>
<!-- descargarDatos -->
<g id="node28" class="node">
<title>descargarDatos</title>
<path fill="none" stroke="#000000" d="M838.1017,-236.8339C838.1017,-236.8339 756.5401,-236.8339 756.5401,-236.8339 750.5401,-236.8339 744.5401,-230.8339 744.5401,-224.8339 744.5401,-224.8339 744.5401,-212.8339 744.5401,-212.8339 744.5401,-206.8339 750.5401,-200.8339 756.5401,-200.8339 756.5401,-200.8339 838.1017,-200.8339 838.1017,-200.8339 844.1017,-200.8339 850.1017,-206.8339 850.1017,-212.8339 850.1017,-212.8339 850.1017,-224.8339 850.1017,-224.8339 850.1017,-230.8339 844.1017,-236.8339 838.1017,-236.8339"/>
<text text-anchor="middle" x="797.3209" y="-214.6339" font-family="Times,serif" font-size="14.00" fill="#000000">Descargar datos</text>
</g>
<!-- filtroNumero&#45;&gt;descargarDatos -->
<g id="edge31" class="edge">
<title>filtroNumero-&gt;descargarDatos</title>
<path fill="none" stroke="#000000" d="M797.3209,-289.2345C797.3209,-277.1288 797.3209,-261.0415 797.3209,-247.3012"/>
<polygon fill="#000000" stroke="#000000" points="800.821,-246.9059 797.3209,-236.9059 793.821,-246.9059 800.821,-246.9059"/>
</g>
<!-- filtroRevista&#45;&gt;descargarDatos -->
<g id="edge32" class="edge">
<title>filtroRevista-&gt;descargarDatos</title>
<path fill="none" stroke="#000000" d="M875.808,-289.2345C861.1092,-276.05 841.1451,-258.1429 825.0304,-243.6885"/>
<polygon fill="#000000" stroke="#000000" points="827.25,-240.9776 817.4688,-236.9059 822.5759,-246.1886 827.25,-240.9776"/>
</g>
<!-- filtroSeccion&#45;&gt;descargarDatos -->
<g id="edge33" class="edge">
<title>filtroSeccion-&gt;descargarDatos</title>
<path fill="none" stroke="#000000" d="M954.5094,-289.5497C941.6438,-283.8342 927.3824,-277.4836 914.3209,-271.6339 892.0097,-261.6416 867.3359,-250.5177 846.4211,-241.0667"/>
<polygon fill="#000000" stroke="#000000" points="847.652,-237.7822 837.0981,-236.8522 844.7685,-244.1608 847.652,-237.7822"/>
</g>
<!-- finalizarConsulta -->
<g id="node29" class="node">
<title>finalizarConsulta</title>
<path fill="none" stroke="#000000" d="M843.2347,-128.8339C843.2347,-128.8339 751.4071,-128.8339 751.4071,-128.8339 745.4071,-128.8339 739.4071,-122.8339 739.4071,-116.8339 739.4071,-116.8339 739.4071,-104.8339 739.4071,-104.8339 739.4071,-98.8339 745.4071,-92.8339 751.4071,-92.8339 751.4071,-92.8339 843.2347,-92.8339 843.2347,-92.8339 849.2347,-92.8339 855.2347,-98.8339 855.2347,-104.8339 855.2347,-104.8339 855.2347,-116.8339 855.2347,-116.8339 855.2347,-122.8339 849.2347,-128.8339 843.2347,-128.8339"/>
<text text-anchor="middle" x="797.3209" y="-106.6339" font-family="Times,serif" font-size="14.00" fill="#000000">Finalizar consulta</text>
</g>
<!-- descargarDatos&#45;&gt;finalizarConsulta -->
<g id="edge34" class="edge">
<title>descargarDatos-&gt;finalizarConsulta</title>
<path fill="none" stroke="#000000" d="M797.3209,-200.5132C797.3209,-183.6548 797.3209,-158.399 797.3209,-138.9809"/>
<polygon fill="#000000" stroke="#000000" points="800.821,-138.884 797.3209,-128.884 793.821,-138.8841 800.821,-138.884"/>
</g>
<!-- finalizarConsulta&#45;&gt;fin -->
<g id="edge35" class="edge">
<title>finalizarConsulta-&gt;fin</title>
<path fill="none" stroke="#000000" d="M797.3209,-92.4319C797.3209,-84.667 797.3209,-75.3198 797.3209,-66.1809"/>
<polygon fill="#000000" stroke="#000000" points="800.821,-66.0466 797.3209,-56.0467 793.821,-66.0467 800.821,-66.0466"/>
</g>
<!-- postulaciones -->
<g id="node30" class="node">
<title>postulaciones</title>
<path fill="none" stroke="#000000" d="M1170.8083,-544.6339C1170.8083,-544.6339 1101.8335,-544.6339 1101.8335,-544.6339 1095.8335,-544.6339 1089.8335,-538.6339 1089.8335,-532.6339 1089.8335,-532.6339 1089.8335,-520.6339 1089.8335,-520.6339 1089.8335,-514.6339 1095.8335,-508.6339 1101.8335,-508.6339 1101.8335,-508.6339 1170.8083,-508.6339 1170.8083,-508.6339 1176.8083,-508.6339 1182.8083,-514.6339 1182.8083,-520.6339 1182.8083,-520.6339 1182.8083,-532.6339 1182.8083,-532.6339 1182.8083,-538.6339 1176.8083,-544.6339 1170.8083,-544.6339"/>
<text text-anchor="middle" x="1136.3209" y="-522.4339" font-family="Times,serif" font-size="14.00" fill="#000000">Postulaciones</text>
</g>
<!-- dictamenEditorial -->
<g id="node31" class="node">
<title>dictamenEditorial</title>
<path fill="none" stroke="#000000" d="M1185.7333,-471.6339C1185.7333,-471.6339 1086.9085,-471.6339 1086.9085,-471.6339 1080.9085,-471.6339 1074.9085,-465.6339 1074.9085,-459.6339 1074.9085,-459.6339 1074.9085,-447.6339 1074.9085,-447.6339 1074.9085,-441.6339 1080.9085,-435.6339 1086.9085,-435.6339 1086.9085,-435.6339 1185.7333,-435.6339 1185.7333,-435.6339 1191.7333,-435.6339 1197.7333,-441.6339 1197.7333,-447.6339 1197.7333,-447.6339 1197.7333,-459.6339 1197.7333,-459.6339 1197.7333,-465.6339 1191.7333,-471.6339 1185.7333,-471.6339"/>
<text text-anchor="middle" x="1136.3209" y="-449.4339" font-family="Times,serif" font-size="14.00" fill="#000000">Dictamen Editorial</text>
</g>
<!-- postulaciones&#45;&gt;dictamenEditorial -->
<g id="edge36" class="edge">
<title>postulaciones-&gt;dictamenEditorial</title>
<path fill="none" stroke="#000000" d="M1136.3209,-508.5889C1136.3209,-500.5167 1136.3209,-490.8103 1136.3209,-481.8156"/>
<polygon fill="#000000" stroke="#000000" points="1139.821,-481.7242 1136.3209,-471.7242 1132.821,-481.7243 1139.821,-481.7242"/>
</g>
<!-- dictamenAcademico -->
<g id="node32" class="node">
<title>dictamenAcademico</title>
<path fill="none" stroke="#000000" d="M1187.4544,-398.6339C1187.4544,-398.6339 1073.1874,-398.6339 1073.1874,-398.6339 1067.1874,-398.6339 1061.1874,-392.6339 1061.1874,-386.6339 1061.1874,-386.6339 1061.1874,-374.6339 1061.1874,-374.6339 1061.1874,-368.6339 1067.1874,-362.6339 1073.1874,-362.6339 1073.1874,-362.6339 1187.4544,-362.6339 1187.4544,-362.6339 1193.4544,-362.6339 1199.4544,-368.6339 1199.4544,-374.6339 1199.4544,-374.6339 1199.4544,-386.6339 1199.4544,-386.6339 1199.4544,-392.6339 1193.4544,-398.6339 1187.4544,-398.6339"/>
<text text-anchor="middle" x="1130.3209" y="-376.4339" font-family="Times,serif" font-size="14.00" fill="#000000">Dictamen Académico</text>
</g>
<!-- dictamenEditorial&#45;&gt;dictamenAcademico -->
<g id="edge37" class="edge">
<title>dictamenEditorial-&gt;dictamenAcademico</title>
<path fill="none" stroke="#000000" d="M1134.8378,-435.5889C1134.1743,-427.5167 1133.3765,-417.8103 1132.6372,-408.8156"/>
<polygon fill="#000000" stroke="#000000" points="1136.1153,-408.4039 1131.8078,-398.7242 1129.1388,-408.9774 1136.1153,-408.4039"/>
</g>
<!-- resultado -->
<g id="node33" class="node">
<title>resultado</title>
<path fill="none" stroke="#000000" d="M1191.2339,-325.6339C1191.2339,-325.6339 1067.4079,-325.6339 1067.4079,-325.6339 1061.4079,-325.6339 1055.4079,-319.6339 1055.4079,-313.6339 1055.4079,-313.6339 1055.4079,-301.6339 1055.4079,-301.6339 1055.4079,-295.6339 1061.4079,-289.6339 1067.4079,-289.6339 1067.4079,-289.6339 1191.2339,-289.6339 1191.2339,-289.6339 1197.2339,-289.6339 1203.2339,-295.6339 1203.2339,-301.6339 1203.2339,-301.6339 1203.2339,-313.6339 1203.2339,-313.6339 1203.2339,-319.6339 1197.2339,-325.6339 1191.2339,-325.6339"/>
<text text-anchor="middle" x="1129.3209" y="-303.4339" font-family="Times,serif" font-size="14.00" fill="#000000">Resultado del dictamen</text>
</g>
<!-- dictamenAcademico&#45;&gt;resultado -->
<g id="edge38" class="edge">
<title>dictamenAcademico-&gt;resultado</title>
<path fill="none" stroke="#000000" d="M1130.0737,-362.5889C1129.9631,-354.5167 1129.8302,-344.8103 1129.707,-335.8156"/>
<polygon fill="#000000" stroke="#000000" points="1133.2055,-335.6753 1129.5687,-325.7242 1126.2061,-335.7713 1133.2055,-335.6753"/>
</g>
<!-- modificaciones -->
<g id="node34" class="node">
<title>modificaciones</title>
<path fill="none" stroke="#000000" d="M1008.7824,-236.8339C1008.7824,-236.8339 879.8594,-236.8339 879.8594,-236.8339 873.8594,-236.8339 867.8594,-230.8339 867.8594,-224.8339 867.8594,-224.8339 867.8594,-212.8339 867.8594,-212.8339 867.8594,-206.8339 873.8594,-200.8339 879.8594,-200.8339 879.8594,-200.8339 1008.7824,-200.8339 1008.7824,-200.8339 1014.7824,-200.8339 1020.7824,-206.8339 1020.7824,-212.8339 1020.7824,-212.8339 1020.7824,-224.8339 1020.7824,-224.8339 1020.7824,-230.8339 1014.7824,-236.8339 1008.7824,-236.8339"/>
<text text-anchor="middle" x="944.3209" y="-214.6339" font-family="Times,serif" font-size="14.00" fill="#000000">Solicitar modificaciones</text>
</g>
<!-- resultado&#45;&gt;modificaciones -->
<g id="edge39" class="edge">
<title>resultado-&gt;modificaciones</title>
<path fill="none" stroke="#000000" d="M1055.1734,-291.1031C1052.526,-290.594 1049.9022,-290.1024 1047.3209,-289.6339 1019.7045,-284.6216 940.6843,-292.8478 922.3061,-271.6339 915.8681,-264.2025 917.7018,-254.6226 922.3725,-245.6671"/>
<polygon fill="#000000" stroke="#000000" points="925.4449,-247.3553 927.7874,-237.0226 919.5127,-243.6393 925.4449,-247.3553"/>
<text text-anchor="middle" x="991.3283" y="-259.0339" font-family="Times,serif" font-size="14.00" fill="#000000">Solicitar Modificaciones</text>
</g>
<!-- aprobar -->
<g id="node35" class="node">
<title>aprobar</title>
<path fill="none" stroke="#000000" d="M1065.4643,-182.8339C1065.4643,-182.8339 1027.1775,-182.8339 1027.1775,-182.8339 1021.1775,-182.8339 1015.1775,-176.8339 1015.1775,-170.8339 1015.1775,-170.8339 1015.1775,-158.8339 1015.1775,-158.8339 1015.1775,-152.8339 1021.1775,-146.8339 1027.1775,-146.8339 1027.1775,-146.8339 1065.4643,-146.8339 1065.4643,-146.8339 1071.4643,-146.8339 1077.4643,-152.8339 1077.4643,-158.8339 1077.4643,-158.8339 1077.4643,-170.8339 1077.4643,-170.8339 1077.4643,-176.8339 1071.4643,-182.8339 1065.4643,-182.8339"/>
<text text-anchor="middle" x="1046.3209" y="-160.6339" font-family="Times,serif" font-size="14.00" fill="#000000">Aprobar</text>
</g>
<!-- resultado&#45;&gt;aprobar -->
<g id="edge40" class="edge">
<title>resultado-&gt;aprobar</title>
<path fill="none" stroke="#000000" d="M1097.9813,-289.5981C1091.1923,-284.507 1084.5861,-278.464 1079.6785,-271.6339 1062.8481,-248.2103 1054.3194,-216.0292 1050.1242,-193.1298"/>
<polygon fill="#000000" stroke="#000000" points="1053.5359,-192.3096 1048.4413,-183.0201 1046.6309,-193.4591 1053.5359,-192.3096"/>
<text text-anchor="middle" x="1102.6421" y="-259.0339" font-family="Times,serif" font-size="14.00" fill="#000000">Aprobar</text>
</g>
<!-- rechazar -->
<g id="node36" class="node">
<title>rechazar</title>
<path fill="none" stroke="#000000" d="M1148.3911,-182.8339C1148.3911,-182.8339 1104.2507,-182.8339 1104.2507,-182.8339 1098.2507,-182.8339 1092.2507,-176.8339 1092.2507,-170.8339 1092.2507,-170.8339 1092.2507,-158.8339 1092.2507,-158.8339 1092.2507,-152.8339 1098.2507,-146.8339 1104.2507,-146.8339 1104.2507,-146.8339 1148.3911,-146.8339 1148.3911,-146.8339 1154.3911,-146.8339 1160.3911,-152.8339 1160.3911,-158.8339 1160.3911,-158.8339 1160.3911,-170.8339 1160.3911,-170.8339 1160.3911,-176.8339 1154.3911,-182.8339 1148.3911,-182.8339"/>
<text text-anchor="middle" x="1126.3209" y="-160.6339" font-family="Times,serif" font-size="14.00" fill="#000000">Rechazar</text>
</g>
<!-- resultado&#45;&gt;rechazar -->
<g id="edge41" class="edge">
<title>resultado-&gt;rechazar</title>
<path fill="none" stroke="#000000" d="M1129.9279,-289.3218C1130.0894,-283.6526 1130.241,-277.3855 1130.3209,-271.6339 1130.6912,-244.9699 1129.385,-214.584 1128.168,-193.0589"/>
<polygon fill="#000000" stroke="#000000" points="1131.6555,-192.7427 1127.5673,-182.9683 1124.6679,-193.1587 1131.6555,-192.7427"/>
<text text-anchor="middle" x="1156.356" y="-259.0339" font-family="Times,serif" font-size="14.00" fill="#000000">Rechazar</text>
</g>
<!-- regresarPostulacion -->
<g id="node37" class="node">
<title>regresarPostulacion</title>
<path fill="none" stroke="#000000" d="M1000.774,-128.8339C1000.774,-128.8339 885.8678,-128.8339 885.8678,-128.8339 879.8678,-128.8339 873.8678,-122.8339 873.8678,-116.8339 873.8678,-116.8339 873.8678,-104.8339 873.8678,-104.8339 873.8678,-98.8339 879.8678,-92.8339 885.8678,-92.8339 885.8678,-92.8339 1000.774,-92.8339 1000.774,-92.8339 1006.774,-92.8339 1012.774,-98.8339 1012.774,-104.8339 1012.774,-104.8339 1012.774,-116.8339 1012.774,-116.8339 1012.774,-122.8339 1006.774,-128.8339 1000.774,-128.8339"/>
<text text-anchor="middle" x="943.3209" y="-106.6339" font-family="Times,serif" font-size="14.00" fill="#000000">Regresar postulación</text>
</g>
<!-- modificaciones&#45;&gt;regresarPostulacion -->
<g id="edge42" class="edge">
<title>modificaciones-&gt;regresarPostulacion</title>
<path fill="none" stroke="#000000" d="M944.1513,-200.5132C943.9952,-183.6548 943.7613,-158.399 943.5815,-138.9809"/>
<polygon fill="#000000" stroke="#000000" points="947.0806,-138.8512 943.488,-128.884 940.0809,-138.9161 947.0806,-138.8512"/>
</g>
<!-- aprobar&#45;&gt;fin -->
<g id="edge44" class="edge">
<title>aprobar-&gt;fin</title>
<path fill="none" stroke="#000000" d="M1044.6637,-146.649C1042.2234,-130.3699 1036.1964,-106.9536 1021.3209,-92.8339 994.4355,-67.3144 891.4157,-45.0902 834.9255,-34.5027"/>
<polygon fill="#000000" stroke="#000000" points="835.4167,-31.0344 824.9478,-32.663 834.1474,-37.9183 835.4167,-31.0344"/>
</g>
<!-- rechazar&#45;&gt;fin -->
<g id="edge45" class="edge">
<title>rechazar-&gt;fin</title>
<path fill="none" stroke="#000000" d="M1108.6998,-146.5664C1092.8932,-130.8956 1068.5228,-108.4387 1044.3209,-92.8339 978.7802,-50.5749 886.7073,-35.7408 835.4966,-30.5948"/>
<polygon fill="#000000" stroke="#000000" points="835.7983,-27.1078 825.5163,-29.6634 835.1477,-34.0776 835.7983,-27.1078"/>
</g>
<!-- regresarPostulacion&#45;&gt;fin -->
<g id="edge43" class="edge">
<title>regresarPostulacion-&gt;fin</title>
<path fill="none" stroke="#000000" d="M911.2806,-92.6374C887.4625,-79.1105 855.0431,-60.6988 830.8715,-46.9712"/>
<polygon fill="#000000" stroke="#000000" points="832.4705,-43.8542 822.0465,-41.9592 829.0136,-49.9411 832.4705,-43.8542"/>
</g>
</g>
</svg>