<?xml version="1.0" encoding="UTF-8" standalone="no"?><!DOCTYPE svg PUBLIC "-//W3C//DTD SVG 1.1//EN" "http://www.w3.org/Graphics/SVG/1.1/DTD/svg11.dtd"><!-- Generated by graphviz version 2.40.1 (20161225.0304)
 --><!-- Title: CJM_Dictaminador Pages: 1 --><svg xmlns="http://www.w3.org/2000/svg" xmlns:xlink="http://www.w3.org/1999/xlink" width="926pt" height="317pt" viewBox="0.00 0.00 926.13 317.00">
<g id="graph0" class="graph" transform="scale(1 1) rotate(0) translate(4 313)">
<title>CJM_Dictaminador</title>
<polygon fill="#ffffff" stroke="transparent" points="-4,4 -4,-313 922.1284,-313 922.1284,4 -4,4"/>
<g id="clust1" class="cluster">
<title>cluster_phases</title>
<polygon fill="none" stroke="#000000" stroke-dasharray="1,5" points="8,-8 8,-301 123.3376,-301 123.3376,-8 8,-8"/>
<text text-anchor="middle" x="65.6688" y="-284.4" font-family="Times,serif" font-size="14.00" fill="#000000">Fases del Journey</text>
</g>
<g id="clust2" class="cluster">
<title>cluster_actions</title>
<polygon fill="none" stroke="#000000" points="143.3376,-8 143.3376,-301 356.0216,-301 356.0216,-8 143.3376,-8"/>
<text text-anchor="middle" x="249.6796" y="-284.4" font-family="Times,serif" font-size="14.00" fill="#000000">Acciones del Usuario</text>
</g>
<g id="clust3" class="cluster">
<title>cluster_pain_points</title>
<polygon fill="none" stroke="#000000" stroke-dasharray="5,2" points="376.0216,-8 376.0216,-301 616.0584,-301 616.0584,-8 376.0216,-8"/>
<text text-anchor="middle" x="496.04" y="-284.4" font-family="Times,serif" font-size="14.00" fill="#000000">Desafíos</text>
</g>
<g id="clust4" class="cluster">
<title>cluster_solutions</title>
<polygon fill="#d3d3d3" stroke="#d3d3d3" points="636.0584,-8 636.0584,-301 910.1284,-301 910.1284,-8 636.0584,-8"/>
<text text-anchor="middle" x="773.0934" y="-284.4" font-family="Times,serif" font-size="14.00" fill="#000000">Soluciones Propuestas</text>
</g>
<!-- phase1 -->
<g id="node1" class="node">
<title>phase1</title>
<path fill="none" stroke="#000000" d="M103.507,-268C103.507,-268 27.8306,-268 27.8306,-268 21.8306,-268 15.8306,-262 15.8306,-256 15.8306,-256 15.8306,-244 15.8306,-244 15.8306,-238 21.8306,-232 27.8306,-232 27.8306,-232 103.507,-232 103.507,-232 109.507,-232 115.507,-238 115.507,-244 115.507,-244 115.507,-256 115.507,-256 115.507,-262 109.507,-268 103.507,-268"/>
<text text-anchor="middle" x="65.6688" y="-246.4" font-family="Arial" font-size="12.00" fill="#000000">Descubrimiento</text>
</g>
<!-- action1 -->
<g id="node6" class="node">
<title>action1</title>
<path fill="none" stroke="#000000" d="M335.8639,-268C335.8639,-268 163.4953,-268 163.4953,-268 157.4953,-268 151.4953,-262 151.4953,-256 151.4953,-256 151.4953,-244 151.4953,-244 151.4953,-238 157.4953,-232 163.4953,-232 163.4953,-232 335.8639,-232 335.8639,-232 341.8639,-232 347.8639,-238 347.8639,-244 347.8639,-244 347.8639,-256 347.8639,-256 347.8639,-262 341.8639,-268 335.8639,-268"/>
<text text-anchor="middle" x="249.6796" y="-246.4" font-family="Arial" font-size="12.00" fill="#000000">Recibe invitación para dictaminar</text>
</g>
<!-- phase1&#45;&gt;action1 -->
<g id="edge1" class="edge">
<title>phase1-&gt;action1</title>
<path fill="none" stroke="#000000" d="M115.4648,-250C123.5847,-250 132.2647,-250 141.1575,-250"/>
<polygon fill="#000000" stroke="#000000" points="141.2697,-253.5001 151.2697,-250 141.2697,-246.5001 141.2697,-253.5001"/>
</g>
<!-- phase2 -->
<g id="node2" class="node">
<title>phase2</title>
<path fill="none" stroke="#000000" d="M92.8467,-214C92.8467,-214 38.4909,-214 38.4909,-214 32.4909,-214 26.4909,-208 26.4909,-202 26.4909,-202 26.4909,-190 26.4909,-190 26.4909,-184 32.4909,-178 38.4909,-178 38.4909,-178 92.8467,-178 92.8467,-178 98.8467,-178 104.8467,-184 104.8467,-190 104.8467,-190 104.8467,-202 104.8467,-202 104.8467,-208 98.8467,-214 92.8467,-214"/>
<text text-anchor="middle" x="65.6688" y="-192.4" font-family="Arial" font-size="12.00" fill="#000000">Evaluación</text>
</g>
<!-- action2 -->
<g id="node7" class="node">
<title>action2</title>
<path fill="none" stroke="#000000" d="M333.8571,-214C333.8571,-214 165.5021,-214 165.5021,-214 159.5021,-214 153.5021,-208 153.5021,-202 153.5021,-202 153.5021,-190 153.5021,-190 153.5021,-184 159.5021,-178 165.5021,-178 165.5021,-178 333.8571,-178 333.8571,-178 339.8571,-178 345.8571,-184 345.8571,-190 345.8571,-190 345.8571,-202 345.8571,-202 345.8571,-208 339.8571,-214 333.8571,-214"/>
<text text-anchor="middle" x="249.6796" y="-192.4" font-family="Arial" font-size="12.00" fill="#000000">Revisa los requisitos del artículo</text>
</g>
<!-- phase2&#45;&gt;action2 -->
<g id="edge4" class="edge">
<title>phase2-&gt;action2</title>
<path fill="none" stroke="#000000" d="M105.1437,-196C116.5042,-196 129.4717,-196 142.8692,-196"/>
<polygon fill="#000000" stroke="#000000" points="143.1788,-199.5001 153.1788,-196 143.1787,-192.5001 143.1788,-199.5001"/>
</g>
<!-- phase3 -->
<g id="node3" class="node">
<title>phase3</title>
<path fill="none" stroke="#000000" d="M86.6644,-160C86.6644,-160 44.6732,-160 44.6732,-160 38.6732,-160 32.6732,-154 32.6732,-148 32.6732,-148 32.6732,-136 32.6732,-136 32.6732,-130 38.6732,-124 44.6732,-124 44.6732,-124 86.6644,-124 86.6644,-124 92.6644,-124 98.6644,-130 98.6644,-136 98.6644,-136 98.6644,-148 98.6644,-148 98.6644,-154 92.6644,-160 86.6644,-160"/>
<text text-anchor="middle" x="65.6688" y="-138.4" font-family="Arial" font-size="12.00" fill="#000000">Decisión</text>
</g>
<!-- action3 -->
<g id="node8" class="node">
<title>action3</title>
<path fill="none" stroke="#000000" d="M327.5528,-160C327.5528,-160 171.8064,-160 171.8064,-160 165.8064,-160 159.8064,-154 159.8064,-148 159.8064,-148 159.8064,-136 159.8064,-136 159.8064,-130 165.8064,-124 171.8064,-124 171.8064,-124 327.5528,-124 327.5528,-124 333.5528,-124 339.5528,-130 339.5528,-136 339.5528,-136 339.5528,-148 339.5528,-148 339.5528,-154 333.5528,-160 327.5528,-160"/>
<text text-anchor="middle" x="249.6796" y="-138.4" font-family="Arial" font-size="12.00" fill="#000000">Acepta o rechaza la invitación</text>
</g>
<!-- phase3&#45;&gt;action3 -->
<g id="edge7" class="edge">
<title>phase3-&gt;action3</title>
<path fill="none" stroke="#000000" d="M98.9918,-142C113.4978,-142 131.344,-142 149.6173,-142"/>
<polygon fill="#000000" stroke="#000000" points="149.7946,-145.5001 159.7946,-142 149.7946,-138.5001 149.7946,-145.5001"/>
</g>
<!-- phase4 -->
<g id="node4" class="node">
<title>phase4</title>
<path fill="none" stroke="#000000" d="M80.6688,-106C80.6688,-106 50.6688,-106 50.6688,-106 44.6688,-106 38.6688,-100 38.6688,-94 38.6688,-94 38.6688,-82 38.6688,-82 38.6688,-76 44.6688,-70 50.6688,-70 50.6688,-70 80.6688,-70 80.6688,-70 86.6688,-70 92.6688,-76 92.6688,-82 92.6688,-82 92.6688,-94 92.6688,-94 92.6688,-100 86.6688,-106 80.6688,-106"/>
<text text-anchor="middle" x="65.6688" y="-84.4" font-family="Arial" font-size="12.00" fill="#000000">Uso</text>
</g>
<!-- action4 -->
<g id="node9" class="node">
<title>action4</title>
<path fill="none" stroke="#000000" d="M301.8504,-106C301.8504,-106 197.5088,-106 197.5088,-106 191.5088,-106 185.5088,-100 185.5088,-94 185.5088,-94 185.5088,-82 185.5088,-82 185.5088,-76 191.5088,-70 197.5088,-70 197.5088,-70 301.8504,-70 301.8504,-70 307.8504,-70 313.8504,-76 313.8504,-82 313.8504,-82 313.8504,-94 313.8504,-94 313.8504,-100 307.8504,-106 301.8504,-106"/>
<text text-anchor="middle" x="249.6796" y="-84.4" font-family="Arial" font-size="12.00" fill="#000000">Evalúa el manuscrito</text>
</g>
<!-- phase4&#45;&gt;action4 -->
<g id="edge10" class="edge">
<title>phase4-&gt;action4</title>
<path fill="none" stroke="#000000" d="M92.8202,-88C114.5513,-88 146.1035,-88 175.2208,-88"/>
<polygon fill="#000000" stroke="#000000" points="175.3983,-91.5001 185.3983,-88 175.3982,-84.5001 175.3983,-91.5001"/>
</g>
<!-- phase5 -->
<g id="node5" class="node">
<title>phase5</title>
<path fill="none" stroke="#000000" d="M81.5215,-52C81.5215,-52 49.8161,-52 49.8161,-52 43.8161,-52 37.8161,-46 37.8161,-40 37.8161,-40 37.8161,-28 37.8161,-28 37.8161,-22 43.8161,-16 49.8161,-16 49.8161,-16 81.5215,-16 81.5215,-16 87.5215,-16 93.5215,-22 93.5215,-28 93.5215,-28 93.5215,-40 93.5215,-40 93.5215,-46 87.5215,-52 81.5215,-52"/>
<text text-anchor="middle" x="65.6688" y="-30.4" font-family="Arial" font-size="12.00" fill="#000000">Lealtad</text>
</g>
<!-- action5 -->
<g id="node10" class="node">
<title>action5</title>
<path fill="none" stroke="#000000" d="M306.8811,-52C306.8811,-52 192.4781,-52 192.4781,-52 186.4781,-52 180.4781,-46 180.4781,-40 180.4781,-40 180.4781,-28 180.4781,-28 180.4781,-22 186.4781,-16 192.4781,-16 192.4781,-16 306.8811,-16 306.8811,-16 312.8811,-16 318.8811,-22 318.8811,-28 318.8811,-28 318.8811,-40 318.8811,-40 318.8811,-46 312.8811,-52 306.8811,-52"/>
<text text-anchor="middle" x="249.6796" y="-30.4" font-family="Arial" font-size="12.00" fill="#000000">Entrega su evaluación</text>
</g>
<!-- phase5&#45;&gt;action5 -->
<g id="edge13" class="edge">
<title>phase5-&gt;action5</title>
<path fill="none" stroke="#000000" d="M93.6161,-34C114.1215,-34 143.0545,-34 170.4471,-34"/>
<polygon fill="#000000" stroke="#000000" points="170.451,-37.5001 180.451,-34 170.4509,-30.5001 170.451,-37.5001"/>
</g>
<!-- pain1 -->
<g id="node11" class="node">
<title>pain1</title>
<path fill="none" stroke="#000000" d="M581.243,-268C581.243,-268 410.837,-268 410.837,-268 404.837,-268 398.837,-262 398.837,-256 398.837,-256 398.837,-244 398.837,-244 398.837,-238 404.837,-232 410.837,-232 410.837,-232 581.243,-232 581.243,-232 587.243,-232 593.243,-238 593.243,-244 593.243,-244 593.243,-256 593.243,-256 593.243,-262 587.243,-268 581.243,-268"/>
<text text-anchor="middle" x="496.04" y="-246.4" font-family="Arial" font-size="12.00" fill="#000000">Falta de claridad en los requisitos</text>
</g>
<!-- action1&#45;&gt;pain1 -->
<g id="edge2" class="edge">
<title>action1-&gt;pain1</title>
<path fill="none" stroke="#000000" d="M348.1099,-250C361.3532,-250 374.9947,-250 388.3874,-250"/>
<polygon fill="#000000" stroke="#000000" points="388.5696,-253.5001 398.5696,-250 388.5696,-246.5001 388.5696,-253.5001"/>
</g>
<!-- pain2 -->
<g id="node12" class="node">
<title>pain2</title>
<path fill="none" stroke="#000000" d="M589.9243,-214C589.9243,-214 402.1557,-214 402.1557,-214 396.1557,-214 390.1557,-208 390.1557,-202 390.1557,-202 390.1557,-190 390.1557,-190 390.1557,-184 396.1557,-178 402.1557,-178 402.1557,-178 589.9243,-178 589.9243,-178 595.9243,-178 601.9243,-184 601.9243,-190 601.9243,-190 601.9243,-202 601.9243,-202 601.9243,-208 595.9243,-214 589.9243,-214"/>
<text text-anchor="middle" x="496.04" y="-192.4" font-family="Arial" font-size="12.00" fill="#000000">Plazos ajustados para la evaluación</text>
</g>
<!-- action2&#45;&gt;pain2 -->
<g id="edge5" class="edge">
<title>action2-&gt;pain2</title>
<path fill="none" stroke="#000000" d="M345.9874,-196C357.0432,-196 368.4025,-196 379.6853,-196"/>
<polygon fill="#000000" stroke="#000000" points="380.0146,-199.5001 390.0146,-196 380.0146,-192.5001 380.0146,-199.5001"/>
</g>
<!-- pain3 -->
<g id="node13" class="node">
<title>pain3</title>
<path fill="none" stroke="#000000" d="M591.9143,-160C591.9143,-160 400.1657,-160 400.1657,-160 394.1657,-160 388.1657,-154 388.1657,-148 388.1657,-148 388.1657,-136 388.1657,-136 388.1657,-130 394.1657,-124 400.1657,-124 400.1657,-124 591.9143,-124 591.9143,-124 597.9143,-124 603.9143,-130 603.9143,-136 603.9143,-136 603.9143,-148 603.9143,-148 603.9143,-154 597.9143,-160 591.9143,-160"/>
<text text-anchor="middle" x="496.04" y="-138.4" font-family="Arial" font-size="12.00" fill="#000000">Interfaz poco intuitiva para dictaminar</text>
</g>
<!-- action3&#45;&gt;pain3 -->
<g id="edge8" class="edge">
<title>action3-&gt;pain3</title>
<path fill="none" stroke="#000000" d="M339.6671,-142C352.1399,-142 365.1034,-142 377.9919,-142"/>
<polygon fill="#000000" stroke="#000000" points="378.3013,-145.5001 388.3012,-142 378.3012,-138.5001 378.3013,-145.5001"/>
</g>
<!-- pain4 -->
<g id="node14" class="node">
<title>pain4</title>
<path fill="none" stroke="#000000" d="M593.3482,-106C593.3482,-106 398.7318,-106 398.7318,-106 392.7318,-106 386.7318,-100 386.7318,-94 386.7318,-94 386.7318,-82 386.7318,-82 386.7318,-76 392.7318,-70 398.7318,-70 398.7318,-70 593.3482,-70 593.3482,-70 599.3482,-70 605.3482,-76 605.3482,-82 605.3482,-82 605.3482,-94 605.3482,-94 605.3482,-100 599.3482,-106 593.3482,-106"/>
<text text-anchor="middle" x="496.04" y="-84.4" font-family="Arial" font-size="12.00" fill="#000000">Problemas técnicos al cargar archivos</text>
</g>
<!-- action4&#45;&gt;pain4 -->
<g id="edge11" class="edge">
<title>action4-&gt;pain4</title>
<path fill="none" stroke="#000000" d="M314.0861,-88C333.2859,-88 354.9739,-88 376.5129,-88"/>
<polygon fill="#000000" stroke="#000000" points="376.7247,-91.5001 386.7247,-88 376.7246,-84.5001 376.7247,-91.5001"/>
</g>
<!-- pain5 -->
<g id="node15" class="node">
<title>pain5</title>
<path fill="none" stroke="#000000" d="M596.0768,-52C596.0768,-52 396.0032,-52 396.0032,-52 390.0032,-52 384.0032,-46 384.0032,-40 384.0032,-40 384.0032,-28 384.0032,-28 384.0032,-22 390.0032,-16 396.0032,-16 396.0032,-16 596.0768,-16 596.0768,-16 602.0768,-16 608.0768,-22 608.0768,-28 608.0768,-28 608.0768,-40 608.0768,-40 608.0768,-46 602.0768,-52 596.0768,-52"/>
<text text-anchor="middle" x="496.04" y="-30.4" font-family="Arial" font-size="12.00" fill="#000000">Falta de retroalimentación del proceso</text>
</g>
<!-- action5&#45;&gt;pain5 -->
<g id="edge14" class="edge">
<title>action5-&gt;pain5</title>
<path fill="none" stroke="#000000" d="M318.9603,-34C336.0908,-34 354.9538,-34 373.7878,-34"/>
<polygon fill="#000000" stroke="#000000" points="373.9295,-37.5001 383.9295,-34 373.9294,-30.5001 373.9295,-37.5001"/>
</g>
<!-- solution1 -->
<g id="node16" class="node">
<title>solution1</title>
<path fill="none" stroke="#000000" d="M849.1086,-268C849.1086,-268 697.0782,-268 697.0782,-268 691.0782,-268 685.0782,-262 685.0782,-256 685.0782,-256 685.0782,-244 685.0782,-244 685.0782,-238 691.0782,-232 697.0782,-232 697.0782,-232 849.1086,-232 849.1086,-232 855.1086,-232 861.1086,-238 861.1086,-244 861.1086,-244 861.1086,-256 861.1086,-256 861.1086,-262 855.1086,-268 849.1086,-268"/>
<text text-anchor="middle" x="773.0934" y="-246.4" font-family="Arial" font-size="12.00" fill="#000000">Guías claras sobre requisitos</text>
</g>
<!-- pain1&#45;&gt;solution1 -->
<g id="edge3" class="edge">
<title>pain1-&gt;solution1</title>
<path fill="none" stroke="#000000" d="M593.3291,-250C619.7359,-250 648.3426,-250 674.8042,-250"/>
<polygon fill="#000000" stroke="#000000" points="674.8318,-253.5001 684.8318,-250 674.8318,-246.5001 674.8318,-253.5001"/>
</g>
<!-- solution2 -->
<g id="node17" class="node">
<title>solution2</title>
<path fill="none" stroke="#000000" d="M882.2796,-214C882.2796,-214 663.9072,-214 663.9072,-214 657.9072,-214 651.9072,-208 651.9072,-202 651.9072,-202 651.9072,-190 651.9072,-190 651.9072,-184 657.9072,-178 663.9072,-178 663.9072,-178 882.2796,-178 882.2796,-178 888.2796,-178 894.2796,-184 894.2796,-190 894.2796,-190 894.2796,-202 894.2796,-202 894.2796,-208 888.2796,-214 882.2796,-214"/>
<text text-anchor="middle" x="773.0934" y="-192.4" font-family="Arial" font-size="12.00" fill="#000000">Notificaciones y recordatorios automáticos</text>
</g>
<!-- pain2&#45;&gt;solution2 -->
<g id="edge6" class="edge">
<title>pain2-&gt;solution2</title>
<path fill="none" stroke="#000000" d="M601.9679,-196C614.8714,-196 628.1749,-196 641.3953,-196"/>
<polygon fill="#000000" stroke="#000000" points="641.4809,-199.5001 651.4808,-196 641.4808,-192.5001 641.4809,-199.5001"/>
</g>
<!-- solution3 -->
<g id="node18" class="node">
<title>solution3</title>
<path fill="none" stroke="#000000" d="M865.1138,-160C865.1138,-160 681.073,-160 681.073,-160 675.073,-160 669.073,-154 669.073,-148 669.073,-148 669.073,-136 669.073,-136 669.073,-130 675.073,-124 681.073,-124 681.073,-124 865.1138,-124 865.1138,-124 871.1138,-124 877.1138,-130 877.1138,-136 877.1138,-136 877.1138,-148 877.1138,-148 877.1138,-154 871.1138,-160 865.1138,-160"/>
<text text-anchor="middle" x="773.0934" y="-138.4" font-family="Arial" font-size="12.00" fill="#000000">Interfaz simplificada para dictaminar</text>
</g>
<!-- pain3&#45;&gt;solution3 -->
<g id="edge9" class="edge">
<title>pain3-&gt;solution3</title>
<path fill="none" stroke="#000000" d="M603.9494,-142C621.8139,-142 640.3935,-142 658.4177,-142"/>
<polygon fill="#000000" stroke="#000000" points="658.6599,-145.5001 668.6598,-142 658.6598,-138.5001 658.6599,-145.5001"/>
</g>
<!-- solution4 -->
<g id="node19" class="node">
<title>solution4</title>
<path fill="none" stroke="#000000" d="M862.9497,-106C862.9497,-106 683.2371,-106 683.2371,-106 677.2371,-106 671.2371,-100 671.2371,-94 671.2371,-94 671.2371,-82 671.2371,-82 671.2371,-76 677.2371,-70 683.2371,-70 683.2371,-70 862.9497,-70 862.9497,-70 868.9497,-70 874.9497,-76 874.9497,-82 874.9497,-82 874.9497,-94 874.9497,-94 874.9497,-100 868.9497,-106 862.9497,-106"/>
<text text-anchor="middle" x="773.0934" y="-84.4" font-family="Arial" font-size="12.00" fill="#000000">Validación automática de archivos</text>
</g>
<!-- pain4&#45;&gt;solution4 -->
<g id="edge12" class="edge">
<title>pain4-&gt;solution4</title>
<path fill="none" stroke="#000000" d="M605.5388,-88C623.7884,-88 642.7417,-88 661.0535,-88"/>
<polygon fill="#000000" stroke="#000000" points="661.1523,-91.5001 671.1522,-88 661.1522,-84.5001 661.1523,-91.5001"/>
</g>
<!-- solution5 -->
<g id="node20" class="node">
<title>solution5</title>
<path fill="none" stroke="#000000" d="M890.1634,-52C890.1634,-52 656.0234,-52 656.0234,-52 650.0234,-52 644.0234,-46 644.0234,-40 644.0234,-40 644.0234,-28 644.0234,-28 644.0234,-22 650.0234,-16 656.0234,-16 656.0234,-16 890.1634,-16 890.1634,-16 896.1634,-16 902.1634,-22 902.1634,-28 902.1634,-28 902.1634,-40 902.1634,-40 902.1634,-46 896.1634,-52 890.1634,-52"/>
<text text-anchor="middle" x="773.0934" y="-30.4" font-family="Arial" font-size="12.00" fill="#000000">Feedback automatizado sobre su evaluación</text>
</g>
<!-- pain5&#45;&gt;solution5 -->
<g id="edge15" class="edge">
<title>pain5-&gt;solution5</title>
<path fill="none" stroke="#000000" d="M608.3288,-34C616.738,-34 625.2811,-34 633.828,-34"/>
<polygon fill="#000000" stroke="#000000" points="633.8552,-37.5001 643.8552,-34 633.8552,-30.5001 633.8552,-37.5001"/>
</g>
</g>
</svg>