<?xml version="1.0" encoding="UTF-8" standalone="no"?><!DOCTYPE svg PUBLIC "-//W3C//DTD SVG 1.1//EN" "http://www.w3.org/Graphics/SVG/1.1/DTD/svg11.dtd"><!-- Generated by graphviz version 2.40.1 (20161225.0304)
 --><!-- Title: PublicacionNumeros Pages: 1 --><svg xmlns="http://www.w3.org/2000/svg" xmlns:xlink="http://www.w3.org/1999/xlink" width="473pt" height="622pt" viewBox="0.00 0.00 473.44 621.76">
<g id="graph0" class="graph" transform="scale(1 1) rotate(0) translate(4 617.7585)">
<title>PublicacionNumeros</title>
<polygon fill="#ffffff" stroke="transparent" points="-4,4 -4,-617.7585 469.438,-617.7585 469.438,4 -4,4"/>
<!-- start -->
<g id="node1" class="node">
<title>start</title>
<ellipse fill="none" stroke="#000000" cx="323.6066" cy="-580.1962" rx="33.6247" ry="33.6247"/>
<text text-anchor="middle" x="323.6066" y="-575.9962" font-family="Times,serif" font-size="14.00" fill="#000000">Inicio</text>
</g>
<!-- organizar -->
<g id="node2" class="node">
<title>organizar</title>
<polygon fill="none" stroke="#000000" points="418.7401,-509.6339 228.4732,-509.6339 228.4732,-473.6339 418.7401,-473.6339 418.7401,-509.6339"/>
<text text-anchor="middle" x="323.6066" y="-487.4339" font-family="Times,serif" font-size="14.00" fill="#000000">Organizar artículos aprobados</text>
</g>
<!-- start&#45;&gt;organizar -->
<g id="edge1" class="edge">
<title>start-&gt;organizar</title>
<path fill="none" stroke="#000000" d="M323.6066,-546.4619C323.6066,-537.6631 323.6066,-528.2745 323.6066,-519.7982"/>
<polygon fill="#000000" stroke="#000000" points="327.1067,-519.6625 323.6066,-509.6625 320.1067,-519.6626 327.1067,-519.6625"/>
</g>
<!-- seleccionar -->
<g id="node3" class="node">
<title>seleccionar</title>
<polygon fill="none" stroke="#000000" points="350.3769,-436.6339 120.8363,-436.6339 120.8363,-400.6339 350.3769,-400.6339 350.3769,-436.6339"/>
<text text-anchor="middle" x="235.6066" y="-414.4339" font-family="Times,serif" font-size="14.00" fill="#000000">Seleccionar artículos para el número</text>
</g>
<!-- organizar&#45;&gt;seleccionar -->
<g id="edge2" class="edge">
<title>organizar-&gt;seleccionar</title>
<path fill="none" stroke="#000000" d="M301.8538,-473.5889C290.8537,-464.4638 277.336,-453.2503 265.3863,-443.3375"/>
<polygon fill="#000000" stroke="#000000" points="267.3454,-440.4151 257.4142,-436.7242 262.8761,-445.8027 267.3454,-440.4151"/>
</g>
<!-- revisarContenido -->
<g id="node4" class="node">
<title>revisarContenido</title>
<polygon fill="none" stroke="#000000" points="183.6066,-363.6339 -.1067,-345.6339 183.6066,-327.6339 367.3199,-345.6339 183.6066,-363.6339"/>
<text text-anchor="middle" x="183.6066" y="-341.4339" font-family="Times,serif" font-size="14.00" fill="#000000">Revisar contenido del número</text>
</g>
<!-- seleccionar&#45;&gt;revisarContenido -->
<g id="edge3" class="edge">
<title>seleccionar-&gt;revisarContenido</title>
<path fill="none" stroke="#000000" d="M222.7527,-400.5889C216.3325,-391.576 208.461,-380.5257 201.4645,-370.7036"/>
<polygon fill="#000000" stroke="#000000" points="204.2523,-368.5846 195.5997,-362.4703 198.5509,-372.6459 204.2523,-368.5846"/>
</g>
<!-- aprobarContenido -->
<g id="node5" class="node">
<title>aprobarContenido</title>
<polygon fill="none" stroke="#000000" points="214.6066,-290.6339 71.2865,-272.6339 214.6066,-254.6339 357.9267,-272.6339 214.6066,-290.6339"/>
<text text-anchor="middle" x="214.6066" y="-268.4339" font-family="Times,serif" font-size="14.00" fill="#000000">¿Contenido aprobado?</text>
</g>
<!-- revisarContenido&#45;&gt;aprobarContenido -->
<g id="edge4" class="edge">
<title>revisarContenido-&gt;aprobarContenido</title>
<path fill="none" stroke="#000000" d="M190.9532,-328.3339C194.6594,-319.6063 199.2351,-308.8313 203.3714,-299.091"/>
<polygon fill="#000000" stroke="#000000" points="206.6255,-300.3822 207.3128,-289.8097 200.1824,-297.6461 206.6255,-300.3822"/>
</g>
<!-- modificar -->
<g id="node6" class="node">
<title>modificar</title>
<polygon fill="none" stroke="#000000" points="465.2698,-201.8339 313.9434,-201.8339 313.9434,-165.8339 465.2698,-165.8339 465.2698,-201.8339"/>
<text text-anchor="middle" x="389.6066" y="-179.6339" font-family="Times,serif" font-size="14.00" fill="#000000">Realizar modificaciones</text>
</g>
<!-- aprobarContenido&#45;&gt;modificar -->
<g id="edge6" class="edge">
<title>aprobarContenido-&gt;modificar</title>
<path fill="none" stroke="#000000" d="M243.1129,-258.169C270.6159,-244.2132 312.6741,-222.8716 344.6819,-206.63"/>
<polygon fill="#000000" stroke="#000000" points="346.5093,-209.6276 353.8432,-201.9813 343.3417,-203.3852 346.5093,-209.6276"/>
<text text-anchor="middle" x="326.1599" y="-224.0339" font-family="Times,serif" font-size="14.00" fill="#000000">No</text>
</g>
<!-- programar -->
<g id="node7" class="node">
<title>programar</title>
<polygon fill="none" stroke="#000000" points="288.6677,-201.8339 140.5456,-201.8339 140.5456,-165.8339 288.6677,-165.8339 288.6677,-201.8339"/>
<text text-anchor="middle" x="214.6066" y="-179.6339" font-family="Times,serif" font-size="14.00" fill="#000000">Programar publicación</text>
</g>
<!-- aprobarContenido&#45;&gt;programar -->
<g id="edge5" class="edge">
<title>aprobarContenido-&gt;programar</title>
<path fill="none" stroke="#000000" d="M214.6066,-254.2345C214.6066,-242.1288 214.6066,-226.0415 214.6066,-212.3012"/>
<polygon fill="#000000" stroke="#000000" points="218.1067,-211.9059 214.6066,-201.9059 211.1067,-211.9059 218.1067,-211.9059"/>
<text text-anchor="middle" x="223.1585" y="-224.0339" font-family="Times,serif" font-size="14.00" fill="#000000">Sí</text>
</g>
<!-- modificar&#45;&gt;organizar -->
<g id="edge7" class="edge">
<title>modificar-&gt;organizar</title>
<path fill="none" stroke="#000000" d="M391.5381,-201.8377C393.2921,-219.7604 395.6066,-248.0655 395.6066,-272.6339 395.6066,-418.6339 395.6066,-418.6339 395.6066,-418.6339 395.6066,-438.6432 381.7252,-455.155 366.1527,-467.3831"/>
<polygon fill="#000000" stroke="#000000" points="363.94,-464.6647 357.9197,-473.3829 368.0627,-470.3219 363.94,-464.6647"/>
</g>
<!-- publicar -->
<g id="node8" class="node">
<title>publicar</title>
<polygon fill="none" stroke="#000000" points="270.9014,-128.8339 158.3118,-128.8339 158.3118,-92.8339 270.9014,-92.8339 270.9014,-128.8339"/>
<text text-anchor="middle" x="214.6066" y="-106.6339" font-family="Times,serif" font-size="14.00" fill="#000000">Publicar número</text>
</g>
<!-- programar&#45;&gt;publicar -->
<g id="edge8" class="edge">
<title>programar-&gt;publicar</title>
<path fill="none" stroke="#000000" d="M214.6066,-165.7889C214.6066,-157.7167 214.6066,-148.0103 214.6066,-139.0156"/>
<polygon fill="#000000" stroke="#000000" points="218.1067,-138.9242 214.6066,-128.9242 211.1067,-138.9243 218.1067,-138.9242"/>
</g>
<!-- end -->
<g id="node9" class="node">
<title>end</title>
<ellipse fill="none" stroke="#000000" cx="214.6066" cy="-27.9169" rx="23.846" ry="23.846"/>
<ellipse fill="none" stroke="#000000" cx="214.6066" cy="-27.9169" rx="27.8341" ry="27.8341"/>
<text text-anchor="middle" x="214.6066" y="-23.7169" font-family="Times,serif" font-size="14.00" fill="#000000">Fin</text>
</g>
<!-- publicar&#45;&gt;end -->
<g id="edge9" class="edge">
<title>publicar-&gt;end</title>
<path fill="none" stroke="#000000" d="M214.6066,-92.4319C214.6066,-84.667 214.6066,-75.3198 214.6066,-66.1809"/>
<polygon fill="#000000" stroke="#000000" points="218.1067,-66.0466 214.6066,-56.0467 211.1067,-66.0467 218.1067,-66.0466"/>
</g>
</g>
</svg>
