<?xml version="1.0" encoding="UTF-8" standalone="no"?><!DOCTYPE svg PUBLIC "-//W3C//DTD SVG 1.1//EN" "http://www.w3.org/Graphics/SVG/1.1/DTD/svg11.dtd"><!-- Generated by graphviz version 2.40.1 (20161225.0304)
 --><!-- Title: DiagramaDeClases Pages: 1 --><svg xmlns="http://www.w3.org/2000/svg" xmlns:xlink="http://www.w3.org/1999/xlink" width="738pt" height="894pt" viewBox="0.00 0.00 737.90 894.20">
<g id="graph0" class="graph" transform="scale(1 1) rotate(0) translate(4 890.2)">
<title>DiagramaDeClases</title>
<polygon fill="#ffffff" stroke="transparent" points="-4,4 -4,-890.2 733.9014,-890.2 733.9014,4 -4,4"/>
<!-- Usuario -->
<g id="node1" class="node">
<title>Usuario</title>
<polygon fill="none" stroke="#000000" points="173.9888,-643.3 173.9888,-885.7 330.4354,-885.7 330.4354,-643.3 173.9888,-643.3"/>
<text text-anchor="middle" x="252.2121" y="-869.1" font-family="Times,serif" font-size="14.00" fill="#000000">Usuario</text>
<polyline fill="none" stroke="#000000" points="173.9888,-860.9 330.4354,-860.9 "/>
<text text-anchor="start" x="181.9888" y="-844.3" font-family="Times,serif" font-size="14.00" fill="#000000">+ nombre: str</text>
<text text-anchor="start" x="181.9888" y="-827.5" font-family="Times,serif" font-size="14.00" fill="#000000">+ apellido: str</text>
<text text-anchor="start" x="181.9888" y="-810.7" font-family="Times,serif" font-size="14.00" fill="#000000">+ institucion: str</text>
<text text-anchor="start" x="181.9888" y="-793.9" font-family="Times,serif" font-size="14.00" fill="#000000">+ pais: str</text>
<text text-anchor="start" x="181.9888" y="-777.1" font-family="Times,serif" font-size="14.00" fill="#000000">+ email: str</text>
<text text-anchor="start" x="181.9888" y="-760.3" font-family="Times,serif" font-size="14.00" fill="#000000">+ phone: str</text>
<text text-anchor="start" x="181.9888" y="-743.5" font-family="Times,serif" font-size="14.00" fill="#000000">+ rol: str</text>
<text text-anchor="start" x="181.9888" y="-726.7" font-family="Times,serif" font-size="14.00" fill="#000000">+ orcid: int</text>
<polyline fill="none" stroke="#000000" points="173.9888,-718.5 330.4354,-718.5 "/>
<text text-anchor="start" x="181.9888" y="-701.9" font-family="Times,serif" font-size="14.00" fill="#000000">+ consultar_art()</text>
<text text-anchor="start" x="181.9888" y="-685.1" font-family="Times,serif" font-size="14.00" fill="#000000">+ descargar_art()</text>
<text text-anchor="start" x="181.9888" y="-668.3" font-family="Times,serif" font-size="14.00" fill="#000000">+ compartir_art()</text>
<text text-anchor="start" x="181.9888" y="-651.5" font-family="Times,serif" font-size="14.00" fill="#000000">+ visualizar_estadistica()</text>
</g>
<!-- Autor -->
<g id="node2" class="node">
<title>Autor</title>
<polygon fill="none" stroke="#000000" points="0,-347.1 0,-488.7 156.4242,-488.7 156.4242,-347.1 0,-347.1"/>
<text text-anchor="middle" x="78.2121" y="-472.1" font-family="Times,serif" font-size="14.00" fill="#000000">Autor</text>
<polyline fill="none" stroke="#000000" points="0,-463.9 156.4242,-463.9 "/>
<text text-anchor="start" x="8" y="-447.3" font-family="Times,serif" font-size="14.00" fill="#000000">+ semblanza: str</text>
<text text-anchor="start" x="8" y="-430.5" font-family="Times,serif" font-size="14.00" fill="#000000">+ id: int</text>
<polyline fill="none" stroke="#000000" points="0,-422.3 156.4242,-422.3 "/>
<text text-anchor="start" x="8" y="-405.7" font-family="Times,serif" font-size="14.00" fill="#000000">+ modificar_ficha()</text>
<text text-anchor="start" x="8" y="-388.9" font-family="Times,serif" font-size="14.00" fill="#000000">+ postular()</text>
<text text-anchor="start" x="8" y="-372.1" font-family="Times,serif" font-size="14.00" fill="#000000">+ cancelar_art()</text>
<text text-anchor="start" x="8" y="-355.3" font-family="Times,serif" font-size="14.00" fill="#000000">+ descargar_constancia()</text>
</g>
<!-- Usuario&#45;&gt;Autor -->
<g id="edge1" class="edge">
<title>Usuario-&gt;Autor</title>
<path fill="none" stroke="#000000" d="M191.3553,-643.2761C167.1554,-595.0709 139.9803,-540.9395 118.3291,-497.8112"/>
<polygon fill="none" stroke="#000000" points="121.4104,-496.1479 113.7958,-488.7811 115.1545,-499.2885 121.4104,-496.1479"/>
<text text-anchor="middle" x="199.8643" y="-612.2" font-family="Times,serif" font-size="14.00" fill="#000000">hereda</text>
</g>
<!-- Dictaminador -->
<g id="node3" class="node">
<title>Dictaminador</title>
<polygon fill="none" stroke="#000000" points="174,-363.9 174,-471.9 330.4242,-471.9 330.4242,-363.9 174,-363.9"/>
<text text-anchor="middle" x="252.2121" y="-455.3" font-family="Times,serif" font-size="14.00" fill="#000000">Dictaminador</text>
<polyline fill="none" stroke="#000000" points="174,-447.1 330.4242,-447.1 "/>
<text text-anchor="start" x="182" y="-430.5" font-family="Times,serif" font-size="14.00" fill="#000000">+ secciones: list</text>
<polyline fill="none" stroke="#000000" points="174,-422.3 330.4242,-422.3 "/>
<text text-anchor="start" x="182" y="-405.7" font-family="Times,serif" font-size="14.00" fill="#000000">+ confirmar_dictamen()</text>
<text text-anchor="start" x="182" y="-388.9" font-family="Times,serif" font-size="14.00" fill="#000000">+ dictamen_academico()</text>
<text text-anchor="start" x="182" y="-372.1" font-family="Times,serif" font-size="14.00" fill="#000000">+ descargar_constancia()</text>
</g>
<!-- Usuario&#45;&gt;Dictaminador -->
<g id="edge2" class="edge">
<title>Usuario-&gt;Dictaminador</title>
<path fill="none" stroke="#000000" d="M252.2121,-643.2761C252.2121,-589.1253 252.2121,-527.4962 252.2121,-482.3867"/>
<polygon fill="none" stroke="#000000" points="255.7122,-482.1574 252.2121,-472.1574 248.7122,-482.1575 255.7122,-482.1574"/>
<text text-anchor="middle" x="270.8643" y="-612.2" font-family="Times,serif" font-size="14.00" fill="#000000">hereda</text>
</g>
<!-- Consejero -->
<g id="node4" class="node">
<title>Consejero</title>
<polygon fill="none" stroke="#000000" points="348,-363.9 348,-471.9 504.4242,-471.9 504.4242,-363.9 348,-363.9"/>
<text text-anchor="middle" x="426.2121" y="-455.3" font-family="Times,serif" font-size="14.00" fill="#000000">Consejero</text>
<polyline fill="none" stroke="#000000" points="348,-447.1 504.4242,-447.1 "/>
<text text-anchor="middle" x="426.2121" y="-430.5" font-family="Times,serif" font-size="14.00" fill="#000000"> </text>
<polyline fill="none" stroke="#000000" points="348,-422.3 504.4242,-422.3 "/>
<text text-anchor="start" x="356" y="-405.7" font-family="Times,serif" font-size="14.00" fill="#000000">+ alta_dictaminador()</text>
<text text-anchor="start" x="356" y="-388.9" font-family="Times,serif" font-size="14.00" fill="#000000">+ dictamen_numero()</text>
<text text-anchor="start" x="356" y="-372.1" font-family="Times,serif" font-size="14.00" fill="#000000">+ descargar_constancia()</text>
</g>
<!-- Usuario&#45;&gt;Consejero -->
<g id="edge3" class="edge">
<title>Usuario-&gt;Consejero</title>
<path fill="none" stroke="#000000" d="M313.0689,-643.2761C340.4826,-588.6693 371.714,-526.4577 394.4088,-481.2507"/>
<polygon fill="none" stroke="#000000" points="397.6151,-482.6648 398.9738,-472.1574 391.3592,-479.5242 397.6151,-482.6648"/>
<text text-anchor="middle" x="347.8643" y="-612.2" font-family="Times,serif" font-size="14.00" fill="#000000">hereda</text>
</g>
<!-- Articulo -->
<g id="node6" class="node">
<title>Articulo</title>
<polygon fill="none" stroke="#000000" points="284.6743,-.5 284.6743,-192.5 419.7499,-192.5 419.7499,-.5 284.6743,-.5"/>
<text text-anchor="middle" x="352.2121" y="-175.9" font-family="Times,serif" font-size="14.00" fill="#000000">Articulo</text>
<polyline fill="none" stroke="#000000" points="284.6743,-167.7 419.7499,-167.7 "/>
<text text-anchor="start" x="292.6743" y="-151.1" font-family="Times,serif" font-size="14.00" fill="#000000">+ titulo: str</text>
<text text-anchor="start" x="292.6743" y="-134.3" font-family="Times,serif" font-size="14.00" fill="#000000">+ autor: str</text>
<text text-anchor="start" x="292.6743" y="-117.5" font-family="Times,serif" font-size="14.00" fill="#000000">+ abstract: str</text>
<text text-anchor="start" x="292.6743" y="-100.7" font-family="Times,serif" font-size="14.00" fill="#000000">+ palabras_clave: list</text>
<text text-anchor="start" x="292.6743" y="-83.9" font-family="Times,serif" font-size="14.00" fill="#000000">+ seccion: str</text>
<polyline fill="none" stroke="#000000" points="284.6743,-75.7 419.7499,-75.7 "/>
<text text-anchor="start" x="292.6743" y="-59.1" font-family="Times,serif" font-size="14.00" fill="#000000">+ aprobar_art()</text>
<text text-anchor="start" x="292.6743" y="-42.3" font-family="Times,serif" font-size="14.00" fill="#000000">+ rechazar_art()</text>
<text text-anchor="start" x="292.6743" y="-25.5" font-family="Times,serif" font-size="14.00" fill="#000000">+ cancelar_art()</text>
<text text-anchor="start" x="292.6743" y="-8.7" font-family="Times,serif" font-size="14.00" fill="#000000">+ publicar_art()</text>
</g>
<!-- Autor&#45;&gt;Articulo -->
<g id="edge5" class="edge">
<title>Autor-&gt;Articulo</title>
<path fill="none" stroke="#000000" d="M105.8327,-346.8228C120.556,-314.0967 140.7156,-275.9355 165.2121,-245.8 196.517,-207.2888 239.3276,-172.2077 276.0882,-145.7418"/>
<polygon fill="#000000" stroke="#000000" points="276.1692,-145.6842 286.9261,-143.5537 280.2433,-142.7856 284.3174,-139.887 284.3174,-139.887 284.3174,-139.887 280.2433,-142.7856 281.7087,-136.2203 276.1692,-145.6842 276.1692,-145.6842"/>
<text text-anchor="middle" x="206.7121" y="-215.2" font-family="Times,serif" font-size="14.00" fill="#000000">1..*</text>
</g>
<!-- Revista -->
<g id="node5" class="node">
<title>Revista</title>
<polygon fill="none" stroke="#000000" points="522.5228,-246.3 522.5228,-589.5 729.9014,-589.5 729.9014,-246.3 522.5228,-246.3"/>
<text text-anchor="middle" x="626.2121" y="-572.9" font-family="Times,serif" font-size="14.00" fill="#000000">Revista</text>
<polyline fill="none" stroke="#000000" points="522.5228,-564.7 729.9014,-564.7 "/>
<text text-anchor="start" x="530.5228" y="-548.1" font-family="Times,serif" font-size="14.00" fill="#000000">+ nombre_revista: str</text>
<text text-anchor="start" x="530.5228" y="-531.3" font-family="Times,serif" font-size="14.00" fill="#000000">+ issn: int</text>
<text text-anchor="start" x="530.5228" y="-514.5" font-family="Times,serif" font-size="14.00" fill="#000000">+ doi: str</text>
<text text-anchor="start" x="530.5228" y="-497.7" font-family="Times,serif" font-size="14.00" fill="#000000">+ idioma: list</text>
<text text-anchor="start" x="530.5228" y="-480.9" font-family="Times,serif" font-size="14.00" fill="#000000">+ centro: str</text>
<text text-anchor="start" x="530.5228" y="-464.1" font-family="Times,serif" font-size="14.00" fill="#000000">+ departamento: str</text>
<text text-anchor="start" x="530.5228" y="-447.3" font-family="Times,serif" font-size="14.00" fill="#000000">+ fecha_primer_numero: datetime</text>
<text text-anchor="start" x="530.5228" y="-430.5" font-family="Times,serif" font-size="14.00" fill="#000000">+ periodicidad: str</text>
<text text-anchor="start" x="530.5228" y="-413.7" font-family="Times,serif" font-size="14.00" fill="#000000">+ director: str</text>
<text text-anchor="start" x="530.5228" y="-396.9" font-family="Times,serif" font-size="14.00" fill="#000000">+ index: list</text>
<text text-anchor="start" x="530.5228" y="-380.1" font-family="Times,serif" font-size="14.00" fill="#000000">+ secciones: list</text>
<polyline fill="none" stroke="#000000" points="522.5228,-371.9 729.9014,-371.9 "/>
<text text-anchor="start" x="530.5228" y="-355.3" font-family="Times,serif" font-size="14.00" fill="#000000">+ abrir_convocatoria()</text>
<text text-anchor="start" x="530.5228" y="-338.5" font-family="Times,serif" font-size="14.00" fill="#000000">+ proceso_editorial()</text>
<text text-anchor="start" x="530.5228" y="-321.7" font-family="Times,serif" font-size="14.00" fill="#000000">+ modificar_proceso()</text>
<text text-anchor="start" x="530.5228" y="-304.9" font-family="Times,serif" font-size="14.00" fill="#000000">+ publicar_num()</text>
<text text-anchor="start" x="530.5228" y="-288.1" font-family="Times,serif" font-size="14.00" fill="#000000">+ asignar_asistente()</text>
<text text-anchor="start" x="530.5228" y="-271.3" font-family="Times,serif" font-size="14.00" fill="#000000">+ asignar_editor()</text>
<text text-anchor="start" x="530.5228" y="-254.5" font-family="Times,serif" font-size="14.00" fill="#000000">+ modificar_director()</text>
</g>
<!-- Revista&#45;&gt;Articulo -->
<g id="edge4" class="edge">
<title>Revista-&gt;Articulo</title>
<path fill="none" stroke="#000000" d="M522.5101,-257.1032C519.4299,-253.2586 516.3282,-249.4843 513.2121,-245.8 487.8892,-215.8599 456.9215,-185.8747 428.9341,-160.7149"/>
<polygon fill="#000000" stroke="#000000" points="428.9226,-160.7046 421.7818,-159.6998 419.9629,-152.7218 427.1037,-153.7267 428.9226,-160.7046"/>
<text text-anchor="middle" x="503.7121" y="-215.2" font-family="Times,serif" font-size="14.00" fill="#000000">1..*</text>
</g>
</g>
</svg>