<?xml version="1.0" encoding="UTF-8" standalone="no"?><!DOCTYPE svg PUBLIC "-//W3C//DTD SVG 1.1//EN" "http://www.w3.org/Graphics/SVG/1.1/DTD/svg11.dtd"><!-- Generated by graphviz version 2.40.1 (20161225.0304)
 --><!-- Title: InicioDeSesion Pages: 1 --><svg xmlns="http://www.w3.org/2000/svg" xmlns:xlink="http://www.w3.org/1999/xlink" width="907pt" height="61pt" viewBox="0.00 0.00 907.03 60.77">
<g id="graph0" class="graph" transform="scale(1 1) rotate(0) translate(4 56.7664)">
<title>InicioDeSesion</title>
<polygon fill="#ffffff" stroke="transparent" points="-4,4 -4,-56.7664 903.0298,-56.7664 903.0298,4 -4,4"/>
<!-- Usuario -->
<g id="node1" class="node">
<title>Usuario</title>
<path fill="none" stroke="#000000" d="M45.5002,-52.7664C45.5002,-52.7664 11.8326,-52.7664 11.8326,-52.7664 5.8326,-52.7664 -.1674,-46.7664 -.1674,-40.7664 -.1674,-40.7664 -.1674,-28.7664 -.1674,-28.7664 -.1674,-22.7664 5.8326,-16.7664 11.8326,-16.7664 11.8326,-16.7664 45.5002,-16.7664 45.5002,-16.7664 51.5002,-16.7664 57.5002,-22.7664 57.5002,-28.7664 57.5002,-28.7664 57.5002,-40.7664 57.5002,-40.7664 57.5002,-46.7664 51.5002,-52.7664 45.5002,-52.7664"/>
<text text-anchor="middle" x="28.6664" y="-31.1664" font-family="Arial" font-size="12.00" fill="#000000">Usuario</text>
</g>
<!-- Frontend -->
<g id="node2" class="node">
<title>Frontend</title>
<path fill="none" stroke="#000000" d="M351.7676,-52.7664C351.7676,-52.7664 311.7388,-52.7664 311.7388,-52.7664 305.7388,-52.7664 299.7388,-46.7664 299.7388,-40.7664 299.7388,-40.7664 299.7388,-28.7664 299.7388,-28.7664 299.7388,-22.7664 305.7388,-16.7664 311.7388,-16.7664 311.7388,-16.7664 351.7676,-16.7664 351.7676,-16.7664 357.7676,-16.7664 363.7676,-22.7664 363.7676,-28.7664 363.7676,-28.7664 363.7676,-40.7664 363.7676,-40.7664 363.7676,-46.7664 357.7676,-52.7664 351.7676,-52.7664"/>
<text text-anchor="middle" x="331.7532" y="-31.1664" font-family="Arial" font-size="12.00" fill="#000000">Frontend</text>
</g>
<!-- Usuario&#45;&gt;Frontend -->
<g id="edge1" class="edge">
<title>Usuario-&gt;Frontend</title>
<path fill="none" stroke="#000000" d="M57.4533,-34.7664C111.0919,-34.7664 226.5519,-34.7664 289.2106,-34.7664"/>
<polygon fill="#000000" stroke="#000000" points="289.5329,-38.2665 299.5329,-34.7664 289.5329,-31.2665 289.5329,-38.2665"/>
<text text-anchor="middle" x="178.5394" y="-38.9664" font-family="Times,serif" font-size="14.00" fill="#000000">Ingresar usuario y contraseña</text>
</g>
<!-- Frontend&#45;&gt;Usuario -->
<g id="edge6" class="edge">
<title>Frontend-&gt;Usuario</title>
<path fill="none" stroke="#000000" d="M299.5181,-19.2049C293.7235,-17.0339 287.6473,-15.1447 281.746,-13.9664 191.7827,3.9973 165.0634,5.1256 75.3328,-13.9664 72.5267,-14.5634 69.6847,-15.3416 66.8607,-16.2457"/>
<polygon fill="#000000" stroke="#000000" points="65.5835,-12.9862 57.407,-19.7239 68.0005,-19.5557 65.5835,-12.9862"/>
<text text-anchor="middle" x="178.5394" y="-17.9664" font-family="Times,serif" font-size="14.00" fill="#000000">Acceso permitido o mensaje de error</text>
</g>
<!-- Backend -->
<g id="node3" class="node">
<title>Backend</title>
<path fill="none" stroke="#000000" d="M595.6536,-52.7664C595.6536,-52.7664 557.28,-52.7664 557.28,-52.7664 551.28,-52.7664 545.28,-46.7664 545.28,-40.7664 545.28,-40.7664 545.28,-28.7664 545.28,-28.7664 545.28,-22.7664 551.28,-16.7664 557.28,-16.7664 557.28,-16.7664 595.6536,-16.7664 595.6536,-16.7664 601.6536,-16.7664 607.6536,-22.7664 607.6536,-28.7664 607.6536,-28.7664 607.6536,-40.7664 607.6536,-40.7664 607.6536,-46.7664 601.6536,-52.7664 595.6536,-52.7664"/>
<text text-anchor="middle" x="576.4668" y="-31.1664" font-family="Arial" font-size="12.00" fill="#000000">Backend</text>
</g>
<!-- Frontend&#45;&gt;Backend -->
<g id="edge2" class="edge">
<title>Frontend-&gt;Backend</title>
<path fill="none" stroke="#000000" d="M363.9969,-34.7664C407.8886,-34.7664 486.4951,-34.7664 534.8076,-34.7664"/>
<polygon fill="#000000" stroke="#000000" points="534.9275,-38.2665 544.9275,-34.7664 534.9274,-31.2665 534.9275,-38.2665"/>
<text text-anchor="middle" x="454.4421" y="-38.9664" font-family="Times,serif" font-size="14.00" fill="#000000">Enviar credenciales (API)</text>
</g>
<!-- Backend&#45;&gt;Frontend -->
<g id="edge5" class="edge">
<title>Backend-&gt;Frontend</title>
<path fill="none" stroke="#000000" d="M545.2101,-19.4102C539.3306,-17.1536 533.1378,-15.1821 527.1238,-13.9664 463.7988,-1.1648 445.1157,-1.3157 381.7604,-13.9664 379.0864,-14.5003 376.3764,-15.1802 373.6731,-15.9661"/>
<polygon fill="#000000" stroke="#000000" points="372.362,-12.714 363.9883,-19.2049 374.5821,-19.3526 372.362,-12.714"/>
<text text-anchor="middle" x="454.4421" y="-17.9664" font-family="Times,serif" font-size="14.00" fill="#000000">Token de sesión o error</text>
</g>
<!-- BaseDeDatos -->
<g id="node4" class="node">
<title>BaseDeDatos</title>
<path fill="none" stroke="#000000" d="M887.0384,-52.7664C887.0384,-52.7664 821.004,-52.7664 821.004,-52.7664 815.004,-52.7664 809.004,-46.7664 809.004,-40.7664 809.004,-40.7664 809.004,-28.7664 809.004,-28.7664 809.004,-22.7664 815.004,-16.7664 821.004,-16.7664 821.004,-16.7664 887.0384,-16.7664 887.0384,-16.7664 893.0384,-16.7664 899.0384,-22.7664 899.0384,-28.7664 899.0384,-28.7664 899.0384,-40.7664 899.0384,-40.7664 899.0384,-46.7664 893.0384,-52.7664 887.0384,-52.7664"/>
<text text-anchor="middle" x="854.0212" y="-31.1664" font-family="Arial" font-size="12.00" fill="#000000">BaseDeDatos</text>
</g>
<!-- Backend&#45;&gt;BaseDeDatos -->
<g id="edge3" class="edge">
<title>Backend-&gt;BaseDeDatos</title>
<path fill="none" stroke="#000000" d="M607.7663,-34.7664C653.9454,-34.7664 741.0346,-34.7664 798.291,-34.7664"/>
<polygon fill="#000000" stroke="#000000" points="798.6183,-38.2665 808.6183,-34.7664 798.6183,-31.2665 798.6183,-38.2665"/>
<text text-anchor="middle" x="708.4112" y="-38.9664" font-family="Times,serif" font-size="14.00" fill="#000000">Validar usuario y contraseña</text>
</g>
<!-- BaseDeDatos&#45;&gt;Backend -->
<g id="edge4" class="edge">
<title>BaseDeDatos-&gt;Backend</title>
<path fill="none" stroke="#000000" d="M808.677,-17.9082C802.8032,-16.2856 796.8131,-14.899 791.0126,-13.9664 718.5202,-2.3104 697.7774,.5823 625.8098,-13.9664 622.9907,-14.5363 620.1324,-15.2722 617.2854,-16.1257"/>
<polygon fill="#000000" stroke="#000000" points="616.044,-12.8513 607.7235,-19.4102 618.3181,-19.4716 616.044,-12.8513"/>
<text text-anchor="middle" x="708.4112" y="-17.9664" font-family="Times,serif" font-size="14.00" fill="#000000">Respuesta (válida/inválida)</text>
</g>
</g>
</svg>
