<?xml version="1.0" encoding="UTF-8" standalone="no"?><!DOCTYPE svg PUBLIC "-//W3C//DTD SVG 1.1//EN" "http://www.w3.org/Graphics/SVG/1.1/DTD/svg11.dtd"><!-- Generated by graphviz version 2.40.1 (20161225.0304)
 --><!-- Title: PublicacionRevista Pages: 1 --><svg xmlns="http://www.w3.org/2000/svg" xmlns:xlink="http://www.w3.org/1999/xlink" width="903pt" height="156pt" viewBox="0.00 0.00 902.60 156.31">
<g id="graph0" class="graph" transform="scale(1 1) rotate(0) translate(4 152.3114)">
<title>PublicacionRevista</title>
<polygon fill="#ffffff" stroke="transparent" points="-4,4 -4,-152.3114 898.5966,-152.3114 898.5966,4 -4,4"/>
<!-- Editor -->
<g id="node1" class="node">
<title>Editor</title>
<path fill="none" stroke="#000000" d="M42,-92.5114C42,-92.5114 12,-92.5114 12,-92.5114 6,-92.5114 0,-86.5114 0,-80.5114 0,-80.5114 0,-68.5114 0,-68.5114 0,-62.5114 6,-56.5114 12,-56.5114 12,-56.5114 42,-56.5114 42,-56.5114 48,-56.5114 54,-62.5114 54,-68.5114 54,-68.5114 54,-80.5114 54,-80.5114 54,-86.5114 48,-92.5114 42,-92.5114"/>
<text text-anchor="middle" x="27" y="-70.9114" font-family="Arial" font-size="12.00" fill="#000000">Editor</text>
</g>
<!-- Frontend -->
<g id="node2" class="node">
<title>Frontend</title>
<path fill="none" stroke="#000000" d="M319.6858,-92.5114C319.6858,-92.5114 279.657,-92.5114 279.657,-92.5114 273.657,-92.5114 267.657,-86.5114 267.657,-80.5114 267.657,-80.5114 267.657,-68.5114 267.657,-68.5114 267.657,-62.5114 273.657,-56.5114 279.657,-56.5114 279.657,-56.5114 319.6858,-56.5114 319.6858,-56.5114 325.6858,-56.5114 331.6858,-62.5114 331.6858,-68.5114 331.6858,-68.5114 331.6858,-80.5114 331.6858,-80.5114 331.6858,-86.5114 325.6858,-92.5114 319.6858,-92.5114"/>
<text text-anchor="middle" x="299.6714" y="-70.9114" font-family="Arial" font-size="12.00" fill="#000000">Frontend</text>
</g>
<!-- Editor&#45;&gt;Frontend -->
<g id="edge1" class="edge">
<title>Editor-&gt;Frontend</title>
<path fill="none" stroke="#000000" d="M42.66,-92.5199C50.5764,-100.2529 60.8602,-108.4371 72,-112.5114 146.1576,-139.634 174.8334,-137.7172 249.6642,-112.5114 258.2798,-109.6094 266.5877,-104.567 273.8745,-99.0862"/>
<polygon fill="#000000" stroke="#000000" points="276.3621,-101.5748 281.9168,-92.5528 271.9483,-96.1416 276.3621,-101.5748"/>
<text text-anchor="middle" x="160.8321" y="-135.7114" font-family="Times,serif" font-size="14.00" fill="#000000">Seleccionar 'Publicar Revista'</text>
</g>
<!-- Editor&#45;&gt;Frontend -->
<g id="edge7" class="edge">
<title>Editor-&gt;Frontend</title>
<path fill="none" stroke="#000000" d="M54.1416,-74.5114C101.8231,-74.5114 200.9288,-74.5114 257.5652,-74.5114"/>
<polygon fill="#000000" stroke="#000000" points="257.6243,-78.0115 267.6243,-74.5114 257.6242,-71.0115 257.6243,-78.0115"/>
<text text-anchor="middle" x="160.8321" y="-78.7114" font-family="Times,serif" font-size="14.00" fill="#000000">Configurar metadatos y portada</text>
</g>
<!-- Frontend&#45;&gt;Editor -->
<g id="edge6" class="edge">
<title>Frontend-&gt;Editor</title>
<path fill="none" stroke="#000000" d="M267.6043,-60.5324C261.7391,-58.5322 255.5958,-56.7895 249.6642,-55.7114 171.9752,-41.5904 149.4211,-40.1891 72,-55.7114 69.1982,-56.2731 66.353,-57.0135 63.5246,-57.8757"/>
<polygon fill="#000000" stroke="#000000" points="62.3391,-54.5823 54.06,-61.1935 64.6549,-61.1882 62.3391,-54.5823"/>
<text text-anchor="middle" x="160.8321" y="-59.7114" font-family="Times,serif" font-size="14.00" fill="#000000">Mostrar artículos</text>
</g>
<!-- Frontend&#45;&gt;Editor -->
<g id="edge12" class="edge">
<title>Frontend-&gt;Editor</title>
<path fill="none" stroke="#000000" d="M287.6325,-56.2872C278.7176,-44.5555 265.4167,-30.309 249.6642,-23.7114 176.8323,6.7926 144.0044,8.6975 72,-23.7114 60.5325,-28.8729 50.8049,-38.561 43.3598,-48.104"/>
<polygon fill="#000000" stroke="#000000" points="40.433,-46.1786 37.4183,-56.3355 46.1089,-50.2755 40.433,-46.1786"/>
<text text-anchor="middle" x="160.8321" y="-27.7114" font-family="Times,serif" font-size="14.00" fill="#000000">Confirmación de publicación</text>
</g>
<!-- Backend -->
<g id="node3" class="node">
<title>Backend</title>
<path fill="none" stroke="#000000" d="M583.8144,-92.5114C583.8144,-92.5114 545.4408,-92.5114 545.4408,-92.5114 539.4408,-92.5114 533.4408,-86.5114 533.4408,-80.5114 533.4408,-80.5114 533.4408,-68.5114 533.4408,-68.5114 533.4408,-62.5114 539.4408,-56.5114 545.4408,-56.5114 545.4408,-56.5114 583.8144,-56.5114 583.8144,-56.5114 589.8144,-56.5114 595.8144,-62.5114 595.8144,-68.5114 595.8144,-68.5114 595.8144,-80.5114 595.8144,-80.5114 595.8144,-86.5114 589.8144,-92.5114 583.8144,-92.5114"/>
<text text-anchor="middle" x="564.6276" y="-70.9114" font-family="Arial" font-size="12.00" fill="#000000">Backend</text>
</g>
<!-- Frontend&#45;&gt;Backend -->
<g id="edge2" class="edge">
<title>Frontend-&gt;Backend</title>
<path fill="none" stroke="#000000" d="M317.426,-92.5528C326.3003,-100.293 337.6917,-108.4738 349.6786,-112.5114 419.4306,-136.0064 445.6088,-136.2314 515.2846,-112.5114 523.8185,-109.6062 532.0275,-104.5627 539.218,-99.0818"/>
<polygon fill="#000000" stroke="#000000" points="541.656,-101.6082 547.1497,-92.5489 537.2057,-96.205 541.656,-101.6082"/>
<text text-anchor="middle" x="432.4816" y="-133.7114" font-family="Times,serif" font-size="14.00" fill="#000000">Solicitar artículos aprobados</text>
</g>
<!-- Frontend&#45;&gt;Backend -->
<g id="edge8" class="edge">
<title>Frontend-&gt;Backend</title>
<path fill="none" stroke="#000000" d="M331.8953,-74.5114C379.8631,-74.5114 470.0605,-74.5114 522.9765,-74.5114"/>
<polygon fill="#000000" stroke="#000000" points="523.0391,-78.0115 533.0391,-74.5114 523.039,-71.0115 523.0391,-78.0115"/>
<text text-anchor="middle" x="432.4816" y="-78.7114" font-family="Times,serif" font-size="14.00" fill="#000000">Enviar configuración</text>
</g>
<!-- Backend&#45;&gt;Frontend -->
<g id="edge5" class="edge">
<title>Backend-&gt;Frontend</title>
<path fill="none" stroke="#000000" d="M533.2658,-60.6256C527.3969,-58.5866 521.235,-56.8066 515.2846,-55.7114 442.8978,-42.3886 422.0948,-42.5488 349.6786,-55.7114 346.9908,-56.1999 344.2596,-56.8249 341.5305,-57.5485"/>
<polygon fill="#000000" stroke="#000000" points="340.2839,-54.2693 331.7385,-60.5324 342.3245,-60.9653 340.2839,-54.2693"/>
<text text-anchor="middle" x="432.4816" y="-59.7114" font-family="Times,serif" font-size="14.00" fill="#000000">Artículos aprobados</text>
</g>
<!-- Backend&#45;&gt;Frontend -->
<g id="edge11" class="edge">
<title>Backend-&gt;Frontend</title>
<path fill="none" stroke="#000000" d="M552.337,-56.1415C543.5337,-44.7378 530.5626,-31.0811 515.2846,-24.7114 447.3497,3.6118 417.7078,3.3845 349.6786,-24.7114 337.6461,-29.6808 326.9874,-39.1036 318.6348,-48.4272"/>
<polygon fill="#000000" stroke="#000000" points="315.917,-46.2212 312.1815,-56.1357 321.2845,-50.7146 315.917,-46.2212"/>
<text text-anchor="middle" x="432.4816" y="-28.7114" font-family="Times,serif" font-size="14.00" fill="#000000">Notificar éxito</text>
</g>
<!-- BaseDeDatos -->
<g id="node4" class="node">
<title>BaseDeDatos</title>
<path fill="none" stroke="#000000" d="M882.6052,-92.5114C882.6052,-92.5114 816.5708,-92.5114 816.5708,-92.5114 810.5708,-92.5114 804.5708,-86.5114 804.5708,-80.5114 804.5708,-80.5114 804.5708,-68.5114 804.5708,-68.5114 804.5708,-62.5114 810.5708,-56.5114 816.5708,-56.5114 816.5708,-56.5114 882.6052,-56.5114 882.6052,-56.5114 888.6052,-56.5114 894.6052,-62.5114 894.6052,-68.5114 894.6052,-68.5114 894.6052,-80.5114 894.6052,-80.5114 894.6052,-86.5114 888.6052,-92.5114 882.6052,-92.5114"/>
<text text-anchor="middle" x="849.588" y="-70.9114" font-family="Arial" font-size="12.00" fill="#000000">BaseDeDatos</text>
</g>
<!-- Backend&#45;&gt;BaseDeDatos -->
<g id="edge3" class="edge">
<title>Backend-&gt;BaseDeDatos</title>
<path fill="none" stroke="#000000" d="M582.1055,-92.5489C590.853,-100.2882 602.0974,-108.4694 613.9706,-112.5114 686.5927,-137.2344 712.6713,-133.0731 786.5794,-112.5114 797.5095,-109.4706 808.4393,-103.9661 818.0534,-98.0733"/>
<polygon fill="#000000" stroke="#000000" points="819.9892,-100.9895 826.4751,-92.612 816.1805,-95.1164 819.9892,-100.9895"/>
<text text-anchor="middle" x="700.275" y="-133.7114" font-family="Times,serif" font-size="14.00" fill="#000000">Consultar artículos aprobados</text>
</g>
<!-- Backend&#45;&gt;BaseDeDatos -->
<g id="edge9" class="edge">
<title>Backend-&gt;BaseDeDatos</title>
<path fill="none" stroke="#000000" d="M595.9385,-74.5114C643.5389,-74.5114 734.8037,-74.5114 793.8954,-74.5114"/>
<polygon fill="#000000" stroke="#000000" points="794.1749,-78.0115 804.1749,-74.5114 794.1749,-71.0115 794.1749,-78.0115"/>
<text text-anchor="middle" x="700.275" y="-78.7114" font-family="Times,serif" font-size="14.00" fill="#000000">Registrar número de revista</text>
</g>
<!-- BaseDeDatos&#45;&gt;Backend -->
<g id="edge4" class="edge">
<title>BaseDeDatos-&gt;Backend</title>
<path fill="none" stroke="#000000" d="M804.5122,-59.3571C798.5405,-57.8539 792.4532,-56.569 786.5794,-55.7114 710.6692,-44.6281 689.4184,-41.8252 613.9706,-55.7114 611.2743,-56.2076 608.5346,-56.8445 605.7984,-57.5824"/>
<polygon fill="#000000" stroke="#000000" points="604.5032,-54.3196 595.9894,-60.6256 606.5774,-61.0052 604.5032,-54.3196"/>
<text text-anchor="middle" x="700.275" y="-59.7114" font-family="Times,serif" font-size="14.00" fill="#000000">Lista de artículos</text>
</g>
<!-- BaseDeDatos&#45;&gt;Backend -->
<g id="edge10" class="edge">
<title>BaseDeDatos-&gt;Backend</title>
<path fill="none" stroke="#000000" d="M833.0977,-56.2975C821.3998,-44.8026 804.6233,-30.9811 786.5794,-24.7114 714.1143,.4681 684.7782,4.8094 613.9706,-24.7114 602.154,-29.6379 591.7175,-38.9237 583.5219,-48.1546"/>
<polygon fill="#000000" stroke="#000000" points="580.5929,-46.2043 576.9182,-56.1415 585.9878,-50.6648 580.5929,-46.2043"/>
<text text-anchor="middle" x="700.275" y="-28.7114" font-family="Times,serif" font-size="14.00" fill="#000000">Confirmar publicación</text>
</g>
</g>
</svg>