<?xml version="1.0" encoding="UTF-8" standalone="no"?><!DOCTYPE svg PUBLIC "-//W3C//DTD SVG 1.1//EN" "http://www.w3.org/Graphics/SVG/1.1/DTD/svg11.dtd"><!-- Generated by graphviz version 2.40.1 (20161225.0304)
 --><!-- Title: JoUdeG Pages: 1 --><svg xmlns="http://www.w3.org/2000/svg" xmlns:xlink="http://www.w3.org/1999/xlink" width="1157pt" height="580pt" viewBox="0.00 0.00 1157.01 580.00">
<g id="graph0" class="graph" transform="scale(1 1) rotate(0) translate(4 576)">
<title>JoUdeG</title>
<polygon fill="#ffffff" stroke="transparent" points="-4,4 -4,-576 1153.0131,-576 1153.0131,4 -4,4"/>
<!-- Usuario -->
<g id="node1" class="node">
<title>Usuario</title>
<ellipse fill="#add8e6" stroke="#add8e6" cx="67.3568" cy="-72" rx="41.7114" ry="18"/>
<text text-anchor="middle" x="67.3568" y="-67.8" font-family="Times,serif" font-size="14.00" fill="#000000">Usuario</text>
</g>
<!-- IniciarSesion -->
<g id="node7" class="node">
<title>IniciarSesion</title>
<path fill="none" stroke="#ffffff" d="M295.8319,-144C295.8319,-144 221.7826,-144 221.7826,-144 215.7826,-144 209.7826,-138 209.7826,-132 209.7826,-132 209.7826,-120 209.7826,-120 209.7826,-114 215.7826,-108 221.7826,-108 221.7826,-108 295.8319,-108 295.8319,-108 301.8319,-108 307.8319,-114 307.8319,-120 307.8319,-120 307.8319,-132 307.8319,-132 307.8319,-138 301.8319,-144 295.8319,-144"/>
<text text-anchor="middle" x="258.8072" y="-121.8" font-family="Times,serif" font-size="14.00" fill="#000000">Iniciar Sesión</text>
</g>
<!-- Usuario&#45;&gt;IniciarSesion -->
<g id="edge1" class="edge">
<title>Usuario-&gt;IniciarSesion</title>
<path fill="none" stroke="#000000" d="M102.4717,-81.9044C129.6683,-89.5754 167.9531,-100.3739 199.8289,-109.3647"/>
<polygon fill="#000000" stroke="#000000" points="198.9216,-112.7453 209.4962,-112.0915 200.8219,-106.0082 198.9216,-112.7453"/>
</g>
<!-- RecuperarContrasena -->
<g id="node8" class="node">
<title>RecuperarContrasena</title>
<path fill="none" stroke="#ffffff" d="M318.9607,-90C318.9607,-90 198.6538,-90 198.6538,-90 192.6538,-90 186.6538,-84 186.6538,-78 186.6538,-78 186.6538,-66 186.6538,-66 186.6538,-60 192.6538,-54 198.6538,-54 198.6538,-54 318.9607,-54 318.9607,-54 324.9607,-54 330.9607,-60 330.9607,-66 330.9607,-66 330.9607,-78 330.9607,-78 330.9607,-84 324.9607,-90 318.9607,-90"/>
<text text-anchor="middle" x="258.8072" y="-67.8" font-family="Times,serif" font-size="14.00" fill="#000000">Recuperar Contraseña</text>
</g>
<!-- Usuario&#45;&gt;RecuperarContrasena -->
<g id="edge2" class="edge">
<title>Usuario-&gt;RecuperarContrasena</title>
<path fill="none" stroke="#000000" d="M109.3714,-72C129.0273,-72 153.1504,-72 176.2335,-72"/>
<polygon fill="#000000" stroke="#000000" points="176.395,-75.5001 186.395,-72 176.395,-68.5001 176.395,-75.5001"/>
</g>
<!-- VisualizarEstadisticas -->
<g id="node9" class="node">
<title>VisualizarEstadisticas</title>
<path fill="none" stroke="#ffffff" d="M320.8585,-36C320.8585,-36 196.756,-36 196.756,-36 190.756,-36 184.756,-30 184.756,-24 184.756,-24 184.756,-12 184.756,-12 184.756,-6 190.756,0 196.756,0 196.756,0 320.8585,0 320.8585,0 326.8585,0 332.8585,-6 332.8585,-12 332.8585,-12 332.8585,-24 332.8585,-24 332.8585,-30 326.8585,-36 320.8585,-36"/>
<text text-anchor="middle" x="258.8072" y="-13.8" font-family="Times,serif" font-size="14.00" fill="#000000">Visualizar Estadísticas</text>
</g>
<!-- Usuario&#45;&gt;VisualizarEstadisticas -->
<g id="edge3" class="edge">
<title>Usuario-&gt;VisualizarEstadisticas</title>
<path fill="none" stroke="#000000" d="M102.4717,-62.0956C125.5506,-55.586 156.6143,-46.8243 184.9704,-38.8262"/>
<polygon fill="#000000" stroke="#000000" points="186.1956,-42.1173 194.8699,-36.034 184.2952,-35.3802 186.1956,-42.1173"/>
</g>
<!-- Autor -->
<g id="node2" class="node">
<title>Autor</title>
<ellipse fill="#add8e6" stroke="#add8e6" cx="511.8626" cy="-424" rx="33.6266" ry="18"/>
<text text-anchor="middle" x="511.8626" y="-419.8" font-family="Times,serif" font-size="14.00" fill="#000000">Autor</text>
</g>
<!-- PostularArticulo -->
<g id="node10" class="node">
<title>PostularArticulo</title>
<path fill="none" stroke="#ffffff" d="M796.7339,-407C796.7339,-407 702.7964,-407 702.7964,-407 696.7964,-407 690.7964,-401 690.7964,-395 690.7964,-395 690.7964,-383 690.7964,-383 690.7964,-377 696.7964,-371 702.7964,-371 702.7964,-371 796.7339,-371 796.7339,-371 802.7339,-371 808.7339,-377 808.7339,-383 808.7339,-383 808.7339,-395 808.7339,-395 808.7339,-401 802.7339,-407 796.7339,-407"/>
<text text-anchor="middle" x="749.7651" y="-384.8" font-family="Times,serif" font-size="14.00" fill="#000000">Postular Artículo</text>
</g>
<!-- Autor&#45;&gt;PostularArticulo -->
<g id="edge4" class="edge">
<title>Autor-&gt;PostularArticulo</title>
<path fill="none" stroke="#000000" d="M544.4431,-419.2068C579.3443,-414.0722 635.7685,-405.7711 680.6435,-399.1691"/>
<polygon fill="#000000" stroke="#000000" points="681.2286,-402.6208 690.6127,-397.7025 680.2097,-395.6953 681.2286,-402.6208"/>
</g>
<!-- DescargarConstancias -->
<g id="node16" class="node">
<title>DescargarConstancias</title>
<path fill="none" stroke="#ffffff" d="M809.6468,-461C809.6468,-461 689.8835,-461 689.8835,-461 683.8835,-461 677.8835,-455 677.8835,-449 677.8835,-449 677.8835,-437 677.8835,-437 677.8835,-431 683.8835,-425 689.8835,-425 689.8835,-425 809.6468,-425 809.6468,-425 815.6468,-425 821.6468,-431 821.6468,-437 821.6468,-437 821.6468,-449 821.6468,-449 821.6468,-455 815.6468,-461 809.6468,-461"/>
<text text-anchor="middle" x="749.7651" y="-438.8" font-family="Times,serif" font-size="14.00" fill="#000000">Descargar Constancias</text>
</g>
<!-- Autor&#45;&gt;DescargarConstancias -->
<g id="edge5" class="edge">
<title>Autor-&gt;DescargarConstancias</title>
<path fill="none" stroke="#000000" d="M545.1925,-426.6619C576.7354,-429.181 625.3662,-433.0649 667.2993,-436.4139"/>
<polygon fill="#000000" stroke="#000000" points="667.2749,-439.923 677.5218,-437.2303 667.8322,-432.9452 667.2749,-439.923"/>
</g>
<!-- Editor -->
<g id="node3" class="node">
<title>Editor</title>
<ellipse fill="#add8e6" stroke="#add8e6" cx="67.3568" cy="-295" rx="35.3509" ry="18"/>
<text text-anchor="middle" x="67.3568" y="-290.8" font-family="Times,serif" font-size="14.00" fill="#000000">Editor</text>
</g>
<!-- RevisarArticulo -->
<g id="node11" class="node">
<title>RevisarArticulo</title>
<path fill="none" stroke="#ffffff" d="M557.209,-320C557.209,-320 466.5163,-320 466.5163,-320 460.5163,-320 454.5163,-314 454.5163,-308 454.5163,-308 454.5163,-296 454.5163,-296 454.5163,-290 460.5163,-284 466.5163,-284 466.5163,-284 557.209,-284 557.209,-284 563.209,-284 569.209,-290 569.209,-296 569.209,-296 569.209,-308 569.209,-308 569.209,-314 563.209,-320 557.209,-320"/>
<text text-anchor="middle" x="511.8626" y="-297.8" font-family="Times,serif" font-size="14.00" fill="#000000">Revisar Artículo</text>
</g>
<!-- Editor&#45;&gt;RevisarArticulo -->
<g id="edge6" class="edge">
<title>Editor-&gt;RevisarArticulo</title>
<path fill="none" stroke="#000000" d="M102.6449,-296.9589C118.0192,-297.7334 136.2528,-298.5457 152.7135,-299 254.3029,-301.8036 372.1119,-302.2533 444.3104,-302.21"/>
<polygon fill="#000000" stroke="#000000" points="444.6277,-305.7098 454.6243,-302.2003 444.621,-298.7098 444.6277,-305.7098"/>
</g>
<!-- AprobarRechazarArticulo -->
<g id="node12" class="node">
<title>AprobarRechazarArticulo</title>
<path fill="none" stroke="#ffffff" d="M333.9948,-236C333.9948,-236 183.6197,-236 183.6197,-236 177.6197,-236 171.6197,-230 171.6197,-224 171.6197,-224 171.6197,-212 171.6197,-212 171.6197,-206 177.6197,-200 183.6197,-200 183.6197,-200 333.9948,-200 333.9948,-200 339.9948,-200 345.9948,-206 345.9948,-212 345.9948,-212 345.9948,-224 345.9948,-224 345.9948,-230 339.9948,-236 333.9948,-236"/>
<text text-anchor="middle" x="258.8072" y="-213.8" font-family="Times,serif" font-size="14.00" fill="#000000">Aprobar/Rechazar Artículo</text>
</g>
<!-- Editor&#45;&gt;AprobarRechazarArticulo -->
<g id="edge7" class="edge">
<title>Editor-&gt;AprobarRechazarArticulo</title>
<path fill="none" stroke="#000000" d="M91.7857,-282.0403C112.6528,-271.2766 143.6589,-256.0013 171.7135,-245 176.6875,-243.0495 181.8638,-241.144 187.1025,-239.3056"/>
<polygon fill="#000000" stroke="#000000" points="188.2366,-242.6168 196.5694,-236.0735 185.9749,-235.9922 188.2366,-242.6168"/>
</g>
<!-- AsignarDictaminador -->
<g id="node15" class="node">
<title>AsignarDictaminador</title>
<path fill="none" stroke="#ffffff" d="M317.0978,-382C317.0978,-382 200.5167,-382 200.5167,-382 194.5167,-382 188.5167,-376 188.5167,-370 188.5167,-370 188.5167,-358 188.5167,-358 188.5167,-352 194.5167,-346 200.5167,-346 200.5167,-346 317.0978,-346 317.0978,-346 323.0978,-346 329.0978,-352 329.0978,-358 329.0978,-358 329.0978,-370 329.0978,-370 329.0978,-376 323.0978,-382 317.0978,-382"/>
<text text-anchor="middle" x="258.8072" y="-359.8" font-family="Times,serif" font-size="14.00" fill="#000000">Asignar Dictaminador</text>
</g>
<!-- Editor&#45;&gt;AsignarDictaminador -->
<g id="edge8" class="edge">
<title>Editor-&gt;AsignarDictaminador</title>
<path fill="none" stroke="#000000" d="M93.5659,-307.3016C110.2911,-314.916 132.542,-324.6143 152.7135,-332 163.1232,-335.8115 174.2218,-339.5283 185.1717,-343.0001"/>
<polygon fill="#000000" stroke="#000000" points="184.1464,-346.3465 194.735,-345.9841 186.2315,-339.6642 184.1464,-346.3465"/>
</g>
<!-- ModificarEquipoEditorial -->
<g id="node18" class="node">
<title>ModificarEquipoEditorial</title>
<path fill="none" stroke="#ffffff" d="M331.2173,-290C331.2173,-290 186.3972,-290 186.3972,-290 180.3972,-290 174.3972,-284 174.3972,-278 174.3972,-278 174.3972,-266 174.3972,-266 174.3972,-260 180.3972,-254 186.3972,-254 186.3972,-254 331.2173,-254 331.2173,-254 337.2173,-254 343.2173,-260 343.2173,-266 343.2173,-266 343.2173,-278 343.2173,-278 343.2173,-284 337.2173,-290 331.2173,-290"/>
<text text-anchor="middle" x="258.8072" y="-267.8" font-family="Times,serif" font-size="14.00" fill="#000000">Modificar Equipo Editorial</text>
</g>
<!-- Editor&#45;&gt;ModificarEquipoEditorial -->
<g id="edge9" class="edge">
<title>Editor-&gt;ModificarEquipoEditorial</title>
<path fill="none" stroke="#000000" d="M102.027,-290.8349C119.5945,-288.7244 141.8705,-286.0483 164.0752,-283.3807"/>
<polygon fill="#000000" stroke="#000000" points="164.7441,-286.8256 174.2552,-282.1577 163.9091,-279.8756 164.7441,-286.8256"/>
</g>
<!-- Administrador -->
<g id="node4" class="node">
<title>Administrador</title>
<ellipse fill="#add8e6" stroke="#add8e6" cx="67.3568" cy="-499" rx="67.2139" ry="18"/>
<text text-anchor="middle" x="67.3568" y="-494.8" font-family="Times,serif" font-size="14.00" fill="#000000">Administrador</text>
</g>
<!-- PublicarNumero -->
<g id="node13" class="node">
<title>PublicarNumero</title>
<path fill="none" stroke="#ffffff" d="M304.7085,-490C304.7085,-490 212.906,-490 212.906,-490 206.906,-490 200.906,-484 200.906,-478 200.906,-478 200.906,-466 200.906,-466 200.906,-460 206.906,-454 212.906,-454 212.906,-454 304.7085,-454 304.7085,-454 310.7085,-454 316.7085,-460 316.7085,-466 316.7085,-466 316.7085,-478 316.7085,-478 316.7085,-484 310.7085,-490 304.7085,-490"/>
<text text-anchor="middle" x="258.8072" y="-467.8" font-family="Times,serif" font-size="14.00" fill="#000000">Publicar Número</text>
</g>
<!-- Administrador&#45;&gt;PublicarNumero -->
<g id="edge11" class="edge">
<title>Administrador-&gt;PublicarNumero</title>
<path fill="none" stroke="#000000" d="M127.1454,-490.5681C147.3226,-487.7225 169.9916,-484.5255 190.7592,-481.5967"/>
<polygon fill="#000000" stroke="#000000" points="191.369,-485.0454 200.7822,-480.1832 190.3914,-478.114 191.369,-485.0454"/>
</g>
<!-- GestionarUsuarios -->
<g id="node14" class="node">
<title>GestionarUsuarios</title>
<path fill="none" stroke="#ffffff" d="M308.4915,-436C308.4915,-436 209.123,-436 209.123,-436 203.123,-436 197.123,-430 197.123,-424 197.123,-424 197.123,-412 197.123,-412 197.123,-406 203.123,-400 209.123,-400 209.123,-400 308.4915,-400 308.4915,-400 314.4915,-400 320.4915,-406 320.4915,-412 320.4915,-412 320.4915,-424 320.4915,-424 320.4915,-430 314.4915,-436 308.4915,-436"/>
<text text-anchor="middle" x="258.8072" y="-413.8" font-family="Times,serif" font-size="14.00" fill="#000000">Gestionar Usuarios</text>
</g>
<!-- Administrador&#45;&gt;GestionarUsuarios -->
<g id="edge10" class="edge">
<title>Administrador-&gt;GestionarUsuarios</title>
<path fill="none" stroke="#000000" d="M95.9423,-482.4586C116.5559,-470.9674 145.2888,-455.8331 171.7135,-445 176.7485,-442.9358 182.0017,-440.9392 187.3237,-439.0292"/>
<polygon fill="#000000" stroke="#000000" points="188.6463,-442.275 196.9452,-435.6888 186.3504,-435.6622 188.6463,-442.275"/>
</g>
<!-- RegistrarInformacionNumero -->
<g id="node17" class="node">
<title>RegistrarInformacionNumero</title>
<path fill="none" stroke="#ffffff" d="M1136.7729,-540C1136.7729,-540 942.735,-540 942.735,-540 936.735,-540 930.735,-534 930.735,-528 930.735,-528 930.735,-516 930.735,-516 930.735,-510 936.735,-504 942.735,-504 942.735,-504 1136.7729,-504 1136.7729,-504 1142.7729,-504 1148.7729,-510 1148.7729,-516 1148.7729,-516 1148.7729,-528 1148.7729,-528 1148.7729,-534 1142.7729,-540 1136.7729,-540"/>
<text text-anchor="middle" x="1039.7539" y="-517.8" font-family="Times,serif" font-size="14.00" fill="#000000">Registrar Información del Número</text>
</g>
<!-- Administrador&#45;&gt;RegistrarInformacionNumero -->
<g id="edge12" class="edge">
<title>Administrador-&gt;RegistrarInformacionNumero</title>
<path fill="none" stroke="#000000" d="M93.1146,-515.7477C128.8068,-537.2998 196.0223,-572 258.8072,-572 258.8072,-572 258.8072,-572 749.7651,-572 823.1724,-572 905.5322,-556.2483 963.6689,-542.4271"/>
<polygon fill="#000000" stroke="#000000" points="964.61,-545.8005 973.5092,-540.0511 962.967,-538.996 964.61,-545.8005"/>
</g>
<!-- GuardarCambios -->
<g id="node19" class="node">
<title>GuardarCambios</title>
<path fill="none" stroke="#ffffff" d="M304.4413,-544C304.4413,-544 213.1732,-544 213.1732,-544 207.1732,-544 201.1732,-538 201.1732,-532 201.1732,-532 201.1732,-520 201.1732,-520 201.1732,-514 207.1732,-508 213.1732,-508 213.1732,-508 304.4413,-508 304.4413,-508 310.4413,-508 316.4413,-514 316.4413,-520 316.4413,-520 316.4413,-532 316.4413,-532 316.4413,-538 310.4413,-544 304.4413,-544"/>
<text text-anchor="middle" x="258.8072" y="-521.8" font-family="Times,serif" font-size="14.00" fill="#000000">Guardar Cambios</text>
</g>
<!-- Administrador&#45;&gt;GuardarCambios -->
<g id="edge13" class="edge">
<title>Administrador-&gt;GuardarCambios</title>
<path fill="none" stroke="#000000" d="M127.1454,-507.4319C147.4168,-510.2908 170.2035,-513.5043 191.0502,-516.4443"/>
<polygon fill="#000000" stroke="#000000" points="190.7179,-519.932 201.1087,-517.8629 191.6955,-513.0006 190.7179,-519.932"/>
</g>
<!-- Dictaminador -->
<g id="node5" class="node">
<title>Dictaminador</title>
<ellipse fill="#add8e6" stroke="#add8e6" cx="67.3568" cy="-190" rx="64.263" ry="18"/>
<text text-anchor="middle" x="67.3568" y="-185.8" font-family="Times,serif" font-size="14.00" fill="#000000">Dictaminador</text>
</g>
<!-- Dictaminador&#45;&gt;RevisarArticulo -->
<g id="edge14" class="edge">
<title>Dictaminador-&gt;RevisarArticulo</title>
<path fill="none" stroke="#000000" d="M123.8345,-181.3852C181.0125,-174.6915 271.3845,-169.7223 345.9009,-191 401.5873,-206.9008 455.2746,-249.3234 485.8547,-276.8782"/>
<polygon fill="#000000" stroke="#000000" points="483.7499,-279.697 493.4842,-283.8796 488.4828,-274.5395 483.7499,-279.697"/>
</g>
<!-- Dictaminador&#45;&gt;AprobarRechazarArticulo -->
<g id="edge15" class="edge">
<title>Dictaminador-&gt;AprobarRechazarArticulo</title>
<path fill="none" stroke="#000000" d="M124.2799,-198.3251C136.0213,-200.0423 148.7002,-201.8966 161.4182,-203.7567"/>
<polygon fill="#000000" stroke="#000000" points="161.2078,-207.2631 171.6091,-205.2471 162.2209,-200.3367 161.2078,-207.2631"/>
</g>
<!-- Consejero -->
<g id="node6" class="node">
<title>Consejero</title>
<ellipse fill="#add8e6" stroke="#add8e6" cx="67.3568" cy="-392" rx="50.38" ry="18"/>
<text text-anchor="middle" x="67.3568" y="-387.8" font-family="Times,serif" font-size="14.00" fill="#000000">Consejero</text>
</g>
<!-- Consejero&#45;&gt;GestionarUsuarios -->
<g id="edge16" class="edge">
<title>Consejero-&gt;GestionarUsuarios</title>
<path fill="none" stroke="#000000" d="M114.6816,-398.427C136.3848,-401.3744 162.5924,-404.9335 186.6753,-408.2041"/>
<polygon fill="#000000" stroke="#000000" points="186.467,-411.7079 196.8471,-409.5855 187.4091,-404.7715 186.467,-411.7079"/>
</g>
<!-- Consejero&#45;&gt;AsignarDictaminador -->
<g id="edge17" class="edge">
<title>Consejero-&gt;AsignarDictaminador</title>
<path fill="none" stroke="#000000" d="M114.1908,-385.1504C133.4864,-382.3284 156.4049,-378.9765 178.2433,-375.7826"/>
<polygon fill="#000000" stroke="#000000" points="178.796,-379.2391 188.1842,-374.3288 177.7829,-372.3128 178.796,-379.2391"/>
</g>
<!-- PostularArticulo&#45;&gt;RegistrarInformacionNumero -->
<g id="edge18" class="edge">
<title>PostularArticulo-&gt;RegistrarInformacionNumero</title>
<path fill="none" stroke="#000000" d="M799.9294,-407.1394C807.2775,-409.9951 814.7194,-412.9985 821.7059,-416 883.266,-442.4466 952.5733,-476.9866 996.1931,-499.3305"/>
<polygon fill="#000000" stroke="#000000" points="994.6049,-502.4494 1005.0992,-503.906 997.8038,-496.223 994.6049,-502.4494"/>
<text text-anchor="middle" x="876.1003" y="-462.2" font-family="Times,serif" font-size="14.00" fill="#000000">&lt;&lt;include&gt;&gt;</text>
</g>
<!-- RevisarArticulo&#45;&gt;PostularArticulo -->
<g id="edge19" class="edge">
<title>RevisarArticulo-&gt;PostularArticulo</title>
<path fill="none" stroke="#000000" d="M561.1562,-320.0265C598.8761,-333.8205 651.0246,-352.891 690.9288,-367.4838"/>
<polygon fill="#000000" stroke="#000000" points="689.9409,-370.8492 700.5347,-370.9966 692.3451,-364.275 689.9409,-370.8492"/>
<text text-anchor="middle" x="623.4299" y="-360.2" font-family="Times,serif" font-size="14.00" fill="#000000">&lt;&lt;include&gt;&gt;</text>
</g>
<!-- AprobarRechazarArticulo&#45;&gt;RevisarArticulo -->
<g id="edge20" class="edge">
<title>AprobarRechazarArticulo-&gt;RevisarArticulo</title>
<path fill="none" stroke="#000000" d="M317.9135,-236.0594C327.2915,-239.0008 336.8722,-242.0508 345.9009,-245 380.8056,-256.4016 419.6321,-269.7024 450.9498,-280.5866"/>
<polygon fill="#000000" stroke="#000000" points="449.8206,-283.8995 460.4154,-283.8821 452.1222,-277.2886 449.8206,-283.8995"/>
<text text-anchor="middle" x="400.2953" y="-280.2" font-family="Times,serif" font-size="14.00" fill="#000000">&lt;&lt;include&gt;&gt;</text>
</g>
</g>
</svg>