<?xml version="1.0" encoding="UTF-8" standalone="no"?><!DOCTYPE svg PUBLIC "-//W3C//DTD SVG 1.1//EN" "http://www.w3.org/Graphics/SVG/1.1/DTD/svg11.dtd"><!-- Generated by graphviz version 2.40.1 (20161225.0304)
 --><!-- Title: PostulacionArticulo Pages: 1 --><svg xmlns="http://www.w3.org/2000/svg" xmlns:xlink="http://www.w3.org/1999/xlink" width="885pt" height="123pt" viewBox="0.00 0.00 884.68 123.29">
<g id="graph0" class="graph" transform="scale(1 1) rotate(0) translate(4 119.2901)">
<title>PostulacionArticulo</title>
<polygon fill="#ffffff" stroke="transparent" points="-4,4 -4,-119.2901 880.6836,-119.2901 880.6836,4 -4,4"/>
<!-- Autor -->
<g id="node1" class="node">
<title>Autor</title>
<path fill="none" stroke="#000000" d="M42,-75.2901C42,-75.2901 12,-75.2901 12,-75.2901 6,-75.2901 0,-69.2901 0,-63.2901 0,-63.2901 0,-51.2901 0,-51.2901 0,-45.2901 6,-39.2901 12,-39.2901 12,-39.2901 42,-39.2901 42,-39.2901 48,-39.2901 54,-45.2901 54,-51.2901 54,-51.2901 54,-63.2901 54,-63.2901 54,-69.2901 48,-75.2901 42,-75.2901"/>
<text text-anchor="middle" x="27" y="-53.6901" font-family="Arial" font-size="12.00" fill="#000000">Autor</text>
</g>
<!-- Frontend -->
<g id="node2" class="node">
<title>Frontend</title>
<path fill="none" stroke="#000000" d="M321.608,-75.2901C321.608,-75.2901 281.5792,-75.2901 281.5792,-75.2901 275.5792,-75.2901 269.5792,-69.2901 269.5792,-63.2901 269.5792,-63.2901 269.5792,-51.2901 269.5792,-51.2901 269.5792,-45.2901 275.5792,-39.2901 281.5792,-39.2901 281.5792,-39.2901 321.608,-39.2901 321.608,-39.2901 327.608,-39.2901 333.608,-45.2901 333.608,-51.2901 333.608,-51.2901 333.608,-63.2901 333.608,-63.2901 333.608,-69.2901 327.608,-75.2901 321.608,-75.2901"/>
<text text-anchor="middle" x="301.5936" y="-53.6901" font-family="Arial" font-size="12.00" fill="#000000">Frontend</text>
</g>
<!-- Autor&#45;&gt;Frontend -->
<g id="edge1" class="edge">
<title>Autor-&gt;Frontend</title>
<path fill="none" stroke="#000000" d="M54.1038,-70.0439C59.8887,-72.2193 66.051,-74.1444 72,-75.2901 150.376,-90.3839 172.9583,-89.0102 251.5864,-75.2901 254.2636,-74.8229 256.9867,-74.225 259.7098,-73.5325"/>
<polygon fill="#000000" stroke="#000000" points="260.8702,-76.8399 269.4877,-70.6764 258.9074,-70.1207 260.8702,-76.8399"/>
<text text-anchor="middle" x="161.7932" y="-89.4901" font-family="Times,serif" font-size="14.00" fill="#000000">Seleccionar 'Postular Artículo'</text>
</g>
<!-- Autor&#45;&gt;Frontend -->
<g id="edge3" class="edge">
<title>Autor-&gt;Frontend</title>
<path fill="none" stroke="#000000" d="M54.1148,-55.3295C60.0078,-54.9799 66.2104,-54.67 72,-54.4901 151.7777,-52.0105 171.8014,-52.2581 251.5864,-54.4901 254.0962,-54.5603 256.6761,-54.6503 259.2782,-54.7547"/>
<polygon fill="#000000" stroke="#000000" points="259.1736,-58.2535 269.3242,-55.2176 259.4959,-51.2609 259.1736,-58.2535"/>
<text text-anchor="middle" x="161.7932" y="-59.4901" font-family="Times,serif" font-size="14.00" fill="#000000">Subir artículo y metadatos</text>
</g>
<!-- Frontend&#45;&gt;Autor -->
<g id="edge8" class="edge">
<title>Frontend-&gt;Autor</title>
<path fill="none" stroke="#000000" d="M270.6774,-39.2425C264.5381,-36.4482 258.0023,-33.9936 251.5864,-32.4901 173.8756,-14.2788 149.2983,-12.6003 72,-32.4901 69.1653,-33.2194 66.3181,-34.1693 63.508,-35.2711"/>
<polygon fill="#000000" stroke="#000000" points="61.8331,-32.1874 54.1694,-39.503 64.7225,-38.5633 61.8331,-32.1874"/>
<text text-anchor="middle" x="161.7932" y="-37.4901" font-family="Times,serif" font-size="14.00" fill="#000000">Confirmación de postulación</text>
</g>
<!-- Usuario -->
<g id="node3" class="node">
<title>Usuario</title>
<path fill="none" stroke="#000000" d="M579.4972,-115.2901C579.4972,-115.2901 545.8296,-115.2901 545.8296,-115.2901 539.8296,-115.2901 533.8296,-109.2901 533.8296,-103.2901 533.8296,-103.2901 533.8296,-91.2901 533.8296,-91.2901 533.8296,-85.2901 539.8296,-79.2901 545.8296,-79.2901 545.8296,-79.2901 579.4972,-79.2901 579.4972,-79.2901 585.4972,-79.2901 591.4972,-85.2901 591.4972,-91.2901 591.4972,-91.2901 591.4972,-103.2901 591.4972,-103.2901 591.4972,-109.2901 585.4972,-115.2901 579.4972,-115.2901"/>
<text text-anchor="middle" x="562.6634" y="-93.6901" font-family="Arial" font-size="12.00" fill="#000000">Usuario</text>
</g>
<!-- Frontend&#45;&gt;Usuario -->
<g id="edge2" class="edge">
<title>Frontend-&gt;Usuario</title>
<path fill="none" stroke="#000000" d="M333.6227,-68.5615C339.5456,-70.3524 345.7186,-72.0274 351.6008,-73.2901 410.7691,-85.9906 480.8039,-92.2701 523.4641,-95.142"/>
<polygon fill="#000000" stroke="#000000" points="523.4927,-98.651 533.6968,-95.8006 523.9423,-91.6655 523.4927,-98.651"/>
<text text-anchor="middle" x="432.4606" y="-97.4901" font-family="Times,serif" font-size="14.00" fill="#000000">Mostrar formulario</text>
</g>
<!-- Backend -->
<g id="node4" class="node">
<title>Backend</title>
<path fill="none" stroke="#000000" d="M581.8502,-48.2901C581.8502,-48.2901 543.4766,-48.2901 543.4766,-48.2901 537.4766,-48.2901 531.4766,-42.2901 531.4766,-36.2901 531.4766,-36.2901 531.4766,-24.2901 531.4766,-24.2901 531.4766,-18.2901 537.4766,-12.2901 543.4766,-12.2901 543.4766,-12.2901 581.8502,-12.2901 581.8502,-12.2901 587.8502,-12.2901 593.8502,-18.2901 593.8502,-24.2901 593.8502,-24.2901 593.8502,-36.2901 593.8502,-36.2901 593.8502,-42.2901 587.8502,-48.2901 581.8502,-48.2901"/>
<text text-anchor="middle" x="562.6634" y="-26.6901" font-family="Arial" font-size="12.00" fill="#000000">Backend</text>
</g>
<!-- Frontend&#45;&gt;Backend -->
<g id="edge4" class="edge">
<title>Frontend-&gt;Backend</title>
<path fill="none" stroke="#000000" d="M333.6059,-53.9793C380.7375,-49.1049 468.8379,-39.9935 520.9678,-34.6022"/>
<polygon fill="#000000" stroke="#000000" points="521.6179,-38.0538 531.2047,-33.5435 520.8977,-31.0909 521.6179,-38.0538"/>
<text text-anchor="middle" x="432.4606" y="-56.4901" font-family="Times,serif" font-size="14.00" fill="#000000">Enviar datos y archivo (API)</text>
</g>
<!-- Backend&#45;&gt;Frontend -->
<g id="edge7" class="edge">
<title>Backend-&gt;Frontend</title>
<path fill="none" stroke="#000000" d="M531.3852,-19.4232C525.4543,-17.7884 519.2491,-16.36 513.3204,-15.4901 442.2066,-5.0547 419.1648,9.0288 351.6008,-15.4901 341.7088,-19.0799 332.4043,-25.5779 324.566,-32.3975"/>
<polygon fill="#000000" stroke="#000000" points="322.1702,-29.8459 317.2489,-39.2284 326.9471,-34.9627 322.1702,-29.8459"/>
<text text-anchor="middle" x="432.4606" y="-20.4901" font-family="Times,serif" font-size="14.00" fill="#000000">Notificar éxito</text>
</g>
<!-- BaseDeDatos -->
<g id="node5" class="node">
<title>BaseDeDatos</title>
<path fill="none" stroke="#000000" d="M864.6922,-48.2901C864.6922,-48.2901 798.6578,-48.2901 798.6578,-48.2901 792.6578,-48.2901 786.6578,-42.2901 786.6578,-36.2901 786.6578,-36.2901 786.6578,-24.2901 786.6578,-24.2901 786.6578,-18.2901 792.6578,-12.2901 798.6578,-12.2901 798.6578,-12.2901 864.6922,-12.2901 864.6922,-12.2901 870.6922,-12.2901 876.6922,-18.2901 876.6922,-24.2901 876.6922,-24.2901 876.6922,-36.2901 876.6922,-36.2901 876.6922,-42.2901 870.6922,-48.2901 864.6922,-48.2901"/>
<text text-anchor="middle" x="831.675" y="-26.6901" font-family="Arial" font-size="12.00" fill="#000000">BaseDeDatos</text>
</g>
<!-- Backend&#45;&gt;BaseDeDatos -->
<g id="edge5" class="edge">
<title>Backend-&gt;BaseDeDatos</title>
<path fill="none" stroke="#000000" d="M594.0489,-30.2901C638.7098,-30.2901 721.2774,-30.2901 776.3479,-30.2901"/>
<polygon fill="#000000" stroke="#000000" points="776.6355,-33.7902 786.6355,-30.2901 776.6354,-26.7902 776.6355,-33.7902"/>
<text text-anchor="middle" x="690.3364" y="-34.4901" font-family="Times,serif" font-size="14.00" fill="#000000">Registrar datos del artículo</text>
</g>
<!-- BaseDeDatos&#45;&gt;Backend -->
<g id="edge6" class="edge">
<title>BaseDeDatos-&gt;Backend</title>
<path fill="none" stroke="#000000" d="M786.3308,-13.4319C780.457,-11.8093 774.4669,-10.4227 768.6664,-9.4901 699.9227,1.5632 680.2525,4.3063 612.0064,-9.4901 609.1873,-10.0599 606.329,-10.7959 603.482,-11.6494"/>
<polygon fill="#000000" stroke="#000000" points="602.2406,-8.375 593.9201,-14.9338 604.5147,-14.9953 602.2406,-8.375"/>
<text text-anchor="middle" x="690.3364" y="-14.4901" font-family="Times,serif" font-size="14.00" fill="#000000">Confirmar almacenamiento</text>
</g>
</g>
</svg>