<?xml version="1.0" encoding="UTF-8" standalone="no"?><!DOCTYPE svg PUBLIC "-//W3C//DTD SVG 1.1//EN" "http://www.w3.org/Graphics/SVG/1.1/DTD/svg11.dtd"><!-- Generated by graphviz version 2.40.1 (20161225.0304)
 --><!-- Title: RegistroInicioSesion Pages: 1 --><svg xmlns="http://www.w3.org/2000/svg" xmlns:xlink="http://www.w3.org/1999/xlink" width="343pt" height="684pt" viewBox="0.00 0.00 342.94 684.18">
<g id="graph0" class="graph" transform="scale(1 1) rotate(0) translate(4 680.1821)">
<title>RegistroInicioSesion</title>
<polygon fill="#ffffff" stroke="transparent" points="-4,4 -4,-680.1821 338.9363,-680.1821 338.9363,4 -4,4"/>
<!-- start -->
<g id="node1" class="node">
<title>start</title>
<ellipse fill="none" stroke="#000000" cx="74.8689" cy="-642.6199" rx="33.6247" ry="33.6247"/>
<text text-anchor="middle" x="74.8689" y="-638.4199" font-family="Times,serif" font-size="14.00" fill="#000000">Inicio</text>
</g>
<!-- registrar -->
<g id="node2" class="node">
<title>registrar</title>
<polygon fill="none" stroke="#000000" points="149.6069,-556.2576 .1309,-556.2576 .1309,-520.2576 149.6069,-520.2576 149.6069,-556.2576"/>
<text text-anchor="middle" x="74.8689" y="-534.0576" font-family="Times,serif" font-size="14.00" fill="#000000">Registrar nuevo usuario</text>
</g>
<!-- start&#45;&gt;registrar -->
<g id="edge1" class="edge">
<title>start-&gt;registrar</title>
<path fill="none" stroke="#000000" d="M74.8689,-609.0245C74.8689,-595.3382 74.8689,-579.6896 74.8689,-566.5938"/>
<polygon fill="#000000" stroke="#000000" points="78.369,-566.2927 74.8689,-556.2928 71.369,-566.2928 78.369,-566.2927"/>
<text text-anchor="middle" x="115.8847" y="-578.4576" font-family="Times,serif" font-size="14.00" fill="#000000">Nuevo usuario</text>
</g>
<!-- validar -->
<g id="node3" class="node">
<title>validar</title>
<polygon fill="none" stroke="#000000" points="156.8689,-467.4576 29.4679,-449.4576 156.8689,-431.4576 284.2699,-449.4576 156.8689,-467.4576"/>
<text text-anchor="middle" x="156.8689" y="-445.2576" font-family="Times,serif" font-size="14.00" fill="#000000">Validar credenciales</text>
</g>
<!-- registrar&#45;&gt;validar -->
<g id="edge2" class="edge">
<title>registrar-&gt;validar</title>
<path fill="none" stroke="#000000" d="M72.89,-520.0603C72.6421,-509.0826 74.1088,-495.3539 81.2215,-485.4576 87.0786,-477.3083 95.2739,-470.9366 104.1215,-465.9765"/>
<polygon fill="#000000" stroke="#000000" points="105.7464,-469.0772 113.124,-461.4732 102.6147,-462.8167 105.7464,-469.0772"/>
<text text-anchor="middle" x="148.6926" y="-489.6576" font-family="Times,serif" font-size="14.00" fill="#000000">¿Credenciales válidas?</text>
</g>
<!-- login -->
<g id="node4" class="node">
<title>login</title>
<polygon fill="none" stroke="#000000" points="122.556,-299.5901 27.1818,-299.5901 27.1818,-263.5901 122.556,-263.5901 122.556,-299.5901"/>
<text text-anchor="middle" x="74.8689" y="-277.3901" font-family="Times,serif" font-size="14.00" fill="#000000">Iniciar sesión</text>
</g>
<!-- validar&#45;&gt;login -->
<g id="edge3" class="edge">
<title>validar-&gt;login</title>
<path fill="none" stroke="#000000" d="M148.555,-432.4377C134.338,-403.3332 105.2415,-343.7679 88.1727,-308.8252"/>
<polygon fill="#000000" stroke="#000000" points="91.2337,-307.1173 83.6997,-299.6682 84.944,-310.1897 91.2337,-307.1173"/>
<text text-anchor="middle" x="147.4208" y="-400.8576" font-family="Times,serif" font-size="14.00" fill="#000000">Sí</text>
</g>
<!-- fail -->
<g id="node7" class="node">
<title>fail</title>
<ellipse fill="none" stroke="#000000" cx="237.8689" cy="-281.5901" rx="93.1321" ry="93.1321"/>
<ellipse fill="none" stroke="#000000" cx="237.8689" cy="-281.5901" rx="97.1349" ry="97.1349"/>
<text text-anchor="middle" x="237.8689" y="-277.3901" font-family="Times,serif" font-size="14.00" fill="#000000">Error en credenciales</text>
</g>
<!-- validar&#45;&gt;fail -->
<g id="edge4" class="edge">
<title>validar-&gt;fail</title>
<path fill="none" stroke="#000000" d="M165.0814,-432.4377C171.5568,-419.0179 181.157,-399.1219 191.2766,-378.1497"/>
<polygon fill="#000000" stroke="#000000" points="194.4442,-379.6389 195.6378,-369.1115 188.1397,-376.5968 194.4442,-379.6389"/>
<text text-anchor="middle" x="188.4222" y="-400.8576" font-family="Times,serif" font-size="14.00" fill="#000000">No</text>
</g>
<!-- success -->
<g id="node6" class="node">
<title>success</title>
<ellipse fill="none" stroke="#000000" cx="74.8689" cy="-73.7614" rx="69.5364" ry="69.5364"/>
<ellipse fill="none" stroke="#000000" cx="74.8689" cy="-73.7614" rx="73.5235" ry="73.5235"/>
<text text-anchor="middle" x="74.8689" y="-69.5614" font-family="Times,serif" font-size="14.00" fill="#000000">Acceso exitoso</text>
</g>
<!-- login&#45;&gt;success -->
<g id="edge5" class="edge">
<title>login-&gt;success</title>
<path fill="none" stroke="#000000" d="M74.8689,-263.5103C74.8689,-239.9398 74.8689,-197.1117 74.8689,-158.1019"/>
<polygon fill="#000000" stroke="#000000" points="78.369,-157.7519 74.8689,-147.7519 71.369,-157.7519 78.369,-157.7519"/>
</g>
<!-- recuperar -->
<g id="node5" class="node">
<title>recuperar</title>
<polygon fill="none" stroke="#000000" points="309.4007,-556.2576 168.3371,-556.2576 168.3371,-520.2576 309.4007,-520.2576 309.4007,-556.2576"/>
<text text-anchor="middle" x="238.8689" y="-534.0576" font-family="Times,serif" font-size="14.00" fill="#000000">Recuperar contraseña</text>
</g>
<!-- recuperar&#45;&gt;validar -->
<g id="edge6" class="edge">
<title>recuperar-&gt;validar</title>
<path fill="none" stroke="#000000" d="M234.4165,-520.076C231.0203,-509.1042 225.439,-495.3763 216.8689,-485.4576 211.2176,-478.9169 204.0724,-473.231 196.7003,-468.4299"/>
<polygon fill="#000000" stroke="#000000" points="198.3903,-465.362 188.0179,-463.2021 194.7795,-471.3589 198.3903,-465.362"/>
<text text-anchor="middle" x="275.8493" y="-489.6576" font-family="Times,serif" font-size="14.00" fill="#000000">Intentar de nuevo</text>
</g>
</g>
</svg>