<?xml version="1.0" encoding="UTF-8" standalone="no"?><!DOCTYPE svg PUBLIC "-//W3C//DTD SVG 1.1//EN" "http://www.w3.org/Graphics/SVG/1.1/DTD/svg11.dtd"><!-- Generated by graphviz version 2.40.1 (20161225.0304)
 --><!-- Title: ConsultaEstadisticas Pages: 1 --><svg xmlns="http://www.w3.org/2000/svg" xmlns:xlink="http://www.w3.org/1999/xlink" width="870pt" height="111pt" viewBox="0.00 0.00 869.73 110.68">
<g id="graph0" class="graph" transform="scale(1 1) rotate(0) translate(4 106.6834)">
<title>ConsultaEstadisticas</title>
<polygon fill="#ffffff" stroke="transparent" points="-4,4 -4,-106.6834 865.731,-106.6834 865.731,4 -4,4"/>
<!-- Usuario -->
<g id="node1" class="node">
<title>Usuario</title>
<path fill="none" stroke="#000000" d="M45.5002,-75.8834C45.5002,-75.8834 11.8326,-75.8834 11.8326,-75.8834 5.8326,-75.8834 -.1674,-69.8834 -.1674,-63.8834 -.1674,-63.8834 -.1674,-51.8834 -.1674,-51.8834 -.1674,-45.8834 5.8326,-39.8834 11.8326,-39.8834 11.8326,-39.8834 45.5002,-39.8834 45.5002,-39.8834 51.5002,-39.8834 57.5002,-45.8834 57.5002,-51.8834 57.5002,-51.8834 57.5002,-63.8834 57.5002,-63.8834 57.5002,-69.8834 51.5002,-75.8834 45.5002,-75.8834"/>
<text text-anchor="middle" x="28.6664" y="-54.2834" font-family="Arial" font-size="12.00" fill="#000000">Usuario</text>
</g>
<!-- Frontend -->
<g id="node2" class="node">
<title>Frontend</title>
<path fill="none" stroke="#000000" d="M317.14,-75.8834C317.14,-75.8834 277.1112,-75.8834 277.1112,-75.8834 271.1112,-75.8834 265.1112,-69.8834 265.1112,-63.8834 265.1112,-63.8834 265.1112,-51.8834 265.1112,-51.8834 265.1112,-45.8834 271.1112,-39.8834 277.1112,-39.8834 277.1112,-39.8834 317.14,-39.8834 317.14,-39.8834 323.14,-39.8834 329.14,-45.8834 329.14,-51.8834 329.14,-51.8834 329.14,-63.8834 329.14,-63.8834 329.14,-69.8834 323.14,-75.8834 317.14,-75.8834"/>
<text text-anchor="middle" x="297.1256" y="-54.2834" font-family="Arial" font-size="12.00" fill="#000000">Frontend</text>
</g>
<!-- Usuario&#45;&gt;Frontend -->
<g id="edge1" class="edge">
<title>Usuario-&gt;Frontend</title>
<path fill="none" stroke="#000000" d="M57.5606,-70.9099C63.337,-72.9736 69.4423,-74.7867 75.3328,-75.8834 150.3922,-89.8575 171.9057,-89.0075 247.1184,-75.8834 249.7956,-75.4162 252.5187,-74.8183 255.2418,-74.1259"/>
<polygon fill="#000000" stroke="#000000" points="256.4022,-77.4332 265.0197,-71.2697 254.4394,-70.714 256.4022,-77.4332"/>
<text text-anchor="middle" x="161.2256" y="-90.0834" font-family="Times,serif" font-size="14.00" fill="#000000">Seleccionar 'Ver estadísticas'</text>
</g>
<!-- Usuario&#45;&gt;Frontend -->
<g id="edge7" class="edge">
<title>Usuario-&gt;Frontend</title>
<path fill="none" stroke="#000000" d="M57.7799,-55.8665C63.5915,-55.5401 69.6539,-55.2536 75.3328,-55.0834 151.6477,-52.796 170.7991,-52.9484 247.1184,-55.0834 249.6282,-55.1536 252.2081,-55.2436 254.8102,-55.348"/>
<polygon fill="#000000" stroke="#000000" points="254.7056,-58.8468 264.8562,-55.8109 255.0279,-51.8542 254.7056,-58.8468"/>
<text text-anchor="middle" x="161.2256" y="-59.0834" font-family="Times,serif" font-size="14.00" fill="#000000">Descargar reporte (opcional)</text>
</g>
<!-- Frontend&#45;&gt;Usuario -->
<g id="edge6" class="edge">
<title>Frontend-&gt;Usuario</title>
<path fill="none" stroke="#000000" d="M279.8919,-39.8767C270.9686,-31.856 259.3856,-23.2843 247.1184,-19.0834 174.8872,5.6522 147.1363,6.8675 75.3328,-19.0834 67.0711,-22.0693 59.241,-27.2257 52.4375,-32.8223"/>
<polygon fill="#000000" stroke="#000000" points="50.0932,-30.2233 44.9582,-39.4905 54.7516,-35.4482 50.0932,-30.2233"/>
<text text-anchor="middle" x="161.2256" y="-23.0834" font-family="Times,serif" font-size="14.00" fill="#000000">Mostrar estadísticas</text>
</g>
<!-- Backend -->
<g id="node3" class="node">
<title>Backend</title>
<path fill="none" stroke="#000000" d="M596.4348,-75.8834C596.4348,-75.8834 558.0612,-75.8834 558.0612,-75.8834 552.0612,-75.8834 546.0612,-69.8834 546.0612,-63.8834 546.0612,-63.8834 546.0612,-51.8834 546.0612,-51.8834 546.0612,-45.8834 552.0612,-39.8834 558.0612,-39.8834 558.0612,-39.8834 596.4348,-39.8834 596.4348,-39.8834 602.4348,-39.8834 608.4348,-45.8834 608.4348,-51.8834 608.4348,-51.8834 608.4348,-63.8834 608.4348,-63.8834 608.4348,-69.8834 602.4348,-75.8834 596.4348,-75.8834"/>
<text text-anchor="middle" x="577.248" y="-54.2834" font-family="Arial" font-size="12.00" fill="#000000">Backend</text>
</g>
<!-- Frontend&#45;&gt;Backend -->
<g id="edge2" class="edge">
<title>Frontend-&gt;Backend</title>
<path fill="none" stroke="#000000" d="M329.2592,-57.8834C380.1572,-57.8834 479.3039,-57.8834 535.5923,-57.8834"/>
<polygon fill="#000000" stroke="#000000" points="535.9171,-61.3835 545.9171,-57.8834 535.9171,-54.3835 535.9171,-61.3835"/>
<text text-anchor="middle" x="437.5189" y="-62.0834" font-family="Times,serif" font-size="14.00" fill="#000000">Solicitar estadísticas con filtros</text>
</g>
<!-- Backend&#45;&gt;Frontend -->
<g id="edge5" class="edge">
<title>Backend-&gt;Frontend</title>
<path fill="none" stroke="#000000" d="M545.9913,-42.5272C540.1118,-40.2705 533.919,-38.2991 527.905,-37.0834 449.1548,-21.1635 425.9207,-21.3512 347.1328,-37.0834 344.4588,-37.6173 341.7488,-38.2972 339.0455,-39.0831"/>
<polygon fill="#000000" stroke="#000000" points="337.7344,-35.831 329.3607,-42.3219 339.9545,-42.4696 337.7344,-35.831"/>
<text text-anchor="middle" x="437.5189" y="-41.0834" font-family="Times,serif" font-size="14.00" fill="#000000">Enviar resultados</text>
</g>
<!-- BaseDeDatos -->
<g id="node4" class="node">
<title>BaseDeDatos</title>
<path fill="none" stroke="#000000" d="M849.7396,-75.8834C849.7396,-75.8834 783.7052,-75.8834 783.7052,-75.8834 777.7052,-75.8834 771.7052,-69.8834 771.7052,-63.8834 771.7052,-63.8834 771.7052,-51.8834 771.7052,-51.8834 771.7052,-45.8834 777.7052,-39.8834 783.7052,-39.8834 783.7052,-39.8834 849.7396,-39.8834 849.7396,-39.8834 855.7396,-39.8834 861.7396,-45.8834 861.7396,-51.8834 861.7396,-51.8834 861.7396,-63.8834 861.7396,-63.8834 861.7396,-69.8834 855.7396,-75.8834 849.7396,-75.8834"/>
<text text-anchor="middle" x="816.7224" y="-54.2834" font-family="Arial" font-size="12.00" fill="#000000">BaseDeDatos</text>
</g>
<!-- Backend&#45;&gt;BaseDeDatos -->
<g id="edge3" class="edge">
<title>Backend-&gt;BaseDeDatos</title>
<path fill="none" stroke="#000000" d="M608.5551,-57.8834C647.2969,-57.8834 713.945,-57.8834 761.3885,-57.8834"/>
<polygon fill="#000000" stroke="#000000" points="761.5032,-61.3835 771.5032,-57.8834 761.5032,-54.3835 761.5032,-61.3835"/>
<text text-anchor="middle" x="690.1524" y="-62.0834" font-family="Times,serif" font-size="14.00" fill="#000000">Consultar estadísticas</text>
</g>
<!-- BaseDeDatos&#45;&gt;Backend -->
<g id="edge4" class="edge">
<title>BaseDeDatos-&gt;Backend</title>
<path fill="none" stroke="#000000" d="M771.3782,-41.0252C765.5044,-39.4026 759.5143,-38.016 753.7138,-37.0834 697.9313,-28.1141 681.9698,-25.8882 626.591,-37.0834 623.7719,-37.6533 620.9136,-38.3892 618.0666,-39.2427"/>
<polygon fill="#000000" stroke="#000000" points="616.8252,-35.9683 608.5047,-42.5272 619.0993,-42.5886 616.8252,-35.9683"/>
<text text-anchor="middle" x="690.1524" y="-41.0834" font-family="Times,serif" font-size="14.00" fill="#000000">Datos estadísticos</text>
</g>
</g>
</svg>