<?xml version="1.0" encoding="UTF-8" standalone="no"?><!DOCTYPE svg PUBLIC "-//W3C//DTD SVG 1.1//EN" "http://www.w3.org/Graphics/SVG/1.1/DTD/svg11.dtd"><!-- Generated by graphviz version 2.40.1 (20161225.0304)
 --><!-- Title: RegistroInicioSesion Pages: 1 --><svg xmlns="http://www.w3.org/2000/svg" xmlns:xlink="http://www.w3.org/1999/xlink" width="694pt" height="212pt" viewBox="0.00 0.00 694.11 212.00">
<g id="graph0" class="graph" transform="scale(1 1) rotate(0) translate(4 208)">
<title>RegistroInicioSesion</title>
<polygon fill="#ffffff" stroke="transparent" points="-4,4 -4,-208 690.1097,-208 690.1097,4 -4,4"/>
<!-- EquipoEditorial -->
<g id="node1" class="node">
<title>EquipoEditorial</title>
<ellipse fill="#add8e6" stroke="#add8e6" cx="73.5276" cy="-74" rx="73.5551" ry="18"/>
<text text-anchor="middle" x="73.5276" y="-69.8" font-family="Times,serif" font-size="14.00" fill="#000000">Equipo editorial</text>
</g>
<!-- RegistroUsuario -->
<g id="node5" class="node">
<title>RegistroUsuario</title>
<ellipse fill="none" stroke="#000000" cx="274.1762" cy="-82" rx="86.2561" ry="18"/>
<text text-anchor="middle" x="274.1762" y="-77.8" font-family="Times,serif" font-size="14.00" fill="#000000">Registro de usuario</text>
</g>
<!-- EquipoEditorial&#45;&gt;RegistroUsuario -->
<g id="edge1" class="edge">
<title>EquipoEditorial-&gt;RegistroUsuario</title>
<path fill="none" stroke="#000000" d="M146.25,-76.8995C156.9834,-77.3274 168.1738,-77.7736 179.2754,-78.2162"/>
<polygon fill="#000000" stroke="#000000" points="179.2986,-81.7199 189.4302,-78.6211 179.5776,-74.7254 179.2986,-81.7199"/>
</g>
<!-- AutoRegistro -->
<g id="node6" class="node">
<title>AutoRegistro</title>
<ellipse fill="none" stroke="#000000" cx="274.1762" cy="-23" rx="63.1189" ry="18"/>
<text text-anchor="middle" x="274.1762" y="-18.8" font-family="Times,serif" font-size="14.00" fill="#000000">Auto-registro</text>
</g>
<!-- EquipoEditorial&#45;&gt;AutoRegistro -->
<g id="edge2" class="edge">
<title>EquipoEditorial-&gt;AutoRegistro</title>
<path fill="none" stroke="#000000" d="M124.6789,-60.9986C152.8255,-53.8444 187.8325,-44.9465 216.8938,-37.5598"/>
<polygon fill="#000000" stroke="#000000" points="218.0745,-40.871 226.9042,-35.0154 216.3501,-34.0868 218.0745,-40.871"/>
</g>
<!-- Autor -->
<g id="node2" class="node">
<title>Autor</title>
<ellipse fill="#add8e6" stroke="#add8e6" cx="73.5276" cy="-18" rx="33.6266" ry="18"/>
<text text-anchor="middle" x="73.5276" y="-13.8" font-family="Times,serif" font-size="14.00" fill="#000000">Autor</text>
</g>
<!-- Autor&#45;&gt;RegistroUsuario -->
<g id="edge3" class="edge">
<title>Autor-&gt;RegistroUsuario</title>
<path fill="none" stroke="#000000" d="M102.7036,-27.3061C132.5361,-36.8217 179.6614,-51.853 216.9656,-63.7518"/>
<polygon fill="#000000" stroke="#000000" points="216.121,-67.1561 226.7117,-66.8605 218.2482,-60.4871 216.121,-67.1561"/>
</g>
<!-- Autor&#45;&gt;AutoRegistro -->
<g id="edge4" class="edge">
<title>Autor-&gt;AutoRegistro</title>
<path fill="none" stroke="#000000" d="M107.1116,-18.8369C132.6811,-19.4741 168.8361,-20.375 200.9757,-21.1759"/>
<polygon fill="#000000" stroke="#000000" points="201.1669,-24.6817 211.251,-21.432 201.3413,-17.6838 201.1669,-24.6817"/>
</g>
<!-- Dictaminador -->
<g id="node3" class="node">
<title>Dictaminador</title>
<ellipse fill="#add8e6" stroke="#add8e6" cx="73.5276" cy="-183" rx="64.263" ry="18"/>
<text text-anchor="middle" x="73.5276" y="-178.8" font-family="Times,serif" font-size="14.00" fill="#000000">Dictaminador</text>
</g>
<!-- ValidarCredenciales -->
<g id="node7" class="node">
<title>ValidarCredenciales</title>
<ellipse fill="none" stroke="#000000" cx="274.1762" cy="-159" rx="90.2423" ry="18"/>
<text text-anchor="middle" x="274.1762" y="-154.8" font-family="Times,serif" font-size="14.00" fill="#000000">Validar credenciales</text>
</g>
<!-- Dictaminador&#45;&gt;ValidarCredenciales -->
<g id="edge5" class="edge">
<title>Dictaminador-&gt;ValidarCredenciales</title>
<path fill="none" stroke="#000000" d="M132.6435,-175.929C149.5173,-173.9107 168.2735,-171.6672 186.4672,-169.4911"/>
<polygon fill="#000000" stroke="#000000" points="186.988,-172.9538 196.5015,-168.2908 186.1566,-166.0033 186.988,-172.9538"/>
</g>
<!-- Consejero -->
<g id="node4" class="node">
<title>Consejero</title>
<ellipse fill="#add8e6" stroke="#add8e6" cx="73.5276" cy="-129" rx="50.38" ry="18"/>
<text text-anchor="middle" x="73.5276" y="-124.8" font-family="Times,serif" font-size="14.00" fill="#000000">Consejero</text>
</g>
<!-- Consejero&#45;&gt;ValidarCredenciales -->
<g id="edge6" class="edge">
<title>Consejero-&gt;ValidarCredenciales</title>
<path fill="none" stroke="#000000" d="M120.0647,-135.958C141.4322,-139.1528 167.4214,-143.0385 191.9233,-146.7019"/>
<polygon fill="#000000" stroke="#000000" points="191.5424,-150.1838 201.9501,-148.2011 192.5776,-143.2608 191.5424,-150.1838"/>
</g>
<!-- SeguimientoProceso -->
<g id="node8" class="node">
<title>SeguimientoProceso</title>
<ellipse fill="none" stroke="#000000" cx="579.5979" cy="-186" rx="106.5236" ry="18"/>
<text text-anchor="middle" x="579.5979" y="-181.8" font-family="Times,serif" font-size="14.00" fill="#000000">Seguimiento del proceso</text>
</g>
<!-- ValidarCredenciales&#45;&gt;SeguimientoProceso -->
<g id="edge7" class="edge">
<title>ValidarCredenciales-&gt;SeguimientoProceso</title>
<path fill="none" stroke="#000000" d="M356.8277,-166.3066C393.1543,-169.5179 436.2335,-173.3262 474.7823,-176.734"/>
<polygon fill="#000000" stroke="#000000" points="474.7307,-180.2431 485.0001,-177.6373 475.3472,-173.2702 474.7307,-180.2431"/>
<text text-anchor="middle" x="418.6917" y="-178.2" font-family="Times,serif" font-size="14.00" fill="#000000">&lt;&lt;include&gt;&gt;</text>
</g>
<!-- VisualizarEstadisticas -->
<g id="node9" class="node">
<title>VisualizarEstadisticas</title>
<ellipse fill="none" stroke="#000000" cx="579.5979" cy="-132" rx="102.435" ry="18"/>
<text text-anchor="middle" x="579.5979" y="-127.8" font-family="Times,serif" font-size="14.00" fill="#000000">Visualizar Estadísticas</text>
</g>
<!-- ValidarCredenciales&#45;&gt;VisualizarEstadisticas -->
<g id="edge8" class="edge">
<title>ValidarCredenciales-&gt;VisualizarEstadisticas</title>
<path fill="none" stroke="#000000" d="M354.4601,-150.8217C363.8425,-149.913 373.2796,-149.0205 382.2973,-148.2 412.5873,-145.4439 445.5129,-142.6574 475.6324,-140.1909"/>
<polygon fill="#000000" stroke="#000000" points="476.049,-143.6686 485.7314,-139.3672 475.4799,-136.6918 476.049,-143.6686"/>
<text text-anchor="middle" x="418.6917" y="-152.2" font-family="Times,serif" font-size="14.00" fill="#000000">&lt;&lt;extend&gt;&gt;</text>
</g>
</g>
</svg>