<?xml version="1.0" encoding="UTF-8" standalone="no"?><!DOCTYPE svg PUBLIC "-//W3C//DTD SVG 1.1//EN" "http://www.w3.org/Graphics/SVG/1.1/DTD/svg11.dtd"><!-- Generated by graphviz version 2.40.1 (20161225.0304)
 --><!-- Title: ArquitecturaJoUdeG Pages: 1 --><svg xmlns="http://www.w3.org/2000/svg" xmlns:xlink="http://www.w3.org/1999/xlink" width="1163pt" height="402pt" viewBox="0.00 0.00 1163.42 402.00">
<g id="graph0" class="graph" transform="scale(1 1) rotate(0) translate(4 398)">
<title>ArquitecturaJoUdeG</title>
<polygon fill="#ffffff" stroke="transparent" points="-4,4 -4,-398 1159.4196,-398 1159.4196,4 -4,4"/>
<g id="clust1" class="cluster">
<title>cluster_presentation</title>
<polygon fill="#cce5ff" stroke="#cce5ff" points="6,-157 6,-234 146.998,-234 146.998,-157 6,-157"/>
<text text-anchor="middle" x="76.499" y="-217.4" font-family="Times,serif" font-size="14.00" fill="#004085">Capa de Presentación</text>
</g>
<g id="clust2" class="cluster">
<title>cluster_backend</title>
<polygon fill="#d4edda" stroke="#d4edda" points="314.3788,-147 314.3788,-386 900.9086,-386 900.9086,-147 314.3788,-147"/>
<text text-anchor="middle" x="607.6437" y="-369.4" font-family="Times,serif" font-size="14.00" fill="#155724">Backend</text>
</g>
<g id="clust3" class="cluster">
<title>cluster_data_layer</title>
<polygon fill="#fff3cd" stroke="#fff3cd" points="1006.072,-150 1006.072,-281 1147.4196,-281 1147.4196,-150 1006.072,-150"/>
<text text-anchor="middle" x="1076.7458" y="-264.4" font-family="Times,serif" font-size="14.00" fill="#856404">Capa de Datos</text>
</g>
<g id="clust4" class="cluster">
<title>cluster_external_services</title>
<polygon fill="#f8d7da" stroke="#f8d7da" points="548.515,-8 548.515,-139 701.211,-139 701.211,-8 548.515,-8"/>
<text text-anchor="middle" x="624.863" y="-122.4" font-family="Times,serif" font-size="14.00" fill="#721c24">Servicios Externos</text>
</g>
<!-- Web App -->
<g id="node1" class="node">
<title>Web App</title>
<path fill="#e9f7fe" stroke="#000000" d="M123.997,-201.3005C123.997,-201.3005 28.001,-201.3005 28.001,-201.3005 22.001,-201.3005 16.001,-195.3005 16.001,-189.3005 16.001,-189.3005 16.001,-176.6995 16.001,-176.6995 16.001,-170.6995 22.001,-164.6995 28.001,-164.6995 28.001,-164.6995 123.997,-164.6995 123.997,-164.6995 129.997,-164.6995 135.997,-170.6995 135.997,-176.6995 135.997,-176.6995 135.997,-189.3005 135.997,-189.3005 135.997,-195.3005 129.997,-201.3005 123.997,-201.3005"/>
<text text-anchor="middle" x="75.999" y="-186.6" font-family="Arial" font-size="12.00" fill="#000000">Web App</text>
<text text-anchor="middle" x="75.999" y="-172.2" font-family="Arial" font-size="12.00" fill="#000000">(HTML, CSS, Java)</text>
</g>
<!-- API REST -->
<g id="node2" class="node">
<title>API REST</title>
<path fill="#f1fdf3" stroke="#000000" d="M425.9085,-201.3005C425.9085,-201.3005 334.2019,-201.3005 334.2019,-201.3005 328.2019,-201.3005 322.2019,-195.3005 322.2019,-189.3005 322.2019,-189.3005 322.2019,-176.6995 322.2019,-176.6995 322.2019,-170.6995 328.2019,-164.6995 334.2019,-164.6995 334.2019,-164.6995 425.9085,-164.6995 425.9085,-164.6995 431.9085,-164.6995 437.9085,-170.6995 437.9085,-176.6995 437.9085,-176.6995 437.9085,-189.3005 437.9085,-189.3005 437.9085,-195.3005 431.9085,-201.3005 425.9085,-201.3005"/>
<text text-anchor="middle" x="380.0552" y="-186.6" font-family="Arial" font-size="12.00" fill="#000000">API REST</text>
<text text-anchor="middle" x="380.0552" y="-172.2" font-family="Arial" font-size="12.00" fill="#000000">(Java Spring Boot)</text>
</g>
<!-- Web App&#45;&gt;API REST -->
<g id="edge1" class="edge">
<title>Web App-&gt;API REST</title>
<path fill="none" stroke="#000000" d="M136.0707,-183C186.6934,-183 259.1052,-183 311.8886,-183"/>
<polygon fill="#000000" stroke="#000000" points="312.1713,-186.5001 322.1713,-183 312.1712,-179.5001 312.1713,-186.5001"/>
<text text-anchor="middle" x="230.6884" y="-187.2" font-family="Times,serif" font-size="14.00" fill="#000000">Solicitudes HTTP/HTTPS</text>
</g>
<!-- Gestor de Usuarios -->
<g id="node3" class="node">
<title>Gestor de Usuarios</title>
<path fill="#f1fdf3" stroke="#000000" d="M859.4103,-353C859.4103,-353 763.7093,-353 763.7093,-353 757.7093,-353 751.7093,-347 751.7093,-341 751.7093,-341 751.7093,-329 751.7093,-329 751.7093,-323 757.7093,-317 763.7093,-317 763.7093,-317 859.4103,-317 859.4103,-317 865.4103,-317 871.4103,-323 871.4103,-329 871.4103,-329 871.4103,-341 871.4103,-341 871.4103,-347 865.4103,-353 859.4103,-353"/>
<text text-anchor="middle" x="811.5598" y="-331.4" font-family="Arial" font-size="12.00" fill="#000000">Gestor de Usuarios</text>
</g>
<!-- API REST&#45;&gt;Gestor de Usuarios -->
<g id="edge2" class="edge">
<title>API REST-&gt;Gestor de Usuarios</title>
<path fill="none" stroke="#000000" d="M423.5014,-201.3086C434.0057,-205.5932 445.2318,-210.0554 455.7316,-214 576.4407,-259.3482 608.0234,-266.8012 730.211,-308 735.7213,-309.8579 741.4448,-311.7778 747.1882,-313.6974"/>
<polygon fill="#000000" stroke="#000000" points="746.2446,-317.0722 756.8383,-316.9167 748.4598,-310.4319 746.2446,-317.0722"/>
</g>
<!-- Gestor de Artículos -->
<g id="node4" class="node">
<title>Gestor de Artículos</title>
<path fill="#f1fdf3" stroke="#000000" d="M861.4039,-299C861.4039,-299 761.7157,-299 761.7157,-299 755.7157,-299 749.7157,-293 749.7157,-287 749.7157,-287 749.7157,-275 749.7157,-275 749.7157,-269 755.7157,-263 761.7157,-263 761.7157,-263 861.4039,-263 861.4039,-263 867.4039,-263 873.4039,-269 873.4039,-275 873.4039,-275 873.4039,-287 873.4039,-287 873.4039,-293 867.4039,-299 861.4039,-299"/>
<text text-anchor="middle" x="811.5598" y="-277.4" font-family="Arial" font-size="12.00" fill="#000000">Gestor de Artículos</text>
</g>
<!-- API REST&#45;&gt;Gestor de Artículos -->
<g id="edge3" class="edge">
<title>API REST-&gt;Gestor de Artículos</title>
<path fill="none" stroke="#000000" d="M437.8021,-196.115C515.8917,-213.8501 655.1122,-245.4688 739.8221,-264.7075"/>
<polygon fill="#000000" stroke="#000000" points="739.0936,-268.1311 749.6205,-266.9328 740.644,-261.3049 739.0936,-268.1311"/>
</g>
<!-- Gestor de Dictámenes -->
<g id="node5" class="node">
<title>Gestor de Dictámenes</title>
<path fill="#f1fdf3" stroke="#000000" d="M867.7346,-245C867.7346,-245 755.385,-245 755.385,-245 749.385,-245 743.385,-239 743.385,-233 743.385,-233 743.385,-221 743.385,-221 743.385,-215 749.385,-209 755.385,-209 755.385,-209 867.7346,-209 867.7346,-209 873.7346,-209 879.7346,-215 879.7346,-221 879.7346,-221 879.7346,-233 879.7346,-233 879.7346,-239 873.7346,-245 867.7346,-245"/>
<text text-anchor="middle" x="811.5598" y="-223.4" font-family="Arial" font-size="12.00" fill="#000000">Gestor de Dictámenes</text>
</g>
<!-- API REST&#45;&gt;Gestor de Dictámenes -->
<g id="edge4" class="edge">
<title>API REST-&gt;Gestor de Dictámenes</title>
<path fill="none" stroke="#000000" d="M437.8021,-188.8884C513.8263,-196.6405 647.7904,-210.3006 732.9883,-218.9882"/>
<polygon fill="#000000" stroke="#000000" points="732.8259,-222.4897 743.1294,-220.0222 733.536,-215.5258 732.8259,-222.4897"/>
</g>
<!-- Generador de Estadísticas -->
<g id="node6" class="node">
<title>Generador de Estadísticas</title>
<path fill="#f1fdf3" stroke="#000000" d="M880.7577,-191C880.7577,-191 742.3619,-191 742.3619,-191 736.3619,-191 730.3619,-185 730.3619,-179 730.3619,-179 730.3619,-167 730.3619,-167 730.3619,-161 736.3619,-155 742.3619,-155 742.3619,-155 880.7577,-155 880.7577,-155 886.7577,-155 892.7577,-161 892.7577,-167 892.7577,-167 892.7577,-179 892.7577,-179 892.7577,-185 886.7577,-191 880.7577,-191"/>
<text text-anchor="middle" x="811.5598" y="-169.4" font-family="Arial" font-size="12.00" fill="#000000">Generador de Estadísticas</text>
</g>
<!-- API REST&#45;&gt;Generador de Estadísticas -->
<g id="edge5" class="edge">
<title>API REST-&gt;Generador de Estadísticas</title>
<path fill="none" stroke="#000000" d="M437.8021,-181.6617C510.0747,-179.9868 634.7101,-177.0984 720.0321,-175.1211"/>
<polygon fill="#000000" stroke="#000000" points="720.32,-178.6155 730.2362,-174.8847 720.1578,-171.6174 720.32,-178.6155"/>
</g>
<!-- ORCID API -->
<g id="node9" class="node">
<title>ORCID API</title>
<path fill="#fdecea" stroke="#000000" d="M681.0593,-106C681.0593,-106 568.6667,-106 568.6667,-106 562.6667,-106 556.6667,-100 556.6667,-94 556.6667,-94 556.6667,-82 556.6667,-82 556.6667,-76 562.6667,-70 568.6667,-70 568.6667,-70 681.0593,-70 681.0593,-70 687.0593,-70 693.0593,-76 693.0593,-82 693.0593,-82 693.0593,-94 693.0593,-94 693.0593,-100 687.0593,-106 681.0593,-106"/>
<text text-anchor="middle" x="624.863" y="-84.4" font-family="Arial" font-size="12.00" fill="#000000">Validación de Autores</text>
</g>
<!-- API REST&#45;&gt;ORCID API -->
<g id="edge11" class="edge">
<title>API REST-&gt;ORCID API</title>
<path fill="none" stroke="#000000" d="M427.2566,-164.683C467.6876,-148.9934 525.991,-126.3682 568.7916,-109.759"/>
<polygon fill="#000000" stroke="#000000" points="570.1658,-112.9801 578.2222,-106.0994 567.6334,-106.4543 570.1658,-112.9801"/>
<text text-anchor="middle" x="497.1233" y="-156.2" font-family="Times,serif" font-size="14.00" fill="#000000">Validación</text>
</g>
<!-- Sistema de Notificaciones -->
<g id="node10" class="node">
<title>Sistema de Notificaciones</title>
<path fill="#fdecea" stroke="#000000" d="M672.6991,-52C672.6991,-52 577.0269,-52 577.0269,-52 571.0269,-52 565.0269,-46 565.0269,-40 565.0269,-40 565.0269,-28 565.0269,-28 565.0269,-22 571.0269,-16 577.0269,-16 577.0269,-16 672.6991,-16 672.6991,-16 678.6991,-16 684.6991,-22 684.6991,-28 684.6991,-28 684.6991,-40 684.6991,-40 684.6991,-46 678.6991,-52 672.6991,-52"/>
<text text-anchor="middle" x="624.863" y="-30.4" font-family="Arial" font-size="12.00" fill="#000000">Correo Electrónico</text>
</g>
<!-- API REST&#45;&gt;Sistema de Notificaciones -->
<g id="edge12" class="edge">
<title>API REST-&gt;Sistema de Notificaciones</title>
<path fill="none" stroke="#000000" d="M394.0356,-164.5699C408.0986,-147.006 431.1683,-120.7132 455.7316,-103.2 485.697,-81.8352 523.2327,-65.624 555.3255,-54.2825"/>
<polygon fill="#000000" stroke="#000000" points="556.7802,-57.4834 565.0963,-50.9188 554.5016,-50.8646 556.7802,-57.4834"/>
<text text-anchor="middle" x="497.1233" y="-107.2" font-family="Times,serif" font-size="14.00" fill="#000000">Envía correos</text>
</g>
<!-- Base de Datos Relacional -->
<g id="node7" class="node">
<title>Base de Datos Relacional</title>
<path fill="#fffbea" stroke="#000000" d="M1126.9374,-248C1126.9374,-248 1026.5542,-248 1026.5542,-248 1020.5542,-248 1014.5542,-242 1014.5542,-236 1014.5542,-236 1014.5542,-224 1014.5542,-224 1014.5542,-218 1020.5542,-212 1026.5542,-212 1026.5542,-212 1126.9374,-212 1126.9374,-212 1132.9374,-212 1138.9374,-218 1138.9374,-224 1138.9374,-224 1138.9374,-236 1138.9374,-236 1138.9374,-242 1132.9374,-248 1126.9374,-248"/>
<text text-anchor="middle" x="1076.7458" y="-226.4" font-family="Arial" font-size="12.00" fill="#000000">PostgreSQL/MySQL</text>
</g>
<!-- Gestor de Usuarios&#45;&gt;Base de Datos Relacional -->
<g id="edge6" class="edge">
<title>Gestor de Usuarios-&gt;Base de Datos Relacional</title>
<path fill="none" stroke="#000000" d="M871.4396,-317.849C881.3413,-314.7433 891.456,-311.4043 900.9086,-308 944.0738,-292.4542 954.1626,-286.6682 996.072,-268 1007.1206,-263.0785 1018.939,-257.6218 1030.0284,-252.4149"/>
<polygon fill="#000000" stroke="#000000" points="1031.5882,-255.5491 1039.1391,-248.1171 1028.6016,-249.2181 1031.5882,-255.5491"/>
<text text-anchor="middle" x="953.4903" y="-307.2" font-family="Times,serif" font-size="14.00" fill="#000000">Consultas SQL</text>
</g>
<!-- Gestor de Artículos&#45;&gt;Base de Datos Relacional -->
<g id="edge7" class="edge">
<title>Gestor de Artículos-&gt;Base de Datos Relacional</title>
<path fill="none" stroke="#000000" d="M873.3995,-269.1071C912.5644,-261.575 963.3767,-251.8029 1004.4098,-243.9115"/>
<polygon fill="#000000" stroke="#000000" points="1005.1892,-247.3258 1014.3483,-242.0002 1003.8672,-240.4518 1005.1892,-247.3258"/>
</g>
<!-- Gestor de Dictámenes&#45;&gt;Base de Datos Relacional -->
<g id="edge8" class="edge">
<title>Gestor de Dictámenes-&gt;Base de Datos Relacional</title>
<path fill="none" stroke="#000000" d="M879.8518,-227.7726C917.8877,-228.2029 965.2382,-228.7385 1003.9719,-229.1767"/>
<polygon fill="#000000" stroke="#000000" points="1004.0976,-232.6783 1014.1366,-229.2917 1004.1769,-225.6787 1004.0976,-232.6783"/>
</g>
<!-- Generador de Estadísticas&#45;&gt;Base de Datos Relacional -->
<g id="edge9" class="edge">
<title>Generador de Estadísticas-&gt;Base de Datos Relacional</title>
<path fill="none" stroke="#000000" d="M892.9265,-190.4892C928.5396,-198.1441 969.9789,-207.0511 1004.4878,-214.4686"/>
<polygon fill="#000000" stroke="#000000" points="1003.9801,-217.9393 1014.4923,-216.619 1005.4511,-211.0957 1003.9801,-217.9393"/>
</g>
<!-- Base de Datos NoSQL -->
<g id="node8" class="node">
<title>Base de Datos NoSQL</title>
<path fill="#fffbea" stroke="#000000" d="M1127.5939,-194C1127.5939,-194 1025.8977,-194 1025.8977,-194 1019.8977,-194 1013.8977,-188 1013.8977,-182 1013.8977,-182 1013.8977,-170 1013.8977,-170 1013.8977,-164 1019.8977,-158 1025.8977,-158 1025.8977,-158 1127.5939,-158 1127.5939,-158 1133.5939,-158 1139.5939,-164 1139.5939,-170 1139.5939,-170 1139.5939,-182 1139.5939,-182 1139.5939,-188 1133.5939,-194 1127.5939,-194"/>
<text text-anchor="middle" x="1076.7458" y="-172.4" font-family="Arial" font-size="12.00" fill="#000000">MongoDB (opcional)</text>
</g>
<!-- Generador de Estadísticas&#45;&gt;Base de Datos NoSQL -->
<g id="edge10" class="edge">
<title>Generador de Estadísticas-&gt;Base de Datos NoSQL</title>
<path fill="none" stroke="#000000" d="M892.8532,-173.2518C925.003,-173.4238 962.2796,-173.7132 996.072,-174.2 998.5847,-174.2362 1001.1413,-174.2762 1003.7234,-174.3192"/>
<polygon fill="#000000" stroke="#000000" points="1003.7088,-177.8194 1013.7698,-174.4988 1003.834,-170.8205 1003.7088,-177.8194"/>
<text text-anchor="middle" x="953.4903" y="-178.2" font-family="Times,serif" font-size="14.00" fill="#000000">Opcional</text>
</g>
</g>
</svg>