<?xml version="1.0" encoding="UTF-8" standalone="no"?>
<svg
   xmlns:dc="http://purl.org/dc/elements/1.1/"
   xmlns:cc="http://creativecommons.org/ns#"
   xmlns:rdf="http://www.w3.org/1999/02/22-rdf-syntax-ns#"
   xmlns:svg="http://www.w3.org/2000/svg"
   xmlns="http://www.w3.org/2000/svg"
   viewBox="0 0 257.33334 257.33334"
   height="257.33334"
   width="257.33334"
   xml:space="preserve"
   id="svg2"
   version="1.1"><metadata
     id="metadata8"><rdf:RDF><cc:Work
         rdf:about=""><dc:format>image/svg+xml</dc:format><dc:type
           rdf:resource="http://purl.org/dc/dcmitype/StillImage" /></cc:Work></rdf:RDF></metadata><defs
     id="defs6" /><g
     transform="matrix(1.3333333,0,0,-1.3333333,0,257.33333)"
     id="g10"><g
       transform="scale(0.1)"
       id="g12"><path
         id="path14"
         style="fill:#ffffff;fill-opacity:1;fill-rule:evenodd;stroke:none"
         d="M 0,1927.56 H 1927.56 V 0 H 0 v 1927.56" /><path
         id="path16"
         style="fill:#f9ab22;fill-opacity:1;fill-rule:nonzero;stroke:none"
         d="m 1055.49,1823.43 v -10.76 h 11.1 v -25.92 h -11.1 v -10.45 h -26.58 v 10.45 h -10.23 v 25.92 h 10.23 v 10.76 h 26.58" /><path
         id="path18"
         style="fill:#f9ab22;fill-opacity:1;fill-rule:nonzero;stroke:none"
         d="m 900.082,1823.43 v -10.76 h 10.34 v -25.92 h -10.34 v -10.45 h -26.207 v 10.45 h -10.883 v 25.92 h 10.883 v 10.76 h 26.207" /><path
         id="path20"
         style="fill:#1b2360;fill-opacity:1;fill-rule:nonzero;stroke:none"
         d="m 1048.27,1817.59 v -11.8 h 11.68 v -12.32 h -11.68 v -10.82 h -12.55 v 10.82 h -10.42 v 12.32 h 10.42 v 11.8 h 12.55" /><path
         id="path22"
         style="fill:#1b2360;fill-opacity:1;fill-rule:nonzero;stroke:none"
         d="m 892.516,1816.43 v -10.64 h 11.293 v -12.32 h -11.293 v -10.82 h -13.059 v 10.82 h -9.758 v 12.32 h 9.758 v 10.64 h 13.059" /><path
         id="path24"
         style="fill:#fab95f;fill-opacity:1;fill-rule:nonzero;stroke:none"
         d="m 966.75,85.0391 c 9.406,6.7968 70.5,49.9139 109.97,52.0509 l 187.71,0.781 c 24.14,1.942 45.96,9.738 66.61,20.66 40.1,24.934 62.51,67.371 62.89,114.106 v 438.086 l 89.74,-56.848 v 105.539 l 100.51,35.469 -145.66,95.394 c 0,0 52.18,35.836 65.41,59.973 l 0.78,153.08 c 1.96,23.36 -1.55,45.16 -20.64,58.8 -28.04,14.81 -56.86,28.42 -84.89,44.02 48.69,17.92 98.91,32.3 148.38,47.49 22.21,8.2 48.62,22.22 58.75,45.2 v 167.2 c -12.08,45.18 -61.86,69.97 -99.64,85.16 -155.01,50.62 -328.32,58.81 -501.63,62.32 v 35.64 h -16.739 v 50.99 h 51.499 v -10.67 h 44.31 v 70.09 h -44.31 v -10.62 h -51.499 v 50.91 h 14.419 v 42.66 c 0,0 -49.47,-0.79 -76.349,0 v -42.66 h 14.797 v -50.91 h -53.223 v 10.62 h -42.972 v -70.09 h 42.972 v 10.67 h 53.223 v -50.99 h -14.855 v -35.64 c -173.317,-4.3 -346.168,-14.02 -501.168,-63.5 -38.168,-15.95 -88.313,-36.49 -103.899,-81.67 l 0.301,-167.96 c 3.484,-17.52 20.242,-31.54 36.207,-37.38 56.48,-21.03 114.891,-36.23 170.211,-58.82 -35.824,-26.87 -99.711,-28.43 -106.328,-84.14 V 948.313 c 12.461,-27.258 63.492,-60.758 63.492,-60.758 L 341.023,792.145 442.457,754.746 V 651.172 l 86.668,62.641 V 292.09 c -0.781,-26.07 3.895,-51.004 10.91,-73.965 17.895,-49.473 69.699,-79.457 119.945,-82.965 66.227,0 132.028,4.289 199.028,0 37.308,-5.387 75.969,-25.23 105.445,-50.1209 z M 1235.61,1330.39 c -8.18,-5.06 -15.98,-13.23 -18.32,-22.21 v -164.75 c 2.34,-9.73 3.13,-20.23 10.93,-28.02 -63.89,22.18 -130.09,48.27 -194.36,73.98 -11.29,20.25 17.92,30.77 24.14,47.52 9.73,10.5 6.23,29.21 22.61,34.67 7.8,7.76 9.73,19.06 7.41,29.97 -2.74,6.63 -8.97,12.87 -14.04,17.54 -3.51,38.17 -33.88,75.15 -69.33,88.77 -35.041,15.6 -78.673,5.85 -107.474,-16.73 -24.543,-19.48 -37.016,-45.57 -42.844,-73.59 -7.012,-3.54 -13.23,-10.91 -15.203,-17.93 -2.719,-9.73 0.773,-18.68 5.844,-26.11 23.367,-13.21 21.031,-43.59 44.793,-59.96 5.449,-6.22 9.746,-13.62 6.617,-22.21 l -9.344,-5.84 -188.113,-72.82 -3.508,-0.78 c 12.457,10.13 10.531,26.49 12.867,40.9 v 154.2 c -6.25,22.22 -29.984,26.12 -47.527,32.72 -55.285,18.3 -110.996,35.08 -165.52,54.16 219.664,53.72 472.809,54.51 705.722,39.31 79.42,-6.6 157.33,-17.9 231.72,-37.37 l -197.07,-65.42 v 0" /><path
         id="path26"
         style="fill:#1b2360;fill-opacity:1;fill-rule:nonzero;stroke:none"
         d="m 994.539,1835.12 v -27.85 h -15.187 v -66.32 h 69.298 v 10.92 h 27.27 v -54.81 h -27.27 v 11.19 h -69.298 v -67.37 h 14.968 v -26.19 h -59.183 v 26.19 h 14.312 v 67.37 h -69.047 v -11.19 h -27.238 v 54.81 h 27.238 v -10.92 h 69.047 v 66.32 h -14.898 v 27.85 h 59.988" /><path
         id="path28"
         style="fill:#f9ab22;fill-opacity:1;fill-rule:nonzero;stroke:none"
         d="m 1056.57,1676.23 v -10.68 h 10.8 v -25.94 h -10.8 v -10.51 h -25.12 v 10.51 h -11.59 v 25.94 h 11.59 v 10.68 h 25.12" /><path
         id="path30"
         style="fill:#f9ab22;fill-opacity:1;fill-rule:nonzero;stroke:none"
         d="m 899.758,1676.23 v -10.96 h 10.664 v -25.21 h -10.664 v -11.36 h -26.145 v 11.36 h -10.91 v 25.21 h 10.91 v 10.96 h 26.145" /><path
         id="path32"
         style="fill:#1b2360;fill-opacity:1;fill-rule:nonzero;stroke:none"
         d="m 892.398,1669.59 v -10.51 h 10.047 v -13.43 h -10.047 v -9.92 h -12.273 v 9.92 h -10.996 v 13.43 h 10.996 v 10.51 h 12.273" /><path
         id="path34"
         style="fill:#1b2360;fill-opacity:1;fill-rule:nonzero;stroke:none"
         d="m 1049.29,1658.55 h 11.48 v -11.48 h -11.48 v -11.01 l -11.74,0.04 v 10.97 h -10.87 v 11.48 h 10.87 v 11.04 h 11.74 v -11.04" /><path
         id="path36"
         style="fill:#1b2360;fill-opacity:1;fill-rule:nonzero;stroke:none"
         d="m 1485.27,1541.86 c 36.18,-13.23 75.54,-27.26 99.71,-61.92 l -12.11,-2.73 13.26,-15.96 -14.03,-2.73 12.88,-18.7 -14.04,-3.89 15.19,-17.53 -15.97,-2.74 15.97,-19.85 h -16.77 l 15.62,-23.36 -18.72,1.16 c 0,0 6.61,-12.46 9.36,-18.7 -69.36,48.31 -153.47,61.93 -236.42,78.27 -268.73,37.39 -577.559,37.79 -838.11,-19.47 -51.012,-14.4 -102.035,-28.81 -146.043,-59.97 3.883,8.57 15.183,24.55 15.183,24.55 l -20.628,-1.95 17.511,24.14 -17.511,1.17 15.945,18.71 -17.141,3.49 15.981,16.73 -14.012,4.69 14.012,17.12 -14.785,3.52 12.851,15.97 c 0,0 -9,1.16 -12.851,2.73 36.222,40.89 87.605,52.58 136.312,67.38 230.535,49.83 481.356,53.76 728.286,36.59 92.68,-9.72 185.37,-19.45 271.07,-46.72" /><path
         id="path38"
         style="fill:#1b2360;fill-opacity:1;fill-rule:nonzero;stroke:none"
         d="m 951.289,1373.61 c -26.48,-4.29 -50.625,-14.02 -70.887,-32.71 9.364,27.65 40.145,51.78 70.129,56.09 l 0.758,-23.38" /><path
         id="path40"
         style="fill:#1b2360;fill-opacity:1;fill-rule:nonzero;stroke:none"
         d="m 1050.62,1340.9 v -1.95 c -21.05,19.48 -45.2,30.77 -72.827,33.5 -3.133,7 -2.344,16.74 -1.176,24.54 31.943,-1.18 62.703,-26.87 74.003,-56.09" /><path
         id="path42"
         style="fill:#1b2360;fill-opacity:1;fill-rule:nonzero;stroke:none"
         d="m 1556.14,1348.3 c 15.57,-10.52 30.38,-26.1 33.49,-44 -12.09,-24.57 -39.33,-32.36 -62.31,-40.13 l -148.8,-46.73 c -40.5,17.14 -79.06,38.54 -118.77,58.03 -10.13,8.18 -26.87,17.12 -24.91,31.52 12.46,15.99 33.48,15.21 50.23,22.62 l 175.64,58.01 c 34.28,-7.78 65.82,-20.62 95.43,-39.32" /><path
         id="path44"
         style="fill:#1b2360;fill-opacity:1;fill-rule:nonzero;stroke:none"
         d="m 681.395,1314.42 c 4.687,-4.29 14.429,-9.35 9.363,-17.53 -39.332,-42.06 -94.645,-53.37 -141.375,-81.42 l -192.395,65.46 c -7.386,3.49 -15.582,11.29 -18.695,18.68 7.406,40.1 51.41,55.3 82.16,70.87 l 42.067,15.21 218.875,-71.27" /><path
         id="path46"
         style="fill:#1b2360;fill-opacity:1;fill-rule:nonzero;stroke:none"
         d="m 1058,1315.58 c 1.95,-12.84 0.78,-26.86 -2.71,-38.56 -50.25,-31.15 -130.86,-33.09 -181.489,-1.55 -3.52,12.85 -5.461,29.21 -1.969,42.84 50.637,33.89 132.058,33.11 183.458,0.78 l 2.71,-3.51" /><path
         id="path48"
         style="fill:#fab95f;fill-opacity:1;fill-rule:nonzero;stroke:none"
         d="m 963.766,1266.89 -13.235,30.78 13.235,32.72 12.851,-32.72 -12.851,-30.78" /><path
         id="path50"
         style="fill:#fab95f;fill-opacity:1;fill-rule:nonzero;stroke:none"
         d="m 927.145,1269.62 -12.063,29.22 12.063,28.03 12.093,-28.03 -12.093,-29.22" /><path
         id="path52"
         style="fill:#fab95f;fill-opacity:1;fill-rule:nonzero;stroke:none"
         d="m 1012.05,1298.84 c -3.88,-9.34 -7.01,-19.11 -12.07,-28.06 l -12.058,28.06 12.058,28.03 12.07,-28.03" /><path
         id="path54"
         style="fill:#fab95f;fill-opacity:1;fill-rule:nonzero;stroke:none"
         d="m 894.457,1275.47 -9.113,23.1 9.113,22.46 9.352,-21.42 -9.352,-24.14" /><path
         id="path56"
         style="fill:#fab95f;fill-opacity:1;fill-rule:nonzero;stroke:none"
         d="m 1042.05,1299.61 -9.35,-23.36 -8.44,24.28 8.44,20.5 9.35,-21.42" /><path
         id="path58"
         style="fill:#1b2360;fill-opacity:1;fill-rule:nonzero;stroke:none"
         d="m 656.098,1232.24 28.816,8.57 -29.605,-30 30.773,5.45 -30.773,-26.87 30.773,3.51 -31.941,-26.88 31.941,2.72 -32.703,-28.8 h 29.976 l -29.976,-21.81 h 20.641 l -11.301,-8.78 H 529.125 v -64.84 l -76.711,-39.31 20.625,23.34 -31.176,-5.45 30.02,28.04 -30.762,-4.67 30.762,30.77 -30.762,-4.68 29.984,26.09 -29.242,-2.73 28.063,26.9 -28.805,-3.51 28.031,25.3 -20.64,-1.17 15.961,10.52 212.265,106.34 -20.64,-28.05" /><path
         id="path60"
         style="fill:#1b2360;fill-opacity:1;fill-rule:nonzero;stroke:none"
         d="m 1472,1150.83 5.47,-4.67 h -21.44 l 28.04,-24.14 -29.96,2.73 29.19,-26.11 -29.19,2.73 29.96,-26.1 -30.75,3.91 30.75,-29.22 -30.75,3.9 28.83,-27.26 -30.79,4.69 20.64,-22.21 -78.67,38.17 v 64.47 H 1261.7 l -13.23,10.3 22.55,-0.79 -28.79,22.2 h 29.6 l -32.32,27.26 31.51,-1.95 -31.51,27.27 31.51,-3.88 -30.74,27.25 30.01,-4.66 -30.01,28.8 28.04,-8.57 -16.74,25.34 220.42,-109.46" /><path
         id="path62"
         style="fill:#1b2360;fill-opacity:1;fill-rule:nonzero;stroke:none"
         d="m 1015.95,1189.52 c -28.028,-19.27 -74.477,-18.63 -103.602,0 4.968,32.25 -31.532,40.09 -29.18,60.64 20.227,-17.14 44.355,-24.16 70.082,-27.28 3.109,-2.72 1.941,-9.73 1.168,-14.02 -7.406,0.39 -14.012,1.17 -19.867,4.68 l -9.348,-12.84 c 20.641,-13.23 52.176,-11.31 74.008,-1.94 1.549,5.43 -4.672,10.1 -6.621,14.78 -6.231,-3.51 -13.238,-3.9 -20.649,-4.68 v 14.02 c 28.819,2.75 54.149,12.87 75.939,32.75 -5.03,-25.72 -43.99,-35.33 -31.93,-66.11" /><path
         id="path64"
         style="fill:#1b2360;fill-opacity:1;fill-rule:nonzero;stroke:none"
         d="m 1109.42,1107.88 -65.45,63.48 h 5.46 l 177.6,-68.16 c -1.93,-10.52 -10.51,-21.02 -20.24,-30 -29.2,-29.61 -68.56,-34.27 -107.47,-38.96 -49.89,-12.05 -75.97,-81.002 -132.824,-74.771 -57.242,-9.699 -83.723,54.911 -130.086,71.671 -53.355,4.67 -110.597,17.52 -136.305,70.11 l 183.063,71.27 -72.844,-71.27 0.762,-0.77 111.383,72.82 -36.602,-115.69 1.172,-1.15 60.746,107.48 14.02,-155 15.988,156.17 61.527,-100.07 -33.5,110.2 103.6,-67.36" /><path
         id="path66"
         style="fill:#ee2922;fill-opacity:1;fill-rule:nonzero;stroke:none"
         d="M 1377.17,1093.98 V 297.563 c 0.81,-45.961 -5.26,-89.598 -43.42,-118.407 -74.37,-49.828 -180.71,-14.008 -270.29,-27.261 -37.37,-5.45 -68.339,-21.778 -97.944,-45.926 -55.301,50.605 -134.95,46.734 -211.278,46.734 -72.433,-3.933 -160.461,-10.91 -196.308,63.844 -10.11,21.828 -10.891,47.91 -11.664,73.582 v 803.851 h 133.988 c 27.621,-56.09 85.668,-82.18 144.867,-83.36 30.367,-6.59 50.219,-40.3 75.938,-58.237 H 686.844 V 364.145 c 1.972,-31.551 21.441,-61.52 50.656,-75.938 47.891,-22.187 109.426,-3.887 163.559,-12.051 24.539,-5.859 44.988,-17.527 64.457,-35.476 49.854,66.98 150.534,22.218 217.904,45.98 24.17,7.793 46.35,32.332 54.14,56.07 l 4.67,28.813 v 580.84 h -216.14 c 25.69,17.172 45.55,50.457 74.78,58.237 59.19,3.9 119.94,24.54 146.8,83.36 45.98,0.11 129.5,0 129.5,0" /><path
         id="path68"
         style="fill:#1b2360;fill-opacity:1;fill-rule:nonzero;stroke:none"
         d="m 1487.98,967.016 c 5.06,-24.543 -26.89,-34.286 -41.27,-49.461 l -52,-42.051 v 146.416 c 31.16,-17.89 68.34,-25.705 93.27,-54.904" /><path
         id="path70"
         style="fill:#1b2360;fill-opacity:1;fill-rule:nonzero;stroke:none"
         d="m 528.531,875.504 c -30.355,22.578 -60.168,45.18 -89.375,70.863 -1.949,5.852 -3.89,12.848 0,18.672 24.942,26.887 59.395,35.841 89.375,52.221 V 875.504" /><path
         id="path72"
         style="fill:#1b2360;fill-opacity:1;fill-rule:nonzero;stroke:none"
         d="m 1225.28,373.508 c -1.94,-22.985 -7.58,-44.031 -27.05,-59.973 -51.81,-37.379 -129.3,-5.047 -188.9,-24.168 -15.564,-5.453 -30.568,-14.816 -43.814,-25.297 -49.868,45.157 -126.387,26.059 -191.797,30.778 -28.059,3.093 -57.649,23.359 -66.223,51.382 l -3.898,23.379 V 935.273 H 1225.28 V 373.508" /><path
         id="path74"
         style="fill:#1b2360;fill-opacity:1;fill-rule:nonzero;stroke:none"
         d="m 1467.72,770.719 v -86.836 l -73.01,47.515 v 121.5 l 29.78,25.305 123.07,-77.476 -79.84,-30.008" /><path
         id="path76"
         style="fill:#1b2360;fill-opacity:1;fill-rule:nonzero;stroke:none"
         d="m 529.125,728.668 -71.059,-47.887 v 87.25 l -81.601,28.782 121.508,79.457 31.152,-23.372 v -124.23" /><path
         id="path78"
         style="fill:#fab95f;fill-opacity:1;fill-rule:nonzero;stroke:none"
         d="m 1132.8,352.844 h -42.84 c 7.4,5.07 15.18,8.969 22.2,14.82 8.17,20.25 -12.48,21.43 -22.2,29.234 l 4.66,28.016 c 8.18,6.231 17.54,10.5 26.87,14.008 l 11.31,-86.078" /><path
         id="path80"
         style="fill:#fab95f;fill-opacity:1;fill-rule:nonzero;stroke:none"
         d="m 841.102,394.164 c -7.801,-4.305 -15.981,-7.023 -23.399,-12.476 -8.562,-20.653 13.246,-23.372 23.399,-32.727 l -44.039,-0.754 11.304,89.566 27.254,-14.007 5.481,-29.602" /><path
         id="path82"
         style="fill:#fab95f;fill-opacity:1;fill-rule:nonzero;stroke:none"
         d="m 623.547,463.68 c -0.867,4.164 -2.488,7.457 -4.856,9.812 -2.332,2.383 -5.187,3.59 -8.535,3.59 -3.883,0 -7.16,-1.879 -9.777,-5.559 -2.613,-3.746 -3.902,-9.839 -3.902,-18.382 v -25.903 h 1.32 c 0,2.758 0.203,4.645 0.68,5.668 0.421,1 1.003,1.731 1.722,2.117 0.699,0.391 2.481,0.633 5.274,0.633 h 33.23 c 2.809,0 4.582,-0.242 5.274,-0.633 0.703,-0.386 1.296,-1.085 1.722,-2.097 0.438,-0.988 0.641,-2.899 0.641,-5.688 h 1.359 v 30.555 h -1.359 c 0,-2.754 -0.203,-4.652 -0.629,-5.691 -0.406,-1 -0.992,-1.715 -1.707,-2.137 -0.719,-0.391 -2.492,-0.59 -5.301,-0.59 h -14.258 c 0,6.715 -0.308,11.5 -0.898,14.305 z m -24.168,-12.512 c 0,3.844 0.906,6.723 2.644,8.664 1.766,1.926 4.559,2.883 8.379,2.883 3.805,0 6.621,-0.957 8.465,-2.883 1.828,-1.941 2.758,-4.691 2.758,-8.258 0,-0.472 -0.031,-1.199 -0.102,-2.199 h -22.144 v 1.793" /><path
         id="path84"
         style="fill:#fab95f;fill-opacity:1;fill-rule:nonzero;stroke:none"
         d="m 646.34,515.152 h 1.359 v -31.015 h -1.359 v 1.972 c 0,1.735 -0.242,3.141 -0.789,4.172 -0.336,0.789 -0.934,1.364 -1.793,1.758 -0.629,0.32 -2.231,0.488 -4.832,0.488 h -33.688 c -2.656,0 -4.3,-0.168 -4.953,-0.488 -0.672,-0.316 -1.246,-0.969 -1.754,-1.93 -0.48,-1.007 -0.734,-2.324 -0.734,-4 v -1.972 h -1.32 v 31.015 h 1.32 v -1.957 c 0,-1.695 0.269,-3.09 0.797,-4.148 0.347,-0.738 0.949,-1.379 1.851,-1.805 0.602,-0.304 2.196,-0.488 4.793,-0.488 h 33.688 c 2.683,0 4.332,0.184 4.988,0.535 0.668,0.32 1.223,0.961 1.703,1.941 0.504,0.985 0.723,2.336 0.723,3.965 v 1.957" /><path
         id="path86"
         style="fill:#fab95f;fill-opacity:1;fill-rule:nonzero;stroke:none"
         d="m 599.504,544.262 h 20.691 v 1.191 c 0,3.801 -1.039,6.516 -3.082,8.215 -2.082,1.703 -5.113,2.766 -9.101,3.258 v 1.578 h 27.023 v -1.578 c -2.914,-0.352 -5.301,-1.067 -7.187,-2.235 -1.864,-1.125 -3.121,-2.433 -3.77,-3.906 -0.64,-1.5 -0.945,-3.668 -0.945,-6.523 h 14.344 c 2.816,0 4.523,0.14 5.168,0.426 0.613,0.265 1.125,0.804 1.531,1.527 0.406,0.765 0.601,1.992 0.601,3.687 v 3.516 c 0,5.574 -1.082,9.98 -3.285,13.34 -2.172,3.305 -5.554,5.703 -10.082,7.148 v 1.621 l 16.289,-2.664 v -51.25 h -1.359 v 1.989 c 0,1.73 -0.242,3.113 -0.789,4.191 -0.336,0.738 -0.934,1.328 -1.793,1.754 -0.629,0.32 -2.231,0.476 -4.832,0.476 h -33.688 c -2.367,0 -3.797,-0.05 -4.34,-0.238 -0.847,-0.277 -1.562,-0.816 -2.074,-1.597 -0.656,-1.102 -1.027,-2.614 -1.027,-4.586 v -1.989 h -1.32 v 49.641 h 15.203 v -1.563 c -3.696,-0.847 -6.348,-2.023 -7.973,-3.562 -1.602,-1.551 -2.809,-3.75 -3.543,-6.555 -0.434,-1.625 -0.66,-4.73 -0.66,-9.226 v -6.086" /><path
         id="path88"
         style="fill:#fab95f;fill-opacity:1;fill-rule:nonzero;stroke:none"
         d="m 596.477,604.566 31.371,29.145 h -21.676 c -3.067,0 -5.156,-0.512 -6.203,-1.547 -1.539,-1.394 -2.223,-3.758 -2.172,-7.086 h -1.32 v 19.695 h 1.32 c 0.301,-2.488 0.633,-4.16 1.086,-5.023 0.441,-0.867 1.168,-1.539 2.148,-2.027 0.992,-0.485 2.719,-0.723 5.141,-0.723 h 42.621 v -1.508 l -42.371,-39.961 h 32.504 c 2.906,0 4.875,0.778 5.898,2.34 1.02,1.609 1.516,3.414 1.516,5.465 v 1.437 h 1.359 v -21.316 h -1.359 c 0,3.305 -0.524,5.57 -1.66,6.828 -1.129,1.324 -3.043,1.903 -5.754,1.903 H 602.73 l -1.414,-1.29 c -1.418,-1.253 -2.336,-2.339 -2.785,-3.3 -0.422,-1 -0.676,-2.387 -0.734,-4.176 h -1.32 v 21.144" /><path
         id="path90"
         style="fill:#fab95f;fill-opacity:1;fill-rule:nonzero;stroke:none"
         d="m 595.363,691.633 17.141,0.488 v -1.832 c -4.285,-0.848 -7.719,-2.937 -10.32,-6.254 -2.606,-3.285 -3.883,-6.883 -3.883,-10.711 0,-3 0.664,-5.355 2.058,-7.086 1.352,-1.738 2.907,-2.597 4.692,-2.597 1.121,0 2.109,0.297 2.992,0.925 1.176,0.821 2.344,2.164 3.508,4.032 0.801,1.363 2.262,4.527 4.363,9.465 2.953,6.914 5.727,11.625 8.324,14.085 2.617,2.415 5.606,3.618 8.969,3.618 4.238,0 7.926,-1.926 10.984,-5.813 3.079,-3.863 4.602,-8.785 4.602,-14.723 0,-1.871 -0.145,-3.667 -0.48,-5.289 -0.293,-1.683 -0.907,-3.773 -1.774,-6.289 -0.527,-1.394 -0.797,-2.535 -0.797,-3.445 0,-0.766 0.27,-1.578 0.758,-2.402 0.52,-0.875 1.301,-1.547 2.293,-2.098 v -1.574 h -19.348 v 1.574 c 5.414,1.309 9.547,3.77 12.387,7.422 2.848,3.684 4.289,7.601 4.289,11.828 0,3.266 -0.789,5.859 -2.312,7.809 -1.528,1.953 -3.305,2.902 -5.329,2.902 -1.195,0 -2.367,-0.367 -3.503,-1.105 -1.11,-0.758 -2.176,-1.872 -3.2,-3.395 -1.007,-1.504 -2.332,-4.211 -3.929,-8.004 -2.293,-5.371 -4.25,-9.269 -5.856,-11.621 -1.594,-2.41 -3.394,-4.199 -5.383,-5.477 -1.98,-1.293 -4.171,-1.933 -6.55,-1.933 -4.047,0 -7.508,1.742 -10.395,5.219 -2.867,3.492 -4.301,7.867 -4.301,13.16 0,1.906 0.203,3.785 0.606,5.59 0.301,1.41 0.84,3.05 1.687,5.007 0.821,2.016 1.227,3.368 1.227,4.153 0,0.761 -0.188,1.347 -0.582,1.785 -0.426,0.461 -1.387,0.855 -2.938,1.242 v 1.344" /><path
         id="path92"
         style="fill:#fab95f;fill-opacity:1;fill-rule:nonzero;stroke:none"
         d="m 639.563,742.438 c 1.664,0.785 2.601,1.25 2.851,1.316 0.465,0.156 0.922,0.266 1.395,0.266 0.773,0 1.328,-0.332 1.707,-0.993 0.554,-0.91 0.824,-2.543 0.824,-4.851 v -1.192 h 1.359 v 28.614 h -1.359 c -0.086,-1.801 -0.555,-3.188 -1.344,-4.207 -0.992,-1.282 -3.504,-2.965 -7.5,-5.024 l -42.133,-21.355 v -0.824 l 41,-21.188 c 3.914,-2 6.485,-3.719 7.735,-5.074 1.234,-1.36 2,-3.082 2.242,-5.242 h 1.359 v 19.703 h -1.359 c -0.164,-3.106 -0.453,-5.004 -0.86,-5.801 -0.671,-1.344 -1.742,-1.977 -3.195,-1.977 -1.058,0 -2.422,0.399 -4.082,1.176 l -4.996,2.594 v 20.848 l 6.356,3.211 z m -9.153,-22.622 -17.691,9.145 17.691,8.887 z" /><path
         id="path94"
         style="fill:#fab95f;fill-opacity:1;fill-rule:nonzero;stroke:none"
         d="m 596.477,849.672 h 1.32 c 0.219,-1.957 0.734,-3.434 1.473,-4.504 1.074,-1.457 3.945,-3.762 8.675,-6.891 l 18.559,-12.902 h 12.422 c 2.683,0 4.359,0.152 5.004,0.477 0.652,0.328 1.207,0.953 1.687,1.918 0.504,0.937 0.723,2.226 0.723,3.777 v 3.32 h 1.359 v -33.336 h -1.359 v 3.117 c 0,1.747 -0.242,3.157 -0.789,4.192 -0.336,0.785 -0.934,1.367 -1.793,1.797 -0.629,0.32 -2.231,0.504 -4.832,0.504 h -10.274 l -21.984,-13.868 c -4.336,-2.777 -6.898,-4.73 -7.668,-5.867 -0.773,-1.129 -1.168,-2.648 -1.203,-4.547 h -1.32 v 28.477 h 1.32 v -1.289 c 0,-1.723 0.203,-2.906 0.68,-3.594 0.421,-0.691 0.859,-1.015 1.328,-1.015 0.906,0 3.23,1.156 6.91,3.507 l 16.867,10.629 -15.336,10.668 c -3.824,2.656 -6.355,3.985 -7.594,3.985 -0.656,0 -1.234,-0.395 -1.703,-1.168 -0.648,-0.985 -1.027,-2.801 -1.152,-5.43 h -1.32 v 18.043" /><path
         id="path96"
         style="fill:#fab95f;fill-opacity:1;fill-rule:nonzero;stroke:none"
         d="m 1338.45,790.984 h -13.98 v 1.579 c 3.21,0.941 5.53,1.984 6.9,3.132 1.42,1.118 2.54,2.68 3.4,4.66 0.43,1.125 0.64,3.075 0.64,5.84 v 4.383 h -39.43 c -2.66,0 -4.31,-0.152 -4.96,-0.496 -0.66,-0.352 -1.25,-0.996 -1.73,-1.973 -0.48,-0.945 -0.72,-2.269 -0.72,-3.988 v -1.937 h -1.34 v 31.05 h 1.34 v -1.98 c 0,-1.731 0.24,-3.098 0.78,-4.149 0.35,-0.757 0.96,-1.375 1.84,-1.796 0.59,-0.305 2.2,-0.496 4.79,-0.496 h 39.43 v 4.402 c 0,4.019 -0.73,6.953 -2.2,8.758 -2.03,2.578 -4.94,4.191 -8.74,4.871 v 1.578 h 13.98 v -53.438" /><path
         id="path98"
         style="fill:#fab95f;fill-opacity:1;fill-rule:nonzero;stroke:none"
         d="m 1310.59,757.391 -23.36,-19.086 v -18.672 h 1.46 c 0.06,1.578 0.47,2.972 1.24,4.176 0.55,0.796 1.93,2.148 4.14,4.007 l 17.46,14.243 c 0.81,-3.629 1.93,-6.418 3.48,-8.434 2.46,-3.176 5.59,-4.73 9.35,-4.73 3.11,0 5.81,1.027 8.12,3.152 2.26,2.109 3.84,4.832 4.71,8.172 0.83,3.308 1.26,8.586 1.26,15.785 v 27.633 h -1.33 c 0,-2.754 -0.22,-4.645 -0.66,-5.653 -0.42,-1.035 -1,-1.746 -1.69,-2.125 -0.73,-0.402 -2.45,-0.613 -5.19,-0.613 h -33.49 c -2.77,0 -4.47,0.211 -5.18,0.613 -0.71,0.379 -1.27,1.09 -1.7,2.125 -0.41,0.981 -0.64,2.879 -0.64,5.653 h -1.34 v -30.774 h 1.34 c 0,2.774 0.23,4.657 0.62,5.664 0.43,1.039 0.98,1.715 1.7,2.141 0.7,0.375 2.43,0.594 5.2,0.594 h 14.5 v -3.871 z m 24.95,-0.805 c 0,-4.66 -0.94,-8.055 -2.75,-10.148 -1.84,-2.118 -4.74,-3.215 -8.64,-3.215 -2.63,0 -4.8,0.605 -6.45,1.757 -1.69,1.141 -2.84,2.719 -3.48,4.723 -0.63,2 -0.95,5.027 -0.95,9.067 v 2.492 h 22.27 v -4.676" /><path
         id="path100"
         style="fill:#fab95f;fill-opacity:1;fill-rule:nonzero;stroke:none"
         d="m 1295.36,677.371 c -1.67,-0.812 -2.61,-1.258 -2.84,-1.308 -0.47,-0.168 -0.93,-0.258 -1.41,-0.258 -0.75,0 -1.34,0.308 -1.71,0.937 -0.59,0.949 -0.83,2.571 -0.83,4.856 v 1.191 h -1.34 v -28.605 h 1.34 c 0.11,1.796 0.56,3.218 1.36,4.234 0.99,1.273 3.5,2.957 7.48,4.98 l 42.15,21.348 v 0.824 l -41.02,21.215 c -3.89,2.008 -6.47,3.692 -7.71,5.098 -1.23,1.367 -2.02,3.101 -2.26,5.207 h -1.34 v -19.672 h 1.34 c 0.16,3.051 0.45,4.996 0.88,5.805 0.7,1.328 1.74,1.984 3.18,1.984 1.06,0 2.44,-0.391 4.09,-1.219 l 5,-2.554 v -20.911 l -6.36,-3.152 z m 9.14,22.609 17.72,-9.164 -17.72,-8.847 z" /><path
         id="path102"
         style="fill:#fab95f;fill-opacity:1;fill-rule:nonzero;stroke:none"
         d="m 1311.36,616.602 c -0.72,-2.262 -2.05,-4.012 -3.95,-5.282 -1.9,-1.265 -4.03,-1.906 -6.41,-1.906 -2.09,0 -3.96,0.524 -5.68,1.578 -1.67,1.043 -2.98,2.547 -3.85,4.504 -0.88,1.977 -1.32,4.094 -1.32,6.43 0,1.574 0.34,2.781 1.04,3.562 0.64,0.817 1.69,1.211 3.05,1.211 h 1.83 16.34 c 0.04,-4.484 -0.32,-7.851 -1.05,-10.097 z m 7.55,-16.844 c 1.97,-2.082 4.18,-3.125 6.66,-3.125 2.32,0 4.54,0.812 6.63,2.461 2.06,1.664 3.63,3.89 4.69,6.711 1.03,2.847 1.56,7.668 1.56,14.511 v 28.52 h -1.33 c 0,-2.754 -0.22,-4.637 -0.68,-5.668 -0.42,-1.008 -0.98,-1.715 -1.71,-2.109 -0.71,-0.395 -2.48,-0.614 -5.28,-0.614 h -33.21 c -2.83,0 -4.6,0.219 -5.32,0.614 -0.67,0.394 -1.25,1.089 -1.7,2.101 -0.42,0.973 -0.65,2.871 -0.65,5.676 h -1.34 v -30.207 c 0,-8.449 1.5,-14.848 4.52,-19.293 2.54,-3.555 5.71,-5.383 9.55,-5.383 3.66,0 6.63,1.66 8.92,4.938 1.6,2.226 2.97,6.211 4.11,11.828 1.11,-5.254 2.67,-8.91 4.58,-10.961 z m 16.63,26.941 c 0.03,-4.289 -0.34,-7.367 -1.08,-9.324 -0.76,-1.93 -1.89,-3.41 -3.33,-4.461 -1.46,-1.031 -3.33,-1.551 -5.61,-1.551 -2.22,0 -4.09,0.551 -5.57,1.582 -1.47,1.055 -2.62,2.551 -3.41,4.528 -0.81,2.004 -1.21,5.05 -1.21,9.226 h 20.21" /><path
         id="path104"
         style="fill:#fab95f;fill-opacity:1;fill-rule:nonzero;stroke:none"
         d="m 1295.36,547.777 c -1.67,-0.839 -2.61,-1.257 -2.84,-1.304 -0.47,-0.188 -0.93,-0.258 -1.41,-0.258 -0.75,0 -1.34,0.305 -1.71,0.961 -0.59,0.922 -0.83,2.519 -0.83,4.828 v 1.187 h -1.34 v -28.582 h 1.34 c 0.11,1.813 0.56,3.192 1.36,4.196 0.99,1.293 3.5,2.984 7.48,4.992 l 42.15,21.367 v 0.824 l -41.02,21.211 c -3.89,1.989 -6.47,3.684 -7.71,5.063 -1.23,1.379 -2.02,3.101 -2.26,5.222 h -1.34 v -19.707 h 1.34 c 0.16,3.102 0.45,5.024 0.88,5.836 0.7,1.317 1.74,1.973 3.18,1.973 1.06,0 2.44,-0.367 4.09,-1.203 l 5,-2.543 v -20.883 l -6.36,-3.18 z m 9.14,22.594 17.72,-9.129 -17.72,-8.879 z" /><path
         id="path106"
         style="fill:#fab95f;fill-opacity:1;fill-rule:nonzero;stroke:none"
         d="m 1337.12,508.191 h 1.33 v -31.66 h -1.33 v 1.938 c 0,1.765 -0.25,3.176 -0.78,4.219 -0.34,0.714 -0.96,1.343 -1.84,1.769 -0.62,0.309 -2.22,0.469 -4.81,0.469 h -25.04 c -4.9,0 -8.48,0.566 -10.68,1.722 -2.24,1.137 -4.11,3.168 -5.59,6.063 -1.52,2.934 -2.25,6.418 -2.25,10.508 0,5.004 1.12,9.043 3.4,12.136 2.25,3.075 4.76,4.633 7.49,4.633 1.74,0 3.21,-0.621 4.28,-1.879 1.09,-1.254 1.62,-2.777 1.62,-4.578 0,-1.789 -0.47,-3.285 -1.48,-4.492 -0.96,-1.223 -2.15,-1.832 -3.56,-1.832 -0.68,0 -1.29,0.102 -1.82,0.305 -0.27,0.109 -0.88,0.586 -1.88,1.383 -1.02,0.824 -1.75,1.25 -2.16,1.25 -0.67,0 -1.19,-0.395 -1.69,-1.161 -0.69,-1.136 -1.04,-2.589 -1.04,-4.394 0,-1.297 0.27,-2.344 0.83,-3.168 0.56,-0.797 1.4,-1.379 2.56,-1.754 1.17,-0.32 4.41,-0.496 9.74,-0.496 h 27.27 c 2.64,0 4.3,0.176 4.97,0.496 0.64,0.359 1.23,1.016 1.74,2 0.49,0.961 0.72,2.328 0.72,4 v 2.523" /><path
         id="path108"
         style="fill:#fab95f;fill-opacity:1;fill-rule:nonzero;stroke:none"
         d="m 1295.36,433.094 c -1.67,-0.832 -2.61,-1.258 -2.84,-1.324 -0.47,-0.188 -0.93,-0.25 -1.41,-0.25 -0.75,0 -1.34,0.316 -1.71,0.96 -0.59,0.934 -0.83,2.543 -0.83,4.836 v 1.161 h -1.34 v -28.563 h 1.34 c 0.11,1.809 0.56,3.211 1.36,4.199 0.99,1.278 3.5,2.938 7.48,5.016 l 42.15,21.348 v 0.847 l -41.02,21.203 c -3.89,1.993 -6.47,3.668 -7.71,5.075 -1.23,1.328 -2.02,3.097 -2.26,5.23 h -1.34 v -19.734 h 1.34 c 0.16,3.132 0.45,5.039 0.88,5.836 0.7,1.32 1.74,1.984 3.18,1.984 1.06,0 2.44,-0.406 4.09,-1.203 l 5,-2.57 V 436.27 l -6.36,-3.176 z m 9.14,22.586 17.72,-9.133 -17.72,-8.883 z" /><path
         id="path110"
         style="fill:#ffffff;fill-opacity:1;fill-rule:nonzero;stroke:none"
         d="m 367.215,1492.18 22.902,8.18 0.875,-2.37 -1.168,-0.41 c -1.754,-0.61 -2.82,-1.38 -3.199,-2.33 -0.379,-0.92 -0.5,-2.05 -0.344,-3.37 0.176,-1.36 1.149,-4.48 2.899,-9.42 l 15.133,-42.37 c 2.789,-7.76 4.894,-12.79 6.386,-15.07 1.5,-2.29 3.223,-4.03 5.211,-5.2 1.973,-1.16 4.004,-1.38 6.094,-0.64 2.363,0.85 4.027,2.64 4.992,5.35 0.938,2.72 1.156,6.07 0.688,10.09 -0.504,3.98 -2.375,10.58 -5.653,19.77 l -12.633,35.29 c -1.375,3.88 -2.55,6.57 -3.55,8.09 -1.008,1.52 -1.926,2.48 -2.805,2.88 -1.328,0.64 -2.895,0.64 -4.676,0 l -0.832,2.36 15.301,5.47 0.855,-2.36 -0.906,-0.34 c -1.211,-0.43 -2.086,-1.28 -2.555,-2.57 -0.468,-1.28 -0.546,-2.95 -0.25,-5.07 0.208,-1.44 0.903,-3.95 2.176,-7.47 l 11.731,-32.89 c 3.629,-10.15 5.914,-17.62 6.847,-22.37 0.95,-4.76 0.735,-9.49 -0.582,-14.23 -1.293,-4.73 -4.234,-7.92 -8.851,-9.57 -3.813,-1.36 -7.141,-1.41 -9.922,-0.15 -3.809,1.69 -7.078,4.46 -9.789,8.27 -2.711,3.84 -5.367,9.35 -7.938,16.52 l -15.14,42.4 c -1.766,4.98 -3.016,8.03 -3.727,9.13 -0.699,1.11 -1.539,1.9 -2.488,2.4 -0.977,0.45 -2.371,0.34 -4.254,-0.38 l -0.828,2.38" /><path
         id="path112"
         style="fill:#ffffff;fill-opacity:1;fill-rule:nonzero;stroke:none"
         d="m 434.711,1514.77 38.355,-47.98 -11.211,37.82 c -1.554,5.26 -3.031,8.74 -4.328,10.35 -1.785,2.19 -3.937,2.9 -6.414,2.05 l -0.703,2.42 14.856,4.39 0.714,-2.4 c -1.765,-1.03 -2.851,-2.01 -3.285,-2.97 -0.425,-0.95 -0.57,-2.33 -0.425,-4.16 0.14,-1.81 0.82,-4.79 2.058,-8.94 l 21.707,-73.27 -1.094,-0.34 -52.222,64.23 16.57,-55.94 c 1.5,-5.07 3.125,-8.32 4.832,-9.72 1.723,-1.42 3.324,-1.9 4.863,-1.46 l 1.094,0.33 0.719,-2.42 -16.051,-4.74 -0.719,2.39 c 2.512,0.79 3.953,2.33 4.364,4.56 0.375,2.23 -0.11,5.66 -1.496,10.33 l -18.391,62.14 -1.684,2.02 c -1.636,2.06 -2.933,3.35 -3.89,3.87 -0.957,0.51 -2.125,0.6 -3.559,0.29 l -0.707,2.4 16.047,4.75" /><path
         id="path114"
         style="fill:#ffffff;fill-opacity:1;fill-rule:nonzero;stroke:none"
         d="m 516.695,1444.82 0.621,-2.43 -23.832,-6.08 -0.613,2.43 1.52,0.39 c 1.316,0.34 2.238,1.06 2.789,2.16 0.449,0.8 0.644,1.96 0.57,3.51 -0.051,1.11 -0.645,3.88 -1.77,8.37 l -15.027,58.51 c -1.156,4.54 -1.996,7.37 -2.543,8.44 -0.512,1.08 -1.262,1.94 -2.234,2.6 -0.949,0.67 -2.074,0.84 -3.332,0.51 l -1.5,-0.39 -0.617,2.43 23.816,6.1 0.605,-2.42 -1.523,-0.39 c -1.336,-0.35 -2.301,-1.08 -2.848,-2.2 -0.41,-0.77 -0.593,-1.95 -0.578,-3.49 0,-1.14 0.59,-3.94 1.739,-8.39 l 14.984,-58.52 c 1.168,-4.56 2,-7.36 2.586,-8.42 0.543,-1.07 1.301,-1.94 2.242,-2.59 0.973,-0.7 2.113,-0.84 3.441,-0.49 l 1.504,0.36" /><path
         id="path116"
         style="fill:#ffffff;fill-opacity:1;fill-rule:nonzero;stroke:none"
         d="m 547.633,1543.33 0.535,-2.44 c -1.543,-0.9 -2.645,-2.95 -3.285,-6.19 -0.481,-2.42 -0.746,-7.91 -0.785,-16.44 l -0.789,-71.98 -1.051,-0.24 -31.508,67.78 c -3.77,8.17 -6.148,12.91 -7.113,14.29 -0.965,1.35 -2.395,2.04 -4.235,2.04 l -0.527,2.45 22.004,4.86 0.531,-2.46 -0.801,-0.18 c -1.972,-0.44 -3.207,-1.21 -3.711,-2.34 -0.394,-0.78 -0.41,-1.81 -0.144,-3.07 0.203,-0.82 0.469,-1.71 0.875,-2.77 0.426,-1.05 1.672,-3.77 3.781,-8.26 l 19.59,-42.47 0.309,41.72 c 0.054,5.04 0,8.41 -0.114,10.09 -0.109,1.69 -0.289,3.08 -0.554,4.24 -0.286,1.33 -0.723,2.46 -1.309,3.39 -0.559,0.94 -1.254,1.58 -2.086,1.95 -1.137,0.53 -2.5,0.64 -4.148,0.29 l -0.539,2.43 15.074,3.31" /><path
         id="path118"
         style="fill:#ffffff;fill-opacity:1;fill-rule:nonzero;stroke:none"
         d="m 570.855,1542.2 6.618,-36.79 0.941,0.15 c 2.93,0.53 4.754,2.73 5.426,6.57 0.687,3.84 0.586,9.29 -0.328,16.41 l 1.246,0.21 8.547,-47.33 -1.258,-0.23 c -1.195,5.09 -2.547,9.22 -4.024,12.34 -1.48,3.13 -2.914,5.16 -4.257,6.11 -1.356,0.9 -3.145,1.16 -5.368,0.76 l 4.579,-25.48 c 0.921,-4.96 1.55,-7.99 1.988,-9.07 0.422,-1.08 1.012,-1.9 1.734,-2.51 0.719,-0.6 1.727,-0.79 3.028,-0.57 l 2.789,0.53 c 4.332,0.78 7.453,3.34 9.332,7.74 1.871,4.37 2.675,10.67 2.386,18.88 l 1.282,0.23 3.109,-29.1 -40.062,-7.25 -0.454,2.47 1.614,0.28 c 1.332,0.25 2.304,0.9 2.937,1.99 0.516,0.72 0.793,1.87 0.824,3.43 0.016,1.14 -0.394,3.94 -1.199,8.49 l -10.734,59.48 c -0.731,4.09 -1.227,6.59 -1.477,7.52 -0.496,1.5 -1.144,2.6 -1.933,3.34 -1.098,1.09 -2.387,1.51 -3.856,1.25 l -1.601,-0.31 -0.461,2.49 38.804,6.98 4.848,-26.71 -1.344,-0.27 c -1.797,6.44 -3.578,10.95 -5.289,13.6 -1.699,2.62 -3.762,4.38 -6.207,5.36 -1.422,0.55 -3.887,0.52 -7.39,-0.11 l -4.79,-0.88" /><path
         id="path120"
         style="fill:#ffffff;fill-opacity:1;fill-rule:nonzero;stroke:none"
         d="m 629.18,1506.51 21.031,-39.24 14.605,2.14 -0.351,2.47 c -1.238,-0.04 -2.422,0.55 -3.547,1.81 -0.793,0.9 -2.164,3.2 -4.223,6.97 l -15.672,29.14 c 2.641,1.8 4.528,4.23 5.727,7.21 1.797,4.72 2.234,10.45 1.27,17.17 -0.817,5.49 -2.34,10.18 -4.586,14 -2.235,3.84 -4.77,6.34 -7.579,7.5 -2.824,1.15 -7.039,1.29 -12.667,0.48 l -21.661,-3.12 0.352,-2.5 c 2.16,0.3 3.652,0.12 4.543,-0.52 0.875,-0.63 1.562,-1.57 2.027,-2.82 0.496,-1.21 1.129,-4.28 1.828,-9.19 l 8.575,-58.99 c 0.714,-4.92 1.007,-8.03 0.89,-9.33 -0.144,-1.31 -0.523,-2.4 -1.183,-3.28 -0.629,-0.91 -2.047,-1.5 -4.168,-1.81 l 0.355,-2.47 23.793,3.45 -0.351,2.47 c -2.106,-0.28 -3.614,-0.14 -4.512,0.51 -0.875,0.66 -1.578,1.6 -2.09,2.82 -0.481,1.23 -1.078,4.3 -1.809,9.22 l -3.699,25.47 3.102,0.44 z m -5.891,44.66 c 3.656,0.54 6.57,-0.72 8.738,-3.79 2.153,-3.04 3.715,-8.06 4.746,-15 0.672,-4.75 0.786,-8.7 0.309,-11.81 -0.484,-3.1 -1.422,-5.34 -2.836,-6.72 -1.391,-1.36 -3.672,-2.28 -6.906,-2.73 l -1.942,-0.3 -5.789,39.84 3.68,0.51" /><path
         id="path122"
         style="fill:#ffffff;fill-opacity:1;fill-rule:nonzero;stroke:none"
         d="m 685.938,1566.3 3.945,-30.35 -1.418,-0.19 c -1.547,7.56 -3.914,13.51 -7.055,17.85 -3.156,4.33 -6.238,6.32 -9.289,5.96 -2.324,-0.26 -4.031,-1.69 -5.125,-4.3 -1.078,-2.61 -1.433,-5.49 -1.047,-8.7 0.223,-1.99 0.68,-3.77 1.364,-5.28 0.894,-2.02 2.207,-3.99 3.886,-5.87 1.242,-1.38 4.035,-3.7 8.371,-7.02 6.078,-4.61 10.368,-9.14 12.836,-13.58 2.414,-4.44 3.989,-9.66 4.692,-15.68 0.89,-7.63 0.117,-14.35 -2.278,-20.2 -2.414,-5.87 -5.961,-9.05 -10.632,-9.6 -1.465,-0.17 -2.911,-0.02 -4.297,0.39 -1.387,0.45 -3.153,1.34 -5.328,2.71 -1.188,0.78 -2.122,1.14 -2.852,1.05 -0.582,-0.07 -1.152,-0.6 -1.707,-1.58 -0.586,-0.97 -0.969,-2.4 -1.156,-4.27 l -1.274,-0.16 -4.011,34.45 1.269,0.14 c 2.117,-9.56 4.922,-16.74 8.383,-21.48 3.523,-4.76 6.91,-6.93 10.242,-6.54 2.555,0.28 4.438,1.88 5.664,4.79 1.242,2.94 1.637,6.18 1.199,9.84 -0.234,2.14 -0.777,4.21 -1.621,6.14 -0.847,1.95 -1.957,3.76 -3.375,5.45 -1.39,1.66 -3.754,3.79 -7.097,6.36 -4.739,3.59 -8.211,6.68 -10.411,9.37 -2.187,2.64 -4,5.67 -5.41,9.11 -1.414,3.43 -2.383,7.27 -2.89,11.55 -0.84,7.25 -0.176,13.6 1.953,19.02 2.136,5.43 5.304,8.4 9.469,8.88 1.519,0.17 3.007,0 4.48,-0.56 1.199,-0.41 2.645,-1.25 4.355,-2.54 1.723,-1.27 2.911,-1.89 3.536,-1.82 0.57,0.09 0.996,0.49 1.242,1.26 0.277,0.73 0.394,2.52 0.379,5.27 l 1.008,0.13" /><path
         id="path124"
         style="fill:#ffffff;fill-opacity:1;fill-rule:nonzero;stroke:none"
         d="m 727.988,1478.71 0.235,-2.49 -24.524,-2.36 -0.246,2.47 1.606,0.17 c 1.371,0.12 2.394,0.71 3.109,1.73 0.555,0.68 0.918,1.79 1.113,3.36 0.114,1.1 -0.062,3.94 -0.484,8.52 l -5.832,60.1 c -0.449,4.68 -0.844,7.59 -1.195,8.75 -0.364,1.13 -0.993,2.11 -1.84,2.92 -0.817,0.8 -1.914,1.15 -3.2,1.01 l -1.621,-0.14 -0.265,2.48 24.543,2.37 0.246,-2.5 -1.547,-0.14 c -1.402,-0.14 -2.453,-0.71 -3.156,-1.75 -0.539,-0.66 -0.891,-1.8 -1.125,-3.34 -0.16,-1.13 -0.028,-3.98 0.425,-8.55 l 5.813,-60.12 c 0.437,-4.66 0.875,-7.57 1.242,-8.72 0.395,-1.14 0.992,-2.11 1.856,-2.91 0.843,-0.82 1.925,-1.14 3.285,-1.01 l 1.562,0.15" /><path
         id="path126"
         style="fill:#ffffff;fill-opacity:1;fill-rule:nonzero;stroke:none"
         d="m 750.906,1477.89 c 3.008,0.22 5.203,0.65 6.617,1.31 3.051,1.41 5.61,3.26 7.68,5.54 2.035,2.31 3.77,5.3 5.188,8.97 1.418,3.65 2.457,8.24 3.097,13.74 0.657,5.51 0.746,11.48 0.25,17.93 -0.715,9.31 -2.414,17.57 -5.129,24.78 -2.734,7.23 -6.281,12.49 -10.691,15.83 -3.652,2.71 -8.281,3.85 -13.918,3.44 l -20.992,-1.57 0.203,-2.5 1.535,0.1 c 1.356,0.1 2.469,-0.26 3.274,-1.07 0.832,-0.84 1.414,-1.81 1.738,-2.95 0.347,-1.16 0.715,-4.08 1.051,-8.77 l 4.527,-60.21 c 0.379,-4.73 0.48,-7.58 0.379,-8.51 -0.246,-1.47 -0.715,-2.67 -1.387,-3.54 -0.64,-0.89 -1.68,-1.39 -3.066,-1.49 l -1.535,-0.12 0.191,-2.51 20.988,1.6 z m -1.152,84.7 c 2.496,-1.8 4.672,-5.38 6.586,-10.77 2.394,-6.87 4.078,-16.18 4.937,-27.95 1.11,-14.56 0.555,-25.43 -1.668,-32.58 -1.66,-5.28 -4.41,-8.06 -8.265,-8.35 -1.168,-0.1 -2.102,0.19 -2.789,0.81 -0.485,0.41 -0.832,1.04 -1.094,1.91 -0.234,0.84 -0.527,3.13 -0.777,6.92 l -5.391,71.42 c 3.844,0.32 6.676,-0.12 8.461,-1.41" /><path
         id="path128"
         style="fill:#ffffff;fill-opacity:1;fill-rule:nonzero;stroke:none"
         d="m 810.996,1496.45 c 0.789,-2.95 1.199,-4.62 1.258,-5.03 0.187,-0.86 0.293,-1.68 0.348,-2.51 0.058,-1.34 -0.145,-2.39 -0.598,-3.12 -0.656,-1.05 -1.957,-1.6 -3.766,-1.66 l -0.949,-0.06 0.113,-2.52 22.727,1.14 -0.129,2.51 c -1.402,0.13 -2.543,0.91 -3.449,2.26 -1.121,1.8 -2.672,6.22 -4.66,13.26 l -20.621,74.35 -0.672,-0.02 -13.149,-74.02 c -1.269,-7.07 -2.379,-11.73 -3.386,-14.02 -0.95,-2.3 -2.266,-3.7 -3.915,-4.3 l 0.129,-2.51 15.633,0.8 -0.117,2.5 c -2.516,0.22 -4.078,0.69 -4.688,1.38 -1.144,1.17 -1.785,3.04 -1.917,5.62 -0.102,1.93 0.101,4.4 0.601,7.41 l 1.594,9.03 16.547,0.81 3.066,-11.3 z m -18.711,15.57 5.653,31.93 8.531,-31.25 z" /><path
         id="path130"
         style="fill:#ffffff;fill-opacity:1;fill-rule:nonzero;stroke:none"
         d="m 852.406,1483.31 c 3.024,0.1 5.242,0.41 6.692,1 3.121,1.25 5.765,2.99 7.914,5.17 2.16,2.23 4.031,5.11 5.652,8.71 1.609,3.58 2.832,8.11 3.781,13.58 0.907,5.47 1.274,11.44 1.129,17.91 -0.238,9.34 -1.566,17.7 -3.929,25.03 -2.356,7.35 -5.668,12.79 -9.918,16.35 -3.524,2.87 -8.079,4.29 -13.735,4.12 l -21.074,-0.54 0.059,-2.51 1.578,0.02 c 1.343,0.05 2.425,-0.37 3.195,-1.22 0.805,-0.86 1.348,-1.88 1.641,-3.05 0.261,-1.17 0.464,-4.1 0.582,-8.79 l 1.59,-60.43 c 0.132,-4.76 0.105,-7.59 -0.055,-8.55 -0.324,-1.44 -0.82,-2.6 -1.535,-3.47 -0.7,-0.84 -1.739,-1.31 -3.141,-1.32 l -1.574,-0.05 0.086,-2.49 21.062,0.53 z m 3.008,84.77 c 2.383,-1.93 4.395,-5.65 6.031,-11.12 2.106,-7 3.274,-16.37 3.61,-28.16 0.379,-14.64 -0.731,-25.47 -3.313,-32.49 -1.887,-5.21 -4.762,-7.86 -8.664,-7.96 -1.168,-0.04 -2.074,0.29 -2.734,0.95 -0.449,0.43 -0.785,1.09 -0.992,1.93 -0.204,0.85 -0.364,3.19 -0.454,6.98 l -1.894,71.68 c 3.883,0.13 6.687,-0.46 8.41,-1.81" /><path
         id="path132"
         style="fill:#ffffff;fill-opacity:1;fill-rule:nonzero;stroke:none"
         d="m 920.703,1484.07 c 3.039,0 5.258,0.29 6.692,0.83 3.168,1.18 5.855,2.83 8.074,4.99 2.222,2.13 4.152,5.01 5.859,8.54 1.664,3.54 3.067,8.03 4.106,13.48 1.082,5.43 1.578,11.39 1.578,17.85 0,9.36 -1.098,17.72 -3.246,25.13 -2.188,7.41 -5.387,12.93 -9.567,16.59 -3.402,2.99 -7.926,4.45 -13.57,4.45 l -21.059,-0.02 v -2.49 h 1.563 c 1.355,0 2.394,-0.46 3.152,-1.31 0.793,-0.88 1.317,-1.92 1.547,-3.1 0.25,-1.15 0.395,-4.1 0.395,-8.79 l 0.046,-60.44 c 0,-4.72 -0.085,-7.59 -0.293,-8.53 -0.347,-1.45 -0.875,-2.57 -1.605,-3.43 -0.715,-0.82 -1.781,-1.23 -3.172,-1.23 h -1.574 l 0.016,-2.52 h 21.058 z m 5.156,84.63 c 2.336,-1.99 4.282,-5.74 5.754,-11.24 1.914,-7.04 2.864,-16.47 2.895,-28.25 0.015,-14.64 -1.375,-25.44 -4.133,-32.39 -2.047,-5.14 -4.98,-7.71 -8.867,-7.71 -1.168,0 -2.086,0.32 -2.719,1 -0.437,0.45 -0.742,1.1 -0.934,1.96 -0.175,0.86 -0.261,3.18 -0.261,6.99 l -0.074,71.67 c 3.886,0.05 6.675,-0.63 8.339,-2.03" /><path
         id="path134"
         style="fill:#ffffff;fill-opacity:1;fill-rule:nonzero;stroke:none"
         d="m 969.313,1570.61 0.031,-37.41 h 0.937 c 2.973,0 5.157,1.83 6.496,5.5 1.375,3.66 2.203,9.06 2.575,16.18 l 1.281,0.01 0.031,-48.1 h -1.281 c -0.297,5.24 -0.875,9.51 -1.778,12.86 -0.902,3.36 -1.937,5.59 -3.113,6.73 -1.183,1.17 -2.898,1.74 -5.148,1.74 l 0.015,-25.85 c 0,-5.08 0.102,-8.2 0.352,-9.31 0.219,-1.13 0.625,-2.05 1.242,-2.78 0.598,-0.73 1.574,-1.07 2.891,-1.07 h 2.832 c 4.39,0 7.91,1.97 10.527,5.96 2.664,3.96 4.547,10.03 5.738,18.17 h 1.262 l -2.074,-29.2 -40.723,-0.04 -0.015,2.52 h 1.664 c 1.343,0 2.414,0.48 3.246,1.43 0.629,0.62 1.094,1.71 1.402,3.25 0.235,1.08 0.352,3.93 0.352,8.54 l -0.047,60.42 c 0,4.16 -0.07,6.7 -0.129,7.64 -0.25,1.61 -0.645,2.81 -1.316,3.68 -0.891,1.24 -2.102,1.88 -3.563,1.88 h -1.621 v 2.51 l 39.391,0.04 0.023,-27.18 h -1.348 c -0.652,6.63 -1.558,11.4 -2.777,14.3 -1.242,2.86 -2.953,5.01 -5.164,6.35 -1.324,0.81 -3.734,1.23 -7.297,1.23 h -4.894" /><path
         id="path136"
         style="fill:#ffffff;fill-opacity:1;fill-rule:nonzero;stroke:none"
         d="m 1065.63,1577.2 -0.61,-32.4 -1.31,0.04 c -1.35,8.87 -3.56,15.63 -6.54,20.3 -3.01,4.66 -6.38,7.01 -10.08,7.09 -3.52,0.09 -6.48,-1.8 -8.86,-5.61 -2.41,-3.82 -4.16,-9.16 -5.26,-16.06 -1.11,-6.88 -1.73,-13.97 -1.86,-21.24 -0.18,-8.82 0.21,-16.54 1.15,-23.23 0.94,-6.64 2.56,-11.56 4.87,-14.71 2.3,-3.17 5.1,-4.79 8.35,-4.84 1.12,-0.02 2.31,0.19 3.5,0.66 1.22,0.43 2.45,1.1 3.73,2.01 l 0.36,19.09 c 0.1,3.61 -0.02,5.95 -0.27,7 -0.25,1.07 -0.79,2.04 -1.53,2.93 -0.78,0.87 -1.75,1.29 -2.86,1.35 l -1.23,0.01 0.04,2.5 22.92,-0.44 -0.05,-2.49 c -1.76,-0.19 -3.02,-0.66 -3.69,-1.33 -0.67,-0.68 -1.22,-1.83 -1.61,-3.46 -0.25,-0.84 -0.4,-2.95 -0.47,-6.29 l -0.36,-19.09 c -3.02,-2.58 -6.17,-4.49 -9.48,-5.76 -3.27,-1.25 -6.66,-1.89 -10.19,-1.8 -4.43,0.08 -8.1,1.34 -10.99,3.77 -2.94,2.41 -5.48,5.56 -7.66,9.5 -2.19,3.88 -3.87,8.27 -5.03,13.12 -1.53,6.26 -2.21,13.24 -2.07,20.98 0.27,13.83 2.97,25.43 8.14,34.89 5.12,9.44 11.47,14.08 19.01,13.92 2.37,-0.04 4.45,-0.41 6.29,-1.18 1.03,-0.39 2.66,-1.44 4.93,-3.17 2.25,-1.75 3.55,-2.62 3.99,-2.62 0.62,0 1.22,0.42 1.81,1.36 0.59,0.91 1.12,2.64 1.62,5.2 h 1.3" /><path
         id="path138"
         style="fill:#ffffff;fill-opacity:1;fill-rule:nonzero;stroke:none"
         d="m 1074.92,1574.63 24.26,-0.96 -0.1,-2.51 -1.21,0.07 c -1.85,0.06 -3.12,-0.27 -3.85,-0.98 -0.67,-0.73 -1.2,-1.74 -1.54,-3.01 -0.34,-1.31 -0.63,-4.58 -0.84,-9.8 l -1.71,-44.89 c -0.32,-8.21 -0.22,-13.67 0.3,-16.34 0.53,-2.69 1.5,-4.96 2.9,-6.78 1.4,-1.8 3.19,-2.75 5.41,-2.84 2.51,-0.09 4.71,0.94 6.63,3.09 1.87,2.2 3.35,5.22 4.37,9.1 1.04,3.88 1.72,10.7 2.13,20.44 l 1.44,37.39 c 0.14,4.12 0.04,7.05 -0.31,8.83 -0.37,1.75 -0.88,3.01 -1.54,3.69 -0.99,1.08 -2.42,1.67 -4.33,1.75 l 0.11,2.5 16.23,-0.64 -0.09,-2.49 -0.95,0.04 c -1.3,0.02 -2.43,-0.43 -3.37,-1.44 -0.88,-0.99 -1.58,-2.54 -2.08,-4.6 -0.38,-1.42 -0.63,-4 -0.78,-7.75 l -1.37,-34.83 c -0.4,-10.78 -1.04,-18.53 -1.95,-23.29 -0.91,-4.75 -2.86,-9.08 -5.83,-12.97 -2.97,-3.92 -6.88,-5.78 -11.76,-5.59 -4.04,0.16 -7.14,1.33 -9.28,3.54 -2.9,3 -4.92,6.79 -5.99,11.34 -1.09,4.55 -1.49,10.65 -1.2,18.28 l 1.74,44.9 c 0.21,5.28 0.19,8.55 -0.05,9.85 -0.24,1.28 -0.72,2.35 -1.45,3.15 -0.73,0.79 -2.08,1.22 -4.04,1.23 l 0.1,2.52" /><path
         id="path140"
         style="fill:#ffffff;fill-opacity:1;fill-rule:nonzero;stroke:none"
         d="m 1153.27,1493.86 c 0.43,-3.04 0.69,-4.74 0.7,-5.15 0.1,-0.86 0.1,-1.7 0.04,-2.51 -0.08,-1.36 -0.37,-2.4 -0.9,-3.07 -0.81,-0.95 -2.11,-1.37 -3.97,-1.26 l -0.96,0.04 -0.13,-2.49 22.75,-1.34 0.13,2.47 c -1.42,0.33 -2.45,1.21 -3.18,2.66 -0.91,1.9 -1.99,6.47 -3.18,13.68 l -12.41,76.21 -0.68,0.04 -21.15,-72.16 c -2.05,-6.91 -3.67,-11.43 -4.87,-13.58 -1.23,-2.18 -2.67,-3.45 -4.39,-3.86 l -0.13,-2.51 15.62,-0.92 0.15,2.5 c -2.45,0.52 -3.98,1.16 -4.51,1.89 -0.99,1.29 -1.42,3.23 -1.27,5.78 0.09,1.96 0.54,4.39 1.38,7.33 l 2.56,8.79 16.58,-0.99 1.82,-11.55 z m -16.95,17.46 9.11,31.19 5.08,-32.02 z" /><path
         id="path142"
         style="fill:#ffffff;fill-opacity:1;fill-rule:nonzero;stroke:none"
         d="m 1193.07,1476.39 c 3.02,-0.28 5.29,-0.17 6.77,0.26 3.23,0.9 6.07,2.34 8.44,4.3 2.36,1.94 4.55,4.61 6.53,8 1.98,3.41 3.73,7.78 5.24,13.11 1.49,5.33 2.51,11.22 3.05,17.65 0.79,9.31 0.39,17.76 -1.18,25.3 -1.55,7.58 -4.22,13.36 -8.07,17.35 -3.17,3.23 -7.54,5.1 -13.19,5.56 l -20.99,1.74 -0.23,-2.5 1.55,-0.11 c 1.36,-0.1 2.4,-0.64 3.07,-1.6 0.7,-0.93 1.12,-2 1.26,-3.2 0.16,-1.18 0.05,-4.12 -0.35,-8.79 l -4.97,-60.2 c -0.4,-4.75 -0.72,-7.58 -0.99,-8.52 -0.47,-1.4 -1.1,-2.48 -1.92,-3.27 -0.75,-0.77 -1.88,-1.08 -3.23,-1 l -1.58,0.14 -0.19,-2.5 20.98,-1.72 z m 12.18,83.89 c 2.17,-2.17 3.78,-6.08 4.81,-11.69 1.32,-7.18 1.46,-16.63 0.5,-28.39 -1.19,-14.56 -3.46,-25.22 -6.77,-31.93 -2.44,-4.96 -5.64,-7.27 -9.49,-6.96 -1.17,0.11 -2.03,0.52 -2.62,1.24 -0.4,0.49 -0.66,1.17 -0.77,2.05 -0.12,0.86 0,3.17 0.29,6.95 l 5.91,71.44 c 3.87,-0.28 6.59,-1.19 8.14,-2.71" /><path
         id="path144"
         style="fill:#ffffff;fill-opacity:1;fill-rule:nonzero;stroke:none"
         d="m 1254.96,1485.06 c 0.32,-3 0.48,-4.73 0.48,-5.13 0.03,-0.86 0.02,-1.71 -0.08,-2.5 -0.13,-1.37 -0.49,-2.39 -1.06,-3.03 -0.84,-0.91 -2.17,-1.27 -4.02,-1.07 l -0.93,0.1 -0.25,-2.47 22.6,-2.45 0.26,2.48 c -1.37,0.37 -2.38,1.3 -3.03,2.76 -0.84,1.97 -1.67,6.56 -2.5,13.82 l -8.72,76.64 -0.66,0.06 -24.6,-70.95 c -2.36,-6.8 -4.22,-11.23 -5.53,-13.34 -1.31,-2.09 -2.83,-3.31 -4.54,-3.61 l -0.24,-2.49 15.53,-1.68 0.24,2.49 c -2.43,0.61 -3.88,1.32 -4.36,2.11 -0.98,1.31 -1.3,3.25 -1,5.83 0.2,1.89 0.74,4.31 1.69,7.21 l 3,8.66 16.46,-1.79 1.26,-11.65 z m -16.05,18.3 10.64,30.64 3.49,-32.17 z" /><path
         id="path146"
         style="fill:#ffffff;fill-opacity:1;fill-rule:nonzero;stroke:none"
         d="m 1320.65,1494.42 -6.11,-31.68 -41.37,5.66 0.35,2.47 1.52,-0.19 c 1.36,-0.19 2.51,0.12 3.5,0.95 0.67,0.55 1.26,1.57 1.79,3.03 0.4,1.03 0.94,3.84 1.55,8.38 l 8.16,59.82 c 0.64,4.63 0.91,7.56 0.82,8.76 -0.07,1.2 -0.45,2.27 -1.11,3.26 -0.67,0.97 -1.66,1.55 -2.95,1.73 l -1.55,0.22 0.35,2.48 24.81,-3.4 -0.35,-2.48 -2.01,0.28 c -1.33,0.18 -2.49,-0.16 -3.49,-0.95 -0.64,-0.57 -1.26,-1.59 -1.84,-3.05 -0.36,-1.04 -0.86,-3.82 -1.48,-8.38 l -7.92,-57.92 c -0.64,-4.66 -0.93,-7.63 -0.8,-8.95 0.08,-1.3 0.48,-2.34 1.21,-3.08 0.53,-0.47 1.9,-0.87 4.08,-1.15 l 3.89,-0.54 c 2.47,-0.33 4.63,0.21 6.52,1.71 1.89,1.48 3.68,3.96 5.4,7.44 1.68,3.51 3.56,8.77 5.6,15.77 l 1.43,-0.19" /><path
         id="path148"
         style="fill:#ffffff;fill-opacity:1;fill-rule:nonzero;stroke:none"
         d="m 1352.16,1471.34 c 0.13,-3.06 0.19,-4.77 0.19,-5.17 -0.02,-0.89 -0.1,-1.72 -0.25,-2.53 -0.21,-1.32 -0.63,-2.3 -1.24,-2.93 -0.87,-0.85 -2.23,-1.13 -4.06,-0.83 l -0.92,0.17 -0.42,-2.49 22.43,-3.78 0.43,2.46 c -1.36,0.47 -2.3,1.45 -2.88,2.98 -0.72,1.99 -1.27,6.63 -1.69,13.94 l -4.18,77.1 -0.63,0.11 -28.8,-69.48 c -2.75,-6.65 -4.86,-10.99 -6.31,-13 -1.42,-2.01 -2.99,-3.13 -4.75,-3.34 l -0.4,-2.46 15.42,-2.61 0.42,2.47 c -2.39,0.77 -3.82,1.55 -4.27,2.37 -0.88,1.38 -1.1,3.35 -0.64,5.89 0.29,1.91 1.01,4.29 2.14,7.1 l 3.5,8.49 16.36,-2.76 0.55,-11.7 z m -14.96,19.22 12.43,29.98 1.62,-32.35 z" /><path
         id="path150"
         style="fill:#ffffff;fill-opacity:1;fill-rule:nonzero;stroke:none"
         d="m 1395.53,1539.41 0.49,2.45 24.53,-4.93 -0.5,-2.47 -1.55,0.3 c -1.31,0.27 -2.49,0.03 -3.5,-0.72 -0.73,-0.52 -1.37,-1.49 -2.01,-2.94 -0.48,-1.01 -1.18,-3.75 -2.1,-8.26 l -8.86,-44.13 c -1.74,-8.64 -3.45,-14.83 -5.12,-18.59 -1.7,-3.73 -3.92,-6.68 -6.7,-8.87 -2.8,-2.2 -5.8,-2.94 -8.98,-2.3 -3.85,0.79 -6.58,3.4 -8.15,7.87 -1.6,4.47 -1.89,9.1 -0.95,13.93 0.64,3.11 1.64,5.52 3.01,7.25 1.36,1.73 2.75,2.46 4.16,2.17 1.38,-0.28 2.37,-1.38 2.92,-3.28 0.61,-1.92 0.64,-4.15 0.11,-6.66 -0.23,-1.23 -0.51,-2.34 -0.85,-3.22 -0.17,-0.43 -0.76,-1.47 -1.75,-3.14 -0.96,-1.65 -1.53,-2.89 -1.68,-3.64 -0.24,-1.15 -0.16,-2.19 0.27,-3.18 0.59,-1.39 1.58,-2.24 2.99,-2.52 0.99,-0.2 1.89,0.12 2.7,0.97 0.82,0.85 1.55,2.28 2.25,4.28 0.66,2.01 1.96,7.7 3.86,17.11 l 9.71,48.15 c 0.92,4.63 1.37,7.54 1.32,8.74 0,1.19 -0.32,2.33 -0.9,3.32 -0.59,1.01 -1.54,1.66 -2.79,1.9 l -1.93,0.41" /><path
         id="path152"
         style="fill:#ffffff;fill-opacity:1;fill-rule:nonzero;stroke:none"
         d="m 1436.55,1453.89 c -0.07,-3.03 -0.14,-4.76 -0.19,-5.16 -0.08,-0.85 -0.2,-1.68 -0.38,-2.48 -0.33,-1.34 -0.8,-2.27 -1.44,-2.87 -0.93,-0.78 -2.32,-0.95 -4.12,-0.54 l -0.9,0.23 -0.6,-2.44 22.14,-5.29 0.56,2.42 c -1.35,0.56 -2.23,1.62 -2.64,3.16 -0.59,2.03 -0.83,6.71 -0.74,14.02 l 1.08,77.16 -0.66,0.17 -33.42,-67.34 c -3.19,-6.41 -5.59,-10.6 -7.15,-12.53 -1.57,-1.91 -3.24,-2.91 -4.96,-3.01 l -0.61,-2.44 15.23,-3.65 0.56,2.45 c -2.33,0.93 -3.7,1.8 -4.09,2.66 -0.77,1.45 -0.88,3.4 -0.24,5.89 0.42,1.91 1.32,4.22 2.62,6.96 l 4.06,8.22 16.13,-3.85 -0.24,-11.74 z m -13.62,20.21 14.43,29.05 -0.57,-32.37 z" /><path
         id="path154"
         style="fill:#ffffff;fill-opacity:1;fill-rule:nonzero;stroke:none"
         d="m 1483.62,1469.51 2.79,-44.46 14.15,-4.16 0.71,2.41 c -1.15,0.48 -1.95,1.51 -2.48,3.13 -0.31,1.14 -0.63,3.85 -0.92,8.12 l -2.08,33.02 c 3.17,0.54 5.88,1.94 8.19,4.17 3.65,3.53 6.43,8.55 8.31,15.05 1.6,5.34 2.14,10.21 1.71,14.66 -0.43,4.44 -1.71,7.76 -3.78,9.97 -2.07,2.22 -5.85,4.12 -11.31,5.73 l -20.99,6.19 -0.71,-2.42 c 2.08,-0.6 3.37,-1.4 3.9,-2.34 0.51,-0.97 0.76,-2.09 0.69,-3.42 -0.06,-1.32 -0.8,-4.39 -2.19,-9.12 l -16.82,-57.21 c -1.41,-4.79 -2.45,-7.74 -3.09,-8.86 -0.64,-1.13 -1.48,-1.96 -2.43,-2.49 -0.97,-0.55 -2.52,-0.5 -4.57,0.09 l -0.7,-2.4 23.09,-6.77 0.69,2.38 c -2.05,0.61 -3.33,1.38 -3.87,2.35 -0.53,0.95 -0.77,2.1 -0.72,3.43 0.06,1.32 0.81,4.37 2.18,9.12 l 7.27,24.72 2.98,-0.89 z m 13.32,43.08 c 3.56,-1.05 5.67,-3.4 6.36,-7.11 0.67,-3.67 0.03,-8.89 -1.95,-15.59 -1.37,-4.66 -2.91,-8.28 -4.65,-10.9 -1.71,-2.6 -3.53,-4.24 -5.38,-4.92 -1.84,-0.68 -4.33,-0.52 -7.43,0.39 l -1.89,0.56 11.36,38.62 3.58,-1.05" /><path
         id="path156"
         style="fill:#ffffff;fill-opacity:1;fill-rule:nonzero;stroke:none"
         d="m 1533.75,1424.3 c -0.43,-3.04 -0.69,-4.73 -0.77,-5.12 -0.18,-0.88 -0.4,-1.68 -0.67,-2.45 -0.45,-1.25 -1.04,-2.17 -1.76,-2.68 -1.02,-0.66 -2.4,-0.71 -4.15,-0.09 l -0.88,0.34 -0.84,-2.36 21.4,-7.76 0.85,2.35 c -1.31,0.71 -2.04,1.86 -2.3,3.43 -0.36,2.1 -0.06,6.77 0.83,14.04 l 9.77,76.61 -0.61,0.22 -40.81,-63.18 c -3.92,-6.04 -6.78,-9.9 -8.56,-11.63 -1.79,-1.76 -3.55,-2.56 -5.27,-2.46 l -0.85,-2.36 14.71,-5.35 0.84,2.36 c -2.21,1.2 -3.45,2.23 -3.76,3.12 -0.61,1.51 -0.48,3.48 0.4,5.88 0.67,1.84 1.79,4.05 3.42,6.63 l 4.96,7.73 15.6,-5.68 -1.55,-11.59 z m -11.25,21.59 17.59,27.27 -4.23,-32.12 z" /><path
         id="path158"
         style="fill:#fab95f;fill-opacity:1;fill-rule:nonzero;stroke:none"
         d="m 669.684,1030.22 -21.461,21.46 -20.782,-20.78 -20.773,20.78 -21.469,-21.46 20.778,-20.78 -20.778,-20.772 21.469,-21.457 20.773,20.769 20.782,-20.769 21.461,21.457 -20.789,20.772 20.789,20.78" /><path
         id="path160"
         style="fill:#fab95f;fill-opacity:1;fill-rule:nonzero;stroke:none"
         d="m 1341.5,1030.22 -21.45,21.46 -20.79,-20.78 -20.8,20.78 -21.44,-21.46 20.77,-20.78 -20.77,-20.772 21.44,-21.457 20.8,20.769 20.79,-20.769 21.45,21.457 -20.77,20.772 20.77,20.78" /><path
         id="path162"
         style="fill:#fab95f;fill-opacity:1;fill-rule:nonzero;stroke:none"
         d="m 681.367,274.688 -21.457,21.48 -20.785,-20.777 -20.773,20.777 -21.469,-21.48 20.769,-20.77 -20.769,-20.762 21.469,-21.488 20.773,20.789 20.785,-20.789 21.457,21.488 -20.785,20.762 20.785,20.77" /><path
         id="path164"
         style="fill:#fab95f;fill-opacity:1;fill-rule:nonzero;stroke:none"
         d="m 1329.82,274.688 -21.47,21.48 -20.79,-20.777 -20.75,20.777 -21.5,-21.48 20.79,-20.77 -20.79,-20.762 21.5,-21.488 20.75,20.789 20.79,-20.789 21.47,21.488 -20.8,20.762 20.8,20.77" /><path
         id="path166"
         style="fill:#74a61a;fill-opacity:1;fill-rule:nonzero;stroke:none"
         d="m 1078.33,778.219 c -8.42,0 -16.84,-8.289 -25.29,-8.289 0,0 0,0 -8.46,0 -8.43,0 -16.87,8.289 -16.87,8.289 0,8.332 0,8.332 0,8.332 16.87,-8.332 33.78,-8.332 50.62,0 0,0 0,0 0,-8.332 z m -16.84,-74.879 c -8.45,0 -8.45,0 -8.45,0 -8.46,0 -16.89,8.332 -25.33,8.332 16.87,0 33.78,0 50.62,0 0,0 -8.42,-8.332 -16.84,-8.332 z m -8.45,-33.305 c 0,0 -8.46,-8.316 -16.89,-8.316 h -8.44 c -8.44,0 -16.89,8.316 -25.33,8.316 v 8.371 c 16.89,-8.371 33.77,-8.371 50.66,0 8.45,0 8.45,0 0,-8.371 z m -67.552,91.57 c 16.892,-8.312 33.782,-8.312 50.662,0 0,-8.312 0,-8.312 0,-8.312 0,0 -8.44,-8.344 -16.88,-8.344 -8.45,0 -8.45,0 -8.45,0 -8.44,0 -16.867,8.344 -25.332,8.344 0,0 0,0 0,8.312 z m -16.863,8.325 c 0,0 0,0 -8.441,0 -8.426,0 -16.871,8.289 -16.871,8.289 0,8.332 0,8.332 0,8.332 16.871,-8.332 33.757,-8.332 50.64,0 0,0 0,0 0,-8.332 -8.465,0 -16.883,-8.289 -25.328,-8.289 z m -25.312,-16.637 c 0,0 -8.422,-8.344 -16.868,-8.344 -8.441,0 -8.441,0 -8.441,0 -8.43,0 -16.902,8.344 -25.328,8.344 0,0 0,0 0,8.312 16.898,-8.312 33.769,-8.312 50.637,0 v -8.312 z m -8.422,-83.258 c -8.446,0 -16.887,-8.316 -25.317,-8.316 0,0 0,0 -8.472,0 -8.426,0 -16.868,8.316 -16.868,8.316 0,0 0,0 0,8.371 16.868,-8.371 33.77,-8.371 50.657,0 v -8.371 z m -75.957,41.637 c 16.855,-8.332 33.742,-8.332 50.64,0 -8.472,-8.332 -16.898,-16.652 -25.34,-16.652 0,0 0,0 -8.445,0 -8.426,8.32 -16.855,8.32 -16.855,16.652 z m -8.457,74.879 c 16.886,-8.332 33.757,-8.332 50.625,0 0,-8.332 -8.426,-16.621 -16.868,-16.621 -8.445,0 -8.445,0 -8.445,0 -8.426,0 -16.855,8.289 -25.312,8.289 0,8.332 0,8.332 0,8.332 z m 236.303,0 c 16.89,33.297 -16.87,83.25 -59.07,74.937 -25.33,41.571 -92.819,49.918 -118.136,0 -59.097,8.313 -84.41,-49.945 -67.539,-74.937 -33.738,-33.258 -25.312,-74.879 8.442,-99.848 16.886,-41.633 59.097,-58.226 101.281,-33.289 8.426,0 25.312,0 33.73,0 25.332,-24.937 84.422,-8.344 92.842,33.289 33.76,24.969 42.19,66.59 8.45,99.848" /><path
         id="path168"
         style="fill:#fab95f;fill-opacity:1;fill-rule:nonzero;stroke:none"
         d="m 1116.05,543.715 -1.19,26.043 c 3.12,-5.809 10.14,-12.02 4.68,-18.653 -1.16,-2.32 -3.12,-4.664 -3.49,-7.39 z m -13.25,24.894 -0.79,27.243 7.41,-13.227 c -1.95,-4.68 -3.5,-9.742 -6.62,-14.016 z m 1.19,-52.187 -1.19,-0.766 -0.79,26.117 c 6.63,-7.043 8.58,-16.793 1.98,-25.351 z m -15.2,27.293 -0.77,26.043 7.39,-12.02 c -2.35,-4.699 -3.12,-10.129 -6.62,-14.023 z m -18.15,57.133 8.01,-1.09 4.14,-4.973 -12.15,6.063 z m -220.98,0.461 c -1.566,5.066 4.262,5.066 7.391,4.679 -2.719,-1.547 -4.297,-4.285 -7.391,-4.679 z m -6.617,-54.102 -7.422,13.227 7.422,14.808 z m -14.809,26.082 c -2.339,6.621 -10.531,12.461 -4.675,19.848 l 4.675,8.172 c 1.164,-7.778 1.164,-19.071 0,-28.02 z m 0,-54.894 c -2.339,6.23 -10.531,12.062 -4.675,19.48 l 4.675,7.402 c 1.164,-7.402 1.164,-18.718 0,-26.882 z m -13.25,28.812 c -2.336,6.211 -10.504,12.457 -4.66,19.84 l 4.66,8.195 c 1.563,-7.808 1.563,-19.062 0,-28.035 z m 378.566,-26.891 c 8.19,15.598 13.63,32.723 11.28,52.973 l -36.59,24.512 c -8.18,-10.121 -15.99,-19.856 -24.17,-29.973 7.8,-33.461 18.32,-67.371 23.38,-100.836 l -2.74,2.719 c -5.05,22.953 -28.42,26.473 -44.01,39.336 3.51,16.746 7.41,33.469 11.3,50.254 l -11.3,42.008 c -13.63,5.82 -26.84,11.675 -42.05,13.23 -7.79,-7.008 -16.36,-2.699 -25.33,-1.922 -3.89,-4.301 -5.44,-10.914 -4.67,-17.527 3.9,-4.656 10.53,-2.344 14.03,-7.789 1.96,-3.113 0.78,-7.75 -1.91,-10.102 -5.09,-2.746 -10.55,1.914 -12.89,6.594 -5.03,0.395 -4.67,-6.227 -5.83,-9.34 -0.8,-8.566 7.03,-10.125 13.24,-11.293 5.84,-1.558 7.77,-9.34 5.48,-14.785 -5.48,-12.461 -20.67,-4.281 -30.01,-3.895 l -48.299,51.372 0.773,56.867 c 0,0.031 -0.05,0.051 -0.058,0.101 0.187,16.285 16.707,32.508 41.494,40.672 -16.6,0 -33.236,0 -41.518,-8.191 0,16.375 8.282,32.722 16.61,40.941 -16.61,-8.219 -24.899,-16.367 -33.223,-32.75 -8.312,8.184 -16.621,24.531 -33.215,32.75 8.297,-8.219 16.594,-24.566 16.594,-40.941 -16.594,8.191 -24.918,8.191 -41.527,8.191 24.789,-8.133 33.129,-24.387 41.394,-40.672 0,-0.05 -0.058,-0.07 -0.058,-0.101 V 597.801 L 901.848,547.207 876.52,544.48 c -5.829,1.961 -5.067,8.559 -6.239,13.258 0.41,14.364 26.895,3.864 19.485,24.106 -3.504,15.957 -9.743,-6.977 -17.934,-1.934 -3.871,2.328 -3.871,6.227 -3.492,10.524 3.492,5.046 9.348,4.656 14.023,7.367 2.336,7.043 0,11.679 -1.961,18.687 -5.828,0.785 -13.23,-1.16 -19.464,-1.949 -7.016,6.625 -16.348,2.344 -24.528,3.906 -7.012,-7.39 -17.922,-8.965 -26.875,-13.238 l -11.289,-40.102 c 0.379,-19.828 9.348,-37.371 10.121,-56.058 l -31.562,-18.68 -15.164,-24.551 c 5.054,35.043 15.57,70.098 23.359,104.743 l -26.102,30.75 -36.605,-26.067 c -2.715,-21.051 3.914,-38.547 12.457,-54.133 4.691,10.504 10.137,20.664 14.023,31.93 -4.277,6.262 -7.39,12.848 -8.589,20.25 5.871,4.277 12.492,6.984 19.5,8.555 4.296,-4.645 7.406,-9.742 9.351,-14.797 l -28.043,-102.008 7.781,-25.32 c -10.91,-15.598 5.071,-26.875 8.192,-40.899 -19.102,-10.136 -8.192,-33.109 -11.305,-49.859 h 40.52 c -10.516,8.574 -30,11.699 -23.383,31.148 6.238,6.246 15.582,10.121 24.156,14.055 l 10.11,56.066 73.218,16.762 c 7.407,16.332 14.024,33.465 23.371,49.43 l 28.817,16.777 c 8.183,14.008 4.312,37.762 26.105,41.254 1.547,-9.723 0.789,-20.633 1.153,-30.738 l -27.258,-29.223 c -24.551,2.348 -23.746,-24.922 -29.985,-38.14 19.864,11.257 39.731,24.105 53.36,44.757 h 2.73 c 1.153,-44.41 2.352,-90.746 -0.789,-134.754 -1.562,-20.246 -24.902,-32.71 -40.125,-38.941 10.91,-9.336 25.344,-9.75 40.125,-10.547 3.504,-11.246 6.633,-24.508 18.711,-30.73 10.524,7.398 14.781,19.078 16.738,30.73 14.809,1.211 30.386,0.414 41.296,11.34 -16.36,5.438 -38.171,17.902 -40.507,37.352 l -0.789,134.757 h 1.95 c 16.356,-17.121 33.496,-34.632 54.916,-43.964 -3.91,10.097 -6.61,21.789 -12.07,30.738 -21.04,0 -31.542,23.367 -45.569,36.625 l 0.773,28.797 c 21.036,-4.301 21.416,-26.871 28.026,-42.055 l 28.84,-15.965 21.8,-47.5 c 23.38,-7.402 49.47,-7.804 71.66,-17.941 l 6.64,-44 c 0,-13.613 18.3,-12.461 25.3,-21.434 8.57,-19.851 -13.25,-22.179 -22.58,-30.773 12.84,-2.707 24.92,1.594 38.55,0 v 36.621 c -23.76,9.355 0.4,25.324 1.95,37.394 -6.2,12.86 -1.15,24.922 2.72,37.411 l -25.31,95.031 c -4.68,8.527 4.67,14.773 9.36,19.812 6.6,-1.547 14.41,-5.039 17.92,-10.504 -17.54,-15.957 0,-32.695 5.44,-48.293" /></g></g></svg>