<?xml version="1.0" encoding="UTF-8" standalone="no"?><!DOCTYPE svg PUBLIC "-//W3C//DTD SVG 1.1//EN" "http://www.w3.org/Graphics/SVG/1.1/DTD/svg11.dtd"><!-- Generated by graphviz version 2.40.1 (20161225.0304)
 --><!-- Title: CustomerJourneyMapInstitucion Pages: 1 --><svg xmlns="http://www.w3.org/2000/svg" xmlns:xlink="http://www.w3.org/1999/xlink" width="855pt" height="317pt" viewBox="0.00 0.00 855.48 317.00">
<g id="graph0" class="graph" transform="scale(1 1) rotate(0) translate(4 313)">
<title>CustomerJourneyMapInstitucion</title>
<polygon fill="#ffffff" stroke="transparent" points="-4,4 -4,-313 851.4796,-313 851.4796,4 -4,4"/>
<g id="clust1" class="cluster">
<title>cluster_phases</title>
<polygon fill="none" stroke="#000000" stroke-dasharray="1,5" points="8,-8 8,-301 123.3376,-301 123.3376,-8 8,-8"/>
<text text-anchor="middle" x="65.6688" y="-284.4" font-family="Times,serif" font-size="14.00" fill="#000000">Fases del Journey</text>
</g>
<g id="clust2" class="cluster">
<title>cluster_actions</title>
<polygon fill="none" stroke="#000000" points="143.3376,-8 143.3376,-301 374.0528,-301 374.0528,-8 143.3376,-8"/>
<text text-anchor="middle" x="258.6952" y="-284.4" font-family="Times,serif" font-size="14.00" fill="#000000">Acciones del Usuario</text>
</g>
<g id="clust3" class="cluster">
<title>cluster_challenges</title>
<polygon fill="none" stroke="#000000" stroke-dasharray="5,2" points="394.0528,-8 394.0528,-301 599.4312,-301 599.4312,-8 394.0528,-8"/>
<text text-anchor="middle" x="496.742" y="-284.4" font-family="Times,serif" font-size="14.00" fill="#000000">Desafíos</text>
</g>
<g id="clust4" class="cluster">
<title>cluster_solutions</title>
<polygon fill="#d3d3d3" stroke="#d3d3d3" points="619.4312,-8 619.4312,-301 839.4796,-301 839.4796,-8 619.4312,-8"/>
<text text-anchor="middle" x="729.4554" y="-284.4" font-family="Times,serif" font-size="14.00" fill="#000000">Soluciones Propuestas</text>
</g>
<!-- phase1 -->
<g id="node1" class="node">
<title>phase1</title>
<path fill="none" stroke="#000000" d="M103.507,-268C103.507,-268 27.8306,-268 27.8306,-268 21.8306,-268 15.8306,-262 15.8306,-256 15.8306,-256 15.8306,-244 15.8306,-244 15.8306,-238 21.8306,-232 27.8306,-232 27.8306,-232 103.507,-232 103.507,-232 109.507,-232 115.507,-238 115.507,-244 115.507,-244 115.507,-256 115.507,-256 115.507,-262 109.507,-268 103.507,-268"/>
<text text-anchor="middle" x="65.6688" y="-246.4" font-family="Arial" font-size="12.00" fill="#000000">Descubrimiento</text>
</g>
<!-- action1 -->
<g id="node6" class="node">
<title>action1</title>
<path fill="none" stroke="#000000" d="M353.9106,-268C353.9106,-268 163.4798,-268 163.4798,-268 157.4798,-268 151.4798,-262 151.4798,-256 151.4798,-256 151.4798,-244 151.4798,-244 151.4798,-238 157.4798,-232 163.4798,-232 163.4798,-232 353.9106,-232 353.9106,-232 359.9106,-232 365.9106,-238 365.9106,-244 365.9106,-244 365.9106,-256 365.9106,-256 365.9106,-262 359.9106,-268 353.9106,-268"/>
<text text-anchor="middle" x="258.6952" y="-246.4" font-family="Arial" font-size="12.00" fill="#000000">Identifica necesidad de digitalización</text>
</g>
<!-- phase1&#45;&gt;action1 -->
<g id="edge1" class="edge">
<title>phase1-&gt;action1</title>
<path fill="none" stroke="#000000" d="M115.3779,-250C123.4939,-250 132.1925,-250 141.1449,-250"/>
<polygon fill="#000000" stroke="#000000" points="141.3429,-253.5001 151.3429,-250 141.3428,-246.5001 141.3429,-253.5001"/>
</g>
<!-- phase2 -->
<g id="node2" class="node">
<title>phase2</title>
<path fill="none" stroke="#000000" d="M92.8467,-214C92.8467,-214 38.4909,-214 38.4909,-214 32.4909,-214 26.4909,-208 26.4909,-202 26.4909,-202 26.4909,-190 26.4909,-190 26.4909,-184 32.4909,-178 38.4909,-178 38.4909,-178 92.8467,-178 92.8467,-178 98.8467,-178 104.8467,-184 104.8467,-190 104.8467,-190 104.8467,-202 104.8467,-202 104.8467,-208 98.8467,-214 92.8467,-214"/>
<text text-anchor="middle" x="65.6688" y="-192.4" font-family="Arial" font-size="12.00" fill="#000000">Evaluación</text>
</g>
<!-- action2 -->
<g id="node7" class="node">
<title>action2</title>
<path fill="none" stroke="#000000" d="M341.907,-214C341.907,-214 175.4834,-214 175.4834,-214 169.4834,-214 163.4834,-208 163.4834,-202 163.4834,-202 163.4834,-190 163.4834,-190 163.4834,-184 169.4834,-178 175.4834,-178 175.4834,-178 341.907,-178 341.907,-178 347.907,-178 353.907,-184 353.907,-190 353.907,-190 353.907,-202 353.907,-202 353.907,-208 347.907,-214 341.907,-214"/>
<text text-anchor="middle" x="258.6952" y="-192.4" font-family="Arial" font-size="12.00" fill="#000000">Explora opciones de plataformas</text>
</g>
<!-- phase2&#45;&gt;action2 -->
<g id="edge4" class="edge">
<title>phase2-&gt;action2</title>
<path fill="none" stroke="#000000" d="M105.1964,-196C119.3955,-196 136.1584,-196 153.2981,-196"/>
<polygon fill="#000000" stroke="#000000" points="153.4168,-199.5001 163.4168,-196 153.4168,-192.5001 153.4168,-199.5001"/>
</g>
<!-- phase3 -->
<g id="node3" class="node">
<title>phase3</title>
<path fill="none" stroke="#000000" d="M86.6644,-160C86.6644,-160 44.6732,-160 44.6732,-160 38.6732,-160 32.6732,-154 32.6732,-148 32.6732,-148 32.6732,-136 32.6732,-136 32.6732,-130 38.6732,-124 44.6732,-124 44.6732,-124 86.6644,-124 86.6644,-124 92.6644,-124 98.6644,-130 98.6644,-136 98.6644,-136 98.6644,-148 98.6644,-148 98.6644,-154 92.6644,-160 86.6644,-160"/>
<text text-anchor="middle" x="65.6688" y="-138.4" font-family="Arial" font-size="12.00" fill="#000000">Decisión</text>
</g>
<!-- action3 -->
<g id="node8" class="node">
<title>action3</title>
<path fill="none" stroke="#000000" d="M328.5532,-160C328.5532,-160 188.8372,-160 188.8372,-160 182.8372,-160 176.8372,-154 176.8372,-148 176.8372,-148 176.8372,-136 176.8372,-136 176.8372,-130 182.8372,-124 188.8372,-124 188.8372,-124 328.5532,-124 328.5532,-124 334.5532,-124 340.5532,-130 340.5532,-136 340.5532,-136 340.5532,-148 340.5532,-148 340.5532,-154 334.5532,-160 328.5532,-160"/>
<text text-anchor="middle" x="258.6952" y="-138.4" font-family="Arial" font-size="12.00" fill="#000000">Registra revista en JoUdeG</text>
</g>
<!-- phase3&#45;&gt;action3 -->
<g id="edge7" class="edge">
<title>phase3-&gt;action3</title>
<path fill="none" stroke="#000000" d="M98.8512,-142C117.7989,-142 142.5771,-142 166.949,-142"/>
<polygon fill="#000000" stroke="#000000" points="166.9833,-145.5001 176.9833,-142 166.9832,-138.5001 166.9833,-145.5001"/>
</g>
<!-- phase4 -->
<g id="node4" class="node">
<title>phase4</title>
<path fill="none" stroke="#000000" d="M80.6688,-106C80.6688,-106 50.6688,-106 50.6688,-106 44.6688,-106 38.6688,-100 38.6688,-94 38.6688,-94 38.6688,-82 38.6688,-82 38.6688,-76 44.6688,-70 50.6688,-70 50.6688,-70 80.6688,-70 80.6688,-70 86.6688,-70 92.6688,-76 92.6688,-82 92.6688,-82 92.6688,-94 92.6688,-94 92.6688,-100 86.6688,-106 80.6688,-106"/>
<text text-anchor="middle" x="65.6688" y="-84.4" font-family="Arial" font-size="12.00" fill="#000000">Uso</text>
</g>
<!-- action4 -->
<g id="node9" class="node">
<title>action4</title>
<path fill="none" stroke="#000000" d="M328.9067,-106C328.9067,-106 188.4837,-106 188.4837,-106 182.4837,-106 176.4837,-100 176.4837,-94 176.4837,-94 176.4837,-82 176.4837,-82 176.4837,-76 182.4837,-70 188.4837,-70 188.4837,-70 328.9067,-70 328.9067,-70 334.9067,-70 340.9067,-76 340.9067,-82 340.9067,-82 340.9067,-94 340.9067,-94 340.9067,-100 334.9067,-106 328.9067,-106"/>
<text text-anchor="middle" x="258.6952" y="-84.4" font-family="Arial" font-size="12.00" fill="#000000">Gestiona datos de la revista</text>
</g>
<!-- phase4&#45;&gt;action4 -->
<g id="edge10" class="edge">
<title>phase4-&gt;action4</title>
<path fill="none" stroke="#000000" d="M92.9154,-88C112.2667,-88 139.4703,-88 166.2549,-88"/>
<polygon fill="#000000" stroke="#000000" points="166.4826,-91.5001 176.4826,-88 166.4825,-84.5001 166.4826,-91.5001"/>
</g>
<!-- phase5 -->
<g id="node5" class="node">
<title>phase5</title>
<path fill="none" stroke="#000000" d="M81.5215,-52C81.5215,-52 49.8161,-52 49.8161,-52 43.8161,-52 37.8161,-46 37.8161,-40 37.8161,-40 37.8161,-28 37.8161,-28 37.8161,-22 43.8161,-16 49.8161,-16 49.8161,-16 81.5215,-16 81.5215,-16 87.5215,-16 93.5215,-22 93.5215,-28 93.5215,-28 93.5215,-40 93.5215,-40 93.5215,-46 87.5215,-52 81.5215,-52"/>
<text text-anchor="middle" x="65.6688" y="-30.4" font-family="Arial" font-size="12.00" fill="#000000">Lealtad</text>
</g>
<!-- action5 -->
<g id="node10" class="node">
<title>action5</title>
<path fill="none" stroke="#000000" d="M331.7368,-52C331.7368,-52 185.6536,-52 185.6536,-52 179.6536,-52 173.6536,-46 173.6536,-40 173.6536,-40 173.6536,-28 173.6536,-28 173.6536,-22 179.6536,-16 185.6536,-16 185.6536,-16 331.7368,-16 331.7368,-16 337.7368,-16 343.7368,-22 343.7368,-28 343.7368,-28 343.7368,-40 343.7368,-40 343.7368,-46 337.7368,-52 331.7368,-52"/>
<text text-anchor="middle" x="258.6952" y="-30.4" font-family="Arial" font-size="12.00" fill="#000000">Promueve el uso de JoUdeG</text>
</g>
<!-- phase5&#45;&gt;action5 -->
<g id="edge13" class="edge">
<title>phase5-&gt;action5</title>
<path fill="none" stroke="#000000" d="M93.7365,-34C112.2904,-34 137.7974,-34 163.2094,-34"/>
<polygon fill="#000000" stroke="#000000" points="163.3078,-37.5001 173.3077,-34 163.3077,-30.5001 163.3078,-37.5001"/>
</g>
<!-- pain1 -->
<g id="node11" class="node">
<title>pain1</title>
<path fill="none" stroke="#000000" d="M579.6208,-268C579.6208,-268 413.8632,-268 413.8632,-268 407.8632,-268 401.8632,-262 401.8632,-256 401.8632,-256 401.8632,-244 401.8632,-244 401.8632,-238 407.8632,-232 413.8632,-232 413.8632,-232 579.6208,-232 579.6208,-232 585.6208,-232 591.6208,-238 591.6208,-244 591.6208,-244 591.6208,-256 591.6208,-256 591.6208,-262 585.6208,-268 579.6208,-268"/>
<text text-anchor="middle" x="496.742" y="-246.4" font-family="Arial" font-size="12.00" fill="#000000">Falta de claridad sobre opciones</text>
</g>
<!-- action1&#45;&gt;pain1 -->
<g id="edge2" class="edge">
<title>action1-&gt;pain1</title>
<path fill="none" stroke="#000000" d="M366.2274,-250C374.6366,-250 383.123,-250 391.5166,-250"/>
<polygon fill="#000000" stroke="#000000" points="391.6976,-253.5001 401.6975,-250 391.6975,-246.5001 391.6976,-253.5001"/>
</g>
<!-- pain2 -->
<g id="node12" class="node">
<title>pain2</title>
<path fill="none" stroke="#000000" d="M570.5871,-214C570.5871,-214 422.8969,-214 422.8969,-214 416.8969,-214 410.8969,-208 410.8969,-202 410.8969,-202 410.8969,-190 410.8969,-190 410.8969,-184 416.8969,-178 422.8969,-178 422.8969,-178 570.5871,-178 570.5871,-178 576.5871,-178 582.5871,-184 582.5871,-190 582.5871,-190 582.5871,-202 582.5871,-202 582.5871,-208 576.5871,-214 570.5871,-214"/>
<text text-anchor="middle" x="496.742" y="-192.4" font-family="Arial" font-size="12.00" fill="#000000">Plataformas difíciles de usar</text>
</g>
<!-- action2&#45;&gt;pain2 -->
<g id="edge5" class="edge">
<title>action2-&gt;pain2</title>
<path fill="none" stroke="#000000" d="M354.1463,-196C369.5317,-196 385.4645,-196 400.8601,-196"/>
<polygon fill="#000000" stroke="#000000" points="400.8884,-199.5001 410.8884,-196 400.8883,-192.5001 400.8884,-199.5001"/>
</g>
<!-- pain3 -->
<g id="node13" class="node">
<title>pain3</title>
<path fill="none" stroke="#000000" d="M542.9356,-160C542.9356,-160 450.5484,-160 450.5484,-160 444.5484,-160 438.5484,-154 438.5484,-148 438.5484,-148 438.5484,-136 438.5484,-136 438.5484,-130 444.5484,-124 450.5484,-124 450.5484,-124 542.9356,-124 542.9356,-124 548.9356,-124 554.9356,-130 554.9356,-136 554.9356,-136 554.9356,-148 554.9356,-148 554.9356,-154 548.9356,-160 542.9356,-160"/>
<text text-anchor="middle" x="496.742" y="-138.4" font-family="Arial" font-size="12.00" fill="#000000">Interfaz no intuitiva</text>
</g>
<!-- action3&#45;&gt;pain3 -->
<g id="edge8" class="edge">
<title>action3-&gt;pain3</title>
<path fill="none" stroke="#000000" d="M340.6174,-142C369.1191,-142 400.7746,-142 428.0899,-142"/>
<polygon fill="#000000" stroke="#000000" points="428.3307,-145.5001 438.3306,-142 428.3306,-138.5001 428.3307,-145.5001"/>
</g>
<!-- pain4 -->
<g id="node14" class="node">
<title>pain4</title>
<path fill="none" stroke="#000000" d="M566.5964,-106C566.5964,-106 426.8876,-106 426.8876,-106 420.8876,-106 414.8876,-100 414.8876,-94 414.8876,-94 414.8876,-82 414.8876,-82 414.8876,-76 420.8876,-70 426.8876,-70 426.8876,-70 566.5964,-70 566.5964,-70 572.5964,-70 578.5964,-76 578.5964,-82 578.5964,-82 578.5964,-94 578.5964,-94 578.5964,-100 572.5964,-106 566.5964,-106"/>
<text text-anchor="middle" x="496.742" y="-84.4" font-family="Arial" font-size="12.00" fill="#000000">Errores en la configuración</text>
</g>
<!-- action4&#45;&gt;pain4 -->
<g id="edge11" class="edge">
<title>action4-&gt;pain4</title>
<path fill="none" stroke="#000000" d="M340.9507,-88C361.5078,-88 383.6875,-88 404.6854,-88"/>
<polygon fill="#000000" stroke="#000000" points="404.8862,-91.5001 414.8862,-88 404.8861,-84.5001 404.8862,-91.5001"/>
</g>
<!-- pain5 -->
<g id="node15" class="node">
<title>pain5</title>
<path fill="none" stroke="#000000" d="M566.5976,-52C566.5976,-52 426.8864,-52 426.8864,-52 420.8864,-52 414.8864,-46 414.8864,-40 414.8864,-40 414.8864,-28 414.8864,-28 414.8864,-22 420.8864,-16 426.8864,-16 426.8864,-16 566.5976,-16 566.5976,-16 572.5976,-16 578.5976,-22 578.5976,-28 578.5976,-28 578.5976,-40 578.5976,-40 578.5976,-46 572.5976,-52 566.5976,-52"/>
<text text-anchor="middle" x="496.742" y="-30.4" font-family="Arial" font-size="12.00" fill="#000000">Limitaciones para colaborar</text>
</g>
<!-- action5&#45;&gt;pain5 -->
<g id="edge14" class="edge">
<title>action5-&gt;pain5</title>
<path fill="none" stroke="#000000" d="M343.9632,-34C363.7071,-34 384.8019,-34 404.8171,-34"/>
<polygon fill="#000000" stroke="#000000" points="404.8576,-37.5001 414.8575,-34 404.8575,-30.5001 404.8576,-37.5001"/>
</g>
<!-- solution1 -->
<g id="node16" class="node">
<title>solution1</title>
<path fill="none" stroke="#000000" d="M774.6235,-268C774.6235,-268 684.2873,-268 684.2873,-268 678.2873,-268 672.2873,-262 672.2873,-256 672.2873,-256 672.2873,-244 672.2873,-244 672.2873,-238 678.2873,-232 684.2873,-232 684.2873,-232 774.6235,-232 774.6235,-232 780.6235,-232 786.6235,-238 786.6235,-244 786.6235,-244 786.6235,-256 786.6235,-256 786.6235,-262 780.6235,-268 774.6235,-268"/>
<text text-anchor="middle" x="729.4554" y="-246.4" font-family="Arial" font-size="12.00" fill="#000000">Tutoriales iniciales</text>
</g>
<!-- pain1&#45;&gt;solution1 -->
<g id="edge3" class="edge">
<title>pain1-&gt;solution1</title>
<path fill="none" stroke="#000000" d="M591.7311,-250C615.2748,-250 640.0273,-250 661.9521,-250"/>
<polygon fill="#000000" stroke="#000000" points="662.1401,-253.5001 672.1401,-250 662.1401,-246.5001 662.1401,-253.5001"/>
</g>
<!-- solution2 -->
<g id="node17" class="node">
<title>solution2</title>
<path fill="none" stroke="#000000" d="M778.4658,-214C778.4658,-214 680.445,-214 680.445,-214 674.445,-214 668.445,-208 668.445,-202 668.445,-202 668.445,-190 668.445,-190 668.445,-184 674.445,-178 680.445,-178 680.445,-178 778.4658,-178 778.4658,-178 784.4658,-178 790.4658,-184 790.4658,-190 790.4658,-190 790.4658,-202 790.4658,-202 790.4658,-208 784.4658,-214 778.4658,-214"/>
<text text-anchor="middle" x="729.4554" y="-192.4" font-family="Arial" font-size="12.00" fill="#000000">Interfaz simplificada</text>
</g>
<!-- pain2&#45;&gt;solution2 -->
<g id="edge6" class="edge">
<title>pain2-&gt;solution2</title>
<path fill="none" stroke="#000000" d="M582.7347,-196C607.5454,-196 634.3365,-196 658.1502,-196"/>
<polygon fill="#000000" stroke="#000000" points="658.1594,-199.5001 668.1594,-196 658.1593,-192.5001 658.1594,-199.5001"/>
</g>
<!-- solution3 -->
<g id="node18" class="node">
<title>solution3</title>
<path fill="none" stroke="#000000" d="M819.5038,-160C819.5038,-160 639.407,-160 639.407,-160 633.407,-160 627.407,-154 627.407,-148 627.407,-148 627.407,-136 627.407,-136 627.407,-130 633.407,-124 639.407,-124 639.407,-124 819.5038,-124 819.5038,-124 825.5038,-124 831.5038,-130 831.5038,-136 831.5038,-136 831.5038,-148 831.5038,-148 831.5038,-154 825.5038,-160 819.5038,-160"/>
<text text-anchor="middle" x="729.4554" y="-138.4" font-family="Arial" font-size="12.00" fill="#000000">Validación de datos en tiempo real</text>
</g>
<!-- pain3&#45;&gt;solution3 -->
<g id="edge9" class="edge">
<title>pain3-&gt;solution3</title>
<path fill="none" stroke="#000000" d="M555.165,-142C573.9942,-142 595.5409,-142 616.9156,-142"/>
<polygon fill="#000000" stroke="#000000" points="617.0466,-145.5001 627.0466,-142 617.0466,-138.5001 617.0466,-145.5001"/>
</g>
<!-- solution4 -->
<g id="node19" class="node">
<title>solution4</title>
<path fill="none" stroke="#000000" d="M790.9438,-106C790.9438,-106 667.967,-106 667.967,-106 661.967,-106 655.967,-100 655.967,-94 655.967,-94 655.967,-82 655.967,-82 655.967,-76 661.967,-70 667.967,-70 667.967,-70 790.9438,-70 790.9438,-70 796.9438,-70 802.9438,-76 802.9438,-82 802.9438,-82 802.9438,-94 802.9438,-94 802.9438,-100 796.9438,-106 790.9438,-106"/>
<text text-anchor="middle" x="729.4554" y="-84.4" font-family="Arial" font-size="12.00" fill="#000000">Soporte técnico eficiente</text>
</g>
<!-- pain4&#45;&gt;solution4 -->
<g id="edge12" class="edge">
<title>pain4-&gt;solution4</title>
<path fill="none" stroke="#000000" d="M578.4608,-88C600.1683,-88 623.6454,-88 645.4715,-88"/>
<polygon fill="#000000" stroke="#000000" points="645.7036,-91.5001 655.7036,-88 645.7035,-84.5001 645.7036,-91.5001"/>
</g>
<!-- solution5 -->
<g id="node20" class="node">
<title>solution5</title>
<path fill="none" stroke="#000000" d="M798.469,-52C798.469,-52 660.4418,-52 660.4418,-52 654.4418,-52 648.4418,-46 648.4418,-40 648.4418,-40 648.4418,-28 648.4418,-28 648.4418,-22 654.4418,-16 660.4418,-16 660.4418,-16 798.469,-16 798.469,-16 804.469,-16 810.469,-22 810.469,-28 810.469,-28 810.469,-40 810.469,-40 810.469,-46 804.469,-52 798.469,-52"/>
<text text-anchor="middle" x="729.4554" y="-30.4" font-family="Arial" font-size="12.00" fill="#000000">Herramientas colaborativas</text>
</g>
<!-- pain5&#45;&gt;solution5 -->
<g id="edge15" class="edge">
<title>pain5-&gt;solution5</title>
<path fill="none" stroke="#000000" d="M578.4608,-34C597.7546,-34 618.4465,-34 638.1345,-34"/>
<polygon fill="#000000" stroke="#000000" points="638.3258,-37.5001 648.3258,-34 638.3258,-30.5001 638.3258,-37.5001"/>
</g>
</g>
</svg>