<?xml version="1.0" encoding="UTF-8" standalone="no"?><!DOCTYPE svg PUBLIC "-//W3C//DTD SVG 1.1//EN" "http://www.w3.org/Graphics/SVG/1.1/DTD/svg11.dtd"><!-- Generated by graphviz version 2.40.1 (20161225.0304)
 --><!-- Title: CustomerJourneyMapLector Pages: 1 --><svg xmlns="http://www.w3.org/2000/svg" xmlns:xlink="http://www.w3.org/1999/xlink" width="1032pt" height="317pt" viewBox="0.00 0.00 1032.09 317.00">
<g id="graph0" class="graph" transform="scale(1 1) rotate(0) translate(4 313)">
<title>CustomerJourneyMapLector</title>
<polygon fill="#ffffff" stroke="transparent" points="-4,4 -4,-313 1028.0944,-313 1028.0944,4 -4,4"/>
<g id="clust1" class="cluster">
<title>cluster_phases</title>
<polygon fill="none" stroke="#000000" stroke-dasharray="1,5" points="8,-8 8,-301 123.3376,-301 123.3376,-8 8,-8"/>
<text text-anchor="middle" x="65.6688" y="-284.4" font-family="Times,serif" font-size="14.00" fill="#000000">Fases del Journey</text>
</g>
<g id="clust2" class="cluster">
<title>cluster_actions</title>
<polygon fill="none" stroke="#000000" points="143.3376,-8 143.3376,-301 416.0372,-301 416.0372,-8 143.3376,-8"/>
<text text-anchor="middle" x="279.6874" y="-284.4" font-family="Times,serif" font-size="14.00" fill="#000000">Acciones del Usuario</text>
</g>
<g id="clust3" class="cluster">
<title>cluster_challenges</title>
<polygon fill="none" stroke="#000000" stroke-dasharray="5,2" points="436.0372,-8 436.0372,-301 720.06,-301 720.06,-8 436.0372,-8"/>
<text text-anchor="middle" x="578.0486" y="-284.4" font-family="Times,serif" font-size="14.00" fill="#000000">Desafíos</text>
</g>
<g id="clust4" class="cluster">
<title>cluster_solutions</title>
<polygon fill="#d3d3d3" stroke="#d3d3d3" points="740.06,-8 740.06,-301 1016.0944,-301 1016.0944,-8 740.06,-8"/>
<text text-anchor="middle" x="878.0772" y="-284.4" font-family="Times,serif" font-size="14.00" fill="#000000">Soluciones Propuestas</text>
</g>
<!-- phase1 -->
<g id="node1" class="node">
<title>phase1</title>
<path fill="none" stroke="#000000" d="M103.507,-268C103.507,-268 27.8306,-268 27.8306,-268 21.8306,-268 15.8306,-262 15.8306,-256 15.8306,-256 15.8306,-244 15.8306,-244 15.8306,-238 21.8306,-232 27.8306,-232 27.8306,-232 103.507,-232 103.507,-232 109.507,-232 115.507,-238 115.507,-244 115.507,-244 115.507,-256 115.507,-256 115.507,-262 109.507,-268 103.507,-268"/>
<text text-anchor="middle" x="65.6688" y="-246.4" font-family="Arial" font-size="12.00" fill="#000000">Descubrimiento</text>
</g>
<!-- action1 -->
<g id="node6" class="node">
<title>action1</title>
<path fill="none" stroke="#000000" d="M350.7186,-268C350.7186,-268 208.6562,-268 208.6562,-268 202.6562,-268 196.6562,-262 196.6562,-256 196.6562,-256 196.6562,-244 196.6562,-244 196.6562,-238 202.6562,-232 208.6562,-232 208.6562,-232 350.7186,-232 350.7186,-232 356.7186,-232 362.7186,-238 362.7186,-244 362.7186,-244 362.7186,-256 362.7186,-256 362.7186,-262 356.7186,-268 350.7186,-268"/>
<text text-anchor="middle" x="279.6874" y="-246.4" font-family="Arial" font-size="12.00" fill="#000000">Busca un artículo relevante</text>
</g>
<!-- phase1&#45;&gt;action1 -->
<g id="edge1" class="edge">
<title>phase1-&gt;action1</title>
<path fill="none" stroke="#000000" d="M115.5765,-250C136.7458,-250 162.1313,-250 186.5385,-250"/>
<polygon fill="#000000" stroke="#000000" points="186.5575,-253.5001 196.5575,-250 186.5575,-246.5001 186.5575,-253.5001"/>
</g>
<!-- phase2 -->
<g id="node2" class="node">
<title>phase2</title>
<path fill="none" stroke="#000000" d="M92.8467,-214C92.8467,-214 38.4909,-214 38.4909,-214 32.4909,-214 26.4909,-208 26.4909,-202 26.4909,-202 26.4909,-190 26.4909,-190 26.4909,-184 32.4909,-178 38.4909,-178 38.4909,-178 92.8467,-178 92.8467,-178 98.8467,-178 104.8467,-184 104.8467,-190 104.8467,-190 104.8467,-202 104.8467,-202 104.8467,-208 98.8467,-214 92.8467,-214"/>
<text text-anchor="middle" x="65.6688" y="-192.4" font-family="Arial" font-size="12.00" fill="#000000">Evaluación</text>
</g>
<!-- action2 -->
<g id="node7" class="node">
<title>action2</title>
<path fill="none" stroke="#000000" d="M348.683,-214C348.683,-214 210.6918,-214 210.6918,-214 204.6918,-214 198.6918,-208 198.6918,-202 198.6918,-202 198.6918,-190 198.6918,-190 198.6918,-184 204.6918,-178 210.6918,-178 210.6918,-178 348.683,-178 348.683,-178 354.683,-178 360.683,-184 360.683,-190 360.683,-190 360.683,-202 360.683,-202 360.683,-208 354.683,-214 348.683,-214"/>
<text text-anchor="middle" x="279.6874" y="-192.4" font-family="Arial" font-size="12.00" fill="#000000">Filtra por temática o revista</text>
</g>
<!-- phase2&#45;&gt;action2 -->
<g id="edge4" class="edge">
<title>phase2-&gt;action2</title>
<path fill="none" stroke="#000000" d="M104.9231,-196C128.3476,-196 159.1306,-196 188.3255,-196"/>
<polygon fill="#000000" stroke="#000000" points="188.5712,-199.5001 198.5711,-196 188.5711,-192.5001 188.5712,-199.5001"/>
</g>
<!-- phase3 -->
<g id="node3" class="node">
<title>phase3</title>
<path fill="none" stroke="#000000" d="M86.6644,-160C86.6644,-160 44.6732,-160 44.6732,-160 38.6732,-160 32.6732,-154 32.6732,-148 32.6732,-148 32.6732,-136 32.6732,-136 32.6732,-130 38.6732,-124 44.6732,-124 44.6732,-124 86.6644,-124 86.6644,-124 92.6644,-124 98.6644,-130 98.6644,-136 98.6644,-136 98.6644,-148 98.6644,-148 98.6644,-154 92.6644,-160 86.6644,-160"/>
<text text-anchor="middle" x="65.6688" y="-138.4" font-family="Arial" font-size="12.00" fill="#000000">Decisión</text>
</g>
<!-- action3 -->
<g id="node8" class="node">
<title>action3</title>
<path fill="none" stroke="#000000" d="M362.5566,-160C362.5566,-160 196.8182,-160 196.8182,-160 190.8182,-160 184.8182,-154 184.8182,-148 184.8182,-148 184.8182,-136 184.8182,-136 184.8182,-130 190.8182,-124 196.8182,-124 196.8182,-124 362.5566,-124 362.5566,-124 368.5566,-124 374.5566,-130 374.5566,-136 374.5566,-136 374.5566,-148 374.5566,-148 374.5566,-154 368.5566,-160 362.5566,-160"/>
<text text-anchor="middle" x="279.6874" y="-138.4" font-family="Arial" font-size="12.00" fill="#000000">Accede al artículo seleccionado</text>
</g>
<!-- phase3&#45;&gt;action3 -->
<g id="edge7" class="edge">
<title>phase3-&gt;action3</title>
<path fill="none" stroke="#000000" d="M99.1092,-142C119.6315,-142 147.1506,-142 174.5101,-142"/>
<polygon fill="#000000" stroke="#000000" points="174.5694,-145.5001 184.5694,-142 174.5693,-138.5001 174.5694,-145.5001"/>
</g>
<!-- phase4 -->
<g id="node4" class="node">
<title>phase4</title>
<path fill="none" stroke="#000000" d="M80.6688,-106C80.6688,-106 50.6688,-106 50.6688,-106 44.6688,-106 38.6688,-100 38.6688,-94 38.6688,-94 38.6688,-82 38.6688,-82 38.6688,-76 44.6688,-70 50.6688,-70 50.6688,-70 80.6688,-70 80.6688,-70 86.6688,-70 92.6688,-76 92.6688,-82 92.6688,-82 92.6688,-94 92.6688,-94 92.6688,-100 86.6688,-106 80.6688,-106"/>
<text text-anchor="middle" x="65.6688" y="-84.4" font-family="Arial" font-size="12.00" fill="#000000">Uso</text>
</g>
<!-- action4 -->
<g id="node9" class="node">
<title>action4</title>
<path fill="none" stroke="#000000" d="M395.8872,-106C395.8872,-106 163.4876,-106 163.4876,-106 157.4876,-106 151.4876,-100 151.4876,-94 151.4876,-94 151.4876,-82 151.4876,-82 151.4876,-76 157.4876,-70 163.4876,-70 163.4876,-70 395.8872,-70 395.8872,-70 401.8872,-70 407.8872,-76 407.8872,-82 407.8872,-82 407.8872,-94 407.8872,-94 407.8872,-100 401.8872,-106 395.8872,-106"/>
<text text-anchor="middle" x="279.6874" y="-84.4" font-family="Arial" font-size="12.00" fill="#000000">Descarga el artículo o consulta estadísticas</text>
</g>
<!-- phase4&#45;&gt;action4 -->
<g id="edge10" class="edge">
<title>phase4-&gt;action4</title>
<path fill="none" stroke="#000000" d="M92.7744,-88C105.8712,-88 122.678,-88 140.83,-88"/>
<polygon fill="#000000" stroke="#000000" points="141.0379,-91.5001 151.0378,-88 141.0378,-84.5001 141.0379,-91.5001"/>
</g>
<!-- phase5 -->
<g id="node5" class="node">
<title>phase5</title>
<path fill="none" stroke="#000000" d="M81.5215,-52C81.5215,-52 49.8161,-52 49.8161,-52 43.8161,-52 37.8161,-46 37.8161,-40 37.8161,-40 37.8161,-28 37.8161,-28 37.8161,-22 43.8161,-16 49.8161,-16 49.8161,-16 81.5215,-16 81.5215,-16 87.5215,-16 93.5215,-22 93.5215,-28 93.5215,-28 93.5215,-40 93.5215,-40 93.5215,-46 87.5215,-52 81.5215,-52"/>
<text text-anchor="middle" x="65.6688" y="-30.4" font-family="Arial" font-size="12.00" fill="#000000">Lealtad</text>
</g>
<!-- action5 -->
<g id="node10" class="node">
<title>action5</title>
<path fill="none" stroke="#000000" d="M392.7222,-52C392.7222,-52 166.6526,-52 166.6526,-52 160.6526,-52 154.6526,-46 154.6526,-40 154.6526,-40 154.6526,-28 154.6526,-28 154.6526,-22 160.6526,-16 166.6526,-16 166.6526,-16 392.7222,-16 392.7222,-16 398.7222,-16 404.7222,-22 404.7222,-28 404.7222,-28 404.7222,-40 404.7222,-40 404.7222,-46 398.7222,-52 392.7222,-52"/>
<text text-anchor="middle" x="279.6874" y="-30.4" font-family="Arial" font-size="12.00" fill="#000000">Comparte el artículo o deja una valoración</text>
</g>
<!-- phase5&#45;&gt;action5 -->
<g id="edge13" class="edge">
<title>phase5-&gt;action5</title>
<path fill="none" stroke="#000000" d="M93.648,-34C107.4456,-34 125.2037,-34 144.2579,-34"/>
<polygon fill="#000000" stroke="#000000" points="144.3261,-37.5001 154.3261,-34 144.3261,-30.5001 144.3261,-37.5001"/>
</g>
<!-- pain1 -->
<g id="node11" class="node">
<title>pain1</title>
<path fill="none" stroke="#000000" d="M700.0714,-268C700.0714,-268 456.0258,-268 456.0258,-268 450.0258,-268 444.0258,-262 444.0258,-256 444.0258,-256 444.0258,-244 444.0258,-244 444.0258,-238 450.0258,-232 456.0258,-232 456.0258,-232 700.0714,-232 700.0714,-232 706.0714,-232 712.0714,-238 712.0714,-244 712.0714,-244 712.0714,-256 712.0714,-256 712.0714,-262 706.0714,-268 700.0714,-268"/>
<text text-anchor="middle" x="578.0486" y="-246.4" font-family="Arial" font-size="12.00" fill="#000000">Dificultad para encontrar artículos específicos</text>
</g>
<!-- action1&#45;&gt;pain1 -->
<g id="edge2" class="edge">
<title>action1-&gt;pain1</title>
<path fill="none" stroke="#000000" d="M362.7976,-250C384.9235,-250 409.4794,-250 433.8574,-250"/>
<polygon fill="#000000" stroke="#000000" points="433.9167,-253.5001 443.9167,-250 433.9167,-246.5001 433.9167,-253.5001"/>
</g>
<!-- pain2 -->
<g id="node12" class="node">
<title>pain2</title>
<path fill="none" stroke="#000000" d="M660.2289,-214C660.2289,-214 495.8683,-214 495.8683,-214 489.8683,-214 483.8683,-208 483.8683,-202 483.8683,-202 483.8683,-190 483.8683,-190 483.8683,-184 489.8683,-178 495.8683,-178 495.8683,-178 660.2289,-178 660.2289,-178 666.2289,-178 672.2289,-184 672.2289,-190 672.2289,-190 672.2289,-202 672.2289,-202 672.2289,-208 666.2289,-214 660.2289,-214"/>
<text text-anchor="middle" x="578.0486" y="-192.4" font-family="Arial" font-size="12.00" fill="#000000">Filtros limitados o poco intuitivos</text>
</g>
<!-- action2&#45;&gt;pain2 -->
<g id="edge5" class="edge">
<title>action2-&gt;pain2</title>
<path fill="none" stroke="#000000" d="M360.8218,-196C395.5225,-196 436.4747,-196 473.4148,-196"/>
<polygon fill="#000000" stroke="#000000" points="473.7189,-199.5001 483.7189,-196 473.7188,-192.5001 473.7189,-199.5001"/>
</g>
<!-- pain3 -->
<g id="node13" class="node">
<title>pain3</title>
<path fill="none" stroke="#000000" d="M665.9366,-160C665.9366,-160 490.1606,-160 490.1606,-160 484.1606,-160 478.1606,-154 478.1606,-148 478.1606,-148 478.1606,-136 478.1606,-136 478.1606,-130 484.1606,-124 490.1606,-124 490.1606,-124 665.9366,-124 665.9366,-124 671.9366,-124 677.9366,-130 677.9366,-136 677.9366,-136 677.9366,-148 677.9366,-148 677.9366,-154 671.9366,-160 665.9366,-160"/>
<text text-anchor="middle" x="578.0486" y="-138.4" font-family="Arial" font-size="12.00" fill="#000000">Problemas de acceso al contenido</text>
</g>
<!-- action3&#45;&gt;pain3 -->
<g id="edge8" class="edge">
<title>action3-&gt;pain3</title>
<path fill="none" stroke="#000000" d="M374.5007,-142C404.2416,-142 437.3223,-142 468.0223,-142"/>
<polygon fill="#000000" stroke="#000000" points="468.3341,-145.5001 478.3341,-142 468.334,-138.5001 468.3341,-145.5001"/>
</g>
<!-- pain4 -->
<g id="node14" class="node">
<title>pain4</title>
<path fill="none" stroke="#000000" d="M673.9542,-106C673.9542,-106 482.143,-106 482.143,-106 476.143,-106 470.143,-100 470.143,-94 470.143,-94 470.143,-82 470.143,-82 470.143,-76 476.143,-70 482.143,-70 482.143,-70 673.9542,-70 673.9542,-70 679.9542,-70 685.9542,-76 685.9542,-82 685.9542,-82 685.9542,-94 685.9542,-94 685.9542,-100 679.9542,-106 673.9542,-106"/>
<text text-anchor="middle" x="578.0486" y="-84.4" font-family="Arial" font-size="12.00" fill="#000000">Formato de descarga poco adecuado</text>
</g>
<!-- action4&#45;&gt;pain4 -->
<g id="edge11" class="edge">
<title>action4-&gt;pain4</title>
<path fill="none" stroke="#000000" d="M407.9509,-88C425.0851,-88 442.5949,-88 459.5518,-88"/>
<polygon fill="#000000" stroke="#000000" points="460.0302,-91.5001 470.0302,-88 460.0302,-84.5001 460.0302,-91.5001"/>
</g>
<!-- pain5 -->
<g id="node15" class="node">
<title>pain5</title>
<path fill="none" stroke="#000000" d="M697.9133,-52C697.9133,-52 458.1839,-52 458.1839,-52 452.1839,-52 446.1839,-46 446.1839,-40 446.1839,-40 446.1839,-28 446.1839,-28 446.1839,-22 452.1839,-16 458.1839,-16 458.1839,-16 697.9133,-16 697.9133,-16 703.9133,-16 709.9133,-22 709.9133,-28 709.9133,-28 709.9133,-40 709.9133,-40 709.9133,-46 703.9133,-52 697.9133,-52"/>
<text text-anchor="middle" x="578.0486" y="-30.4" font-family="Arial" font-size="12.00" fill="#000000">Falta de herramientas para compartir o valorar</text>
</g>
<!-- action5&#45;&gt;pain5 -->
<g id="edge14" class="edge">
<title>action5-&gt;pain5</title>
<path fill="none" stroke="#000000" d="M404.9226,-34C415.0889,-34 425.4076,-34 435.6831,-34"/>
<polygon fill="#000000" stroke="#000000" points="435.937,-37.5001 445.9369,-34 435.9369,-30.5001 435.937,-37.5001"/>
</g>
<!-- solution1 -->
<g id="node16" class="node">
<title>solution1</title>
<path fill="none" stroke="#000000" d="M954.1284,-268C954.1284,-268 802.026,-268 802.026,-268 796.026,-268 790.026,-262 790.026,-256 790.026,-256 790.026,-244 790.026,-244 790.026,-238 796.026,-232 802.026,-232 802.026,-232 954.1284,-232 954.1284,-232 960.1284,-232 966.1284,-238 966.1284,-244 966.1284,-244 966.1284,-256 966.1284,-256 966.1284,-262 960.1284,-268 954.1284,-268"/>
<text text-anchor="middle" x="878.0772" y="-246.4" font-family="Arial" font-size="12.00" fill="#000000">Motor de búsqueda avanzado</text>
</g>
<!-- pain1&#45;&gt;solution1 -->
<g id="edge3" class="edge">
<title>pain1-&gt;solution1</title>
<path fill="none" stroke="#000000" d="M712.2672,-250C735.0302,-250 758.2838,-250 779.9001,-250"/>
<polygon fill="#000000" stroke="#000000" points="780.0386,-253.5001 790.0386,-250 780.0386,-246.5001 780.0386,-253.5001"/>
</g>
<!-- solution2 -->
<g id="node17" class="node">
<title>solution2</title>
<path fill="none" stroke="#000000" d="M982.1024,-214C982.1024,-214 774.052,-214 774.052,-214 768.052,-214 762.052,-208 762.052,-202 762.052,-202 762.052,-190 762.052,-190 762.052,-184 768.052,-178 774.052,-178 774.052,-178 982.1024,-178 982.1024,-178 988.1024,-178 994.1024,-184 994.1024,-190 994.1024,-190 994.1024,-202 994.1024,-202 994.1024,-208 988.1024,-214 982.1024,-214"/>
<text text-anchor="middle" x="878.0772" y="-192.4" font-family="Arial" font-size="12.00" fill="#000000">Filtros intuitivos por tema, autor o revista</text>
</g>
<!-- pain2&#45;&gt;solution2 -->
<g id="edge6" class="edge">
<title>pain2-&gt;solution2</title>
<path fill="none" stroke="#000000" d="M672.5677,-196C697.6986,-196 725.2482,-196 751.7822,-196"/>
<polygon fill="#000000" stroke="#000000" points="751.8947,-199.5001 761.8947,-196 751.8946,-192.5001 751.8947,-199.5001"/>
</g>
<!-- solution3 -->
<g id="node18" class="node">
<title>solution3</title>
<path fill="none" stroke="#000000" d="M996.1116,-160C996.1116,-160 760.0428,-160 760.0428,-160 754.0428,-160 748.0428,-154 748.0428,-148 748.0428,-148 748.0428,-136 748.0428,-136 748.0428,-130 754.0428,-124 760.0428,-124 760.0428,-124 996.1116,-124 996.1116,-124 1002.1116,-124 1008.1116,-130 1008.1116,-136 1008.1116,-136 1008.1116,-148 1008.1116,-148 1008.1116,-154 1002.1116,-160 996.1116,-160"/>
<text text-anchor="middle" x="878.0772" y="-138.4" font-family="Arial" font-size="12.00" fill="#000000">Acceso rápido con autenticación simplificada</text>
</g>
<!-- pain3&#45;&gt;solution3 -->
<g id="edge9" class="edge">
<title>pain3-&gt;solution3</title>
<path fill="none" stroke="#000000" d="M677.9538,-142C697.1302,-142 717.5408,-142 737.7175,-142"/>
<polygon fill="#000000" stroke="#000000" points="737.917,-145.5001 747.917,-142 737.917,-138.5001 737.917,-145.5001"/>
</g>
<!-- solution4 -->
<g id="node19" class="node">
<title>solution4</title>
<path fill="none" stroke="#000000" d="M965.9447,-106C965.9447,-106 790.2097,-106 790.2097,-106 784.2097,-106 778.2097,-100 778.2097,-94 778.2097,-94 778.2097,-82 778.2097,-82 778.2097,-76 784.2097,-70 790.2097,-70 790.2097,-70 965.9447,-70 965.9447,-70 971.9447,-70 977.9447,-76 977.9447,-82 977.9447,-82 977.9447,-94 977.9447,-94 977.9447,-100 971.9447,-106 965.9447,-106"/>
<text text-anchor="middle" x="878.0772" y="-84.4" font-family="Arial" font-size="12.00" fill="#000000">Descargas en formatos accesibles</text>
</g>
<!-- pain4&#45;&gt;solution4 -->
<g id="edge12" class="edge">
<title>pain4-&gt;solution4</title>
<path fill="none" stroke="#000000" d="M685.9419,-88C712.6071,-88 741.2044,-88 767.9733,-88"/>
<polygon fill="#000000" stroke="#000000" points="768.1354,-91.5001 778.1354,-88 768.1353,-84.5001 768.1354,-91.5001"/>
</g>
<!-- solution5 -->
<g id="node20" class="node">
<title>solution5</title>
<path fill="none" stroke="#000000" d="M991.0928,-52C991.0928,-52 765.0616,-52 765.0616,-52 759.0616,-52 753.0616,-46 753.0616,-40 753.0616,-40 753.0616,-28 753.0616,-28 753.0616,-22 759.0616,-16 765.0616,-16 765.0616,-16 991.0928,-16 991.0928,-16 997.0928,-16 1003.0928,-22 1003.0928,-28 1003.0928,-28 1003.0928,-40 1003.0928,-40 1003.0928,-46 997.0928,-52 991.0928,-52"/>
<text text-anchor="middle" x="878.0772" y="-30.4" font-family="Arial" font-size="12.00" fill="#000000">Opciones para compartir y valorar artículos</text>
</g>
<!-- pain5&#45;&gt;solution5 -->
<g id="edge15" class="edge">
<title>pain5-&gt;solution5</title>
<path fill="none" stroke="#000000" d="M710.0821,-34C720.8047,-34 731.6516,-34 742.3994,-34"/>
<polygon fill="#000000" stroke="#000000" points="742.6664,-37.5001 752.6664,-34 742.6663,-30.5001 742.6664,-37.5001"/>
</g>
</g>
</svg>