<?xml version="1.0" encoding="UTF-8" standalone="no"?><!DOCTYPE svg PUBLIC "-//W3C//DTD SVG 1.1//EN" "http://www.w3.org/Graphics/SVG/1.1/DTD/svg11.dtd"><!-- Generated by graphviz version 2.40.1 (20161225.0304)
 --><!-- Title: RevisionDictaminador Pages: 1 --><svg xmlns="http://www.w3.org/2000/svg" xmlns:xlink="http://www.w3.org/1999/xlink" width="1083pt" height="247pt" viewBox="0.00 0.00 1082.69 247.46">
<g id="graph0" class="graph" transform="scale(1 1) rotate(0) translate(4 243.4645)">
<title>RevisionDictaminador</title>
<polygon fill="#ffffff" stroke="transparent" points="-4,4 -4,-243.4645 1078.691,-243.4645 1078.691,4 -4,4"/>
<!-- Dictaminador -->
<g id="node1" class="node">
<title>Dictaminador</title>
<path fill="none" stroke="#000000" d="M74.5008,-130.6645C74.5008,-130.6645 12.166,-130.6645 12.166,-130.6645 6.166,-130.6645 .166,-124.6645 .166,-118.6645 .166,-118.6645 .166,-106.6645 .166,-106.6645 .166,-100.6645 6.166,-94.6645 12.166,-94.6645 12.166,-94.6645 74.5008,-94.6645 74.5008,-94.6645 80.5008,-94.6645 86.5008,-100.6645 86.5008,-106.6645 86.5008,-106.6645 86.5008,-118.6645 86.5008,-118.6645 86.5008,-124.6645 80.5008,-130.6645 74.5008,-130.6645"/>
<text text-anchor="middle" x="43.3334" y="-109.0645" font-family="Arial" font-size="12.00" fill="#000000">Dictaminador</text>
</g>
<!-- Frontend -->
<g id="node2" class="node">
<title>Frontend</title>
<path fill="none" stroke="#000000" d="M466.441,-150.6645C466.441,-150.6645 426.4122,-150.6645 426.4122,-150.6645 420.4122,-150.6645 414.4122,-144.6645 414.4122,-138.6645 414.4122,-138.6645 414.4122,-126.6645 414.4122,-126.6645 414.4122,-120.6645 420.4122,-114.6645 426.4122,-114.6645 426.4122,-114.6645 466.441,-114.6645 466.441,-114.6645 472.441,-114.6645 478.441,-120.6645 478.441,-126.6645 478.441,-126.6645 478.441,-138.6645 478.441,-138.6645 478.441,-144.6645 472.441,-150.6645 466.441,-150.6645"/>
<text text-anchor="middle" x="446.4266" y="-129.0645" font-family="Arial" font-size="12.00" fill="#000000">Frontend</text>
</g>
<!-- Dictaminador&#45;&gt;Frontend -->
<g id="edge1" class="edge">
<title>Dictaminador-&gt;Frontend</title>
<path fill="none" stroke="#000000" d="M51.5579,-130.862C61.2308,-149.7802 79.2549,-178.3193 104.6668,-190.6645 209.073,-241.3852 255.3601,-226.2842 365.834,-190.6645 386.3219,-184.0586 405.9984,-170.0967 420.7802,-157.527"/>
<polygon fill="#000000" stroke="#000000" points="423.2839,-159.9855 428.4629,-150.7426 418.6504,-154.7385 423.2839,-159.9855"/>
<text text-anchor="middle" x="235.2504" y="-226.8645" font-family="Times,serif" font-size="14.00" fill="#000000">Iniciar sesión</text>
</g>
<!-- Dictaminador&#45;&gt;Frontend -->
<g id="edge7" class="edge">
<title>Dictaminador-&gt;Frontend</title>
<path fill="none" stroke="#000000" d="M65.7612,-130.759C76.7883,-138.5108 90.6916,-146.686 104.6668,-150.6645 209.0849,-180.3899 338.557,-158.5108 404.1202,-143.5505"/>
<polygon fill="#000000" stroke="#000000" points="405.142,-146.906 414.0804,-141.2178 403.5457,-140.0904 405.142,-146.906"/>
<text text-anchor="middle" x="235.2504" y="-168.8645" font-family="Times,serif" font-size="14.00" fill="#000000">Seleccionar manuscrito</text>
</g>
<!-- Dictaminador&#45;&gt;Frontend -->
<g id="edge10" class="edge">
<title>Dictaminador-&gt;Frontend</title>
<path fill="none" stroke="#000000" d="M86.8544,-114.8238C164.7241,-118.6874 326.9344,-126.7357 404.0035,-130.5596"/>
<polygon fill="#000000" stroke="#000000" points="404.1344,-134.0703 414.2955,-131.0702 404.4813,-127.0789 404.1344,-134.0703"/>
<text text-anchor="middle" x="235.2504" y="-131.8645" font-family="Times,serif" font-size="14.00" fill="#000000">Enviar evaluación (aprobar/corregir/rechazar)</text>
</g>
<!-- Frontend&#45;&gt;Dictaminador -->
<g id="edge6" class="edge">
<title>Frontend-&gt;Dictaminador</title>
<path fill="none" stroke="#000000" d="M416.9916,-114.5494C402.2175,-106.503 383.6988,-97.9409 365.834,-93.8645 252.6684,-68.042 219.4599,-76.6661 104.6668,-93.8645 101.9718,-94.2682 99.2316,-94.7666 96.4795,-95.3377"/>
<polygon fill="#000000" stroke="#000000" points="95.4516,-91.984 86.5216,-97.6855 97.058,-98.7972 95.4516,-91.984"/>
<text text-anchor="middle" x="235.2504" y="-97.8645" font-family="Times,serif" font-size="14.00" fill="#000000">Mostrar manuscritos</text>
</g>
<!-- Frontend&#45;&gt;Dictaminador -->
<g id="edge15" class="edge">
<title>Frontend-&gt;Dictaminador</title>
<path fill="none" stroke="#000000" d="M434.084,-114.6C420.0607,-95.8474 395.2621,-67.6407 365.834,-55.8645 311.951,-34.3021 158.7022,-34.6869 104.6668,-55.8645 88.4838,-62.2069 74.0187,-75.0467 63.2062,-86.9163"/>
<polygon fill="#000000" stroke="#000000" points="60.5426,-84.6455 56.6468,-94.4981 65.8365,-89.2254 60.5426,-84.6455"/>
<text text-anchor="middle" x="235.2504" y="-60.8645" font-family="Times,serif" font-size="14.00" fill="#000000">Confirmación del dictamen</text>
</g>
<!-- Backend -->
<g id="node3" class="node">
<title>Backend</title>
<path fill="none" stroke="#000000" d="M772.8436,-130.6645C772.8436,-130.6645 734.47,-130.6645 734.47,-130.6645 728.47,-130.6645 722.47,-124.6645 722.47,-118.6645 722.47,-118.6645 722.47,-106.6645 722.47,-106.6645 722.47,-100.6645 728.47,-94.6645 734.47,-94.6645 734.47,-94.6645 772.8436,-94.6645 772.8436,-94.6645 778.8436,-94.6645 784.8436,-100.6645 784.8436,-106.6645 784.8436,-106.6645 784.8436,-118.6645 784.8436,-118.6645 784.8436,-124.6645 778.8436,-130.6645 772.8436,-130.6645"/>
<text text-anchor="middle" x="753.6568" y="-109.0645" font-family="Arial" font-size="12.00" fill="#000000">Backend</text>
</g>
<!-- Frontend&#45;&gt;Backend -->
<g id="edge2" class="edge">
<title>Frontend-&gt;Backend</title>
<path fill="none" stroke="#000000" d="M464.3903,-150.7426C479.595,-164.6734 502.7373,-182.8353 527.0192,-190.6645 602.0149,-214.8451 635.2903,-228.6752 704.3138,-190.6645 723.7364,-179.9686 736.5786,-158.0463 744.2795,-140.159"/>
<polygon fill="#000000" stroke="#000000" points="747.585,-141.3188 748.038,-130.7336 741.0829,-138.7259 747.585,-141.3188"/>
<text text-anchor="middle" x="615.6665" y="-217.8645" font-family="Times,serif" font-size="14.00" fill="#000000">Solicitar manuscritos asignados</text>
</g>
<!-- Frontend&#45;&gt;Backend -->
<g id="edge8" class="edge">
<title>Frontend-&gt;Backend</title>
<path fill="none" stroke="#000000" d="M478.8194,-142.7915C528.7285,-156.674 626.7759,-177.0609 704.3138,-150.6645 712.8477,-147.7592 721.0567,-142.7157 728.2472,-137.2349"/>
<polygon fill="#000000" stroke="#000000" points="730.6852,-139.7612 736.1789,-130.7019 726.2349,-134.358 730.6852,-139.7612"/>
<text text-anchor="middle" x="615.6665" y="-166.8645" font-family="Times,serif" font-size="14.00" fill="#000000">Descargar manuscrito</text>
</g>
<!-- Frontend&#45;&gt;Backend -->
<g id="edge11" class="edge">
<title>Frontend-&gt;Backend</title>
<path fill="none" stroke="#000000" d="M478.4362,-130.5807C534.3709,-126.9395 649.849,-119.4221 711.9572,-115.379"/>
<polygon fill="#000000" stroke="#000000" points="712.4271,-118.8559 722.1786,-114.7136 711.9723,-111.8707 712.4271,-118.8559"/>
<text text-anchor="middle" x="615.6665" y="-130.8645" font-family="Times,serif" font-size="14.00" fill="#000000">Registrar dictamen</text>
</g>
<!-- Backend&#45;&gt;Dictaminador -->
<g id="edge9" class="edge">
<title>Backend-&gt;Dictaminador</title>
<path fill="none" stroke="#000000" d="M747.8421,-94.4784C740.8155,-75.9034 727.0201,-48.0823 704.3138,-35.6645 635.1795,2.1443 605.8167,-35.5712 527.0192,-35.6645 339.3066,-35.8867 273.9299,44.49 104.6668,-36.6645 83.4454,-46.8392 67.2055,-68.3234 56.7839,-85.8616"/>
<polygon fill="#000000" stroke="#000000" points="53.7246,-84.1615 51.8689,-94.5925 59.8245,-87.5954 53.7246,-84.1615"/>
<text text-anchor="middle" x="446.4266" y="-39.8645" font-family="Times,serif" font-size="14.00" fill="#000000">Envío del manuscrito</text>
</g>
<!-- Backend&#45;&gt;Frontend -->
<g id="edge5" class="edge">
<title>Backend-&gt;Frontend</title>
<path fill="none" stroke="#000000" d="M722.295,-98.7787C716.4261,-96.7397 710.2642,-94.9596 704.3138,-93.8645 626.8178,-79.6013 603.8422,-76.3347 527.0192,-93.8645 512.6436,-97.1447 497.8446,-103.3295 484.914,-109.8129"/>
<polygon fill="#000000" stroke="#000000" points="483.0994,-106.8122 475.8616,-114.5494 486.3447,-113.0145 483.0994,-106.8122"/>
<text text-anchor="middle" x="615.6665" y="-97.8645" font-family="Times,serif" font-size="14.00" fill="#000000">Lista de manuscritos</text>
</g>
<!-- Backend&#45;&gt;Frontend -->
<g id="edge14" class="edge">
<title>Backend-&gt;Frontend</title>
<path fill="none" stroke="#000000" d="M742.2893,-94.6146C733.5552,-82.5631 720.2964,-67.7132 704.3138,-60.8645 631.8859,-29.8281 600.6573,-32.82 527.0192,-60.8645 502.9401,-70.0348 481.4773,-90.0675 466.7669,-106.6485"/>
<polygon fill="#000000" stroke="#000000" points="463.9385,-104.5709 460.106,-114.4483 469.2616,-109.1168 463.9385,-104.5709"/>
<text text-anchor="middle" x="615.6665" y="-65.8645" font-family="Times,serif" font-size="14.00" fill="#000000">Notificar éxito</text>
</g>
<!-- BaseDeDatos -->
<g id="node4" class="node">
<title>BaseDeDatos</title>
<path fill="none" stroke="#000000" d="M1062.6996,-130.6645C1062.6996,-130.6645 996.6652,-130.6645 996.6652,-130.6645 990.6652,-130.6645 984.6652,-124.6645 984.6652,-118.6645 984.6652,-118.6645 984.6652,-106.6645 984.6652,-106.6645 984.6652,-100.6645 990.6652,-94.6645 996.6652,-94.6645 996.6652,-94.6645 1062.6996,-94.6645 1062.6996,-94.6645 1068.6996,-94.6645 1074.6996,-100.6645 1074.6996,-106.6645 1074.6996,-106.6645 1074.6996,-118.6645 1074.6996,-118.6645 1074.6996,-124.6645 1068.6996,-130.6645 1062.6996,-130.6645"/>
<text text-anchor="middle" x="1029.6824" y="-109.0645" font-family="Arial" font-size="12.00" fill="#000000">BaseDeDatos</text>
</g>
<!-- Backend&#45;&gt;BaseDeDatos -->
<g id="edge3" class="edge">
<title>Backend-&gt;BaseDeDatos</title>
<path fill="none" stroke="#000000" d="M771.1347,-130.7019C779.8822,-138.4412 791.1266,-146.6224 802.9998,-150.6645 871.8627,-174.1077 896.5914,-170.1619 966.6738,-150.6645 977.6039,-147.6236 988.5337,-142.1191 998.1478,-136.2264"/>
<polygon fill="#000000" stroke="#000000" points="1000.0836,-139.1426 1006.5695,-130.765 996.2749,-133.2694 1000.0836,-139.1426"/>
<text text-anchor="middle" x="884.8368" y="-170.8645" font-family="Times,serif" font-size="14.00" fill="#000000">Consultar manuscritos</text>
</g>
<!-- Backend&#45;&gt;BaseDeDatos -->
<g id="edge12" class="edge">
<title>Backend-&gt;BaseDeDatos</title>
<path fill="none" stroke="#000000" d="M785.0517,-112.6645C831.0772,-112.6645 917.5509,-112.6645 974.3798,-112.6645"/>
<polygon fill="#000000" stroke="#000000" points="974.6296,-116.1646 984.6295,-112.6645 974.6295,-109.1646 974.6296,-116.1646"/>
<text text-anchor="middle" x="884.8368" y="-116.8645" font-family="Times,serif" font-size="14.00" fill="#000000">Guardar dictamen</text>
</g>
<!-- BaseDeDatos&#45;&gt;Backend -->
<g id="edge4" class="edge">
<title>BaseDeDatos-&gt;Backend</title>
<path fill="none" stroke="#000000" d="M984.6066,-97.5102C978.6349,-96.007 972.5476,-94.7221 966.6738,-93.8645 894.693,-83.3548 874.5422,-80.6971 802.9998,-93.8645 800.3035,-94.3607 797.5638,-94.9976 794.8276,-95.7354"/>
<polygon fill="#000000" stroke="#000000" points="793.5324,-92.4726 785.0186,-98.7787 795.6066,-99.1583 793.5324,-92.4726"/>
<text text-anchor="middle" x="884.8368" y="-97.8645" font-family="Times,serif" font-size="14.00" fill="#000000">Retornar lista de manuscritos</text>
</g>
<!-- BaseDeDatos&#45;&gt;Backend -->
<g id="edge13" class="edge">
<title>BaseDeDatos-&gt;Backend</title>
<path fill="none" stroke="#000000" d="M1012.8644,-94.5625C1001.1486,-83.3452 984.4787,-69.9531 966.6738,-63.8645 897.8431,-40.3268 870.2832,-36.2126 802.9998,-63.8645 791.2777,-68.6819 780.8581,-77.7794 772.6495,-86.8263"/>
<polygon fill="#000000" stroke="#000000" points="769.8137,-84.7594 766.028,-94.6548 775.1583,-89.28 769.8137,-84.7594"/>
<text text-anchor="middle" x="884.8368" y="-68.8645" font-family="Times,serif" font-size="14.00" fill="#000000">Confirmación</text>
</g>
</g>
</svg>
