<?xml version="1.0" encoding="UTF-8" standalone="no"?><!DOCTYPE svg PUBLIC "-//W3C//DTD SVG 1.1//EN" "http://www.w3.org/Graphics/SVG/1.1/DTD/svg11.dtd"><!-- Generated by graphviz version 2.40.1 (20161225.0304)
 --><!-- Title: AltaDeRevista Pages: 1 --><svg xmlns="http://www.w3.org/2000/svg" xmlns:xlink="http://www.w3.org/1999/xlink" width="834pt" height="206pt" viewBox="0.00 0.00 834.10 206.00">
<g id="graph0" class="graph" transform="scale(1 1) rotate(0) translate(4 202)">
<title>AltaDeRevista</title>
<polygon fill="#ffffff" stroke="transparent" points="-4,4 -4,-202 830.0968,-202 830.0968,4 -4,4"/>
<!-- Institucion -->
<g id="node1" class="node">
<title>Institucion</title>
<ellipse fill="#add8e6" stroke="#add8e6" cx="75.1403" cy="-45" rx="55.614" ry="18"/>
<text text-anchor="middle" x="75.1403" y="-40.8" font-family="Times,serif" font-size="14.00" fill="#000000">Institución</text>
</g>
<!-- DarAltaRevista -->
<g id="node3" class="node">
<title>DarAltaRevista</title>
<ellipse fill="none" stroke="#000000" cx="313.3544" cy="-45" rx="94.3176" ry="18"/>
<text text-anchor="middle" x="313.3544" y="-40.8" font-family="Times,serif" font-size="14.00" fill="#000000">Dar de Alta a Revista</text>
</g>
<!-- Institucion&#45;&gt;DarAltaRevista -->
<g id="edge1" class="edge">
<title>Institucion-&gt;DarAltaRevista</title>
<path fill="none" stroke="#000000" d="M130.9909,-45C154.2813,-45 182.1177,-45 208.944,-45"/>
<polygon fill="#000000" stroke="#000000" points="209.1645,-48.5001 219.1645,-45 209.1644,-41.5001 209.1645,-48.5001"/>
</g>
<!-- EquipoEditorial -->
<g id="node2" class="node">
<title>EquipoEditorial</title>
<ellipse fill="#add8e6" stroke="#add8e6" cx="75.1403" cy="-153" rx="75.2808" ry="18"/>
<text text-anchor="middle" x="75.1403" y="-148.8" font-family="Times,serif" font-size="14.00" fill="#000000">Equipo Editorial</text>
</g>
<!-- AceptarInvitacion -->
<g id="node6" class="node">
<title>AceptarInvitacion</title>
<ellipse fill="none" stroke="#000000" cx="313.3544" cy="-153" rx="126.1478" ry="18"/>
<text text-anchor="middle" x="313.3544" y="-148.8" font-family="Times,serif" font-size="14.00" fill="#000000">Aceptar invitación de equipo</text>
</g>
<!-- EquipoEditorial&#45;&gt;AceptarInvitacion -->
<g id="edge4" class="edge">
<title>EquipoEditorial-&gt;AceptarInvitacion</title>
<path fill="none" stroke="#000000" d="M150.5127,-153C159.0298,-153 167.8933,-153 176.8919,-153"/>
<polygon fill="#000000" stroke="#000000" points="177.0978,-156.5001 187.0978,-153 177.0977,-149.5001 177.0978,-156.5001"/>
</g>
<!-- AsignarEquipo -->
<g id="node4" class="node">
<title>AsignarEquipo</title>
<ellipse fill="none" stroke="#000000" cx="687.157" cy="-72" rx="104.7964" ry="18"/>
<text text-anchor="middle" x="687.157" y="-67.8" font-family="Times,serif" font-size="14.00" fill="#000000">Asignar equipo editorial</text>
</g>
<!-- DarAltaRevista&#45;&gt;AsignarEquipo -->
<g id="edge2" class="edge">
<title>DarAltaRevista-&gt;AsignarEquipo</title>
<path fill="none" stroke="#000000" d="M401.4671,-51.3644C455.0189,-55.2325 523.755,-60.1974 580.3847,-64.2878"/>
<polygon fill="#000000" stroke="#000000" points="580.2221,-67.7851 590.4483,-65.0147 580.7264,-60.8032 580.2221,-67.7851"/>
<text text-anchor="middle" x="493.8227" y="-65.2" font-family="Times,serif" font-size="14.00" fill="#000000">&lt;&lt;include&gt;&gt;</text>
</g>
<!-- RegistrarInfoRevista -->
<g id="node5" class="node">
<title>RegistrarInfoRevista</title>
<ellipse fill="none" stroke="#000000" cx="687.157" cy="-18" rx="138.8797" ry="18"/>
<text text-anchor="middle" x="687.157" y="-13.8" font-family="Times,serif" font-size="14.00" fill="#000000">Registrar información de revista</text>
</g>
<!-- DarAltaRevista&#45;&gt;RegistrarInfoRevista -->
<g id="edge3" class="edge">
<title>DarAltaRevista-&gt;RegistrarInfoRevista</title>
<path fill="none" stroke="#000000" d="M401.4671,-38.6356C447.4015,-35.3177 504.5077,-31.1929 555.5628,-27.5051"/>
<polygon fill="#000000" stroke="#000000" points="555.9662,-30.9852 565.6881,-26.7738 555.4619,-24.0034 555.9662,-30.9852"/>
<text text-anchor="middle" x="493.8227" y="-38.2" font-family="Times,serif" font-size="14.00" fill="#000000">&lt;&lt;include&gt;&gt;</text>
</g>
<!-- ValidarCredenciales -->
<g id="node7" class="node">
<title>ValidarCredenciales</title>
<ellipse fill="none" stroke="#000000" cx="687.157" cy="-180" rx="90.2423" ry="18"/>
<text text-anchor="middle" x="687.157" y="-175.8" font-family="Times,serif" font-size="14.00" fill="#000000">Validar credenciales</text>
</g>
<!-- AceptarInvitacion&#45;&gt;ValidarCredenciales -->
<g id="edge5" class="edge">
<title>AceptarInvitacion-&gt;ValidarCredenciales</title>
<path fill="none" stroke="#000000" d="M426.0144,-161.1375C479.0075,-164.9652 541.5089,-169.4797 592.0776,-173.1324"/>
<polygon fill="#000000" stroke="#000000" points="592.1261,-176.6449 602.3523,-173.8745 592.6304,-169.6631 592.1261,-176.6449"/>
<text text-anchor="middle" x="493.8227" y="-172.2" font-family="Times,serif" font-size="14.00" fill="#000000">&lt;&lt;include&gt;&gt;</text>
</g>
<!-- DescargarConstancia -->
<g id="node8" class="node">
<title>DescargarConstancia</title>
<ellipse fill="none" stroke="#000000" cx="687.157" cy="-126" rx="95.4826" ry="18"/>
<text text-anchor="middle" x="687.157" y="-121.8" font-family="Times,serif" font-size="14.00" fill="#000000">Descargar Constancia</text>
</g>
<!-- AceptarInvitacion&#45;&gt;DescargarConstancia -->
<g id="edge6" class="edge">
<title>AceptarInvitacion-&gt;DescargarConstancia</title>
<path fill="none" stroke="#000000" d="M426.0144,-144.8625C477.4992,-141.1437 537.9587,-136.7767 587.7311,-133.1816"/>
<polygon fill="#000000" stroke="#000000" points="588.1377,-136.6614 597.8595,-132.45 587.6333,-129.6796 588.1377,-136.6614"/>
<text text-anchor="middle" x="493.8227" y="-146.2" font-family="Times,serif" font-size="14.00" fill="#000000">&lt;&lt;extend&gt;&gt;</text>
</g>
</g>
</svg>
