<?xml version="1.0" encoding="UTF-8" standalone="no"?><!DOCTYPE svg PUBLIC "-//W3C//DTD SVG 1.1//EN" "http://www.w3.org/Graphics/SVG/1.1/DTD/svg11.dtd"><!-- Generated by graphviz version 2.40.1 (20161225.0304)
 --><!-- Title: Lector Pages: 1 --><svg xmlns="http://www.w3.org/2000/svg" xmlns:xlink="http://www.w3.org/1999/xlink" width="784pt" height="516pt" viewBox="0.00 0.00 783.65 516.24">
<g id="graph0" class="graph" transform="scale(1 1) rotate(0) translate(4 512.2362)">
<title>Lector</title>
<polygon fill="#ffffff" stroke="transparent" points="-4,4 -4,-512.2362 779.6452,-512.2362 779.6452,4 -4,4"/>
<!-- Inicio -->
<g id="node1" class="node">
<title>Inicio</title>
<ellipse fill="#000000" stroke="#000000" cx="417.1718" cy="-474.6652" rx="33.6421" ry="33.6421"/>
<text text-anchor="middle" x="417.1718" y="-470.4652" font-family="Arial" font-size="14.00" fill="#ffffff">Inicio</text>
</g>
<!-- Iniciar sesión -->
<g id="node3" class="node">
<title>Iniciar sesión</title>
<polygon fill="#d3d3d3" stroke="#d3d3d3" points="468.5076,-388.2942 365.836,-388.2942 365.836,-352.2942 468.5076,-352.2942 468.5076,-388.2942"/>
<text text-anchor="middle" x="417.1718" y="-366.0942" font-family="Arial" font-size="14.00" fill="#000000">Iniciar sesión</text>
</g>
<!-- Inicio&#45;&gt;Iniciar sesión -->
<g id="edge1" class="edge">
<title>Inicio-&gt;Iniciar sesión</title>
<path fill="none" stroke="#000000" d="M417.1718,-441.0671C417.1718,-427.3796 417.1718,-411.7297 417.1718,-398.6328"/>
<polygon fill="#000000" stroke="#000000" points="420.6719,-398.3309 417.1718,-388.3309 413.6719,-398.331 420.6719,-398.3309"/>
<text text-anchor="middle" x="466.7381" y="-410.4942" font-family="Times,serif" font-size="14.00" fill="#000000">Acceso permitido</text>
</g>
<!-- Fin -->
<g id="node2" class="node">
<title>Fin</title>
<ellipse fill="#000000" stroke="#000000" cx="591.1718" cy="-113.2471" rx="24.3943" ry="24.3943"/>
<text text-anchor="middle" x="591.1718" y="-109.0471" font-family="Arial" font-size="14.00" fill="#ffffff">Fin</text>
</g>
<!-- Explorar revistas -->
<g id="node4" class="node">
<title>Explorar revistas</title>
<polygon fill="#d3d3d3" stroke="#d3d3d3" points="477.3978,-315.2942 356.9458,-315.2942 356.9458,-279.2942 477.3978,-279.2942 477.3978,-315.2942"/>
<text text-anchor="middle" x="417.1718" y="-293.0942" font-family="Arial" font-size="14.00" fill="#000000">Explorar revistas</text>
</g>
<!-- Iniciar sesión&#45;&gt;Explorar revistas -->
<g id="edge2" class="edge">
<title>Iniciar sesión-&gt;Explorar revistas</title>
<path fill="none" stroke="#000000" d="M417.1718,-352.2493C417.1718,-344.177 417.1718,-334.4706 417.1718,-325.476"/>
<polygon fill="#000000" stroke="#000000" points="420.6719,-325.3845 417.1718,-315.3846 413.6719,-325.3846 420.6719,-325.3845"/>
</g>
<!-- Filtrar contenido -->
<g id="node5" class="node">
<title>Filtrar contenido</title>
<polygon fill="#d3d3d3" stroke="#d3d3d3" points="116.5159,-226.4942 -.1723,-226.4942 -.1723,-190.4942 116.5159,-190.4942 116.5159,-226.4942"/>
<text text-anchor="middle" x="58.1718" y="-204.2942" font-family="Arial" font-size="14.00" fill="#000000">Filtrar contenido</text>
</g>
<!-- Explorar revistas&#45;&gt;Filtrar contenido -->
<g id="edge3" class="edge">
<title>Explorar revistas-&gt;Filtrar contenido</title>
<path fill="none" stroke="#000000" d="M356.8927,-293.7448C267.7117,-288.042 108.742,-275.9761 86.8548,-261.2942 77.8883,-255.2795 71.4836,-245.4977 67.0349,-235.9781"/>
<polygon fill="#000000" stroke="#000000" points="70.2573,-234.6114 63.2158,-226.6951 63.7838,-237.2747 70.2573,-234.6114"/>
<text text-anchor="middle" x="112.8303" y="-248.6942" font-family="Times,serif" font-size="14.00" fill="#000000">Opcional</text>
</g>
<!-- Leer artículo -->
<g id="node6" class="node">
<title>Leer artículo</title>
<polygon fill="#d3d3d3" stroke="#d3d3d3" points="361.8979,-131.2471 262.4457,-131.2471 262.4457,-95.2471 361.8979,-95.2471 361.8979,-131.2471"/>
<text text-anchor="middle" x="312.1718" y="-109.0471" font-family="Arial" font-size="14.00" fill="#000000">Leer artículo</text>
</g>
<!-- Explorar revistas&#45;&gt;Leer artículo -->
<g id="edge5" class="edge">
<title>Explorar revistas-&gt;Leer artículo</title>
<path fill="none" stroke="#000000" d="M435.8173,-278.9885C440.0365,-273.7134 443.9296,-267.6519 446.1718,-261.2942 451.3287,-246.6721 457.8159,-213.2988 444.1718,-190.4942 428.0136,-163.4877 398.5221,-144.93 371.5073,-132.7868"/>
<polygon fill="#000000" stroke="#000000" points="372.6519,-129.4697 362.0811,-128.7558 369.8995,-135.9059 372.6519,-129.4697"/>
<text text-anchor="middle" x="478.2549" y="-204.2942" font-family="Times,serif" font-size="14.00" fill="#000000">Sin filtro</text>
</g>
<!-- Ver estadísticas -->
<g id="node8" class="node">
<title>Ver estadísticas</title>
<polygon fill="#d3d3d3" stroke="#d3d3d3" points="434.6816,-226.4942 313.662,-226.4942 313.662,-190.4942 434.6816,-190.4942 434.6816,-226.4942"/>
<text text-anchor="middle" x="374.1718" y="-204.2942" font-family="Arial" font-size="14.00" fill="#000000">Ver estadísticas</text>
</g>
<!-- Explorar revistas&#45;&gt;Ver estadísticas -->
<g id="edge9" class="edge">
<title>Explorar revistas-&gt;Ver estadísticas</title>
<path fill="none" stroke="#000000" d="M356.9535,-284.1376C335.068,-278.0374 314.1081,-270.1684 307.6844,-261.2942 299.6788,-250.2347 306.1703,-240.2661 317.7163,-232.0468"/>
<polygon fill="#000000" stroke="#000000" points="319.7588,-234.8982 326.4011,-226.6441 316.0612,-228.9544 319.7588,-234.8982"/>
<text text-anchor="middle" x="351.9155" y="-248.6942" font-family="Times,serif" font-size="14.00" fill="#000000">Consultar datos</text>
</g>
<!-- Cerrar sesión -->
<g id="node9" class="node">
<title>Cerrar sesión</title>
<polygon fill="#d3d3d3" stroke="#d3d3d3" points="643.3316,-226.4942 539.012,-226.4942 539.012,-190.4942 643.3316,-190.4942 643.3316,-226.4942"/>
<text text-anchor="middle" x="591.1718" y="-204.2942" font-family="Arial" font-size="14.00" fill="#000000">Cerrar sesión</text>
</g>
<!-- Explorar revistas&#45;&gt;Cerrar sesión -->
<g id="edge11" class="edge">
<title>Explorar revistas-&gt;Cerrar sesión</title>
<path fill="none" stroke="#000000" d="M452.8032,-279.1099C479.9872,-265.2367 517.5957,-246.0434 546.7435,-231.168"/>
<polygon fill="#000000" stroke="#000000" points="548.5697,-234.1655 555.8858,-226.5022 545.3877,-227.9305 548.5697,-234.1655"/>
<text text-anchor="middle" x="566.6287" y="-248.6942" font-family="Times,serif" font-size="14.00" fill="#000000">Finalizar sesión</text>
</g>
<!-- Filtrar contenido&#45;&gt;Leer artículo -->
<g id="edge4" class="edge">
<title>Filtrar contenido-&gt;Leer artículo</title>
<path fill="none" stroke="#000000" d="M81.093,-190.2777C96.4588,-178.8685 117.58,-164.6765 138.1718,-155.6942 174.6176,-139.7963 218.0691,-129.1896 252.4333,-122.5549"/>
<polygon fill="#000000" stroke="#000000" points="253.1422,-125.9831 262.3287,-120.7049 251.8558,-119.1023 253.1422,-125.9831"/>
</g>
<!-- Leer artículo&#45;&gt;Explorar revistas -->
<g id="edge7" class="edge">
<title>Leer artículo-&gt;Explorar revistas</title>
<path fill="none" stroke="#000000" d="M262.5411,-127.4972C206.4462,-146.1412 127.0918,-181.7651 161.131,-226.4942 183.6124,-256.0358 279.0712,-276.421 346.8331,-287.4835"/>
<polygon fill="#000000" stroke="#000000" points="346.6092,-290.992 357.0362,-289.1134 347.7135,-284.0797 346.6092,-290.992"/>
<text text-anchor="middle" x="232.6922" y="-204.2942" font-family="Times,serif" font-size="14.00" fill="#000000">Seleccionar otro artículo</text>
</g>
<!-- Descargar artículo -->
<g id="node7" class="node">
<title>Descargar artículo</title>
<polygon fill="#d3d3d3" stroke="#d3d3d3" points="558.9476,-36 423.396,-36 423.396,0 558.9476,0 558.9476,-36"/>
<text text-anchor="middle" x="491.1718" y="-13.8" font-family="Arial" font-size="14.00" fill="#000000">Descargar artículo</text>
</g>
<!-- Leer artículo&#45;&gt;Descargar artículo -->
<g id="edge6" class="edge">
<title>Leer artículo-&gt;Descargar artículo</title>
<path fill="none" stroke="#000000" d="M346.2617,-95.1077C375.2509,-79.6823 417.0269,-57.453 448.2828,-40.8215"/>
<polygon fill="#000000" stroke="#000000" points="450.025,-43.8592 457.2089,-36.0719 446.7367,-37.6796 450.025,-43.8592"/>
<text text-anchor="middle" x="472.1627" y="-58.2" font-family="Times,serif" font-size="14.00" fill="#000000">Si está permitido</text>
</g>
<!-- Descargar artículo&#45;&gt;Explorar revistas -->
<g id="edge8" class="edge">
<title>Descargar artículo-&gt;Explorar revistas</title>
<path fill="none" stroke="#000000" d="M547.6224,-36.1088C574.3565,-47.3512 604.6345,-64.3988 624.1718,-88.8 631.5608,-98.0285 668.8852,-186.3074 652.1718,-226.4942 643.7482,-246.7485 636.6259,-251.1585 617.1718,-261.2942 594.9718,-272.8606 535.9292,-282.6658 487.7108,-289.1083"/>
<polygon fill="#000000" stroke="#000000" points="487.064,-285.663 477.6029,-290.4315 487.9727,-292.6038 487.064,-285.663"/>
<text text-anchor="middle" x="714.4085" y="-159.8942" font-family="Times,serif" font-size="14.00" fill="#000000">Continuar explorando</text>
</g>
<!-- Ver estadísticas&#45;&gt;Explorar revistas -->
<g id="edge10" class="edge">
<title>Ver estadísticas-&gt;Explorar revistas</title>
<path fill="none" stroke="#000000" d="M385.3356,-226.549C388.6623,-232.2078 392.208,-238.5336 395.1718,-244.4942 399.1324,-252.4595 403.0149,-261.3153 406.3891,-269.4631"/>
<polygon fill="#000000" stroke="#000000" points="403.2293,-270.9852 410.2238,-278.9431 409.7185,-268.3603 403.2293,-270.9852"/>
<text text-anchor="middle" x="422.608" y="-248.6942" font-family="Times,serif" font-size="14.00" fill="#000000">Volver</text>
</g>
<!-- Cerrar sesión&#45;&gt;Fin -->
<g id="edge12" class="edge">
<title>Cerrar sesión-&gt;Fin</title>
<path fill="none" stroke="#000000" d="M591.1718,-190.1296C591.1718,-178.2107 591.1718,-162.2996 591.1718,-148.0451"/>
<polygon fill="#000000" stroke="#000000" points="594.6719,-148.039 591.1718,-138.039 587.6719,-148.0391 594.6719,-148.039"/>
</g>
</g>
</svg>