<?xml version="1.0" encoding="UTF-8" standalone="no"?><!DOCTYPE svg PUBLIC "-//W3C//DTD SVG 1.1//EN" "http://www.w3.org/Graphics/SVG/1.1/DTD/svg11.dtd"><!-- Generated by graphviz version 2.40.1 (20161225.0304)
 --><!-- Title: RevisionArticulos Pages: 1 --><svg xmlns="http://www.w3.org/2000/svg" xmlns:xlink="http://www.w3.org/1999/xlink" width="476pt" height="638pt" viewBox="0.00 0.00 476.33 637.56">
<g id="graph0" class="graph" transform="scale(1 1) rotate(0) translate(4 633.5585)">
<title>RevisionArticulos</title>
<polygon fill="#ffffff" stroke="transparent" points="-4,4 -4,-633.5585 472.3332,-633.5585 472.3332,4 -4,4"/>
<!-- start -->
<g id="node1" class="node">
<title>start</title>
<ellipse fill="none" stroke="#000000" cx="225.1673" cy="-595.9962" rx="33.6247" ry="33.6247"/>
<text text-anchor="middle" x="225.1673" y="-591.7962" font-family="Times,serif" font-size="14.00" fill="#000000">Inicio</text>
</g>
<!-- asignar -->
<g id="node2" class="node">
<title>asignar</title>
<polygon fill="none" stroke="#000000" points="293.8515,-525.4339 156.4831,-525.4339 156.4831,-489.4339 293.8515,-489.4339 293.8515,-525.4339"/>
<text text-anchor="middle" x="225.1673" y="-503.2339" font-family="Times,serif" font-size="14.00" fill="#000000">Asignar dictaminador</text>
</g>
<!-- start&#45;&gt;asignar -->
<g id="edge1" class="edge">
<title>start-&gt;asignar</title>
<path fill="none" stroke="#000000" d="M225.1673,-562.2619C225.1673,-553.4631 225.1673,-544.0745 225.1673,-535.5982"/>
<polygon fill="#000000" stroke="#000000" points="228.6674,-535.4625 225.1673,-525.4625 221.6674,-535.4626 228.6674,-535.4625"/>
</g>
<!-- revisar -->
<g id="node3" class="node">
<title>revisar</title>
<polygon fill="none" stroke="#000000" points="280.622,-452.4339 169.7126,-452.4339 169.7126,-416.4339 280.622,-416.4339 280.622,-452.4339"/>
<text text-anchor="middle" x="225.1673" y="-430.2339" font-family="Times,serif" font-size="14.00" fill="#000000">Revisar artículo</text>
</g>
<!-- asignar&#45;&gt;revisar -->
<g id="edge2" class="edge">
<title>asignar-&gt;revisar</title>
<path fill="none" stroke="#000000" d="M225.1673,-489.3889C225.1673,-481.3167 225.1673,-471.6103 225.1673,-462.6156"/>
<polygon fill="#000000" stroke="#000000" points="228.6674,-462.5242 225.1673,-452.5242 221.6674,-462.5243 228.6674,-462.5242"/>
</g>
<!-- dictamen -->
<g id="node4" class="node">
<title>dictamen</title>
<polygon fill="none" stroke="#000000" points="274.535,-363.6339 109.7996,-363.6339 109.7996,-327.6339 274.535,-327.6339 274.535,-363.6339"/>
<text text-anchor="middle" x="192.1673" y="-341.4339" font-family="Times,serif" font-size="14.00" fill="#000000">Generar y enviar dictamen</text>
</g>
<!-- revisar&#45;&gt;dictamen -->
<g id="edge3" class="edge">
<title>revisar-&gt;dictamen</title>
<path fill="none" stroke="#000000" d="M214.4803,-416.1268C211.5169,-410.5665 208.4816,-404.3583 206.1673,-398.4339 203.1103,-390.6081 200.4924,-381.8752 198.3759,-373.8005"/>
<polygon fill="#000000" stroke="#000000" points="201.7618,-372.9123 195.9678,-364.0421 194.9657,-374.5895 201.7618,-372.9123"/>
</g>
<!-- reasignar -->
<g id="node10" class="node">
<title>reasignar</title>
<polygon fill="none" stroke="#000000" points="447.0107,-363.6339 297.3239,-363.6339 297.3239,-327.6339 447.0107,-327.6339 447.0107,-363.6339"/>
<text text-anchor="middle" x="372.1673" y="-341.4339" font-family="Times,serif" font-size="14.00" fill="#000000">Reasignar dictaminador</text>
</g>
<!-- revisar&#45;&gt;reasignar -->
<g id="edge9" class="edge">
<title>revisar-&gt;reasignar</title>
<path fill="none" stroke="#000000" d="M220.3986,-416.43C218.5703,-405.251 218.4786,-391.2345 226.1441,-381.6339 228.4135,-378.7916 256.3778,-371.602 287.2364,-364.3886"/>
<polygon fill="#000000" stroke="#000000" points="288.3759,-367.7174 297.3283,-362.0513 286.7964,-360.898 288.3759,-367.7174"/>
<text text-anchor="middle" x="294.1789" y="-385.8339" font-family="Times,serif" font-size="14.00" fill="#000000">No completado a tiempo</text>
</g>
<!-- evaluar -->
<g id="node5" class="node">
<title>evaluar</title>
<polygon fill="none" stroke="#000000" points="249.5164,-290.6339 134.8182,-290.6339 134.8182,-254.6339 249.5164,-254.6339 249.5164,-290.6339"/>
<text text-anchor="middle" x="192.1673" y="-268.4339" font-family="Times,serif" font-size="14.00" fill="#000000">Evaluar dictamen</text>
</g>
<!-- dictamen&#45;&gt;evaluar -->
<g id="edge4" class="edge">
<title>dictamen-&gt;evaluar</title>
<path fill="none" stroke="#000000" d="M192.1673,-327.5889C192.1673,-319.5167 192.1673,-309.8103 192.1673,-300.8156"/>
<polygon fill="#000000" stroke="#000000" points="195.6674,-300.7242 192.1673,-290.7242 188.6674,-300.7243 195.6674,-300.7242"/>
</g>
<!-- decision -->
<g id="node6" class="node">
<title>decision</title>
<polygon fill="none" stroke="#000000" points="192.1673,-217.6339 30.2194,-199.6339 192.1673,-181.6339 354.1152,-199.6339 192.1673,-217.6339"/>
<text text-anchor="middle" x="192.1673" y="-195.4339" font-family="Times,serif" font-size="14.00" fill="#000000">¿Cumple con estándares?</text>
</g>
<!-- evaluar&#45;&gt;decision -->
<g id="edge5" class="edge">
<title>evaluar-&gt;decision</title>
<path fill="none" stroke="#000000" d="M192.1673,-254.5889C192.1673,-246.5167 192.1673,-236.8103 192.1673,-227.8156"/>
<polygon fill="#000000" stroke="#000000" points="195.6674,-227.7242 192.1673,-217.7242 188.6674,-227.7243 195.6674,-227.7242"/>
</g>
<!-- aprobar -->
<g id="node7" class="node">
<title>aprobar</title>
<polygon fill="none" stroke="#000000" points="114.5024,-128.8339 -.1678,-128.8339 -.1678,-92.8339 114.5024,-92.8339 114.5024,-128.8339"/>
<text text-anchor="middle" x="57.1673" y="-106.6339" font-family="Times,serif" font-size="14.00" fill="#000000">Aprobar artículo</text>
</g>
<!-- decision&#45;&gt;aprobar -->
<g id="edge6" class="edge">
<title>decision-&gt;aprobar</title>
<path fill="none" stroke="#000000" d="M168.6521,-184.1661C147.7949,-170.4467 117.0138,-150.1996 93.0767,-134.4543"/>
<polygon fill="#000000" stroke="#000000" points="94.8765,-131.4489 84.5984,-128.8774 91.0296,-137.2971 94.8765,-131.4489"/>
<text text-anchor="middle" x="145.7192" y="-151.0339" font-family="Times,serif" font-size="14.00" fill="#000000">Sí</text>
</g>
<!-- rechazar -->
<g id="node8" class="node">
<title>rechazar</title>
<polygon fill="none" stroke="#000000" points="251.9299,-128.8339 132.4047,-128.8339 132.4047,-92.8339 251.9299,-92.8339 251.9299,-128.8339"/>
<text text-anchor="middle" x="192.1673" y="-106.6339" font-family="Times,serif" font-size="14.00" fill="#000000">Rechazar artículo</text>
</g>
<!-- decision&#45;&gt;rechazar -->
<g id="edge7" class="edge">
<title>decision-&gt;rechazar</title>
<path fill="none" stroke="#000000" d="M192.1673,-181.2345C192.1673,-169.1288 192.1673,-153.0415 192.1673,-139.3012"/>
<polygon fill="#000000" stroke="#000000" points="195.6674,-138.9059 192.1673,-128.9059 188.6674,-138.9059 195.6674,-138.9059"/>
<text text-anchor="middle" x="200.7206" y="-151.0339" font-family="Times,serif" font-size="14.00" fill="#000000">No</text>
</g>
<!-- solicitar -->
<g id="node9" class="node">
<title>solicitar</title>
<polygon fill="none" stroke="#000000" points="468.4994,-128.8339 269.8352,-128.8339 269.8352,-92.8339 468.4994,-92.8339 468.4994,-128.8339"/>
<text text-anchor="middle" x="369.1673" y="-106.6339" font-family="Times,serif" font-size="14.00" fill="#000000">Solicitar modificaciones al autor</text>
</g>
<!-- decision&#45;&gt;solicitar -->
<g id="edge8" class="edge">
<title>decision-&gt;solicitar</title>
<path fill="none" stroke="#000000" d="M221.7931,-184.7708C249.6498,-170.7952 291.7492,-149.6742 323.8289,-133.5799"/>
<polygon fill="#000000" stroke="#000000" points="325.644,-136.5852 333.0127,-128.9725 322.5049,-130.3284 325.644,-136.5852"/>
<text text-anchor="middle" x="365.9461" y="-151.0339" font-family="Times,serif" font-size="14.00" fill="#000000">Requiere modificaciones</text>
</g>
<!-- end -->
<g id="node11" class="node">
<title>end</title>
<ellipse fill="none" stroke="#000000" cx="192.1673" cy="-27.9169" rx="23.846" ry="23.846"/>
<ellipse fill="none" stroke="#000000" cx="192.1673" cy="-27.9169" rx="27.8341" ry="27.8341"/>
<text text-anchor="middle" x="192.1673" y="-23.7169" font-family="Times,serif" font-size="14.00" fill="#000000">Fin</text>
</g>
<!-- aprobar&#45;&gt;end -->
<g id="edge10" class="edge">
<title>aprobar-&gt;end</title>
<path fill="none" stroke="#000000" d="M86.7936,-92.6374C108.2139,-79.4811 137.1575,-61.7039 159.2907,-48.1097"/>
<polygon fill="#000000" stroke="#000000" points="161.3244,-50.9681 168.0138,-42.752 157.6609,-45.0033 161.3244,-50.9681"/>
</g>
<!-- rechazar&#45;&gt;end -->
<g id="edge11" class="edge">
<title>rechazar-&gt;end</title>
<path fill="none" stroke="#000000" d="M192.1673,-92.4319C192.1673,-84.667 192.1673,-75.3198 192.1673,-66.1809"/>
<polygon fill="#000000" stroke="#000000" points="195.6674,-66.0466 192.1673,-56.0467 188.6674,-66.0467 195.6674,-66.0466"/>
</g>
<!-- solicitar&#45;&gt;end -->
<g id="edge12" class="edge">
<title>solicitar-&gt;end</title>
<path fill="none" stroke="#000000" d="M330.3239,-92.6374C299.3787,-78.1409 256.4574,-58.0341 226.7016,-44.0948"/>
<polygon fill="#000000" stroke="#000000" points="228.0756,-40.8735 217.5352,-39.8007 225.106,-47.2124 228.0756,-40.8735"/>
</g>
<!-- reasignar&#45;&gt;revisar -->
<g id="edge13" class="edge">
<title>reasignar-&gt;revisar</title>
<path fill="none" stroke="#000000" d="M374.1133,-363.6412C374.3163,-374.9645 372.55,-389.1395 364.1673,-398.4339 353.923,-409.7923 321.5587,-418.5336 290.6358,-424.5568"/>
<polygon fill="#000000" stroke="#000000" points="289.864,-421.1404 280.6765,-426.4167 291.1491,-428.0214 289.864,-421.1404"/>
</g>
</g>
</svg>
